<?xml version="1.0" encoding="UTF-8"?>
<svg width="210px" height="210px" viewBox="0 0 210 210" version="1.1" xmlns="http://www.w3.org/2000/svg" xmlns:xlink="http://www.w3.org/1999/xlink">
    <!-- Generator: Sketch 46.2 (44496) - http://www.bohemiancoding.com/sketch -->
    <title>Group 2 Copy 3</title>
    <desc>Created with Sketch.</desc>
    <defs></defs>
    <g id="Page-1" stroke="none" stroke-width="1" fill="none" fill-rule="evenodd">
        <g id="boat-icons-big" transform="translate(-1200.000000, -96.000000)">
            <g id="Group-2-Copy-3" transform="translate(1200.000000, 96.000000)">
                <rect id="Rectangle-12" fill="#B0BEC5" opacity="0.400000006" x="0" y="0" width="210" height="210"></rect>
                <path d="M105.457216,113.773319 C105.086527,113.773319 104.719659,113.666316 104.401198,113.454857 C104.294195,113.383522 104.194835,113.303269 104.106939,113.2141 C96.7020714,110.294445 88.9367049,108.814235 81.0121076,108.814235 C69.6175532,108.814235 60.780882,111.826882 56.5275095,113.621731 C55.9389926,113.870131 55.2613064,113.807713 54.7288387,113.453583 C54.1950971,113.099454 53.8740879,112.50202 53.8740879,111.861276 L53.8740879,36.157869 C53.8740879,35.503112 54.2091094,34.8954874 54.7606848,34.5439058 C55.9147895,33.8114442 66.4647838,27.3823424 81.0070122,27.3823424 C89.5264957,27.3823424 97.7810191,29.5657148 105.559124,33.8764104 C108.823992,32.0344288 118.293765,27.3823424 130.678098,27.3823424 C139.490566,27.3823424 148.021514,29.7198502 156.034006,34.3298997 C156.626345,34.6712904 157.039071,35.3298689 157.039071,36.0126505 L157.039071,111.694402 C157.039071,112.330051 156.723157,112.924937 156.195785,113.28034 C155.664591,113.635743 154.997096,113.703257 154.409853,113.465048 C146.816455,110.378519 138.833261,108.812962 130.683193,108.812962 C119.287365,108.812962 110.451967,111.825608 106.199869,113.621731 C105.96166,113.723639 105.708164,113.773319 105.457216,113.773319 Z M107.367986,37.2431859 L107.367986,109.061362 C112.434072,107.215558 120.626177,104.992697 130.684467,104.992697 C138.395058,104.992697 145.961704,106.312401 153.218806,108.919965 L153.218806,37.1323613 C146.024123,33.1885334 138.463846,31.2051549 130.679371,31.2051549 C119.017309,31.2051549 110.213758,35.6164843 107.367986,37.2431859 Z M57.6956265,37.2419121 L57.6956265,109.060088 C62.7629867,107.214285 70.9538179,104.991423 81.0121076,104.991423 C88.7226987,104.991423 96.2880714,106.311128 103.546447,108.918691 L103.546447,37.1310875 C96.3759668,33.1949027 88.8054987,31.2051549 81.008286,31.2051549 C69.3602363,31.2051549 60.5464943,35.6164843 57.6956265,37.2419121 Z" id="Shape" fill="#455A64" fill-rule="nonzero"></path>
                <rect id="Rectangle-12-Copy" fill="#78909C" x="0" y="138" width="210" height="72"></rect>
                <path d="M42.3814284,182.89 L34.9564284,182.89 L33.1114284,190 L27.4864284,190 L36.6214284,158.275 L41.0764284,158.275 L50.2564284,190 L44.3164284,190 L42.3814284,182.89 Z M36.1714284,178.21 L41.3914284,178.21 L39.5914284,170.875 L38.8714284,165.925 L38.6914284,165.925 L37.9264284,170.92 L36.1714284,178.21 Z M52.6285713,158.815 C53.8585775,158.544999 55.1785643,158.350001 56.5885713,158.23 C57.9985784,158.109999 59.2135662,158.05 60.2335713,158.05 C61.5235778,158.05 62.7835652,158.177499 64.0135713,158.4325 C65.2435775,158.687501 66.3310666,159.152497 67.2760713,159.8275 C68.221076,160.502503 68.9860684,161.417494 69.5710713,162.5725 C70.1560742,163.727506 70.4485713,165.189991 70.4485713,166.96 C70.4485713,169.510013 69.976076,171.587492 69.0310713,173.1925 C68.0860666,174.797508 66.7885796,175.899997 65.1385713,176.5 L66.9385713,177.94 L72.7435713,190 L66.2185713,190 L60.7285713,177.58 L58.2985713,176.995 L58.2985713,190 L52.6285713,190 L52.6285713,158.815 Z M58.2985713,173.125 L60.2335713,173.125 C61.6435784,173.125 62.7085677,172.697504 63.4285713,171.8425 C64.1485749,170.987496 64.5085713,169.660009 64.5085713,167.86 C64.5085713,166.509993 64.2085743,165.407504 63.6085713,164.5525 C63.0085683,163.697496 62.0635778,163.27 60.7735713,163.27 C60.2935689,163.27 59.8285736,163.285 59.3785713,163.315 C58.9285691,163.345 58.5685727,163.405 58.2985713,163.495 L58.2985713,173.125 Z M92.9357142,163.72 L85.5107142,163.72 L85.5107142,190 L79.8407142,190 L79.8407142,163.72 L72.3707142,163.72 L72.3707142,158.5 L92.9357142,158.5 L92.9357142,163.72 Z M96.2528571,158.5 L101.922857,158.5 L101.922857,190 L96.2528571,190 L96.2528571,158.5 Z M124.77,188.74 C123.989996,189.400003 122.947507,189.879998 121.6425,190.18 C120.337493,190.480002 119.040006,190.63 117.75,190.63 C116.129992,190.63 114.622507,190.352503 113.2275,189.7975 C111.832493,189.242497 110.610005,188.320006 109.56,187.03 C108.509995,185.739994 107.685003,184.04501 107.085,181.945 C106.484997,179.844989 106.185,177.265015 106.185,174.205 C106.185,171.024984 106.522497,168.38501 107.1975,166.285 C107.872503,164.18499 108.757495,162.512506 109.8525,161.2675 C110.947505,160.022494 112.199993,159.145003 113.61,158.635 C115.020007,158.124997 116.444993,157.87 117.885,157.87 C119.355007,157.87 120.637495,157.989999 121.7325,158.23 C122.827505,158.470001 123.719997,158.739999 124.41,159.04 L123.285,164.035 C122.714997,163.734998 122.047504,163.502501 121.2825,163.3375 C120.517496,163.172499 119.610005,163.09 118.56,163.09 C116.48999,163.09 114.900006,163.989991 113.79,165.79 C112.679994,167.590009 112.125,170.409981 112.125,174.25 C112.125,175.900008 112.252499,177.407493 112.5075,178.7725 C112.762501,180.137507 113.167497,181.314995 113.7225,182.305 C114.277503,183.295005 114.982496,184.059997 115.8375,184.6 C116.692504,185.140003 117.719994,185.41 118.92,185.41 C119.970005,185.41 120.869996,185.267501 121.62,184.9825 C122.370004,184.697499 123.044997,184.360002 123.645,183.97 L124.77,188.74 Z M144.647143,190 L127.907143,190 L127.907143,158.5 L133.577143,158.5 L133.577143,184.78 L144.647143,184.78 L144.647143,190 Z M147.424286,158.5 L163.174286,158.5 L163.174286,163.72 L153.094286,163.72 L153.094286,171.46 L162.229286,171.46 L162.229286,176.68 L153.094286,176.68 L153.094286,184.78 L163.354286,184.78 L163.354286,190 L147.424286,190 L147.424286,158.5 Z M178.236429,181.9 C178.236429,180.939995 177.951432,180.122503 177.381429,179.4475 C176.811426,178.772497 176.098933,178.135003 175.243929,177.535 C174.388924,176.934997 173.458934,176.320003 172.453929,175.69 C171.448924,175.059997 170.518933,174.325004 169.663929,173.485 C168.808924,172.644996 168.096432,171.655006 167.526429,170.515 C166.956426,169.374994 166.671429,167.980008 166.671429,166.33 C166.671429,164.799992 166.903926,163.502505 167.368929,162.4375 C167.833931,161.372495 168.471425,160.502503 169.281429,159.8275 C170.091433,159.152497 171.051423,158.657502 172.161429,158.3425 C173.271434,158.027498 174.456422,157.87 175.716429,157.87 C177.246436,157.87 178.671422,158.019998 179.991429,158.32 C181.311435,158.620002 182.406424,159.024997 183.276429,159.535 L181.521429,164.53 C181.011426,164.169998 180.253934,163.840001 179.248929,163.54 C178.243924,163.239999 177.156435,163.09 175.986429,163.09 C174.816423,163.09 173.916432,163.329998 173.286429,163.81 C172.656426,164.290002 172.341429,164.994995 172.341429,165.925 C172.341429,166.765004 172.626426,167.507497 173.196429,168.1525 C173.766432,168.797503 174.478924,169.419997 175.333929,170.02 C176.188933,170.620003 177.118924,171.242497 178.123929,171.8875 C179.128934,172.532503 180.058924,173.282496 180.913929,174.1375 C181.768933,174.992504 182.481426,175.997494 183.051429,177.1525 C183.621432,178.307506 183.906429,179.679992 183.906429,181.27 C183.906429,182.860008 183.673931,184.239994 183.208929,185.41 C182.743926,186.580006 182.083933,187.547496 181.228929,188.3125 C180.373924,189.077504 179.346435,189.654998 178.146429,190.045 C176.946423,190.435002 175.611436,190.63 174.141429,190.63 C172.281419,190.63 170.653936,190.450002 169.258929,190.09 C167.863922,189.729998 166.791432,189.325002 166.041429,188.875 L167.886429,183.79 C168.486432,184.150002 169.311423,184.509998 170.361429,184.87 C171.411434,185.230002 172.536423,185.41 173.736429,185.41 C176.736444,185.41 178.236429,184.240012 178.236429,181.9 Z" id="ARTICLES" fill="#FFFFFF"></path>
            </g>
        </g>
    </g>
</svg>