<svg xmlns="http://www.w3.org/2000/svg" width="210" height="210" viewBox="0 0 210 210">
    <g fill="none" fill-rule="evenodd">
        <path fill="#B0BEC5" d="M0 0h210v210H0z" opacity=".4"/>
        <path fill="#455A64" fill-rule="nonzero" d="M105.457 113.773a1.905 1.905 0 0 1-1.35-.559 62.688 62.688 0 0 0-23.095-4.4c-11.394 0-20.231 3.013-24.484 4.808a1.911 1.911 0 0 1-2.654-1.76V36.157c0-.655.335-1.263.887-1.614 1.154-.733 11.704-7.162 26.246-7.162 8.52 0 16.774 2.184 24.552 6.494 3.265-1.842 12.735-6.494 25.12-6.494 8.812 0 17.343 2.338 25.355 6.948.592.341 1.005 1 1.005 1.683v75.681c0 .636-.316 1.23-.843 1.586a1.914 1.914 0 0 1-1.786.185 62.727 62.727 0 0 0-23.727-4.652c-11.396 0-20.231 3.013-24.483 4.809a1.89 1.89 0 0 1-.743.151zm1.911-76.53v71.818c5.066-1.845 13.258-4.068 23.316-4.068 7.711 0 15.278 1.32 22.535 3.927V37.132c-7.195-3.943-14.755-5.927-22.54-5.927-11.662 0-20.465 4.411-23.311 6.038zm-49.672-.001v71.818c5.067-1.846 13.258-4.069 23.316-4.069 7.71 0 15.276 1.32 22.534 3.928V37.13c-7.17-3.936-14.74-5.926-22.538-5.926-11.648 0-20.462 4.411-23.312 6.037z"/>
        <path fill="#78909C" d="M0 138h210v72H0z"/>
        <text fill="#FFF" font-family="PTSans-NarrowBold, PT Sans Narrow" font-size="45" font-style="condensed" font-weight="bold" letter-spacing=".437">
            <tspan x="27.621" y="190">ARTICLES</tspan>
        </text>
    </g>
</svg>
