<?xml version="1.0" encoding="UTF-8"?>
<svg width="210px" height="210px" viewBox="0 0 210 210" version="1.1" xmlns="http://www.w3.org/2000/svg" xmlns:xlink="http://www.w3.org/1999/xlink">
    <!-- Generator: Sketch 46.2 (44496) - http://www.bohemiancoding.com/sketch -->
    <title>Group 2 Copy 3</title>
    <desc>Created with Sketch.</desc>
    <defs></defs>
    <g id="Page-1" stroke="none" stroke-width="1" fill="none" fill-rule="evenodd">
        <g id="boat-icons-big" transform="translate(-567.000000, -96.000000)">
            <g id="Group-2-Copy-3" transform="translate(567.000000, 96.000000)">
                <rect id="Rectangle-12" fill="#B0BEC5" opacity="0.400000006" x="0" y="0" width="210" height="210"></rect>
                <g id="Page-1" transform="translate(23.000000, 62.000000)" fill="#455A64">
                    <path d="M161.396879,1.99975953 C161.393556,1.05278966 162.096139,0.336670755 163.000002,0.333785118 C163.892946,0.330418541 164.599801,1.04172806 164.603124,1.98917886 C164.606447,2.95201973 163.903865,3.66332925 163.01092,3.66669582 C162.107057,3.66958146 161.399727,2.9626004 161.396879,1.99975953 L161.396879,1.99975953 Z M163.011869,3.99998689 C164.088055,3.99613938 165.003786,3.14680023 164.999988,1.98773604 C164.995716,0.839733467 164.074763,-0.00383440796 162.999052,1.31080029e-05 C161.912897,0.00386062397 160.995742,0.853199773 161.000015,2.00120235 C161.003813,3.16026653 161.925715,4.00383441 163.011869,3.99998689 L163.011869,3.99998689 Z M162.588421,2.15462205 L162.985285,2.15317923 L163.589127,3.15160962 L163.975072,3.1501668 L163.324709,2.13634635 C163.65891,2.09258085 163.913834,1.91222854 163.912409,1.49910152 C163.910985,1.04413275 163.643244,0.844061923 163.106338,0.845985681 L162.238554,0.848871318 L162.246624,3.15593808 L162.591744,3.1549762 L162.588421,2.15462205 Z M162.587472,1.85884426 L162.585098,1.14368723 L163.054119,1.14176347 C163.294801,1.14128253 163.550674,1.19418588 163.551624,1.479383 C163.552573,1.8338354 163.291478,1.85643956 162.999527,1.85740144 L162.587472,1.85884426 L162.587472,1.85884426 Z" id="Fill-1"></path>
                    <path d="M26.0584074,18.9895311 L23.0506543,19 L23.0000238,4.19353175 C22.989998,1.05287151 26.1481387,1.04240264 26.1481387,1.04240264 L38.7812029,1.00002865 C41.9764393,0.989061268 41.9493695,4.13022003 41.9493695,4.13022003 L42,18.9366883 L38.9922469,18.9461601 L38.966681,11.4688961 L27.8374934,11.5057864 L27.8284701,8.81329342 L38.9571565,8.77640312 L38.9446242,4.92535544 C38.9401125,3.69152463 37.7751095,3.69501425 37.7751095,3.69501425 L27.2093743,3.730409 C26.0443712,3.73439714 26.0102834,4.93133765 26.0102834,4.93133765 L26.0584074,18.9895311" id="Fill-4"></path>
                    <path d="M47.0095003,19 L60.960372,18.9526617 C60.960372,18.9526617 65.0104799,18.939706 64.9999796,15.8373059 L64.9499783,1 L61.9498983,1.01046425 L61.9978996,15.0624533 C61.9978996,15.0624533 62.0394007,16.2588655 60.8388687,16.2623536 L47,16.3091936 L47.0095003,19" id="Fill-6"></path>
                    <path d="M50.2762459,9.16723774 L59.990387,9.13319012 L60,11.9622852 L49.2233747,11.9999995 C49.2233747,11.9999995 46.0359221,12.0109995 46.0252972,8.70995204 L46,1.01047619 L49.0356691,1 L49.0584366,7.8749997 C49.0624842,9.21123774 50.2762459,9.16723774 50.2762459,9.16723774" id="Fill-8"></path>
                    <path d="M85,18.9486014 L72.2184455,18.9915813 C72.2184455,18.9915813 69.0616522,19.3019361 69.0511262,16.1539091 L69,1.00999532 L72.0074246,1 L72.0550421,15.0934054 C72.0550421,15.0934054 72.059052,16.2933439 73.2620219,16.2893458 L84.9904765,16.2498642 L85,18.9486014" id="Fill-10"></path>
                    <polygon id="Fill-12" points="88 1.01049359 90.940696 1 91 18.9895064 88.059304 19"></polygon>
                    <polygon id="Fill-14" points="96 1.06526071 99.4507438 1.0543009 112.60958 14.12637 112.564082 1.01095981 115.938142 1 116 18.9347393 112.895353 18.9447028 99.0821533 5.27731651 99.1291856 18.9900365 96.0618578 19"></polygon>
                    <path d="M123.12952,8.82351806 L136.363827,8.77915123 L136.373352,11.4715701 L123.139045,11.5159369 L123.12952,8.82351806 Z M118.039633,15.8703673 C118.039633,15.8703673 118.087258,19.0104425 121.208467,18.9999739 L137,18.9471325 L136.990976,16.2547137 L122.215115,16.3040655 C122.215115,16.3040655 121.049048,16.3080536 121.045037,15.1126415 L121.009945,4.94266626 C121.009945,4.94266626 121.006436,3.74575873 122.172503,3.7417707 L136.948364,3.69241883 L136.93934,1 L121.147808,1.0528414 C121.147808,1.0528414 117.989,1.06380848 118.000029,4.24326548 L118.039633,15.8703673 L118.039633,15.8703673 Z" id="Fill-16"></path>
                    <path d="M144.049124,17.9895314 L141.060265,18 L141,0.052869695 L156.689394,2.83025053e-05 C159.865026,-0.010938779 159.83813,3.16901634 159.83813,3.16901634 L159.852076,7.28167189 C159.862535,10.4965223 156.724756,10.4691046 156.724756,10.4691046 L152.839887,10.4815672 L160,17.9361915 L155.703733,17.9506481 L147.905604,9.60170812 L147.89913,7.80659629 L155.707717,7.78067409 C156.903062,7.77618756 156.861225,6.58027718 156.861225,6.58027718 L156.85226,3.92674197 C156.847777,2.6919483 155.690285,2.69543782 155.690285,2.69543782 L143.997326,2.73481962 L144.049124,17.9895314" id="Fill-18"></path>
                    <path d="M0,1.05287117 L15.7669025,1.00002832 C18.9869916,0.989060931 18.9610272,4.16760857 18.9610272,4.16760857 L18.975008,8.35515564 C18.9800012,9.92548579 17.369707,9.96785978 17.369707,9.96785978 C18.9805005,9.9628746 18.9854937,11.6079824 18.9854937,11.6079824 L18.9999738,15.8329183 C19.0104595,18.9740771 15.8642691,18.9471571 15.8642691,18.9471571 L0.0604172405,19 L0,1.05287117 Z M3.1227225,16.2975366 L14.8816152,16.2581537 C14.8816152,16.2581537 15.9890981,16.2546641 16.0070735,15.0831479 C15.9910954,15.0981035 15.993592,12.8931605 15.9915947,12.365729 C15.9915947,12.365729 15.9880995,11.169287 14.8271897,11.1732751 L4.84636146,11.2071743 L4.83737377,8.51468124 L14.8551514,8.48078205 C15.9786125,8.47729243 15.974618,7.28085041 15.974618,7.28085041 L15.9671282,4.92535518 C15.9626344,3.69102583 14.8022239,3.69501397 14.8022239,3.69501397 L3.08028063,3.73439685 L3.1227225,16.2975366 L3.1227225,16.2975366 Z" id="Fill-20"></path>
                </g>
                <rect id="Rectangle-12-Copy" fill="#F4511E" x="0" y="138" width="210" height="72"></rect>
                <path d="M75.6717857,158.815 C76.7517911,158.574999 77.9367792,158.387501 79.2267857,158.2525 C80.5167921,158.117499 81.8067792,158.05 83.0967857,158.05 C84.4767926,158.05 85.834279,158.177499 87.1692857,158.4325 C88.5042923,158.687501 89.6967804,159.189996 90.7467857,159.94 C91.7967909,160.690004 92.6517824,161.747493 93.3117857,163.1125 C93.971789,164.477507 94.3017857,166.254989 94.3017857,168.445 C94.3017857,170.42501 94.0242884,172.104993 93.4692857,173.485 C92.9142829,174.865007 92.1717903,175.989996 91.2417857,176.86 C90.311781,177.730004 89.2392917,178.359998 88.0242857,178.75 C86.8092796,179.140002 85.5567921,179.335 84.2667857,179.335 L83.6817857,179.335 C83.4117843,179.335 83.1267872,179.3275 82.8267857,179.3125 C82.5267842,179.2975 82.2342871,179.275 81.9492857,179.245 C81.6642842,179.215 81.4617863,179.185 81.3417857,179.155 L81.3417857,190 L75.6717857,190 L75.6717857,158.815 Z M81.3417857,174.07 C81.5217866,174.13 81.8592832,174.1825 82.3542857,174.2275 C82.8492881,174.2725 83.1867848,174.295 83.3667857,174.295 C84.026789,174.295 84.6567827,174.205001 85.2567857,174.025 C85.8567887,173.844999 86.3892833,173.537502 86.8542857,173.1025 C87.319288,172.667498 87.6867843,172.067504 87.9567857,171.3025 C88.226787,170.537496 88.3617857,169.570006 88.3617857,168.4 C88.3617857,167.409995 88.2342869,166.570003 87.9792857,165.88 C87.7242844,165.189997 87.3792878,164.642502 86.9442857,164.2375 C86.5092835,163.832498 86.0067885,163.540001 85.4367857,163.36 C84.8667828,163.179999 84.2667888,163.09 83.6367857,163.09 C82.706781,163.09 81.9417887,163.164999 81.3417857,163.315 L81.3417857,174.07 Z M97.5739286,158.5 C98.1139313,158.41 98.7214252,158.3425 99.3964286,158.2975 C100.071432,158.2525 100.761425,158.2075 101.466429,158.1625 C102.171432,158.1175 102.853925,158.0875 103.513929,158.0725 C104.173932,158.0575 104.758926,158.05 105.268929,158.05 C107.758941,158.05 109.83642,158.432496 111.501429,159.1975 C113.166437,159.962504 114.501424,161.042493 115.506429,162.4375 C116.511434,163.832507 117.223926,165.50499 117.643929,167.455 C118.063931,169.40501 118.273929,171.579988 118.273929,173.98 C118.273929,176.170011 118.071431,178.26249 117.666429,180.2575 C117.261427,182.25251 116.548934,184.007492 115.528929,185.5225 C114.508923,187.037508 113.128937,188.244996 111.388929,189.145 C109.64892,190.045005 107.458942,190.495 104.818929,190.495 C104.428927,190.495 103.903932,190.48 103.243929,190.45 C102.583925,190.42 101.893932,190.3825 101.173929,190.3375 C100.453925,190.2925 99.7639319,190.2475 99.1039286,190.2025 C98.4439253,190.1575 97.9339304,190.105 97.5739286,190.045 L97.5739286,158.5 Z M105.853929,163.27 C105.373926,163.27 104.886431,163.2775 104.391429,163.2925 C103.896426,163.3075 103.51393,163.345 103.243929,163.405 L103.243929,185.095 C103.333929,185.125 103.491427,185.1475 103.716429,185.1625 C103.94143,185.1775 104.181427,185.1925 104.436429,185.2075 C104.69143,185.2225 104.931427,185.2375 105.156429,185.2525 C105.38143,185.2675 105.538928,185.275 105.628929,185.275 C106.978935,185.275 108.088924,184.960003 108.958929,184.33 C109.828933,183.699997 110.511426,182.860005 111.006429,181.81 C111.501431,180.759995 111.846428,179.552507 112.041429,178.1875 C112.23643,176.822493 112.333929,175.390007 112.333929,173.89 C112.333929,172.509993 112.251429,171.175006 112.086429,169.885 C111.921428,168.594994 111.606431,167.462505 111.141429,166.4875 C110.676426,165.512495 110.016433,164.732503 109.161429,164.1475 C108.306424,163.562497 107.203935,163.27 105.853929,163.27 Z M122.086071,158.5 L137.836071,158.5 L137.836071,163.72 L127.756071,163.72 L127.756071,171.91 L137.026071,171.91 L137.026071,177.13 L127.756071,177.13 L127.756071,190 L122.086071,190 L122.086071,158.5 Z" id="PDF" fill="#FFFFFF"></path>
            </g>
        </g>
    </g>
</svg>