<?xml version="1.0" encoding="UTF-8"?>
<svg width="210px" height="210px" viewBox="0 0 210 210" version="1.1" xmlns="http://www.w3.org/2000/svg" xmlns:xlink="http://www.w3.org/1999/xlink">
    <!-- Generator: Sketch 46.2 (44496) - http://www.bohemiancoding.com/sketch -->
    <title>Group 2 Copy 5</title>
    <desc>Created with Sketch.</desc>
    <defs></defs>
    <g id="Page-1" stroke="none" stroke-width="1" fill="none" fill-rule="evenodd">
        <g id="boat-icons-big" transform="translate(-567.000000, -396.000000)">
            <g id="Group-2-Copy-5" transform="translate(567.000000, 396.000000)">
                <rect id="Rectangle-12" fill="#B0BEC5" opacity="0.400000006" x="0" y="0" width="210" height="210"></rect>
                <g id="Page-1" transform="translate(23.000000, 62.000000)" fill="#455A64">
                    <path d="M161.396879,1.99975953 C161.393556,1.05278966 162.096139,0.336670755 163.000002,0.333785118 C163.892946,0.330418541 164.599801,1.04172806 164.603124,1.98917886 C164.606447,2.95201973 163.903865,3.66332925 163.01092,3.66669582 C162.107057,3.66958146 161.399727,2.9626004 161.396879,1.99975953 L161.396879,1.99975953 Z M163.011869,3.99998689 C164.088055,3.99613938 165.003786,3.14680023 164.999988,1.98773604 C164.995716,0.839733467 164.074763,-0.00383440796 162.999052,1.31080029e-05 C161.912897,0.00386062397 160.995742,0.853199773 161.000015,2.00120235 C161.003813,3.16026653 161.925715,4.00383441 163.011869,3.99998689 L163.011869,3.99998689 Z M162.588421,2.15462205 L162.985285,2.15317923 L163.589127,3.15160962 L163.975072,3.1501668 L163.324709,2.13634635 C163.65891,2.09258085 163.913834,1.91222854 163.912409,1.49910152 C163.910985,1.04413275 163.643244,0.844061923 163.106338,0.845985681 L162.238554,0.848871318 L162.246624,3.15593808 L162.591744,3.1549762 L162.588421,2.15462205 Z M162.587472,1.85884426 L162.585098,1.14368723 L163.054119,1.14176347 C163.294801,1.14128253 163.550674,1.19418588 163.551624,1.479383 C163.552573,1.8338354 163.291478,1.85643956 162.999527,1.85740144 L162.587472,1.85884426 L162.587472,1.85884426 Z" id="Fill-1"></path>
                    <path d="M26.0584074,18.9895311 L23.0506543,19 L23.0000238,4.19353175 C22.989998,1.05287151 26.1481387,1.04240264 26.1481387,1.04240264 L38.7812029,1.00002865 C41.9764393,0.989061268 41.9493695,4.13022003 41.9493695,4.13022003 L42,18.9366883 L38.9922469,18.9461601 L38.966681,11.4688961 L27.8374934,11.5057864 L27.8284701,8.81329342 L38.9571565,8.77640312 L38.9446242,4.92535544 C38.9401125,3.69152463 37.7751095,3.69501425 37.7751095,3.69501425 L27.2093743,3.730409 C26.0443712,3.73439714 26.0102834,4.93133765 26.0102834,4.93133765 L26.0584074,18.9895311" id="Fill-4"></path>
                    <path d="M47.0095003,19 L60.960372,18.9526617 C60.960372,18.9526617 65.0104799,18.939706 64.9999796,15.8373059 L64.9499783,1 L61.9498983,1.01046425 L61.9978996,15.0624533 C61.9978996,15.0624533 62.0394007,16.2588655 60.8388687,16.2623536 L47,16.3091936 L47.0095003,19" id="Fill-6"></path>
                    <path d="M50.2762459,9.16723774 L59.990387,9.13319012 L60,11.9622852 L49.2233747,11.9999995 C49.2233747,11.9999995 46.0359221,12.0109995 46.0252972,8.70995204 L46,1.01047619 L49.0356691,1 L49.0584366,7.8749997 C49.0624842,9.21123774 50.2762459,9.16723774 50.2762459,9.16723774" id="Fill-8"></path>
                    <path d="M85,18.9486014 L72.2184455,18.9915813 C72.2184455,18.9915813 69.0616522,19.3019361 69.0511262,16.1539091 L69,1.00999532 L72.0074246,1 L72.0550421,15.0934054 C72.0550421,15.0934054 72.059052,16.2933439 73.2620219,16.2893458 L84.9904765,16.2498642 L85,18.9486014" id="Fill-10"></path>
                    <polygon id="Fill-12" points="88 1.01049359 90.940696 1 91 18.9895064 88.059304 19"></polygon>
                    <polygon id="Fill-14" points="96 1.06526071 99.4507438 1.0543009 112.60958 14.12637 112.564082 1.01095981 115.938142 1 116 18.9347393 112.895353 18.9447028 99.0821533 5.27731651 99.1291856 18.9900365 96.0618578 19"></polygon>
                    <path d="M123.12952,8.82351806 L136.363827,8.77915123 L136.373352,11.4715701 L123.139045,11.5159369 L123.12952,8.82351806 Z M118.039633,15.8703673 C118.039633,15.8703673 118.087258,19.0104425 121.208467,18.9999739 L137,18.9471325 L136.990976,16.2547137 L122.215115,16.3040655 C122.215115,16.3040655 121.049048,16.3080536 121.045037,15.1126415 L121.009945,4.94266626 C121.009945,4.94266626 121.006436,3.74575873 122.172503,3.7417707 L136.948364,3.69241883 L136.93934,1 L121.147808,1.0528414 C121.147808,1.0528414 117.989,1.06380848 118.000029,4.24326548 L118.039633,15.8703673 L118.039633,15.8703673 Z" id="Fill-16"></path>
                    <path d="M144.049124,17.9895314 L141.060265,18 L141,0.052869695 L156.689394,2.83025053e-05 C159.865026,-0.010938779 159.83813,3.16901634 159.83813,3.16901634 L159.852076,7.28167189 C159.862535,10.4965223 156.724756,10.4691046 156.724756,10.4691046 L152.839887,10.4815672 L160,17.9361915 L155.703733,17.9506481 L147.905604,9.60170812 L147.89913,7.80659629 L155.707717,7.78067409 C156.903062,7.77618756 156.861225,6.58027718 156.861225,6.58027718 L156.85226,3.92674197 C156.847777,2.6919483 155.690285,2.69543782 155.690285,2.69543782 L143.997326,2.73481962 L144.049124,17.9895314" id="Fill-18"></path>
                    <path d="M0,1.05287117 L15.7669025,1.00002832 C18.9869916,0.989060931 18.9610272,4.16760857 18.9610272,4.16760857 L18.975008,8.35515564 C18.9800012,9.92548579 17.369707,9.96785978 17.369707,9.96785978 C18.9805005,9.9628746 18.9854937,11.6079824 18.9854937,11.6079824 L18.9999738,15.8329183 C19.0104595,18.9740771 15.8642691,18.9471571 15.8642691,18.9471571 L0.0604172405,19 L0,1.05287117 Z M3.1227225,16.2975366 L14.8816152,16.2581537 C14.8816152,16.2581537 15.9890981,16.2546641 16.0070735,15.0831479 C15.9910954,15.0981035 15.993592,12.8931605 15.9915947,12.365729 C15.9915947,12.365729 15.9880995,11.169287 14.8271897,11.1732751 L4.84636146,11.2071743 L4.83737377,8.51468124 L14.8551514,8.48078205 C15.9786125,8.47729243 15.974618,7.28085041 15.974618,7.28085041 L15.9671282,4.92535518 C15.9626344,3.69102583 14.8022239,3.69501397 14.8022239,3.69501397 L3.08028063,3.73439685 L3.1227225,16.2975366 L3.1227225,16.2975366 Z" id="Fill-20"></path>
                </g>
                <rect id="Rectangle-12-Copy" fill="#455A64" x="0" y="138" width="210" height="72"></rect>
                <path d="M65.5146428,176.995 L66.1446428,182.395 L66.3246428,182.395 L67.0446428,176.95 L71.6346428,158.5 L77.6196428,158.5 L68.0796428,190.225 L63.7596428,190.225 L54.1296428,158.5 L60.8346428,158.5 L65.5146428,176.995 Z M80.1717857,158.5 L85.8417857,158.5 L85.8417857,190 L80.1717857,190 L80.1717857,158.5 Z M90.8239286,158.5 C91.3639313,158.41 91.9714252,158.3425 92.6464286,158.2975 C93.3214319,158.2525 94.011425,158.2075 94.7164286,158.1625 C95.4214321,158.1175 96.1039253,158.0875 96.7639286,158.0725 C97.4239319,158.0575 98.008926,158.05 98.5189286,158.05 C101.008941,158.05 103.08642,158.432496 104.751429,159.1975 C106.416437,159.962504 107.751424,161.042493 108.756429,162.4375 C109.761434,163.832507 110.473926,165.50499 110.893929,167.455 C111.313931,169.40501 111.523929,171.579988 111.523929,173.98 C111.523929,176.170011 111.321431,178.26249 110.916429,180.2575 C110.511427,182.25251 109.798934,184.007492 108.778929,185.5225 C107.758923,187.037508 106.378937,188.244996 104.638929,189.145 C102.89892,190.045005 100.708942,190.495 98.0689286,190.495 C97.6789266,190.495 97.1539319,190.48 96.4939286,190.45 C95.8339253,190.42 95.1439322,190.3825 94.4239286,190.3375 C93.703925,190.2925 93.0139319,190.2475 92.3539286,190.2025 C91.6939253,190.1575 91.1839304,190.105 90.8239286,190.045 L90.8239286,158.5 Z M99.1039286,163.27 C98.6239262,163.27 98.136431,163.2775 97.6414286,163.2925 C97.1464261,163.3075 96.7639299,163.345 96.4939286,163.405 L96.4939286,185.095 C96.583929,185.125 96.7414274,185.1475 96.9664286,185.1625 C97.1914297,185.1775 97.4314273,185.1925 97.6864286,185.2075 C97.9414298,185.2225 98.1814274,185.2375 98.4064286,185.2525 C98.6314297,185.2675 98.7889281,185.275 98.8789286,185.275 C100.228935,185.275 101.338924,184.960003 102.208929,184.33 C103.078933,183.699997 103.761426,182.860005 104.256429,181.81 C104.751431,180.759995 105.096428,179.552507 105.291429,178.1875 C105.48643,176.822493 105.583929,175.390007 105.583929,173.89 C105.583929,172.509993 105.501429,171.175006 105.336429,169.885 C105.171428,168.594994 104.856431,167.462505 104.391429,166.4875 C103.926426,165.512495 103.266433,164.732503 102.411429,164.1475 C101.556424,163.562497 100.453935,163.27 99.1039286,163.27 Z M115.336071,158.5 L131.086071,158.5 L131.086071,163.72 L121.006071,163.72 L121.006071,171.46 L130.141071,171.46 L130.141071,176.68 L121.006071,176.68 L121.006071,184.78 L131.266071,184.78 L131.266071,190 L115.336071,190 L115.336071,158.5 Z M134.403214,174.25 C134.403214,168.909973 135.318205,164.845014 137.148214,162.055 C138.978223,159.264986 141.768196,157.87 145.518214,157.87 C147.468224,157.87 149.148207,158.252496 150.558214,159.0175 C151.968221,159.782504 153.12321,160.877493 154.023214,162.3025 C154.923219,163.727507 155.590712,165.45249 156.025714,167.4775 C156.460717,169.50251 156.678214,171.759988 156.678214,174.25 C156.678214,179.590027 155.740724,183.654986 153.865714,186.445 C151.990705,189.235014 149.208233,190.63 145.518214,190.63 C143.538204,190.63 141.850721,190.247504 140.455714,189.4825 C139.060707,188.717496 137.913219,187.622507 137.013214,186.1975 C136.11321,184.772493 135.453216,183.04751 135.033214,181.0225 C134.613212,178.99749 134.403214,176.740012 134.403214,174.25 Z M140.343214,174.25 C140.343214,175.840008 140.433213,177.317493 140.613214,178.6825 C140.793215,180.047507 141.093212,181.224995 141.513214,182.215 C141.933216,183.205005 142.465711,183.984997 143.110714,184.555 C143.755718,185.125003 144.55821,185.41 145.518214,185.41 C147.258223,185.41 148.56321,184.525009 149.433214,182.755 C150.303219,180.984991 150.738214,178.150019 150.738214,174.25 C150.738214,172.719992 150.648215,171.272507 150.468214,169.9075 C150.288213,168.542493 149.995716,167.357505 149.590714,166.3525 C149.185712,165.347495 148.653218,164.552503 147.993214,163.9675 C147.333211,163.382497 146.508219,163.09 145.518214,163.09 C142.068197,163.09 140.343214,166.809963 140.343214,174.25 Z" id="VIDEO" fill="#FFFFFF"></path>
            </g>
        </g>
    </g>
</svg>