<svg xmlns="http://www.w3.org/2000/svg" width="210" height="210" viewBox="0 0 210 210">
    <g fill="none" fill-rule="evenodd">
        <path fill="#B0BEC5" d="M0 0h210v210H0z" opacity=".4"/>
        <g fill="#455A64">
            <path d="M184.397 64c-.003-.947.7-1.663 1.603-1.666.893-.004 1.6.708 1.603 1.655.003.963-.7 1.674-1.592 1.678-.904.003-1.611-.704-1.614-1.667zm1.615 2A1.984 1.984 0 0 0 188 63.988 1.981 1.981 0 0 0 186 62c-1.087.004-2.004.853-2 2.001A1.986 1.986 0 0 0 186.012 66zm-.424-1.845l.397-.002.604.999.386-.002-.65-1.014c.334-.043.589-.224.587-.637-.001-.455-.269-.655-.806-.653l-.867.003.008 2.307.345-.001-.004-1zm0-.296l-.003-.715.47-.002c.24 0 .496.052.497.337 0 .355-.26.377-.552.378l-.413.002zM49.058 80.99l-3.007.01L46 66.194c-.01-3.141 3.148-3.152 3.148-3.152L61.781 63c3.195-.01 3.168 3.13 3.168 3.13L65 80.937l-3.008.01-.025-7.478-11.13.037-.009-2.693 11.13-.037-.013-3.85c-.005-1.234-1.17-1.231-1.17-1.231l-10.566.035c-1.165.004-1.199 1.201-1.199 1.201l.048 14.059M70.01 81l13.95-.047s4.05-.013 4.04-3.116L87.95 63l-3 .01.048 14.052s.041 1.197-1.16 1.2L70 78.31 70.01 81"/>
            <path d="M73.276 71.167l9.714-.034.01 2.83L72.223 74s-3.187.011-3.198-3.29L69 63.01l3.036-.01.022 6.875c.004 1.336 1.218 1.292 1.218 1.292M108 80.949l-12.782.043s-3.156.31-3.167-2.838L92 63.01l3.007-.01.048 14.093s.004 1.2 1.207 1.196l11.728-.04.01 2.7M111 63.01l2.94-.01.06 17.99-2.94.01zM119 63.065l3.45-.01 13.16 13.071-.046-13.115 3.374-.011.062 17.935-3.105.01-13.813-13.668.047 13.713-3.067.01zM146.13 70.824l13.234-.045.01 2.693-13.235.044-.01-2.692zm-5.09 7.046s.047 3.14 3.168 3.13L160 80.947l-.009-2.692-14.776.05s-1.166.003-1.17-1.192l-.035-10.17s-.004-1.197 1.163-1.201l14.775-.05L159.94 63l-15.791.053s-3.159.01-3.148 3.19l.04 11.627zM167.05 79.99l-2.99.01-.06-17.947L179.69 62c3.175-.01 3.148 3.169 3.148 3.169l.014 4.113c.01 3.215-3.127 3.187-3.127 3.187l-3.885.013 7.16 7.454-4.296.015-7.798-8.35-.007-1.794 7.809-.026c1.195-.005 1.153-1.2 1.153-1.2l-.009-2.654c-.004-1.235-1.162-1.232-1.162-1.232l-11.693.04.052 15.255M23 63.053L38.767 63c3.22-.01 3.194 3.168 3.194 3.168l.014 4.187c.005 1.57-1.605 1.613-1.605 1.613 1.61-.005 1.615 1.64 1.615 1.64L42 77.833c.01 3.141-3.136 3.114-3.136 3.114L23.06 81 23 63.053zm3.123 15.245l11.759-.04s1.107-.003 1.125-1.175c-.016.015-.013-2.19-.015-2.717 0 0-.004-1.197-1.165-1.193l-9.98.034-.01-2.692 10.018-.034c1.124-.004 1.12-1.2 1.12-1.2l-.008-2.356c-.004-1.234-1.165-1.23-1.165-1.23l-11.722.04.043 12.563z"/>
        </g>
        <path fill="#F4511E" d="M0 138h210v72H0z"/>
        <text fill="#FFF" font-family="PTSans-NarrowBold, PT Sans Narrow" font-size="45" font-style="condensed" font-weight="bold" letter-spacing=".437">
            <tspan x="73.647" y="190">PDF</tspan>
        </text>
    </g>
</svg>
