<svg xmlns="http://www.w3.org/2000/svg" width="210" height="210" viewBox="0 0 210 210">
    <g fill="none" fill-rule="evenodd">
        <path fill="#B0BEC5" d="M0 0h210v210H0z" opacity=".4"/>
        <g fill="#455A64">
            <path d="M87.176 65l.56.509s-3.546 4.098 1.958 6.193c0-.055-.794 7.872 5.959 12.287-.06 0 6.722 5.333 17.05 2.097-.008 0 .297.6.297.6s-9.52 4.61-19.561.816c.005.022-6.64-2.21-9.533-9.173.058 0-3.56-7.123 3.27-13.329"/>
            <path d="M117.661 81.033c-4.172 1.424-6.593 1.37-6.593 1.37-6.143.303-9.964-3.314-9.964-3.314-4.05-3.452-3.907-8.559-3.907-8.559-2.321 0-3.453-1.988-3.453-1.988-1.02-2.208.621-4.031.621-4.017L93.764 64c-4.054 3.63-3.76 8.131-3.76 8.186.058 5.8 4.533 9.113 4.533 9.113 4.642 3.92 10.87 3.698 10.927 3.698 5.544.11 12.387-3.372 12.536-3.448"/>
            <path d="M122.716 77.233c-1.42.634-3.974 1.356-6.15 1.307-5.57-.123-9.689-3.29-10.981-8.095-5.086-3.518-2.08-6.496-1.596-6.95L103.5 63c-1.354.372-3.225 2.022-3.168 2.022-3.673 3.576-1.91 8.252-1.894 8.305 1.048 3.439 5.048 5.83 5.108 5.83 7.687 4.756 18.977-1.166 19.455-1.405M101.132 56.677c.263-.146.524-.286.789-.421-.454-.692-4.82-8.377-2.842-15.517 2.088-7.55 10.135-11.38 11.097-11.656 0 .027.136.305.136.305-.025 0-7.593 3.136-10.19 11.793 0 0-1.687 7.964 2.856 14.561a25.5 25.5 0 0 1 3.342-1.262 22.926 22.926 0 0 1 7-.966c2.076.042 4.1.474 6.02 1.282a17.075 17.075 0 0 1 4.289 2.608c.767.598 1.5 1.304 2.153 2.14 1.365 1.631 2.162 3.402 2.4 4.902l.796-.011c-.057 0 .375-7.323-10.28-14.928-2.217-1.585-5.42-3.609-6.435-7.327-1.019-3.718.846-6.16.846-6.16-.01 0 .297.22.297.22s-.974 2 1.284 3.498c.058 0 .905.554 1.81 1.055.902.5 1.75.998 1.578 2.497-.007 0-.472 1.332.34 1.818-.005 0 .755.373 1.348.486 0 0 .558-2.233.488-2.942 0 0 1.354 1.153 1.507 3.551-.013 0 .947 0 1.116-.096.171-.097.31-.139.691-.75-.012 0 .171-.36.78-.527.015 0 .55-.306.425-.93-.13-.624-.82-6.658-3.644-14.93 0-.026 1.44-.11 2.357-.068-.013 0-.41-1.166-.41-1.166s-1.453-.498-3.6-.638c-.015 0-.326-.095-.056-.195.269-.095.24-.11.735-.193 0 .015-1.2-2.705-2.557-4.47 0-.012-3.064-.08-5.22.446a23.242 23.242 0 0 0-8.26 3.829c-.015 0 1.723 1.456 1.753 3.455 0 0-2.009-1.984-3.053-2.483-.013 0-5.218 3.871-7.364 8.792-.018.005 2.354.518 3.483 2.224-.013 0-2.556-.707-4.065-.694.013 0-.793 2.512-.819 4.982-.03 2.469.846 4.663.846 4.663s1.158-1.002 2.695-.599c0-.014-1.424 1.056-2.046 1.889 0 .027 1.497 1.289 2.738 3.122 1.228 1.806 1.958 2.954 2.846 4.811"/>
            <path d="M126.783 62.628c-.738-1.243-1.755-2.46-2.947-3.52a16.343 16.343 0 0 0-4.477-2.857 15.46 15.46 0 0 0-5.764-1.246 21.856 21.856 0 0 0-6.79.95c-1.8.542-3.58 1.316-5.288 2.3-.824.473-1.552.95-2.173 1.391A38.943 38.943 0 0 0 97 61.543l.677.631s3.3-2.495 7.287-2.324c3.99.172 8.093 1.82 8.547 5.69.457 3.867-3.017 6.996-7.01 5.743-.054 0 1.54 6.087 9.976 6.713-.056 0 6.897.34 10.145-5.46 0-.05 2.64-4.362.612-9.075a11.292 11.292 0 0 0-.451-.833M82.738 111H84V97.284h-2.832v8.68L70.266 97H69v13.699h2.836v-8.675M176.999 110c4.456 0 8.001-1.967 8.001-6.427V97h-3.174v6.473c0 2.612-1.644 4.798-4.827 4.798-3.18 0-4.824-2.186-4.824-4.798V97H169v6.573c0 4.46 3.547 6.427 7.999 6.427M161.446 110H165l-8.139-13h-1.724L147 110h3.444l1.665-2.802 7.716.002 1.621 2.8zm-5.502-9.313l2.825 4.75h-5.636l2.81-4.75zM125 97h-14v1.781h5.413V110h3.167V98.781H125M143.366 98.777V97H130v13h14v-1.799h-10.778v-3.997h8.39v-1.79h-8.39v-3.637M63.365 98.777V97H50v13h14v-1.799H53.22v-3.997h8.39v-1.79h-8.39v-3.637M105.364 98.777V97H92v13h14v-1.799H95.221v-3.997h8.39v-1.79h-8.39v-3.637M39.534 101.939c1.882-.509 3.17-1.78 3.17-3.635 0-2.793-2.71-4.3-7.046-4.3L26 94v17h10.291c4.323 0 7.709-1.507 7.709-4.89 0-2.599-2.364-3.934-4.466-4.171zm-10.08-.726v-5.171h5.709c2.875-.032 3.898 1.383 3.898 2.653 0 .665-.249 2.49-4.076 2.518h-5.531zm0 7.758v-5.946h6.956c2.62.043 3.918 1.522 3.932 3.145.018 1.948-1.907 2.86-4.046 2.801h-6.842z"/>
        </g>
        <path fill="#F4511E" d="M0 138h210v72H0z"/>
        <text fill="#FFF" font-family="PTSans-NarrowBold, PT Sans Narrow" font-size="45" font-style="condensed" font-weight="bold" letter-spacing=".437">
            <tspan x="73.647" y="190">PDF</tspan>
        </text>
    </g>
</svg>
