<?xml version="1.0" encoding="UTF-8"?>
<svg width="210px" height="210px" viewBox="0 0 210 210" version="1.1" xmlns="http://www.w3.org/2000/svg" xmlns:xlink="http://www.w3.org/1999/xlink">
    <!-- Generator: Sketch 46.2 (44496) - http://www.bohemiancoding.com/sketch -->
    <title>Group 2 Copy 4</title>
    <desc>Created with Sketch.</desc>
    <defs></defs>
    <g id="Page-1" stroke="none" stroke-width="1" fill="none" fill-rule="evenodd">
        <g id="boat-icons-big" transform="translate(-804.000000, -96.000000)">
            <g id="Group-2-Copy-4" transform="translate(804.000000, 96.000000)">
                <rect id="Rectangle-12" fill="#B0BEC5" opacity="0.400000006" x="0" y="0" width="210" height="210"></rect>
                <g id="Page-1" transform="translate(26.000000, 22.000000)" fill="#455A64">
                    <path d="M61.1763531,43 L61.73634,43.5089382 C61.73634,43.5089382 58.1904327,47.6074431 63.6942652,49.7019195 C63.6942652,49.6472458 62.8995978,57.5735869 69.6525799,61.9893344 C69.5930644,61.9893344 76.3751279,67.3217107 86.7024224,64.0858358 C86.694983,64.0858358 87,64.6865718 87,64.6865718 C87,64.6865718 77.4795465,69.2960399 67.4390085,65.5019529 C67.444419,65.5242274 60.7989707,63.2927292 57.9063814,56.3289157 C57.9638679,56.3289157 54.3462714,49.206481 61.1763531,43" id="Fill-1"></path>
                    <path d="M91.6611955,59.0329486 C87.4889056,60.4573526 85.0680056,60.4033779 85.0680056,60.4033779 C78.9249803,60.7055043 75.1036433,57.0892033 75.1036433,57.0892033 C71.0548618,53.636801 71.1972677,48.5302733 71.1972677,48.5302733 C68.8755794,48.5302733 67.7437563,46.5417686 67.7437563,46.5417686 C66.7246431,44.3340741 68.3653479,42.5107844 68.3653479,42.5252654 L67.7640036,42 C63.7098228,45.6301237 64.0047582,50.1310822 64.0047582,50.1863733 C64.0621255,55.9853561 68.5367748,59.2988725 68.5367748,59.2988725 C73.1788017,63.2186162 79.4068656,62.9974518 79.463558,62.9974518 C85.0079387,63.1073758 91.850845,59.624695 92,59.5489988" id="Fill-3"></path>
                    <path d="M96.7161755,55.233206 C95.2963691,55.8671478 92.7419487,56.5889367 90.5657329,56.5404241 C84.9966176,56.4171758 80.8774009,53.2507448 79.5848027,48.4447187 C74.4992149,44.926899 77.5050188,41.9492737 77.9892303,41.4956153 L77.4995475,41 C76.1453969,41.372367 74.2735231,43.0217957 74.3309719,43.0217957 C70.6583514,46.5979617 72.420115,51.2735282 72.4372128,51.3272854 C73.4849697,54.7657804 77.4845014,57.1566653 77.5446859,57.1566653 C85.2318842,61.9128677 96.5219438,55.9910516 97,55.752422" id="Fill-5"></path>
                    <g id="Group-9" transform="translate(68.000000, 0.000000)">
                        <path d="M7.132125,34.6771846 C7.39529808,34.5309846 7.65577885,34.3914 7.92097115,34.2557846 C7.46664423,33.5638154 3.10174038,25.8787231 5.07856731,18.7387385 C7.167125,11.1886 15.2144327,7.35961538 16.1762596,7.08309231 C16.1762596,7.11021538 16.3122212,7.38806154 16.3122212,7.38806154 C16.2866442,7.38806154 8.71856731,10.5237538 6.12250962,19.1813077 C6.12250962,19.1813077 4.43510577,27.1449077 8.978375,33.7424308 C10.0754904,33.239 11.1934712,32.8156154 12.3202019,32.4795538 C14.6355865,31.7915538 16.9886635,31.4674 19.3202019,31.5143692 C21.3959712,31.5560462 23.4205865,31.9880308 25.3395288,32.7957692 C26.8842404,33.4447385 28.3259712,34.3226 29.6290481,35.4035538 C30.3956827,36.0015846 31.1293365,36.7081077 31.7822212,37.5436308 C33.1465481,39.1749846 33.9441442,40.9459231 34.1817404,42.4456308 L34.9779904,42.4350462 C34.9207788,42.4350462 35.3528942,35.1124769 24.6980865,27.5067692 C22.4809712,25.9217231 19.2777981,23.8980769 18.2627981,20.1802308 C17.2444327,16.4617231 19.1088558,14.0199846 19.1088558,14.0199846 C19.0994327,14.0199846 19.4063558,14.2402769 19.4063558,14.2402769 C19.4063558,14.2402769 18.4324135,16.2394462 20.6899135,17.7378308 C20.7484712,17.7378308 21.5945288,18.2922 22.4991442,18.7929846 C23.4017404,19.2937692 24.2498173,19.7905846 24.0781827,21.2902923 C24.0714519,21.2902923 23.6063558,22.6219692 24.4187596,23.1082 C24.413375,23.1082 25.1726058,23.4806462 25.7662596,23.5944308 C25.7662596,23.5944308 26.3235673,21.3610769 26.2535673,20.6519077 C26.2535673,20.6519077 27.6084712,21.8049692 27.7612596,24.2030462 C27.7484712,24.2030462 28.7082788,24.2030462 28.8772212,24.1071231 C29.0481827,24.0098769 29.1861635,23.9682 29.5684712,23.3576 C29.5556827,23.3576 29.7394327,22.9977231 30.3478942,22.8296923 C30.3627019,22.8296923 30.8977981,22.5240615 30.7732788,21.9008923 C30.6427019,21.2757385 29.9527981,15.2418462 27.1285673,6.97063077 C27.1285673,6.94350769 28.5682788,6.86081538 29.4856827,6.90249231 C29.4728942,6.90249231 29.0757788,5.7362 29.0757788,5.7362 C29.0757788,5.7362 27.6232788,5.23806154 25.4754904,5.09847692 C25.4613558,5.09847692 25.1503942,5.00321538 25.4202981,4.90332308 C25.6888558,4.80806154 25.6599135,4.79350769 26.154625,4.71015385 C26.154625,4.72470769 24.9552019,2.00512308 23.5982788,0.2408 C23.5982788,0.228230769 20.5337596,0.160092308 18.3772212,0.686015385 C16.2166442,1.21326154 13.1790481,2.26841538 10.1178942,4.515 C10.1030865,4.515 11.8409712,5.97104615 11.8705865,7.97021538 C11.8705865,7.97021538 9.862125,5.9856 8.81818269,5.4868 C8.80539423,5.4868 3.59981731,9.35812308 1.45404808,14.2786462 C1.435875,14.2839385 3.80779808,14.7972923 4.93654808,16.5034 C4.92375962,16.5034 2.380875,15.7962154 0.871836538,15.8094462 C0.884625,15.8094462 0.0789519231,18.3213077 0.053375,20.7914923 C0.0237596154,23.2596923 0.899432692,25.4540154 0.899432692,25.4540154 C0.899432692,25.4540154 2.057125,24.4524462 3.59443269,24.8553231 C3.59443269,24.8407692 2.16952885,25.9111385 1.54827885,26.7440154 C1.54827885,26.7711385 3.04452885,28.0326923 4.28568269,29.8664769 C5.51404808,31.6718154 6.24433654,32.8195846 7.132125,34.6771846" id="Fill-7"></path>
                    </g>
                    <path d="M100.782981,40.628107 C100.044572,39.3852304 99.0276448,38.168798 97.8361353,37.1076405 C96.4931398,35.9068034 94.9857512,34.9459981 93.3588042,34.2509908 C91.521271,33.4671581 89.5825207,33.0467634 87.5948601,33.004724 C85.3347963,32.956582 83.0502773,33.2766244 80.8051583,33.9546803 C79.0049872,34.4971251 77.2258747,35.271465 75.5167311,36.2553242 C74.6927283,36.7279292 73.9651875,37.2052805 73.343619,37.6460169 C72.6106436,38.19253 71.8240028,38.822444 71,39.5425394 L71.6772719,40.1744875 C71.6772719,40.1744875 74.9766798,37.6792416 78.9642286,37.8501117 C82.9538153,38.022338 87.0568467,39.670692 87.511305,43.5396792 C87.9678012,47.4073103 84.4938107,50.5358604 80.5008275,49.2834911 C80.447162,49.2834911 82.0415022,55.3697213 90.4771718,55.996245 C90.4214684,55.996245 97.3742046,56.3366291 100.621985,50.5358604 C100.621985,50.4856843 103.261783,46.1739265 101.234043,41.4614377 C101.098181,41.1854689 100.950092,40.9061099 100.782981,40.628107" id="Fill-10"></path>
                    <polyline id="Fill-12" points="56.7384032 89 58 89 58 75.2841632 55.1677773 75.2841632 55.1677773 83.9631224 44.2655168 75 43 75 43 88.6987186 45.8361427 88.6987186 45.8361427 80.0238677"></polyline>
                    <path d="M150.999019,88 C155.454542,88 159,86.0329204 159,81.5727345 L159,75 L155.82589,75 L155.82589,81.473374 C155.82589,84.0846738 154.181629,86.2706065 150.999019,86.2706065 C147.818371,86.2706065 146.175418,84.0846738 146.175418,81.473374 L146.175418,75 L143,75 L143,81.5727345 C143,86.0329204 146.546766,88 150.999019,88" id="Fill-14"></path>
                    <path d="M135.446014,88 L139,88 L130.861419,75 L129.137235,75 L121,88 L124.444332,88 L126.108644,85.1978225 L133.824756,85.1997703 L135.446014,88 Z M129.943828,78.6871098 L132.768584,83.4370474 L127.132526,83.4370474 L129.943828,78.6871098 Z" id="Fill-16"></path>
                    <polyline id="Fill-18" points="99 75 85 75 85 76.7810856 90.412933 76.7810856 90.412933 88 93.5798872 88 93.5798872 76.7810856 99 76.7810856"></polyline>
                    <polyline id="Fill-20" points="117.365898 76.7768304 117.365898 75 104 75 104 88 118 88 118 86.2012662 107.221585 86.2012662 107.221585 82.2035638 115.612167 82.2035638 115.612167 80.4141223 107.221585 80.4141223 107.221585 76.7768304"></polyline>
                    <polyline id="Fill-22" points="37.3646312 76.7768304 37.3646312 75 24 75 24 88 38 88 38 86.2012662 27.2206168 86.2012662 27.2206168 82.2035638 35.6104031 82.2035638 35.6104031 80.4141223 27.2206168 80.4141223 27.2206168 76.7768304"></polyline>
                    <polyline id="Fill-24" points="79.3639981 76.7768304 79.3639981 75 66 75 66 88 80 88 80 86.2012662 69.2211274 86.2012662 69.2211274 82.2035638 77.6105163 82.2035638 77.6105163 80.4141223 69.2211274 80.4141223 69.2211274 76.7768304"></polyline>
                    <path d="M13.5343105,79.938718 C15.4157229,79.4301417 16.7041972,78.1590433 16.7041972,76.3040747 C16.7041972,73.51067 13.9946702,72.0034225 9.65756163,72.0034225 L0,72 L0,89 L10.2911392,89 C14.6135909,89 18,87.4927525 18,84.1106861 C18,81.5109921 15.6362425,80.1762361 13.5343105,79.938718 L13.5343105,79.938718 Z M3.45369753,79.2131583 L3.45369753,74.0418344 L9.16255829,74.0418344 C12.0379747,74.0096634 13.0612925,75.4251892 13.0612925,76.6949187 C13.0612925,77.3602432 12.8121252,79.1850942 8.98467688,79.2131583 L3.45369753,79.2131583 Z M3.45369753,86.9711709 L3.45369753,81.025004 L10.4097268,81.025004 C13.02998,81.0681269 14.3277815,82.5473104 14.3417722,84.1702368 C14.3604264,86.118296 12.4350433,87.0307215 10.296469,86.9711709 L3.45369753,86.9711709 Z" id="Fill-26"></path>
                </g>
                <rect id="Rectangle-12-Copy" fill="#F4511E" x="0" y="138" width="210" height="72"></rect>
                <path d="M75.6717857,158.815 C76.7517911,158.574999 77.9367792,158.387501 79.2267857,158.2525 C80.5167921,158.117499 81.8067792,158.05 83.0967857,158.05 C84.4767926,158.05 85.834279,158.177499 87.1692857,158.4325 C88.5042923,158.687501 89.6967804,159.189996 90.7467857,159.94 C91.7967909,160.690004 92.6517824,161.747493 93.3117857,163.1125 C93.971789,164.477507 94.3017857,166.254989 94.3017857,168.445 C94.3017857,170.42501 94.0242884,172.104993 93.4692857,173.485 C92.9142829,174.865007 92.1717903,175.989996 91.2417857,176.86 C90.311781,177.730004 89.2392917,178.359998 88.0242857,178.75 C86.8092796,179.140002 85.5567921,179.335 84.2667857,179.335 L83.6817857,179.335 C83.4117843,179.335 83.1267872,179.3275 82.8267857,179.3125 C82.5267842,179.2975 82.2342871,179.275 81.9492857,179.245 C81.6642842,179.215 81.4617863,179.185 81.3417857,179.155 L81.3417857,190 L75.6717857,190 L75.6717857,158.815 Z M81.3417857,174.07 C81.5217866,174.13 81.8592832,174.1825 82.3542857,174.2275 C82.8492881,174.2725 83.1867848,174.295 83.3667857,174.295 C84.026789,174.295 84.6567827,174.205001 85.2567857,174.025 C85.8567887,173.844999 86.3892833,173.537502 86.8542857,173.1025 C87.319288,172.667498 87.6867843,172.067504 87.9567857,171.3025 C88.226787,170.537496 88.3617857,169.570006 88.3617857,168.4 C88.3617857,167.409995 88.2342869,166.570003 87.9792857,165.88 C87.7242844,165.189997 87.3792878,164.642502 86.9442857,164.2375 C86.5092835,163.832498 86.0067885,163.540001 85.4367857,163.36 C84.8667828,163.179999 84.2667888,163.09 83.6367857,163.09 C82.706781,163.09 81.9417887,163.164999 81.3417857,163.315 L81.3417857,174.07 Z M97.5739286,158.5 C98.1139313,158.41 98.7214252,158.3425 99.3964286,158.2975 C100.071432,158.2525 100.761425,158.2075 101.466429,158.1625 C102.171432,158.1175 102.853925,158.0875 103.513929,158.0725 C104.173932,158.0575 104.758926,158.05 105.268929,158.05 C107.758941,158.05 109.83642,158.432496 111.501429,159.1975 C113.166437,159.962504 114.501424,161.042493 115.506429,162.4375 C116.511434,163.832507 117.223926,165.50499 117.643929,167.455 C118.063931,169.40501 118.273929,171.579988 118.273929,173.98 C118.273929,176.170011 118.071431,178.26249 117.666429,180.2575 C117.261427,182.25251 116.548934,184.007492 115.528929,185.5225 C114.508923,187.037508 113.128937,188.244996 111.388929,189.145 C109.64892,190.045005 107.458942,190.495 104.818929,190.495 C104.428927,190.495 103.903932,190.48 103.243929,190.45 C102.583925,190.42 101.893932,190.3825 101.173929,190.3375 C100.453925,190.2925 99.7639319,190.2475 99.1039286,190.2025 C98.4439253,190.1575 97.9339304,190.105 97.5739286,190.045 L97.5739286,158.5 Z M105.853929,163.27 C105.373926,163.27 104.886431,163.2775 104.391429,163.2925 C103.896426,163.3075 103.51393,163.345 103.243929,163.405 L103.243929,185.095 C103.333929,185.125 103.491427,185.1475 103.716429,185.1625 C103.94143,185.1775 104.181427,185.1925 104.436429,185.2075 C104.69143,185.2225 104.931427,185.2375 105.156429,185.2525 C105.38143,185.2675 105.538928,185.275 105.628929,185.275 C106.978935,185.275 108.088924,184.960003 108.958929,184.33 C109.828933,183.699997 110.511426,182.860005 111.006429,181.81 C111.501431,180.759995 111.846428,179.552507 112.041429,178.1875 C112.23643,176.822493 112.333929,175.390007 112.333929,173.89 C112.333929,172.509993 112.251429,171.175006 112.086429,169.885 C111.921428,168.594994 111.606431,167.462505 111.141429,166.4875 C110.676426,165.512495 110.016433,164.732503 109.161429,164.1475 C108.306424,163.562497 107.203935,163.27 105.853929,163.27 Z M122.086071,158.5 L137.836071,158.5 L137.836071,163.72 L127.756071,163.72 L127.756071,171.91 L137.026071,171.91 L137.026071,177.13 L127.756071,177.13 L127.756071,190 L122.086071,190 L122.086071,158.5 Z" id="PDF" fill="#FFFFFF"></path>
            </g>
        </g>
    </g>
</svg>