<svg xmlns="http://www.w3.org/2000/svg" width="210" height="210" viewBox="0 0 210 210">
    <g fill="none" fill-rule="evenodd">
        <path fill="#B0BEC5" d="M0 0h210v210H0z" opacity=".4"/>
        <g fill="#455A64">
            <path d="M122.42 53.56c0 1.64-.167 3.18-1.038 4.73-1.223 2.178-3.217 3.83-6.835 4.812l-9.38 2.544V79.87c0 1.664-1.44 2.064-1.44 2.064l-4.31 1.194V64.022c0-.694.438-2.954 3.21-3.705l10.41-2.821c1.946-.528 3.63-1.374 3.63-3.286v-3.307l-23.001 6.231v15.474c0 1.663-1.44 2.063-1.44 2.063l-4.31 1.195V51.068c0-4.287 1.62-7.075 3.841-9.15 2.898-2.708 7.66-3.987 7.66-3.987l23.002-6.23v4.346c0 1.672-1.442 2.063-1.442 2.063l-20.707 5.608c-5.76 1.647-6.604 5.25-6.604 7.076v.32l28.751-7.786.002 10.233M39.817 101.978c-2.551 0-4.332-1.953-4.332-4.748 0-2.402 1.326-4.105 3.454-4.443.247-.036.502-.054.758-.054.257 0 .523.019.777.053 2.13.35 3.619 2.177 3.619 4.444 0 2.795-1.76 4.748-4.276 4.748m.954-11.392c-.806-.093-1.455-.093-2.157.003-3.219.512-5.467 3.22-5.467 6.583 0 4.153 2.743 7.053 6.67 7.053 3.758 0 6.593-3.032 6.593-7.053a6.635 6.635 0 0 0-5.639-6.586M169.153 101.978c-2.551 0-4.333-1.953-4.333-4.748 0-2.402 1.327-4.105 3.455-4.443a5.21 5.21 0 0 1 .759-.054c.256 0 .522.019.776.053 2.13.35 3.618 2.177 3.618 4.444 0 2.795-1.758 4.748-4.275 4.748m.953-11.392c-.806-.093-1.455-.093-2.155.003-3.219.512-5.469 3.22-5.469 6.583 0 4.153 2.744 7.053 6.671 7.053 3.758 0 6.593-3.032 6.593-7.053a6.634 6.634 0 0 0-5.64-6.586M58.896 90.636h-1.829v7.526c0 2.578-1.55 3.753-3.369 3.753-1.818 0-3.368-1.175-3.368-3.753v-7.526H48.5a.513.513 0 0 0-.508.514v7.012c0 3.98 2.668 6.063 5.705 6.063 3.039 0 5.706-2.083 5.706-6.063V91.15a.513.513 0 0 0-.508-.514M98.235 91.15v12.991h1.828c.28 0 .509-.231.509-.513V90.636h-1.828a.513.513 0 0 0-.51.514M160.36 90.636h-1.827l-.002 12.178c0 1.523-1.376 2.767-3.052 2.767h-1.18v1.695c0 .283.228.515.507.515h.662c1.494 0 3.016-.611 4.032-1.675.997-1.047 1.37-2.089 1.37-3.302V91.15a.513.513 0 0 0-.51-.514M126.258 90.636h-9.493c-.28 0-.51.231-.51.514v12.477c0 .283.23.514.51.514h9.493c.28 0 .509-.23.509-.514v-1.731h-8.23V98.46h6.704c.28 0 .508-.23.508-.515v-1.732h-7.213v-3.33h8.23V91.15a.513.513 0 0 0-.508-.514M81.17 92.883h4.978V91.15a.513.513 0 0 0-.508-.514H74.43c-.174 0-.33.09-.42.228a.51.51 0 0 0-.088.286v1.733h4.94v11.258h2.308V92.883zM186.807 90.636h-11.209a.513.513 0 0 0-.509.514v1.733h4.94v11.258h2.308V92.883h4.979V91.15a.513.513 0 0 0-.51-.514M72.6 90.636h-1.85l.003 9.264-7.506-9.264h-1.353a.512.512 0 0 0-.509.514v12.477c0 .283.229.514.509.514h1.848V95.1l7.34 9.041H72.6c.28 0 .509-.23.509-.514V91.15a.513.513 0 0 0-.51-.514M113.767 90.636h-1.849l.002 9.264-7.506-9.264h-1.353a.512.512 0 0 0-.508.514v12.477c0 .283.228.514.508.514h1.848V95.1l7.34 9.041h1.518c.28 0 .509-.23.509-.514V91.15a.513.513 0 0 0-.509-.514M87.97 98.93l2.443-4.868 2.449 4.868h-4.893zm3.36-8.024a.51.51 0 0 0-.447-.27h-.94a.51.51 0 0 0-.449.272l-6.325 12.485a.52.52 0 0 0-.056.234.51.51 0 0 0 .508.514h1.731l1.617-3.22h6.893l1.619 3.22h1.73a.511.511 0 0 0 .453-.748l-6.335-12.487z"/>
            <path d="M149.8 94.062l2.448 4.867h-4.891l2.443-4.867zm3.449 6.858l1.62 3.222h1.73a.512.512 0 0 0 .452-.749l-6.335-12.487a.508.508 0 0 0-.447-.27h-.94a.51.51 0 0 0-.448.272l-6.325 12.484a.511.511 0 0 0 .452.75h1.73l1.619-3.222h6.892zM138.745 98.013h-3.065v-5.13h3.065c1.978 0 3.047 1.002 3.047 2.565s-1.07 2.565-3.047 2.565m5.306-2.565c0-2.858-2.036-4.812-5.306-4.812h-4.837c-.28 0-.509.23-.509.515v12.99h1.772c.28 0 .509-.23.509-.513v-3.368h3.065c3.27 0 5.306-1.955 5.306-4.812M33.258 92.368a.513.513 0 0 1-.509.515h-7.47v3.33h6.312v1.733a.511.511 0 0 1-.51.514H25.28v5.168a.512.512 0 0 1-.509.514H23V91.15c0-.283.23-.514.509-.514h9.75v1.732zM187.315 102.939c0-.657-.433-1.204-1.159-1.204-.72 0-1.15.547-1.15 1.204 0 .65.43 1.202 1.15 1.202.726 0 1.16-.546 1.16-1.202zm-.23 0c0 .557-.367.981-.929.981-.551 0-.92-.43-.92-.981 0-.58.369-.982.92-.982.562 0 .93.424.93.982zm-1.352-.542v1.043h.183v-.316h.307l.224.316h.189v-.047l-.22-.31a.34.34 0 0 0 .21-.32c0-.223-.169-.366-.429-.366h-.464zm.464.18c.148 0 .236.056.236.186 0 .124-.099.185-.241.185h-.276v-.371h.281z"/>
        </g>
        <path fill="#455A64" d="M0 138h210v72H0z"/>
        <text fill="#FFF" font-family="PTSans-NarrowBold, PT Sans Narrow" font-size="45" font-style="condensed" font-weight="bold" letter-spacing=".437">
            <tspan x="54.58" y="190">VIDEO</tspan>
        </text>
    </g>
</svg>
