<?xml version="1.0" encoding="UTF-8"?>
<svg width="210px" height="210px" viewBox="0 0 210 210" version="1.1" xmlns="http://www.w3.org/2000/svg" xmlns:xlink="http://www.w3.org/1999/xlink">
    <!-- Generator: Sketch 46.2 (44496) - http://www.bohemiancoding.com/sketch -->
    <title>Group 2 Copy</title>
    <desc>Created with Sketch.</desc>
    <defs></defs>
    <g id="Page-1" stroke="none" stroke-width="1" fill="none" fill-rule="evenodd">
        <g id="boat-icons-big" transform="translate(-330.000000, -96.000000)">
            <g id="Group-2-Copy" transform="translate(330.000000, 96.000000)">
                <rect id="Rectangle-12" fill="#B0BEC5" opacity="0.400000006" x="0" y="0" width="210" height="210"></rect>
                <g id="Page-1" transform="translate(23.000000, 31.000000)" fill="#455A64">
                    <g id="Group-3" transform="translate(64.474790, 0.398080)">
                        <path d="M34.9446429,22.1626322 C34.9446429,23.8026111 34.7782563,25.3416682 33.9068067,26.8912379 C32.6838655,29.0694663 30.6906933,30.7220604 27.0717857,31.7039451 L17.692437,34.2480149 L17.692437,48.4723785 C17.692437,50.1361862 16.2518067,50.5356682 16.2518067,50.5356682 L11.9430882,51.7299092 L11.9430882,32.6241555 C11.9430882,31.9303183 12.3805462,29.670091 15.1529622,28.9187845 C15.1529622,28.9187845 25.5555882,26.0999832 25.562521,26.0978807 C27.5078571,25.5701439 29.192521,24.7235223 29.192521,22.8116153 L29.192521,19.5050255 L6.19096639,25.7362443 L6.19096639,41.2102158 C6.19096639,42.8733225 4.75033613,43.2728045 4.75033613,43.2728045 L0.441617647,44.4677464 L0.441617647,19.6697242 C0.441617647,15.3826513 2.06111345,12.5953881 4.28237395,10.520184 C7.18027311,7.81211638 11.9417017,6.53307304 11.9417017,6.53307304 L34.9439496,0.302555074 L34.9439496,4.64919989 C34.9439496,6.32071681 33.5026261,6.71178869 33.5026261,6.71178869 L12.7951261,12.3199557 C7.03607143,13.966943 6.19096639,17.5699906 6.19096639,19.3963944 L6.19096639,19.7152792 L34.942563,11.9302855 C34.942563,11.9302855 34.9446429,22.1556238 34.9446429,22.1626322" id="Fill-1"></path>
                    </g>
                    <path d="M16.8171744,70.9779346 C14.2659139,70.9779346 12.4848845,69.0253785 12.4848845,66.2297052 C12.4848845,63.8279071 13.8111239,62.1248521 15.938792,61.7870445 C16.186292,61.7506005 16.4414181,61.7330794 16.6972374,61.7330794 C16.9544433,61.7330794 17.2199685,61.7520022 17.4744013,61.7856428 C19.6048424,62.1360656 21.0926155,63.9631703 21.0926155,66.2297052 C21.0926155,69.0253785 19.333771,70.9779346 16.8171744,70.9779346 M17.7711239,59.5863891 C16.9648424,59.4931766 16.3159349,59.4931766 15.6143382,59.5891925 C12.3954517,60.1008098 10.1471534,62.8081766 10.1471534,66.1722358 C10.1471534,70.3247464 12.8897584,73.2248458 16.8171744,73.2248458 C20.5754307,73.2248458 23.4102416,70.1929874 23.4102416,66.1722358 C23.4102416,62.8712527 21.046166,60.1029124 17.7711239,59.5863891" id="Fill-4"></path>
                    <path d="M146.152979,70.9779346 C143.601718,70.9779346 141.819996,69.0253785 141.819996,66.2297052 C141.819996,63.8279071 143.146929,62.1248521 145.27529,61.7870445 C145.522097,61.7506005 145.777223,61.7330794 146.033735,61.7330794 C146.290248,61.7330794 146.556466,61.7520022 146.810206,61.7856428 C148.940647,62.1360656 150.42842,63.9631703 150.42842,66.2297052 C150.42842,69.0253785 148.669576,70.9779346 146.152979,70.9779346 M147.106235,59.5863891 C146.299954,59.4931766 145.651046,59.4931766 144.950836,59.5891925 C141.73195,60.1008098 139.482265,62.8081766 139.482265,66.1722358 C139.482265,70.3247464 142.225563,73.2248458 146.152979,73.2248458 C149.911235,73.2248458 152.746046,70.1929874 152.746046,66.1722358 C152.746046,62.8712527 150.382664,60.1029124 147.106235,59.5863891" id="Fill-6"></path>
                    <path d="M35.895542,59.6360791 L34.0673697,59.6360791 L34.0673697,67.1617598 C34.0673697,69.740171 32.517895,70.9154892 30.698042,70.9154892 C28.8795756,70.9154892 27.3301008,69.740171 27.3301008,67.1617598 L27.3294076,59.6360791 L25.5012353,59.6360791 C25.2218445,59.6360791 24.993063,59.8673581 24.993063,60.1504998 L24.993063,67.1617598 C24.993063,71.1418624 27.6607941,73.2247757 30.698042,73.2247757 C33.7366765,73.2247757 36.4044076,71.1418624 36.4044076,67.1617598 L36.4044076,60.1504998 C36.4044076,59.8673581 36.1749328,59.6360791 35.895542,59.6360791" id="Fill-8"></path>
                    <path d="M75.2349391,60.1504297 L75.2349391,73.141305 L77.0631113,73.141305 C77.3425021,73.141305 77.5719769,72.9100259 77.5719769,72.6275851 L77.5719769,59.636009 L75.7438046,59.636009 C75.4637206,59.636009 75.2349391,59.8679889 75.2349391,60.1504297" id="Fill-10"></path>
                    <g id="Group-14" transform="translate(131.029412, 59.269116)">
                        <path d="M6.33135504,0.366962791 L4.50318277,0.366962791 L4.50179622,12.5448571 C4.50179622,14.0677947 3.12564076,15.3117958 1.44929622,15.3117958 L0.268644958,15.3117958 L0.268644958,17.0064406 C0.268644958,17.2902831 0.497426471,17.5215622 0.776817227,17.5215622 L1.43820378,17.5215622 C2.93290966,17.5215622 4.45465336,16.9104247 5.47030462,15.846541 C6.46723739,14.8001784 6.84022059,13.7580209 6.84022059,12.5448571 L6.84022059,0.88138351 C6.84022059,0.59824186 6.6107458,0.366962791 6.33135504,0.366962791" id="Fill-12"></path>
                    </g>
                    <path d="M103.257832,59.6360791 L93.7647857,59.6360791 C93.4847017,59.6360791 93.2552269,59.8673581 93.2552269,60.1504998 L93.2552269,72.6269543 C93.2552269,72.910096 93.4847017,73.1413751 93.7647857,73.1413751 L103.257832,73.1413751 C103.537223,73.1413751 103.766697,72.910096 103.766697,72.6269543 L103.766697,70.8958655 L95.5361092,70.8958655 L95.5361092,67.4603201 L102.240794,67.4603201 C102.521571,67.4603201 102.748966,67.2297419 102.748966,66.9451985 L102.748966,65.2134089 L95.5361092,65.2134089 L95.5361092,61.8829903 L103.766697,61.8829903 L103.766697,60.1504998 C103.766697,59.8673581 103.537223,59.6360791 103.257832,59.6360791" id="Fill-15"></path>
                    <path d="M58.1704034,61.8827099 L63.1481345,61.8827099 L63.1481345,60.1502195 C63.1481345,60.0086486 63.0912857,59.8810947 62.9990798,59.7878822 C62.9068739,59.6939689 62.7793109,59.6357987 62.6399622,59.6357987 L51.4303613,59.6357987 C51.2556555,59.6357987 51.1003613,59.7262078 51.009542,59.8642744 C50.9547731,59.9448717 50.9221891,60.0443918 50.9221891,60.1502195 L50.9221891,61.8827099 L55.8610966,61.8827099 L55.8610966,73.1410947 L58.1704034,73.1410947 L58.1704034,61.8827099 Z" id="Fill-17"></path>
                    <path d="M163.80687,59.6360791 L163.80687,59.6360791 L152.597962,59.6360791 L152.597269,59.6360791 C152.317878,59.6360791 152.089097,59.8673581 152.089097,60.1504998 L152.089097,61.8829903 L157.028697,61.8829903 L157.029391,73.1413751 L159.337311,73.1413751 L159.337311,61.8829903 L164.314349,61.8829903 L164.315735,61.8829903 L164.315735,60.1504998 C164.315735,59.8673581 164.086261,59.6360791 163.80687,59.6360791" id="Fill-19"></path>
                    <path d="M49.5999013,59.6360791 L47.7509307,59.6360791 L47.7530105,68.8998571 L40.2468971,59.6360791 L38.8936197,59.6360791 C38.6135357,59.6360791 38.3854475,59.8673581 38.3854475,60.1504998 L38.3854475,72.6269543 C38.3854475,72.910096 38.6135357,73.1413751 38.8936197,73.1413751 L40.7418971,73.1413751 L40.7418971,64.0997651 L48.0823172,73.1413751 L49.5999013,73.1413751 C49.879292,73.1413751 50.1087668,72.910096 50.1087668,72.6269543 L50.1087668,60.1504998 C50.1087668,59.8673581 49.879292,59.6360791 49.5999013,59.6360791" id="Fill-21"></path>
                    <path d="M90.7669853,59.6360791 L88.9180147,59.6360791 L88.9200945,68.8998571 L81.4139811,59.6360791 L80.0607038,59.6360791 C79.7806197,59.6360791 79.5525315,59.8673581 79.5525315,60.1504998 L79.5525315,72.6269543 C79.5525315,72.910096 79.7806197,73.1413751 80.0607038,73.1413751 L81.9089811,73.1413751 L81.9089811,64.0997651 L89.2494013,73.1413751 L90.7669853,73.1413751 C91.0463761,73.1413751 91.2758508,72.910096 91.2758508,72.6269543 L91.2758508,60.1504998 C91.2758508,59.8673581 91.0463761,59.6360791 90.7669853,59.6360791" id="Fill-23"></path>
                    <path d="M64.969166,67.9295363 L67.4129685,63.0621631 L69.8616239,67.9295363 L64.969166,67.9295363 Z M68.3294811,59.9055542 C68.2428214,59.7457614 68.0750483,59.6357286 67.8830105,59.6357286 L66.9422332,59.6357286 C66.7501954,59.6357286 66.5803424,59.7464623 66.4943761,59.9076568 L60.1689139,72.3925215 C60.1335567,72.462606 60.1134517,72.5425024 60.1134517,72.6273048 C60.1134517,72.9111473 60.3408466,73.1410246 60.6209307,73.1410246 L62.3520441,73.1410246 L63.9694601,69.9206388 L70.8620231,69.9206388 L72.4808256,73.1410246 L74.2112458,73.1410246 C74.4927164,73.1410246 74.7201113,72.9111473 74.7201113,72.6273048 C74.7201113,72.5432033 74.7006996,72.4640077 74.6639559,72.3932223 L68.3294811,59.9055542 Z" id="Fill-25"></path>
                    <path d="M126.800489,63.0619529 L129.248452,67.929326 L124.356687,67.929326 L126.800489,63.0619529 Z M130.248851,69.9204285 L131.868347,73.1415152 L133.598767,73.1415152 C133.879544,73.1415152 134.107632,72.9116378 134.107632,72.6270945 C134.107632,72.542993 134.086834,72.4637975 134.051477,72.3930121 L127.716309,59.9060448 C127.630342,59.7455512 127.461876,59.6362192 127.269145,59.6362192 L126.329754,59.6362192 C126.13633,59.6362192 125.967863,59.746252 125.881204,59.9081474 L119.556435,72.3923112 C119.520384,72.4623958 119.500279,72.542993 119.500279,72.6270945 C119.500279,72.9116378 119.727674,73.1415152 120.008452,73.1415152 L121.738872,73.1415152 L123.356981,69.9204285 L130.248851,69.9204285 Z" id="Fill-27"></path>
                    <path d="M115.744588,67.01276 L112.679609,67.01276 L112.679609,61.8825698 L115.744588,61.8825698 C117.722508,61.8825698 118.791542,62.8854799 118.791542,64.4476649 C118.791542,66.0105507 117.722508,67.01276 115.744588,67.01276 M121.050933,64.4476649 C121.050933,61.5896163 119.014777,59.6363594 115.744588,59.6363594 L110.908286,59.6363594 C110.628895,59.6363594 110.39942,59.8669376 110.39942,60.1507801 L110.39942,73.1416554 L112.170744,73.1416554 C112.450134,73.1416554 112.679609,72.9103763 112.679609,72.6279355 L112.679609,72.0231057 L112.679609,69.2596712 L115.744588,69.2596712 C119.014777,69.2596712 121.050933,67.3050127 121.050933,64.4476649" id="Fill-29"></path>
                    <path d="M10.2581471,61.3683593 C10.2581471,61.6508001 10.0293655,61.88278 9.74928151,61.88278 L2.27921849,61.88278 L2.27921849,65.2131986 L8.59081513,65.2131986 L8.59081513,66.9456891 C8.59081513,67.2302325 8.36342017,67.4601098 8.08194958,67.4601098 L2.27921849,67.4601098 L2.27921849,72.6281458 C2.27921849,72.9105866 2.05113025,73.1418656 1.77035294,73.1418656 L0.000415966387,73.1418656 L0.000415966387,60.1495887 C0.000415966387,59.8671479 0.229890756,59.6358688 0.508588235,59.6358688 L10.2581471,59.6358688 L10.2581471,61.3683593 Z" id="Fill-31"></path>
                    <path d="M164.315319,71.9385136 C164.315319,71.2818212 163.882021,70.7351616 163.15616,70.7351616 C162.436538,70.7351616 162.006706,71.2818212 162.006706,71.9385136 C162.006706,72.5888984 162.436538,73.1411648 163.15616,73.1411648 C163.882021,73.1411648 164.315319,72.5945052 164.315319,71.9385136 L164.315319,71.9385136 Z M164.085845,71.9385136 C164.085845,72.4956859 163.718408,72.9203984 163.15616,72.9203984 C162.605004,72.9203984 162.236181,72.49078 162.236181,71.9385136 C162.236181,71.3596151 162.605004,70.9573297 163.15616,70.9573297 C163.718408,70.9573297 164.085845,71.3806405 164.085845,71.9385136 L164.085845,71.9385136 Z M162.732567,71.3967599 L162.732567,72.4396183 L162.915592,72.4396183 L162.915592,72.1242377 L163.222714,72.1242377 L163.447336,72.4396183 L163.635908,72.4396183 L163.635908,72.3926616 L163.416832,72.0835887 C163.544395,72.0261193 163.626202,71.9125823 163.626202,71.7626014 C163.626202,71.5404333 163.457042,71.3967599 163.197063,71.3967599 L162.732567,71.3967599 Z M163.197063,71.5768773 C163.345424,71.5768773 163.432777,71.6329449 163.432777,71.7626014 C163.432777,71.8873519 163.334332,71.9483255 163.191517,71.9483255 L162.915592,71.9483255 L162.915592,71.5768773 L163.197063,71.5768773 Z" id="Fill-33"></path>
                </g>
                <rect id="Rectangle-12-Copy" fill="#F4511E" x="0" y="138" width="210" height="72"></rect>
                <path d="M75.6717857,158.815 C76.7517911,158.574999 77.9367792,158.387501 79.2267857,158.2525 C80.5167921,158.117499 81.8067792,158.05 83.0967857,158.05 C84.4767926,158.05 85.834279,158.177499 87.1692857,158.4325 C88.5042923,158.687501 89.6967804,159.189996 90.7467857,159.94 C91.7967909,160.690004 92.6517824,161.747493 93.3117857,163.1125 C93.971789,164.477507 94.3017857,166.254989 94.3017857,168.445 C94.3017857,170.42501 94.0242884,172.104993 93.4692857,173.485 C92.9142829,174.865007 92.1717903,175.989996 91.2417857,176.86 C90.311781,177.730004 89.2392917,178.359998 88.0242857,178.75 C86.8092796,179.140002 85.5567921,179.335 84.2667857,179.335 L83.6817857,179.335 C83.4117843,179.335 83.1267872,179.3275 82.8267857,179.3125 C82.5267842,179.2975 82.2342871,179.275 81.9492857,179.245 C81.6642842,179.215 81.4617863,179.185 81.3417857,179.155 L81.3417857,190 L75.6717857,190 L75.6717857,158.815 Z M81.3417857,174.07 C81.5217866,174.13 81.8592832,174.1825 82.3542857,174.2275 C82.8492881,174.2725 83.1867848,174.295 83.3667857,174.295 C84.026789,174.295 84.6567827,174.205001 85.2567857,174.025 C85.8567887,173.844999 86.3892833,173.537502 86.8542857,173.1025 C87.319288,172.667498 87.6867843,172.067504 87.9567857,171.3025 C88.226787,170.537496 88.3617857,169.570006 88.3617857,168.4 C88.3617857,167.409995 88.2342869,166.570003 87.9792857,165.88 C87.7242844,165.189997 87.3792878,164.642502 86.9442857,164.2375 C86.5092835,163.832498 86.0067885,163.540001 85.4367857,163.36 C84.8667828,163.179999 84.2667888,163.09 83.6367857,163.09 C82.706781,163.09 81.9417887,163.164999 81.3417857,163.315 L81.3417857,174.07 Z M97.5739286,158.5 C98.1139313,158.41 98.7214252,158.3425 99.3964286,158.2975 C100.071432,158.2525 100.761425,158.2075 101.466429,158.1625 C102.171432,158.1175 102.853925,158.0875 103.513929,158.0725 C104.173932,158.0575 104.758926,158.05 105.268929,158.05 C107.758941,158.05 109.83642,158.432496 111.501429,159.1975 C113.166437,159.962504 114.501424,161.042493 115.506429,162.4375 C116.511434,163.832507 117.223926,165.50499 117.643929,167.455 C118.063931,169.40501 118.273929,171.579988 118.273929,173.98 C118.273929,176.170011 118.071431,178.26249 117.666429,180.2575 C117.261427,182.25251 116.548934,184.007492 115.528929,185.5225 C114.508923,187.037508 113.128937,188.244996 111.388929,189.145 C109.64892,190.045005 107.458942,190.495 104.818929,190.495 C104.428927,190.495 103.903932,190.48 103.243929,190.45 C102.583925,190.42 101.893932,190.3825 101.173929,190.3375 C100.453925,190.2925 99.7639319,190.2475 99.1039286,190.2025 C98.4439253,190.1575 97.9339304,190.105 97.5739286,190.045 L97.5739286,158.5 Z M105.853929,163.27 C105.373926,163.27 104.886431,163.2775 104.391429,163.2925 C103.896426,163.3075 103.51393,163.345 103.243929,163.405 L103.243929,185.095 C103.333929,185.125 103.491427,185.1475 103.716429,185.1625 C103.94143,185.1775 104.181427,185.1925 104.436429,185.2075 C104.69143,185.2225 104.931427,185.2375 105.156429,185.2525 C105.38143,185.2675 105.538928,185.275 105.628929,185.275 C106.978935,185.275 108.088924,184.960003 108.958929,184.33 C109.828933,183.699997 110.511426,182.860005 111.006429,181.81 C111.501431,180.759995 111.846428,179.552507 112.041429,178.1875 C112.23643,176.822493 112.333929,175.390007 112.333929,173.89 C112.333929,172.509993 112.251429,171.175006 112.086429,169.885 C111.921428,168.594994 111.606431,167.462505 111.141429,166.4875 C110.676426,165.512495 110.016433,164.732503 109.161429,164.1475 C108.306424,163.562497 107.203935,163.27 105.853929,163.27 Z M122.086071,158.5 L137.836071,158.5 L137.836071,163.72 L127.756071,163.72 L127.756071,171.91 L137.026071,171.91 L137.026071,177.13 L127.756071,177.13 L127.756071,190 L122.086071,190 L122.086071,158.5 Z" id="PDF" fill="#FFFFFF"></path>
            </g>
        </g>
    </g>
</svg>