<?xml version="1.0" encoding="UTF-8"?>
<svg width="210px" height="210px" viewBox="0 0 210 210" version="1.1" xmlns="http://www.w3.org/2000/svg" xmlns:xlink="http://www.w3.org/1999/xlink">
    <!-- Generator: Sketch 46.2 (44496) - http://www.bohemiancoding.com/sketch -->
    <title>Group 2 Copy 6</title>
    <desc>Created with Sketch.</desc>
    <defs></defs>
    <g id="Page-1" stroke="none" stroke-width="1" fill="none" fill-rule="evenodd">
        <g id="boat-icons-big" transform="translate(-330.000000, -396.000000)">
            <g id="Group-2-Copy-6" transform="translate(330.000000, 396.000000)">
                <rect id="Rectangle-12" fill="#B0BEC5" opacity="0.400000006" x="0" y="0" width="210" height="210"></rect>
                <g id="Page-1" transform="translate(23.000000, 31.000000)" fill="#455A64">
                    <g id="Group-3" transform="translate(64.474790, 0.398080)">
                        <path d="M34.9446429,22.1626322 C34.9446429,23.8026111 34.7782563,25.3416682 33.9068067,26.8912379 C32.6838655,29.0694663 30.6906933,30.7220604 27.0717857,31.7039451 L17.692437,34.2480149 L17.692437,48.4723785 C17.692437,50.1361862 16.2518067,50.5356682 16.2518067,50.5356682 L11.9430882,51.7299092 L11.9430882,32.6241555 C11.9430882,31.9303183 12.3805462,29.670091 15.1529622,28.9187845 C15.1529622,28.9187845 25.5555882,26.0999832 25.562521,26.0978807 C27.5078571,25.5701439 29.192521,24.7235223 29.192521,22.8116153 L29.192521,19.5050255 L6.19096639,25.7362443 L6.19096639,41.2102158 C6.19096639,42.8733225 4.75033613,43.2728045 4.75033613,43.2728045 L0.441617647,44.4677464 L0.441617647,19.6697242 C0.441617647,15.3826513 2.06111345,12.5953881 4.28237395,10.520184 C7.18027311,7.81211638 11.9417017,6.53307304 11.9417017,6.53307304 L34.9439496,0.302555074 L34.9439496,4.64919989 C34.9439496,6.32071681 33.5026261,6.71178869 33.5026261,6.71178869 L12.7951261,12.3199557 C7.03607143,13.966943 6.19096639,17.5699906 6.19096639,19.3963944 L6.19096639,19.7152792 L34.942563,11.9302855 C34.942563,11.9302855 34.9446429,22.1556238 34.9446429,22.1626322" id="Fill-1"></path>
                    </g>
                    <path d="M16.8171744,70.9779346 C14.2659139,70.9779346 12.4848845,69.0253785 12.4848845,66.2297052 C12.4848845,63.8279071 13.8111239,62.1248521 15.938792,61.7870445 C16.186292,61.7506005 16.4414181,61.7330794 16.6972374,61.7330794 C16.9544433,61.7330794 17.2199685,61.7520022 17.4744013,61.7856428 C19.6048424,62.1360656 21.0926155,63.9631703 21.0926155,66.2297052 C21.0926155,69.0253785 19.333771,70.9779346 16.8171744,70.9779346 M17.7711239,59.5863891 C16.9648424,59.4931766 16.3159349,59.4931766 15.6143382,59.5891925 C12.3954517,60.1008098 10.1471534,62.8081766 10.1471534,66.1722358 C10.1471534,70.3247464 12.8897584,73.2248458 16.8171744,73.2248458 C20.5754307,73.2248458 23.4102416,70.1929874 23.4102416,66.1722358 C23.4102416,62.8712527 21.046166,60.1029124 17.7711239,59.5863891" id="Fill-4"></path>
                    <path d="M146.152979,70.9779346 C143.601718,70.9779346 141.819996,69.0253785 141.819996,66.2297052 C141.819996,63.8279071 143.146929,62.1248521 145.27529,61.7870445 C145.522097,61.7506005 145.777223,61.7330794 146.033735,61.7330794 C146.290248,61.7330794 146.556466,61.7520022 146.810206,61.7856428 C148.940647,62.1360656 150.42842,63.9631703 150.42842,66.2297052 C150.42842,69.0253785 148.669576,70.9779346 146.152979,70.9779346 M147.106235,59.5863891 C146.299954,59.4931766 145.651046,59.4931766 144.950836,59.5891925 C141.73195,60.1008098 139.482265,62.8081766 139.482265,66.1722358 C139.482265,70.3247464 142.225563,73.2248458 146.152979,73.2248458 C149.911235,73.2248458 152.746046,70.1929874 152.746046,66.1722358 C152.746046,62.8712527 150.382664,60.1029124 147.106235,59.5863891" id="Fill-6"></path>
                    <path d="M35.895542,59.6360791 L34.0673697,59.6360791 L34.0673697,67.1617598 C34.0673697,69.740171 32.517895,70.9154892 30.698042,70.9154892 C28.8795756,70.9154892 27.3301008,69.740171 27.3301008,67.1617598 L27.3294076,59.6360791 L25.5012353,59.6360791 C25.2218445,59.6360791 24.993063,59.8673581 24.993063,60.1504998 L24.993063,67.1617598 C24.993063,71.1418624 27.6607941,73.2247757 30.698042,73.2247757 C33.7366765,73.2247757 36.4044076,71.1418624 36.4044076,67.1617598 L36.4044076,60.1504998 C36.4044076,59.8673581 36.1749328,59.6360791 35.895542,59.6360791" id="Fill-8"></path>
                    <path d="M75.2349391,60.1504297 L75.2349391,73.141305 L77.0631113,73.141305 C77.3425021,73.141305 77.5719769,72.9100259 77.5719769,72.6275851 L77.5719769,59.636009 L75.7438046,59.636009 C75.4637206,59.636009 75.2349391,59.8679889 75.2349391,60.1504297" id="Fill-10"></path>
                    <g id="Group-14" transform="translate(131.029412, 59.269116)">
                        <path d="M6.33135504,0.366962791 L4.50318277,0.366962791 L4.50179622,12.5448571 C4.50179622,14.0677947 3.12564076,15.3117958 1.44929622,15.3117958 L0.268644958,15.3117958 L0.268644958,17.0064406 C0.268644958,17.2902831 0.497426471,17.5215622 0.776817227,17.5215622 L1.43820378,17.5215622 C2.93290966,17.5215622 4.45465336,16.9104247 5.47030462,15.846541 C6.46723739,14.8001784 6.84022059,13.7580209 6.84022059,12.5448571 L6.84022059,0.88138351 C6.84022059,0.59824186 6.6107458,0.366962791 6.33135504,0.366962791" id="Fill-12"></path>
                    </g>
                    <path d="M103.257832,59.6360791 L93.7647857,59.6360791 C93.4847017,59.6360791 93.2552269,59.8673581 93.2552269,60.1504998 L93.2552269,72.6269543 C93.2552269,72.910096 93.4847017,73.1413751 93.7647857,73.1413751 L103.257832,73.1413751 C103.537223,73.1413751 103.766697,72.910096 103.766697,72.6269543 L103.766697,70.8958655 L95.5361092,70.8958655 L95.5361092,67.4603201 L102.240794,67.4603201 C102.521571,67.4603201 102.748966,67.2297419 102.748966,66.9451985 L102.748966,65.2134089 L95.5361092,65.2134089 L95.5361092,61.8829903 L103.766697,61.8829903 L103.766697,60.1504998 C103.766697,59.8673581 103.537223,59.6360791 103.257832,59.6360791" id="Fill-15"></path>
                    <path d="M58.1704034,61.8827099 L63.1481345,61.8827099 L63.1481345,60.1502195 C63.1481345,60.0086486 63.0912857,59.8810947 62.9990798,59.7878822 C62.9068739,59.6939689 62.7793109,59.6357987 62.6399622,59.6357987 L51.4303613,59.6357987 C51.2556555,59.6357987 51.1003613,59.7262078 51.009542,59.8642744 C50.9547731,59.9448717 50.9221891,60.0443918 50.9221891,60.1502195 L50.9221891,61.8827099 L55.8610966,61.8827099 L55.8610966,73.1410947 L58.1704034,73.1410947 L58.1704034,61.8827099 Z" id="Fill-17"></path>
                    <path d="M163.80687,59.6360791 L163.80687,59.6360791 L152.597962,59.6360791 L152.597269,59.6360791 C152.317878,59.6360791 152.089097,59.8673581 152.089097,60.1504998 L152.089097,61.8829903 L157.028697,61.8829903 L157.029391,73.1413751 L159.337311,73.1413751 L159.337311,61.8829903 L164.314349,61.8829903 L164.315735,61.8829903 L164.315735,60.1504998 C164.315735,59.8673581 164.086261,59.6360791 163.80687,59.6360791" id="Fill-19"></path>
                    <path d="M49.5999013,59.6360791 L47.7509307,59.6360791 L47.7530105,68.8998571 L40.2468971,59.6360791 L38.8936197,59.6360791 C38.6135357,59.6360791 38.3854475,59.8673581 38.3854475,60.1504998 L38.3854475,72.6269543 C38.3854475,72.910096 38.6135357,73.1413751 38.8936197,73.1413751 L40.7418971,73.1413751 L40.7418971,64.0997651 L48.0823172,73.1413751 L49.5999013,73.1413751 C49.879292,73.1413751 50.1087668,72.910096 50.1087668,72.6269543 L50.1087668,60.1504998 C50.1087668,59.8673581 49.879292,59.6360791 49.5999013,59.6360791" id="Fill-21"></path>
                    <path d="M90.7669853,59.6360791 L88.9180147,59.6360791 L88.9200945,68.8998571 L81.4139811,59.6360791 L80.0607038,59.6360791 C79.7806197,59.6360791 79.5525315,59.8673581 79.5525315,60.1504998 L79.5525315,72.6269543 C79.5525315,72.910096 79.7806197,73.1413751 80.0607038,73.1413751 L81.9089811,73.1413751 L81.9089811,64.0997651 L89.2494013,73.1413751 L90.7669853,73.1413751 C91.0463761,73.1413751 91.2758508,72.910096 91.2758508,72.6269543 L91.2758508,60.1504998 C91.2758508,59.8673581 91.0463761,59.6360791 90.7669853,59.6360791" id="Fill-23"></path>
                    <path d="M64.969166,67.9295363 L67.4129685,63.0621631 L69.8616239,67.9295363 L64.969166,67.9295363 Z M68.3294811,59.9055542 C68.2428214,59.7457614 68.0750483,59.6357286 67.8830105,59.6357286 L66.9422332,59.6357286 C66.7501954,59.6357286 66.5803424,59.7464623 66.4943761,59.9076568 L60.1689139,72.3925215 C60.1335567,72.462606 60.1134517,72.5425024 60.1134517,72.6273048 C60.1134517,72.9111473 60.3408466,73.1410246 60.6209307,73.1410246 L62.3520441,73.1410246 L63.9694601,69.9206388 L70.8620231,69.9206388 L72.4808256,73.1410246 L74.2112458,73.1410246 C74.4927164,73.1410246 74.7201113,72.9111473 74.7201113,72.6273048 C74.7201113,72.5432033 74.7006996,72.4640077 74.6639559,72.3932223 L68.3294811,59.9055542 Z" id="Fill-25"></path>
                    <path d="M126.800489,63.0619529 L129.248452,67.929326 L124.356687,67.929326 L126.800489,63.0619529 Z M130.248851,69.9204285 L131.868347,73.1415152 L133.598767,73.1415152 C133.879544,73.1415152 134.107632,72.9116378 134.107632,72.6270945 C134.107632,72.542993 134.086834,72.4637975 134.051477,72.3930121 L127.716309,59.9060448 C127.630342,59.7455512 127.461876,59.6362192 127.269145,59.6362192 L126.329754,59.6362192 C126.13633,59.6362192 125.967863,59.746252 125.881204,59.9081474 L119.556435,72.3923112 C119.520384,72.4623958 119.500279,72.542993 119.500279,72.6270945 C119.500279,72.9116378 119.727674,73.1415152 120.008452,73.1415152 L121.738872,73.1415152 L123.356981,69.9204285 L130.248851,69.9204285 Z" id="Fill-27"></path>
                    <path d="M115.744588,67.01276 L112.679609,67.01276 L112.679609,61.8825698 L115.744588,61.8825698 C117.722508,61.8825698 118.791542,62.8854799 118.791542,64.4476649 C118.791542,66.0105507 117.722508,67.01276 115.744588,67.01276 M121.050933,64.4476649 C121.050933,61.5896163 119.014777,59.6363594 115.744588,59.6363594 L110.908286,59.6363594 C110.628895,59.6363594 110.39942,59.8669376 110.39942,60.1507801 L110.39942,73.1416554 L112.170744,73.1416554 C112.450134,73.1416554 112.679609,72.9103763 112.679609,72.6279355 L112.679609,72.0231057 L112.679609,69.2596712 L115.744588,69.2596712 C119.014777,69.2596712 121.050933,67.3050127 121.050933,64.4476649" id="Fill-29"></path>
                    <path d="M10.2581471,61.3683593 C10.2581471,61.6508001 10.0293655,61.88278 9.74928151,61.88278 L2.27921849,61.88278 L2.27921849,65.2131986 L8.59081513,65.2131986 L8.59081513,66.9456891 C8.59081513,67.2302325 8.36342017,67.4601098 8.08194958,67.4601098 L2.27921849,67.4601098 L2.27921849,72.6281458 C2.27921849,72.9105866 2.05113025,73.1418656 1.77035294,73.1418656 L0.000415966387,73.1418656 L0.000415966387,60.1495887 C0.000415966387,59.8671479 0.229890756,59.6358688 0.508588235,59.6358688 L10.2581471,59.6358688 L10.2581471,61.3683593 Z" id="Fill-31"></path>
                    <path d="M164.315319,71.9385136 C164.315319,71.2818212 163.882021,70.7351616 163.15616,70.7351616 C162.436538,70.7351616 162.006706,71.2818212 162.006706,71.9385136 C162.006706,72.5888984 162.436538,73.1411648 163.15616,73.1411648 C163.882021,73.1411648 164.315319,72.5945052 164.315319,71.9385136 L164.315319,71.9385136 Z M164.085845,71.9385136 C164.085845,72.4956859 163.718408,72.9203984 163.15616,72.9203984 C162.605004,72.9203984 162.236181,72.49078 162.236181,71.9385136 C162.236181,71.3596151 162.605004,70.9573297 163.15616,70.9573297 C163.718408,70.9573297 164.085845,71.3806405 164.085845,71.9385136 L164.085845,71.9385136 Z M162.732567,71.3967599 L162.732567,72.4396183 L162.915592,72.4396183 L162.915592,72.1242377 L163.222714,72.1242377 L163.447336,72.4396183 L163.635908,72.4396183 L163.635908,72.3926616 L163.416832,72.0835887 C163.544395,72.0261193 163.626202,71.9125823 163.626202,71.7626014 C163.626202,71.5404333 163.457042,71.3967599 163.197063,71.3967599 L162.732567,71.3967599 Z M163.197063,71.5768773 C163.345424,71.5768773 163.432777,71.6329449 163.432777,71.7626014 C163.432777,71.8873519 163.334332,71.9483255 163.191517,71.9483255 L162.915592,71.9483255 L162.915592,71.5768773 L163.197063,71.5768773 Z" id="Fill-33"></path>
                </g>
                <rect id="Rectangle-12-Copy" fill="#455A64" x="0" y="138" width="210" height="72"></rect>
                <path d="M65.5146428,176.995 L66.1446428,182.395 L66.3246428,182.395 L67.0446428,176.95 L71.6346428,158.5 L77.6196428,158.5 L68.0796428,190.225 L63.7596428,190.225 L54.1296428,158.5 L60.8346428,158.5 L65.5146428,176.995 Z M80.1717857,158.5 L85.8417857,158.5 L85.8417857,190 L80.1717857,190 L80.1717857,158.5 Z M90.8239286,158.5 C91.3639313,158.41 91.9714252,158.3425 92.6464286,158.2975 C93.3214319,158.2525 94.011425,158.2075 94.7164286,158.1625 C95.4214321,158.1175 96.1039253,158.0875 96.7639286,158.0725 C97.4239319,158.0575 98.008926,158.05 98.5189286,158.05 C101.008941,158.05 103.08642,158.432496 104.751429,159.1975 C106.416437,159.962504 107.751424,161.042493 108.756429,162.4375 C109.761434,163.832507 110.473926,165.50499 110.893929,167.455 C111.313931,169.40501 111.523929,171.579988 111.523929,173.98 C111.523929,176.170011 111.321431,178.26249 110.916429,180.2575 C110.511427,182.25251 109.798934,184.007492 108.778929,185.5225 C107.758923,187.037508 106.378937,188.244996 104.638929,189.145 C102.89892,190.045005 100.708942,190.495 98.0689286,190.495 C97.6789266,190.495 97.1539319,190.48 96.4939286,190.45 C95.8339253,190.42 95.1439322,190.3825 94.4239286,190.3375 C93.703925,190.2925 93.0139319,190.2475 92.3539286,190.2025 C91.6939253,190.1575 91.1839304,190.105 90.8239286,190.045 L90.8239286,158.5 Z M99.1039286,163.27 C98.6239262,163.27 98.136431,163.2775 97.6414286,163.2925 C97.1464261,163.3075 96.7639299,163.345 96.4939286,163.405 L96.4939286,185.095 C96.583929,185.125 96.7414274,185.1475 96.9664286,185.1625 C97.1914297,185.1775 97.4314273,185.1925 97.6864286,185.2075 C97.9414298,185.2225 98.1814274,185.2375 98.4064286,185.2525 C98.6314297,185.2675 98.7889281,185.275 98.8789286,185.275 C100.228935,185.275 101.338924,184.960003 102.208929,184.33 C103.078933,183.699997 103.761426,182.860005 104.256429,181.81 C104.751431,180.759995 105.096428,179.552507 105.291429,178.1875 C105.48643,176.822493 105.583929,175.390007 105.583929,173.89 C105.583929,172.509993 105.501429,171.175006 105.336429,169.885 C105.171428,168.594994 104.856431,167.462505 104.391429,166.4875 C103.926426,165.512495 103.266433,164.732503 102.411429,164.1475 C101.556424,163.562497 100.453935,163.27 99.1039286,163.27 Z M115.336071,158.5 L131.086071,158.5 L131.086071,163.72 L121.006071,163.72 L121.006071,171.46 L130.141071,171.46 L130.141071,176.68 L121.006071,176.68 L121.006071,184.78 L131.266071,184.78 L131.266071,190 L115.336071,190 L115.336071,158.5 Z M134.403214,174.25 C134.403214,168.909973 135.318205,164.845014 137.148214,162.055 C138.978223,159.264986 141.768196,157.87 145.518214,157.87 C147.468224,157.87 149.148207,158.252496 150.558214,159.0175 C151.968221,159.782504 153.12321,160.877493 154.023214,162.3025 C154.923219,163.727507 155.590712,165.45249 156.025714,167.4775 C156.460717,169.50251 156.678214,171.759988 156.678214,174.25 C156.678214,179.590027 155.740724,183.654986 153.865714,186.445 C151.990705,189.235014 149.208233,190.63 145.518214,190.63 C143.538204,190.63 141.850721,190.247504 140.455714,189.4825 C139.060707,188.717496 137.913219,187.622507 137.013214,186.1975 C136.11321,184.772493 135.453216,183.04751 135.033214,181.0225 C134.613212,178.99749 134.403214,176.740012 134.403214,174.25 Z M140.343214,174.25 C140.343214,175.840008 140.433213,177.317493 140.613214,178.6825 C140.793215,180.047507 141.093212,181.224995 141.513214,182.215 C141.933216,183.205005 142.465711,183.984997 143.110714,184.555 C143.755718,185.125003 144.55821,185.41 145.518214,185.41 C147.258223,185.41 148.56321,184.525009 149.433214,182.755 C150.303219,180.984991 150.738214,178.150019 150.738214,174.25 C150.738214,172.719992 150.648215,171.272507 150.468214,169.9075 C150.288213,168.542493 149.995716,167.357505 149.590714,166.3525 C149.185712,165.347495 148.653218,164.552503 147.993214,163.9675 C147.333211,163.382497 146.508219,163.09 145.518214,163.09 C142.068197,163.09 140.343214,166.809963 140.343214,174.25 Z" id="VIDEO" fill="#FFFFFF"></path>
            </g>
        </g>
    </g>
</svg>