<svg xmlns="http://www.w3.org/2000/svg" width="210" height="210" viewBox="0 0 210 210">
    <g fill="none" fill-rule="evenodd">
        <path fill="#B0BEC5" d="M0 0h210v210H0z" opacity=".4"/>
        <g fill="#455A64" fill-rule="nonzero" transform="translate(48 18)">
            <ellipse cx="25.289" cy="52.111" rx="2.491" ry="2.265" transform="rotate(-77.391 25.289 52.111)"/>
            <path d="M32.805 46.353c-3.171 4.227-6.963 12.705-18.589 14.215 3.85.226 5.163-.83 7.654 0 4.982 1.66-1.734 18.513-2.187 18.589-.075.226-.15.15 0 0 4.831-5.209 4.75-11.274 6.561-12.029 1.133-.452 2.334.447 6.56 6.561.152.227.076.302 0 0-4.302-10.417-6.38-15.409 1.094-27.336.302-.528-.791-.453-1.093 0zM91.847 62.756C79.772 37.919 60.4 18.427 27.333 5.896 40.62 29.674 43.168 38.108 44.828 63.849c15.78-7.096 31.396-7.434 47.02-1.093z"/>
            <path d="M20.776 86.81c-1.058-.983-2.564-2.827-2.187-3.28 3.548-3.925 36.396-12.97 63.42-13.121 5.964-.076 9.878-.906 10.935 0 2.49 2.114-7.654 10.934-7.654 10.934h1.093c5.133-3.17 11.948-7.982 16.402-15.308-16.683-1.887-34.06-.12-59.047 5.467L24.056.428H21.87l18.589 72.168a124.764 124.764 0 0 0-26.243 9.84c.83 1.436 3.882 3.317 5.467 4.375C13.115 88.17 6.642 90.24 0 92.278c39.707-9.285 78.879-9.36 117 0a190.96 190.96 0 0 0-96.224-5.467z"/>
        </g>
        <path fill="#455A64" d="M0 138h210v72H0z"/>
        <text fill="#FFF" font-family="PTSans-NarrowBold, PT Sans Narrow" font-size="45" font-style="condensed" font-weight="bold" letter-spacing=".437">
            <tspan x="54.58" y="190">VIDEO</tspan>
        </text>
    </g>
</svg>
