<?xml version="1.0" encoding="UTF-8"?>
<svg width="210px" height="210px" viewBox="0 0 210 210" version="1.1" xmlns="http://www.w3.org/2000/svg" xmlns:xlink="http://www.w3.org/1999/xlink">
    <!-- Generator: Sketch 46.2 (44496) - http://www.bohemiancoding.com/sketch -->
    <title>Group 2 Copy 7</title>
    <desc>Created with Sketch.</desc>
    <defs></defs>
    <g id="Page-1" stroke="none" stroke-width="1" fill="none" fill-rule="evenodd">
        <g id="boat-icons-big" transform="translate(-93.000000, -396.000000)">
            <g id="Group-2-Copy-7" transform="translate(93.000000, 396.000000)">
                <rect id="Rectangle-12" fill="#B0BEC5" opacity="0.400000006" x="0" y="0" width="210" height="210"></rect>
                <g id="Group_63" transform="translate(48.000000, 18.000000)" fill-rule="nonzero" fill="#455A64">
                    <ellipse id="Ellipse_6" transform="translate(25.288765, 52.110960) rotate(-77.391000) translate(-25.288765, -52.110960) " cx="25.288765" cy="52.11096" rx="2.4908972" ry="2.2645514"></ellipse>
                    <path d="M32.8048318,46.3527757 C29.6338037,50.5800841 25.8416916,59.0576636 14.2160467,60.567729 L14.2160467,60.567729 C18.0661121,60.7940748 19.3793551,59.7377944 21.8702523,60.567729 C26.8520467,62.2286916 20.136028,79.0810654 19.6833364,79.156514 C19.6078879,79.3828598 19.5324393,79.3074112 19.6833364,79.156514 C24.5142336,73.9483738 24.4322243,67.8829626 26.2440841,67.1284766 C27.3769065,66.675785 28.5775234,67.5746075 32.8048318,73.6892243 C32.955729,73.9155701 32.8802804,73.9910187 32.8048318,73.6892243 C28.5020748,63.2718505 26.4245047,58.280215 33.8982897,46.3527757 C34.2000841,45.8246355 33.1066262,45.9000841 32.8048318,46.3527757 Z" id="Path_56"></path>
                    <path d="M91.8471869,62.7557383 C79.7721308,37.9189346 60.3993364,18.4269533 27.3331682,5.89592523 C40.6186822,29.6742617 43.1675327,38.1081028 44.8284953,63.8491963 C60.6081869,56.7526542 76.2238598,56.4147757 91.8471869,62.7557383 Z" id="Path_57"></path>
                    <path d="M20.7757009,86.8107196 C19.7183271,85.8266075 18.2115421,83.9830374 18.588785,83.5303458 C22.1370561,79.6048318 54.9845327,70.5597477 82.0093458,70.4088505 C87.9730654,70.3334019 91.8865514,69.5034673 92.9439252,70.4088505 C95.4348224,72.5225047 85.2897196,81.3434299 85.2897196,81.3434299 L86.3831776,81.3434299 C91.5158692,78.1724019 98.3313925,73.3611869 102.785047,66.0350187 C86.1021589,64.1477103 68.7249252,65.9158318 43.7383178,71.5023084 L24.0560748,0.427542056 L21.8691589,0.427542056 L40.4579439,72.5957664 C31.3684172,74.8800489 22.5652209,78.1812475 14.2149533,82.4368879 C15.0448879,83.8715047 18.096729,85.7533458 19.682243,86.8107196 C13.1149346,88.1698879 6.64275701,90.2398037 -7.10542736e-15,92.2780093 C39.7067383,82.9934579 78.8787757,82.9180093 117,92.2780093 C85.9202878,82.2581994 52.79034,80.375816 20.7757009,86.8107196 Z" id="Path_58"></path>
                </g>
                <rect id="Rectangle-12-Copy" fill="#455A64" x="0" y="138" width="210" height="72"></rect>
                <path d="M65.5146428,176.995 L66.1446428,182.395 L66.3246428,182.395 L67.0446428,176.95 L71.6346428,158.5 L77.6196428,158.5 L68.0796428,190.225 L63.7596428,190.225 L54.1296428,158.5 L60.8346428,158.5 L65.5146428,176.995 Z M80.1717857,158.5 L85.8417857,158.5 L85.8417857,190 L80.1717857,190 L80.1717857,158.5 Z M90.8239286,158.5 C91.3639313,158.41 91.9714252,158.3425 92.6464286,158.2975 C93.3214319,158.2525 94.011425,158.2075 94.7164286,158.1625 C95.4214321,158.1175 96.1039253,158.0875 96.7639286,158.0725 C97.4239319,158.0575 98.008926,158.05 98.5189286,158.05 C101.008941,158.05 103.08642,158.432496 104.751429,159.1975 C106.416437,159.962504 107.751424,161.042493 108.756429,162.4375 C109.761434,163.832507 110.473926,165.50499 110.893929,167.455 C111.313931,169.40501 111.523929,171.579988 111.523929,173.98 C111.523929,176.170011 111.321431,178.26249 110.916429,180.2575 C110.511427,182.25251 109.798934,184.007492 108.778929,185.5225 C107.758923,187.037508 106.378937,188.244996 104.638929,189.145 C102.89892,190.045005 100.708942,190.495 98.0689286,190.495 C97.6789266,190.495 97.1539319,190.48 96.4939286,190.45 C95.8339253,190.42 95.1439322,190.3825 94.4239286,190.3375 C93.703925,190.2925 93.0139319,190.2475 92.3539286,190.2025 C91.6939253,190.1575 91.1839304,190.105 90.8239286,190.045 L90.8239286,158.5 Z M99.1039286,163.27 C98.6239262,163.27 98.136431,163.2775 97.6414286,163.2925 C97.1464261,163.3075 96.7639299,163.345 96.4939286,163.405 L96.4939286,185.095 C96.583929,185.125 96.7414274,185.1475 96.9664286,185.1625 C97.1914297,185.1775 97.4314273,185.1925 97.6864286,185.2075 C97.9414298,185.2225 98.1814274,185.2375 98.4064286,185.2525 C98.6314297,185.2675 98.7889281,185.275 98.8789286,185.275 C100.228935,185.275 101.338924,184.960003 102.208929,184.33 C103.078933,183.699997 103.761426,182.860005 104.256429,181.81 C104.751431,180.759995 105.096428,179.552507 105.291429,178.1875 C105.48643,176.822493 105.583929,175.390007 105.583929,173.89 C105.583929,172.509993 105.501429,171.175006 105.336429,169.885 C105.171428,168.594994 104.856431,167.462505 104.391429,166.4875 C103.926426,165.512495 103.266433,164.732503 102.411429,164.1475 C101.556424,163.562497 100.453935,163.27 99.1039286,163.27 Z M115.336071,158.5 L131.086071,158.5 L131.086071,163.72 L121.006071,163.72 L121.006071,171.46 L130.141071,171.46 L130.141071,176.68 L121.006071,176.68 L121.006071,184.78 L131.266071,184.78 L131.266071,190 L115.336071,190 L115.336071,158.5 Z M134.403214,174.25 C134.403214,168.909973 135.318205,164.845014 137.148214,162.055 C138.978223,159.264986 141.768196,157.87 145.518214,157.87 C147.468224,157.87 149.148207,158.252496 150.558214,159.0175 C151.968221,159.782504 153.12321,160.877493 154.023214,162.3025 C154.923219,163.727507 155.590712,165.45249 156.025714,167.4775 C156.460717,169.50251 156.678214,171.759988 156.678214,174.25 C156.678214,179.590027 155.740724,183.654986 153.865714,186.445 C151.990705,189.235014 149.208233,190.63 145.518214,190.63 C143.538204,190.63 141.850721,190.247504 140.455714,189.4825 C139.060707,188.717496 137.913219,187.622507 137.013214,186.1975 C136.11321,184.772493 135.453216,183.04751 135.033214,181.0225 C134.613212,178.99749 134.403214,176.740012 134.403214,174.25 Z M140.343214,174.25 C140.343214,175.840008 140.433213,177.317493 140.613214,178.6825 C140.793215,180.047507 141.093212,181.224995 141.513214,182.215 C141.933216,183.205005 142.465711,183.984997 143.110714,184.555 C143.755718,185.125003 144.55821,185.41 145.518214,185.41 C147.258223,185.41 148.56321,184.525009 149.433214,182.755 C150.303219,180.984991 150.738214,178.150019 150.738214,174.25 C150.738214,172.719992 150.648215,171.272507 150.468214,169.9075 C150.288213,168.542493 149.995716,167.357505 149.590714,166.3525 C149.185712,165.347495 148.653218,164.552503 147.993214,163.9675 C147.333211,163.382497 146.508219,163.09 145.518214,163.09 C142.068197,163.09 140.343214,166.809963 140.343214,174.25 Z" id="VIDEO" fill="#FFFFFF"></path>
            </g>
        </g>
    </g>
</svg>