<?xml version="1.0" encoding="UTF-8"?>
<svg width="210px" height="210px" viewBox="0 0 210 210" version="1.1" xmlns="http://www.w3.org/2000/svg" xmlns:xlink="http://www.w3.org/1999/xlink">
    <!-- Generator: Sketch 46.2 (44496) - http://www.bohemiancoding.com/sketch -->
    <title>Group 2</title>
    <desc>Created with Sketch.</desc>
    <defs></defs>
    <g id="Page-1" stroke="none" stroke-width="1" fill="none" fill-rule="evenodd">
        <g id="boat-icons-big" transform="translate(-93.000000, -96.000000)">
            <g id="Group-2" transform="translate(93.000000, 96.000000)">
                <rect id="Rectangle-12" fill="#B0BEC5" opacity="0.400000006" x="0" y="0" width="210" height="210"></rect>
                <g id="Group_63" transform="translate(48.000000, 24.000000)" fill-rule="nonzero" fill="#455A64">
                    <ellipse id="Ellipse_6" transform="translate(25.288765, 52.110960) rotate(-77.391000) translate(-25.288765, -52.110960) " cx="25.288765" cy="52.11096" rx="2.4908972" ry="2.2645514"></ellipse>
                    <path d="M32.8048318,46.3527757 C29.6338037,50.5800841 25.8416916,59.0576636 14.2160467,60.567729 L14.2160467,60.567729 C18.0661121,60.7940748 19.3793551,59.7377944 21.8702523,60.567729 C26.8520467,62.2286916 20.136028,79.0810654 19.6833364,79.156514 C19.6078879,79.3828598 19.5324393,79.3074112 19.6833364,79.156514 C24.5142336,73.9483738 24.4322243,67.8829626 26.2440841,67.1284766 C27.3769065,66.675785 28.5775234,67.5746075 32.8048318,73.6892243 C32.955729,73.9155701 32.8802804,73.9910187 32.8048318,73.6892243 C28.5020748,63.2718505 26.4245047,58.280215 33.8982897,46.3527757 C34.2000841,45.8246355 33.1066262,45.9000841 32.8048318,46.3527757 Z" id="Path_56"></path>
                    <path d="M91.8471869,62.7557383 C79.7721308,37.9189346 60.3993364,18.4269533 27.3331682,5.89592523 C40.6186822,29.6742617 43.1675327,38.1081028 44.8284953,63.8491963 C60.6081869,56.7526542 76.2238598,56.4147757 91.8471869,62.7557383 Z" id="Path_57"></path>
                    <path d="M20.7757009,86.8107196 C19.7183271,85.8266075 18.2115421,83.9830374 18.588785,83.5303458 C22.1370561,79.6048318 54.9845327,70.5597477 82.0093458,70.4088505 C87.9730654,70.3334019 91.8865514,69.5034673 92.9439252,70.4088505 C95.4348224,72.5225047 85.2897196,81.3434299 85.2897196,81.3434299 L86.3831776,81.3434299 C91.5158692,78.1724019 98.3313925,73.3611869 102.785047,66.0350187 C86.1021589,64.1477103 68.7249252,65.9158318 43.7383178,71.5023084 L24.0560748,0.427542056 L21.8691589,0.427542056 L40.4579439,72.5957664 C31.3684172,74.8800489 22.5652209,78.1812475 14.2149533,82.4368879 C15.0448879,83.8715047 18.096729,85.7533458 19.682243,86.8107196 C13.1149346,88.1698879 6.64275701,90.2398037 -7.10542736e-15,92.2780093 C39.7067383,82.9934579 78.8787757,82.9180093 117,92.2780093 C85.9202878,82.2581994 52.79034,80.375816 20.7757009,86.8107196 Z" id="Path_58"></path>
                </g>
                <rect id="Rectangle-12-Copy" fill="#F4511E" x="0" y="138" width="210" height="72"></rect>
                <path d="M75.6717857,158.815 C76.7517911,158.574999 77.9367792,158.387501 79.2267857,158.2525 C80.5167921,158.117499 81.8067792,158.05 83.0967857,158.05 C84.4767926,158.05 85.834279,158.177499 87.1692857,158.4325 C88.5042923,158.687501 89.6967804,159.189996 90.7467857,159.94 C91.7967909,160.690004 92.6517824,161.747493 93.3117857,163.1125 C93.971789,164.477507 94.3017857,166.254989 94.3017857,168.445 C94.3017857,170.42501 94.0242884,172.104993 93.4692857,173.485 C92.9142829,174.865007 92.1717903,175.989996 91.2417857,176.86 C90.311781,177.730004 89.2392917,178.359998 88.0242857,178.75 C86.8092796,179.140002 85.5567921,179.335 84.2667857,179.335 L83.6817857,179.335 C83.4117843,179.335 83.1267872,179.3275 82.8267857,179.3125 C82.5267842,179.2975 82.2342871,179.275 81.9492857,179.245 C81.6642842,179.215 81.4617863,179.185 81.3417857,179.155 L81.3417857,190 L75.6717857,190 L75.6717857,158.815 Z M81.3417857,174.07 C81.5217866,174.13 81.8592832,174.1825 82.3542857,174.2275 C82.8492881,174.2725 83.1867848,174.295 83.3667857,174.295 C84.026789,174.295 84.6567827,174.205001 85.2567857,174.025 C85.8567887,173.844999 86.3892833,173.537502 86.8542857,173.1025 C87.319288,172.667498 87.6867843,172.067504 87.9567857,171.3025 C88.226787,170.537496 88.3617857,169.570006 88.3617857,168.4 C88.3617857,167.409995 88.2342869,166.570003 87.9792857,165.88 C87.7242844,165.189997 87.3792878,164.642502 86.9442857,164.2375 C86.5092835,163.832498 86.0067885,163.540001 85.4367857,163.36 C84.8667828,163.179999 84.2667888,163.09 83.6367857,163.09 C82.706781,163.09 81.9417887,163.164999 81.3417857,163.315 L81.3417857,174.07 Z M97.5739286,158.5 C98.1139313,158.41 98.7214252,158.3425 99.3964286,158.2975 C100.071432,158.2525 100.761425,158.2075 101.466429,158.1625 C102.171432,158.1175 102.853925,158.0875 103.513929,158.0725 C104.173932,158.0575 104.758926,158.05 105.268929,158.05 C107.758941,158.05 109.83642,158.432496 111.501429,159.1975 C113.166437,159.962504 114.501424,161.042493 115.506429,162.4375 C116.511434,163.832507 117.223926,165.50499 117.643929,167.455 C118.063931,169.40501 118.273929,171.579988 118.273929,173.98 C118.273929,176.170011 118.071431,178.26249 117.666429,180.2575 C117.261427,182.25251 116.548934,184.007492 115.528929,185.5225 C114.508923,187.037508 113.128937,188.244996 111.388929,189.145 C109.64892,190.045005 107.458942,190.495 104.818929,190.495 C104.428927,190.495 103.903932,190.48 103.243929,190.45 C102.583925,190.42 101.893932,190.3825 101.173929,190.3375 C100.453925,190.2925 99.7639319,190.2475 99.1039286,190.2025 C98.4439253,190.1575 97.9339304,190.105 97.5739286,190.045 L97.5739286,158.5 Z M105.853929,163.27 C105.373926,163.27 104.886431,163.2775 104.391429,163.2925 C103.896426,163.3075 103.51393,163.345 103.243929,163.405 L103.243929,185.095 C103.333929,185.125 103.491427,185.1475 103.716429,185.1625 C103.94143,185.1775 104.181427,185.1925 104.436429,185.2075 C104.69143,185.2225 104.931427,185.2375 105.156429,185.2525 C105.38143,185.2675 105.538928,185.275 105.628929,185.275 C106.978935,185.275 108.088924,184.960003 108.958929,184.33 C109.828933,183.699997 110.511426,182.860005 111.006429,181.81 C111.501431,180.759995 111.846428,179.552507 112.041429,178.1875 C112.23643,176.822493 112.333929,175.390007 112.333929,173.89 C112.333929,172.509993 112.251429,171.175006 112.086429,169.885 C111.921428,168.594994 111.606431,167.462505 111.141429,166.4875 C110.676426,165.512495 110.016433,164.732503 109.161429,164.1475 C108.306424,163.562497 107.203935,163.27 105.853929,163.27 Z M122.086071,158.5 L137.836071,158.5 L137.836071,163.72 L127.756071,163.72 L127.756071,171.91 L137.026071,171.91 L137.026071,177.13 L127.756071,177.13 L127.756071,190 L122.086071,190 L122.086071,158.5 Z" id="PDF" fill="#FFFFFF"></path>
            </g>
        </g>
    </g>
</svg>