<svg xmlns="http://www.w3.org/2000/svg" width="20" height="30" viewBox="0 0 20 30">
    <path fill="#455A64" fill-rule="nonzero" d="M10 30h-.736a9.74 9.74 0 0 1-7.849-4.915 10.301 10.301 0 0 1-.395-9.68l6.765-14.02a2.469 2.469 0 0 1 4.438 0l6.757 13.996a10.301 10.301 0 0 1-.395 9.68A9.74 9.74 0 0 1 10.735 30H10zm0-28.448a.862.862 0 0 0-.791.498L2.444 16.068a8.73 8.73 0 0 0 .332 8.203 8.182 8.182 0 0 0 6.591 4.149c.419.029.84.029 1.258 0a8.182 8.182 0 0 0 6.59-4.133 8.73 8.73 0 0 0 .333-8.203L10.791 2.05A.862.862 0 0 0 10 1.552z"/>
</svg>
