<svg xmlns="http://www.w3.org/2000/svg" width="14" height="31" viewBox="0 0 14 31">
    <g fill="#455A64" fill-rule="nonzero">
        <path d="M11.667 18.417V5.024c0-2.634-2.09-4.77-4.667-4.77S2.333 2.39 2.333 5.024v13.393A6.907 6.907 0 0 0 0 23.6c0 3.95 3.134 7.154 7 7.154s7-3.203 7-7.154a6.907 6.907 0 0 0-2.333-5.183zM7 28.99c-2.955.044-5.39-2.361-5.444-5.381a5.319 5.319 0 0 1 2.03-4.181l.303-.239V5.024c0-1.756 1.393-3.18 3.111-3.18 1.718 0 3.111 1.424 3.111 3.18V19.18l.303.239a5.319 5.319 0 0 1 2.03 4.189c-.055 3.02-2.489 5.425-5.444 5.381z"/>
        <ellipse cx="7" cy="23.608" rx="3.018" ry="3.084"/>
    </g>
</svg>
