<svg xmlns="http://www.w3.org/2000/svg" width="33" height="30" viewBox="0 0 33 30">
    <path fill="#455A64" fill-rule="nonzero" d="M30.903 2.633a.74.74 0 0 0-.096-.02c-1.548-.207-3.569-.534-5.71-.881C20.1.92 14.435.002 11.198 0h-.005c-.342 0-.656.1-.945.266a.725.725 0 0 0-.172.064L.89 5.273A.756.756 0 0 0 0 6.02V29.24c0 .42.336.761.75.761s.75-.341.75-.761V8.207l8.001 5.436c.467.571 1.03.912 1.692.912 3.236 0 8.905-.92 13.905-1.731 2.14-.347 4.161-.675 5.71-.882a.739.739 0 0 0 .276-.095l.035-.02c.465-.253 1.881-1.024 1.881-4.55 0-3.368-1.14-4.385-2.097-4.644zm-8.19 4.645c0 1.739-.29 3.386-.781 4.514-1.156.183-2.313.361-3.437.523.55-1.31.867-3.096.867-5.037 0-1.921-.321-3.721-.87-5.038 1.124.162 2.282.34 3.439.523.49 1.128.782 2.786.782 4.515zm-4.851 0c0 2.237-.48 4.313-1.208 5.29-1.184.154-2.3.28-3.3.36.762-1.403 1.156-3.532 1.156-5.65 0-2.12-.394-4.248-1.156-5.652 1 .081 2.115.206 3.298.36.736.994 1.21 3.057 1.21 5.292zM1.74 6.538l6.754-3.634c-.41 1.273-.62 2.826-.62 4.374 0 1.293.148 2.59.435 3.724L1.74 6.54zm7.634.74c0-3.724 1.2-5.755 1.818-5.755h.002c.618.004 1.816 2.035 1.816 5.755 0 3.723-1.201 5.755-1.818 5.755-.618 0-1.818-2.032-1.818-5.755zm15.487 4.043l-1.232.199c.374-1.21.584-2.683.584-4.243 0-1.55-.208-3.03-.582-4.242l1.23.199c.76.123 1.506.245 2.222.358.311 1.052.481 2.341.481 3.685 0 1.333-.172 2.632-.483 3.685-.715.114-1.46.235-2.22.359zm5.606-.87c-.54.074-1.137.162-1.77.259.238-1.043.367-2.23.367-3.432 0-1.211-.129-2.39-.367-3.432.666.102 1.29.193 1.854.269.465.164.948 1.074.948 3.163 0 1.686-.347 2.754-1.032 3.174z"/>
</svg>
