<svg xmlns="http://www.w3.org/2000/svg" width="36" height="31" viewBox="0 0 36 31">
    <g fill="#455A64" fill-rule="nonzero">
        <path d="M30.238 17.135H5.28c-2.115 0-3.753-1.02-4.492-2.798-.854-2.052-.289-4.717 1.344-6.335C3.637 6.51 5.793 6.07 8.168 6.733c.15-2.263 1.296-4.192 3.25-5.403 2.64-1.637 6.325-1.69 8.96-.13 1.146.678 2.026 1.598 2.619 2.712 1.875-1.593 4.393-1.418 6.154-.273 1.704 1.108 2.466 2.875 2.094 4.597 1.372.083 2.596.712 3.42 1.794 1.037 1.362 1.241 3.17.521 4.609-.467.932-1.73 2.496-4.948 2.496zM3.262 9.127c-1.194 1.184-1.613 3.12-.996 4.603.345.828 1.147 1.815 3.014 1.815h24.958c1.746 0 2.994-.573 3.516-1.614.451-.903.308-2.057-.365-2.942-.72-.945-1.878-1.348-3.18-1.105a.802.802 0 0 1-.798-.319.79.79 0 0 1-.045-.854c.932-1.633-.005-3.036-1.09-3.742-1.313-.853-3.29-1.013-4.655.565.225.877.31 1.836.246 2.86a.794.794 0 0 1-.848.744.797.797 0 0 1-.749-.843c.205-3.288-1.36-4.93-2.71-5.73-2.142-1.267-5.142-1.22-7.294.114-1.788 1.108-2.673 2.923-2.491 5.11a.793.793 0 0 1-.327.709.789.789 0 0 1-.778.09c-2.495-1.111-4.664-.198-5.408.54zM31.55 30.94a.798.798 0 0 1-.8-.794c0-.439.359-.795.8-.795 1.261 0 2.288-1.001 2.288-2.232 0-1.232-1.026-2.234-2.288-2.234-1.26 0-2.287 1.003-2.287 2.236a.798.798 0 0 1-.8.795.798.798 0 0 1-.8-.795c0-2.11 1.743-3.826 3.887-3.826s3.888 1.716 3.888 3.824c0 2.108-1.744 3.822-3.888 3.822zm-2.991 0h-2.964a.798.798 0 0 1-.8-.794c0-.439.358-.795.8-.795h2.964c.441 0 .8.356.8.795a.797.797 0 0 1-.8.795zm-6.24 0h-1.716a.798.798 0 0 1-.8-.794c0-.439.358-.795.8-.795h1.716c.441 0 .8.356.8.795a.798.798 0 0 1-.8.795zm-5.148 0h-4.836a.798.798 0 0 1-.8-.794c0-.439.358-.795.8-.795h4.836c.441 0 .8.356.8.795a.798.798 0 0 1-.8.795zm6.239-7.331h-2.34a.798.798 0 0 1-.8-.795c0-.439.359-.795.8-.795h2.308c.547 0 .976-.413.976-.94 0-.523-.438-.948-.976-.948-.559 0-1.03.432-1.03.944a.798.798 0 0 1-.8.795.798.798 0 0 1-.8-.795c0-1.398 1.18-2.534 2.63-2.534 1.42 0 2.576 1.138 2.576 2.537 0 1.372-1.117 2.492-2.505 2.53h-.04zm-4.68 0h-2.183a.798.798 0 0 1-.8-.795c0-.439.358-.795.8-.795h2.184c.441 0 .8.356.8.795a.797.797 0 0 1-.8.795zm-4.835 0h-2.028a.798.798 0 0 1-.8-.795c0-.439.358-.795.8-.795h2.028c.441 0 .8.356.8.795a.797.797 0 0 1-.8.795zm-5.616 0h-2.34a.798.798 0 0 1-.8-.795c0-.439.358-.795.8-.795h2.34c.441 0 .8.356.8.795a.797.797 0 0 1-.8.795zm-4.056 0H1.415a.798.798 0 0 1-.8-.795c0-.439.358-.795.8-.795h2.808c.441 0 .8.356.8.795a.798.798 0 0 1-.8.795z"/>
    </g>
</svg>
