<svg xmlns="http://www.w3.org/2000/svg" width="73" height="37" viewBox="0 0 73 37">
    <g fill="#F5F8F9" fill-rule="nonzero">
        <path d="M31.782 17.317c-1.413 0-2.712-.076-3.972.038a9.872 9.872 0 0 0-2.979.569c-3.284 1.214-6.607 2.504-9.853 3.756a8.62 8.62 0 0 1-3.514.645c-1.413-.038-2.864 0-4.277 0h-.688c.268-1.062.497-2.049.764-3.035.42-1.745.878-3.49 1.26-5.236.077-.417.268-.607.764-.607 6.149 0 12.26-.038 18.447-.076a.874.874 0 0 1 .61.152 134.087 134.087 0 0 0 3.438 3.794zm-14.016.417h3.857c.355.022.704-.098.97-.333a1.32 1.32 0 0 0 .443-.919v-.152c-.038-.91-1.298-2.238-2.215-2.238a200.749 200.749 0 0 0-6.76 0c-.878 0-1.298.417-1.49 1.252a4.07 4.07 0 0 0-.114.72c-.115 1.063.42 1.67 1.49 1.67h3.819zM27.428 12.536H8.905c.344-1.062.42-2.238 1.07-3.149.42-.645 1.145-.91 1.91-1.024 2.825-.417 5.651-.873 8.44-1.29a3.413 3.413 0 0 1 3.017.986c1.374 1.404 2.673 2.846 4.01 4.288a.638.638 0 0 1 .076.19zM63.534.585c-4.974.01-9.004 4.013-9.013 8.954.01 4.941 4.04 8.945 9.013 8.954 4.974-.01 9.004-4.013 9.013-8.954-.009-4.941-4.039-8.945-9.013-8.954zm5.27 13.469c-.375-.335-.732-.69-1.069-1.062-.13.148-.27.288-.42.417-.338.412-.737.77-1.184 1.062a4.131 4.131 0 0 1-1.604.607 5.39 5.39 0 0 1-2.062.038 3.998 3.998 0 0 1-1.91-.872 11.093 11.093 0 0 1-1.03-.91c-.115-.077-.192-.19-.306-.266-.306.303-.65.607-.993.91-.039-.114-.039-.265-.077-.38-.076-.606-.19-1.213-.267-1.82-.076-.418-.115-.835-.191-1.253 0-.037 0-.075-.038-.075v-.076l1.298.19c.42.075.917.113 1.337.19l.917.113c.038 0 .076 0 .076.038-.344.341-.688.645-.993.948.496.797 1.451 1.518 2.368 1.556V7.642c0-.076-.038-.076-.077-.114a2.048 2.048 0 0 1-1.184-2.618c.27-.695.9-1.19 1.643-1.29.593-.08 1.195.07 1.68.418a1.985 1.985 0 0 1 .306 2.808c-.235.3-.554.524-.917.644-.076.038-.076.076-.076.114v5.767a.75.75 0 0 0 .267-.038 2.596 2.596 0 0 0 1.031-.493 5.835 5.835 0 0 0 1.07-1.1c.038-.076.038-.076 0-.114l-.84-.835-.039-.038c1.26-.19 2.444-.38 3.705-.531a24.03 24.03 0 0 1-.42 3.832zM53.475 33.176a5.71 5.71 0 0 1-3.552-2.2 5.515 5.515 0 0 1-4.507 2.276 5.515 5.515 0 0 1-4.506-2.277 5.144 5.144 0 0 1-1.948 1.67c-.786.45-1.693.649-2.597.569a4.694 4.694 0 0 1-2.483-.57 5.856 5.856 0 0 1-2.024-1.706 5.653 5.653 0 0 1-7.906 1.176 5.779 5.779 0 0 1-1.183-1.176 5.697 5.697 0 0 1-7.944 1.138 6.484 6.484 0 0 1-1.146-1.138 5.515 5.515 0 0 1-4.506 2.276 5.515 5.515 0 0 1-4.507-2.276 5.144 5.144 0 0 1-1.948 1.669c-.786.45-1.693.65-2.597.569v3.3h.764c.199-.067.403-.118.611-.15a5.659 5.659 0 0 0 3.094-2.088c.267.266.458.532.725.76A5.227 5.227 0 0 0 8.218 36.4c.076 0 .076.038.153.076h1.565c.363-.079.72-.18 1.07-.304a5.634 5.634 0 0 0 2.635-1.935c.267.266.458.532.726.76a5.227 5.227 0 0 0 2.902 1.403c.077 0 .077.038.153.076h1.566c.199-.068.403-.12.61-.152 1.223-.303 1.949-.797 3.094-2.087.268.266.459.532.726.76a5.227 5.227 0 0 0 2.903 1.403c.076 0 .076.038.152.076h1.566c.199-.068.403-.12.611-.152a5.659 5.659 0 0 0 3.094-2.087c.267.266.458.532.725.76a5.227 5.227 0 0 0 2.903 1.403c.076 0 .076.038.153.076h1.565c.2-.068.404-.12.612-.152a5.659 5.659 0 0 0 3.093-2.087c.267.266.458.532.726.76a5.227 5.227 0 0 0 2.902 1.403c.077 0 .077.038.153.076h1.566c.362-.079.72-.18 1.07-.304a5.634 5.634 0 0 0 2.634-1.935c.268.266.459.532.726.76A5.573 5.573 0 0 0 53.36 36.4v-3.339h.115v.114z"/>
        <path d="M59.776 30.975l-7.256-7.208c.725-.721 1.413-1.442 2.177-2.163a1.734 1.734 0 0 0 .42-2.01 1.837 1.837 0 0 0-1.757-1.101h-.878c-8.097.038-16.117.076-24.214.076a8.818 8.818 0 0 0-3.437.683c-3.208 1.29-6.416 2.58-9.586 3.832a9.08 9.08 0 0 1-3.323.645c-3.437-.038-6.798 0-10.235 0-1.26 0-1.757.683-1.375 1.859.382 1.138.764 2.314 1.146 3.453.152.524.427 1.005.802 1.403.531-.3.988-.715 1.337-1.214l1.069-1.442 1.108 1.404a4.032 4.032 0 0 0 3.437 1.746 4.126 4.126 0 0 0 3.437-1.746l1.07-1.404 1.069 1.404a4.28 4.28 0 0 0 3.437 1.746 4.243 4.243 0 0 0 3.437-1.708l1.07-1.48 1.069 1.48a4.296 4.296 0 0 0 3.437 1.708 4.28 4.28 0 0 0 3.437-1.746l1.07-1.441 1.107 1.441c.397.546.922.989 1.528 1.29a3.172 3.172 0 0 0 1.757.418h.267a3.078 3.078 0 0 0 1.833-.456 4.177 4.177 0 0 0 1.452-1.252l1.069-1.441 1.107 1.403a4.654 4.654 0 0 0 1.91 1.518 9.327 9.327 0 0 0 3.934-2.276c1.26-1.215 2.482-2.429 3.742-3.643l6.378 6.222H55.27v5.578h17.262v-5.578H59.776z"/>
    </g>
</svg>
