<svg xmlns="http://www.w3.org/2000/svg" width="73" height="37" viewBox="0 0 73 37">
    <g fill="#F5F8F9" fill-rule="nonzero">
        <ellipse cx="35.71" cy="17.81" rx="4.646" ry="4.659"/>
        <ellipse cx="7.874" cy="3.909" rx="3.878" ry="3.889"/>
        <path d="M20.545 8.684h-9.369l-2.764 5.622-2.765-5.622H4.534A4.456 4.456 0 0 0 .08 13.113v10.589c.004.87.707 1.575 1.574 1.579h.039a1.583 1.583 0 0 0 1.574-1.579v-9.203a.427.427 0 0 1 .422-.424c.233.002.42.19.423.424v20.408c.003.87.706 1.575 1.574 1.58h.768a1.583 1.583 0 0 0 1.574-1.58V24.82a.427.427 0 0 1 .422-.424h.039c.232.002.42.19.422.424v10.127c.004.87.706 1.575 1.574 1.579h.73a1.583 1.583 0 0 0 1.574-1.579V11.803h7.794a1.583 1.583 0 0 0 1.574-1.578v-.039a1.605 1.605 0 0 0-1.612-1.502z"/>
        <g transform="translate(49.174 12.784)">
            <path d="M23.114 16.481l-4.185-4.736a2.45 2.45 0 0 0-1.843-.848H6.834a2.45 2.45 0 0 0-1.843.848L.73 16.48A2.551 2.551 0 0 0 .538 19.6l2.265 3.273a2.004 2.004 0 0 0 2.764.5c.125-.091.24-.194.346-.307l.077-.077a1.98 1.98 0 0 0 .153-2.465l-1.19-1.694v-3.89a.936.936 0 0 1 .921-.923.651.651 0 0 1 .27.038l5.106 1.694v7.971h1.305v-7.97l5.107-1.695a.9.9 0 0 1 1.19.886v3.889l-1.19 1.694a1.977 1.977 0 0 0 .153 2.465l.077.077c.717.805 1.943.89 2.764.192.125-.12.24-.248.346-.385l2.265-3.273c.705-.94.64-2.252-.153-3.119z"/>
            <ellipse cx="11.941" cy="4.967" rx="4.646" ry="4.659"/>
        </g>
        <path d="M46.883 29.362l-4.185-4.736a2.45 2.45 0 0 0-1.843-.847H30.604a2.45 2.45 0 0 0-1.843.847l-4.185 4.736a2.551 2.551 0 0 0-.192 3.12l2.265 3.273a2.004 2.004 0 0 0 2.765.5c.124-.091.24-.195.345-.308l.077-.077a1.98 1.98 0 0 0 .154-2.464l-1.19-1.733v-3.89a.936.936 0 0 1 .92-.923.651.651 0 0 1 .27.038l5.106 1.694v7.933h1.306v-7.971l5.106-1.694a.9.9 0 0 1 1.19.885v3.89l-1.19 1.694a1.977 1.977 0 0 0 .154 2.464l.076.077c.718.805 1.944.89 2.765.193.124-.12.24-.249.345-.385l2.266-3.273a2.448 2.448 0 0 0-.23-3.043zM46.691.059H16.705a2.405 2.405 0 0 0-1.713.707 2.42 2.42 0 0 0-.706 1.719v4.813h6.259a2.979 2.979 0 0 1 2.956 2.927v.038a2.98 2.98 0 0 1-2.918 2.965h-6.258v5.353a2.42 2.42 0 0 0 .705 1.718c.454.455 1.071.71 1.714.707h13.86a5.988 5.988 0 0 1-.883-3.119 6.04 6.04 0 0 1 1.761-4.279 6.005 6.005 0 0 1 4.267-1.766 6.005 6.005 0 0 1 4.266 1.766 6.04 6.04 0 0 1 1.762 4.28 5.888 5.888 0 0 1-.883 3.118h4.953a2.405 2.405 0 0 0 1.713-.707 2.42 2.42 0 0 0 .706-1.718V1.638a1.506 1.506 0 0 0-1.421-1.58h-.154z"/>
    </g>
</svg>
