<svg xmlns="http://www.w3.org/2000/svg" width="74" height="36" viewBox="0 0 74 36">
    <g fill="#F5F8F9" fill-rule="nonzero">
        <path d="M70.846 32.2a5.873 5.873 0 0 1-2.032-1.707 5.657 5.657 0 0 1-3.72 2.226 5.691 5.691 0 0 1-4.217-1.05 5.79 5.79 0 0 1-1.188-1.176c-1.867 2.488-5.415 3.014-7.937 1.177a5.79 5.79 0 0 1-1.188-1.177c-1.835 2.478-5.349 3.02-7.86 1.215a4.936 4.936 0 0 1-1.265-1.252 5.62 5.62 0 0 1-1.955 1.707c-.79.45-1.7.649-2.607.569a4.728 4.728 0 0 1-2.492-.57 5.873 5.873 0 0 1-2.032-1.706 5.657 5.657 0 0 1-3.72 2.225 5.691 5.691 0 0 1-4.217-1.05 5.79 5.79 0 0 1-1.188-1.175c-1.867 2.487-5.415 3.013-7.937 1.176a5.79 5.79 0 0 1-1.188-1.176c-1.835 2.477-5.35 3.02-7.86 1.214a4.936 4.936 0 0 1-1.265-1.252 5.62 5.62 0 0 1-1.955 1.707c-.79.45-1.7.65-2.607.569v3.3h.766c.2-.067.405-.118.614-.15A5.682 5.682 0 0 0 4.9 33.755c.269.266.46.532.729.76a5.255 5.255 0 0 0 2.914 1.403c.076 0 .076.038.153.076h1.572c.376-.079.748-.18 1.112-.304a5.655 5.655 0 0 0 2.645-1.935c.269.266.46.532.729.76a5.255 5.255 0 0 0 2.913 1.403c.077 0 .077.038.154.076h1.572c.2-.068.405-.12.613-.152 1.227-.303 1.955-.797 3.106-2.087.268.266.46.532.728.76a5.255 5.255 0 0 0 2.914 1.403c.077 0 .077.038.153.076h1.572c.2-.068.405-.12.614-.152a5.682 5.682 0 0 0 3.105-2.087c.269.266.46.532.729.76a5.255 5.255 0 0 0 2.913 1.403c.077 0 .077.038.154.076h1.572c.2-.068.405-.12.613-.152a5.682 5.682 0 0 0 3.106-2.087c.268.266.46.532.728.76a5.255 5.255 0 0 0 2.914 1.403c.077 0 .077.038.153.076h1.572c.377-.079.748-.18 1.112-.304a5.655 5.655 0 0 0 2.646-1.935c.268.266.46.532.728.76a5.255 5.255 0 0 0 2.914 1.403c.076 0 .076.038.153.076h1.572c.2-.068.405-.12.614-.152 1.226-.303 1.955-.797 3.105-2.087.268.266.46.532.728.76a5.255 5.255 0 0 0 2.914 1.403c.077 0 .077.038.154.076h1.572c.2-.068.404-.12.613-.152a5.682 5.682 0 0 0 3.106-2.087c.268.266.46.532.728.76a5.255 5.255 0 0 0 2.914 1.403c.076 0 .076.038.153.076h.767v-3.301a4.154 4.154 0 0 1-2.3-.493zM65.861 21.35H50.986V.027c3.53 2.67 6.587 5.9 9.048 9.561A45.586 45.586 0 0 1 65.86 21.35zM49.26 9.892v11.382h-6.556c-.613-3.68 3.067-10.092 6.556-11.382z"/>
        <path d="M35.65 24.802a501.788 501.788 0 0 0 3.872 5.73c.32-.253.603-.547.844-.873l1.073-1.442 1.112 1.404c.958 1.214 2.07 1.783 3.45 1.783a4.196 4.196 0 0 0 3.451-1.745l1.112-1.404 1.073 1.442a4.301 4.301 0 0 0 3.451 1.745 4.265 4.265 0 0 0 3.45-1.707l1.112-1.48 1.112 1.48a4.248 4.248 0 0 0 3.45 1.745 4.248 4.248 0 0 0 3.451-1.745l1.074-1.48.997 1.29c1.073-1.594 2.185-3.225 3.259-4.894.613-.949.23-1.67-.92-1.708H36.531a1.299 1.299 0 0 0-1.227.531c-.269.456 0 .873.268 1.252.038.076.038.076.077.076zM18.359 7.388a.877.877 0 0 1-.576-.456 7.31 7.31 0 0 1-1.15-3.073c-.153-1.024.384-1.48 1.38-1.1.66.304 1.3.646 1.917 1.024a.7.7 0 0 0 .882-.038c.422-.341.844-.72 1.266-1.062.843-.607 1.533-.304 1.61.72a5.816 5.816 0 0 1-1.227 3.833c-.115.19-.499.265-.767.303-.383.038-.767.076-1.15.076a19.295 19.295 0 0 1-2.185-.227zM26.333 16.91a1.961 1.961 0 0 0-.498-.075c.374-.861.468-1.816.268-2.732a15.155 15.155 0 0 0-3.105-5.577.684.684 0 0 0-.69-.266 10.66 10.66 0 0 1-4.103 0 .701.701 0 0 0-.728.266 14.105 14.105 0 0 0-2.76 4.211c-.276.69-.494 1.4-.652 2.125a2.774 2.774 0 0 0 0 .797c-1.496.076-2.953.227-4.448.303.077-.493-.23-.531-.613-.493-.92.038-1.917 0-2.837 0H.492v10.775h7.86c1.15 0 1.188 0 1.265-1.138.038-.304.153-.417.46-.417a4.47 4.47 0 0 1 2.186.569c.88.483 1.79.914 2.722 1.29 2.607.872 5.176.758 7.63-.645 2.223-1.29 3.91-3.225 5.482-5.122 1.112-1.48.077-3.605-1.764-3.87zm-7.936-3.68a1.774 1.774 0 0 1 .153-1.252c.244-.46.678-.792 1.189-.91.92-.31 1.923.16 2.262 1.062l-.959.266a.885.885 0 0 0-1.035-.456.99.99 0 0 0-.537.418.737.737 0 0 0-.038.569l1.035-.266.154.57-1.074.303.153.531 1.074-.303.153.569-1.035.265c.07.202.205.375.384.494.209.12.46.147.69.075a.862.862 0 0 0 .651-.91l.959-.266a1.784 1.784 0 0 1-1.38 2.05c-.498.16-1.041.104-1.496-.153a1.723 1.723 0 0 1-.766-1.024l-.499.152-.23-.531.46-.114-.153-.531-.46.113-.154-.569.499-.152zm8.78 6.754c-.11.21-.252.403-.422.569a117.971 117.971 0 0 1-3.106 3.073c-2.032 1.973-4.485 2.542-7.207 2.011a9.895 9.895 0 0 1-2.723-1.062c-1.265-.645-2.492-1.214-3.987-1.063V17.1c.882-.075 1.802-.265 2.76-.265 2.667-.12 5.301.611 7.515 2.087.272.18.529.384.767.607.41.344.55.91.345 1.403-.268.532-.652.911-1.265.835a28.025 28.025 0 0 1-2.569-.569c-.383-.076-.728-.266-1.112-.38-.115.342-.268.684-.422 1.063 1.457.493 2.876 1.138 4.448 1.024a2.438 2.438 0 0 0 1.879-1.252 6.95 6.95 0 0 1 .996-1.366c.652-.682 1.342-1.29 2.07-1.935a1.25 1.25 0 0 1 1.688-.037c.505.402.65 1.103.345 1.669z"/>
    </g>
</svg>
