<svg xmlns="http://www.w3.org/2000/svg" width="73" height="37" viewBox="0 0 73 37">
    <g fill="#F5F8F9" fill-rule="nonzero">
        <path d="M22.149 13.803a2.816 2.816 0 0 1 1.867-.848l4.877-4.928c.8-.823.8-2.143 0-2.965l-.419-.424-.419-.424a2.078 2.078 0 0 0-2.934 0l-4.878 4.93a3.272 3.272 0 0 1-.838 1.886 2.964 2.964 0 0 1-2.4.847l-.458.462a.422.422 0 0 0 0 .578l1.867 1.887 1.868 1.887c.16.154.411.154.571 0l.457-.462a2.867 2.867 0 0 1 .839-2.426zM11.403 23.891l-.19-1.078 6.515-6.584a.363.363 0 0 0 .039-.501l-.039-.039-.076-.077-.076-.115a.354.354 0 0 0-.495-.039l-.038.039-6.517 6.585-1.067-.193a.686.686 0 0 0-.647.27L6.41 25.355a.652.652 0 0 0 .076.847l.343.346.343.347c.23.215.574.247.838.077l3.163-2.464a.74.74 0 0 0 .229-.617z"/>
        <path d="M16.014 13.521a1.197 1.197 0 0 1 0-1.617.796.796 0 0 0 0-1.117l-1.677-1.694a1.056 1.056 0 0 1-.267-.77 4.238 4.238 0 0 0-1.181-3.427 3.995 3.995 0 0 0-3.81-1.079.342.342 0 0 0-.23.385c0 .039.039.077.077.116l2.21 2.233c.632.6.699 1.592.153 2.272a1.719 1.719 0 0 1-2.401.27l-.114-.116-2.287-2.31a.297.297 0 0 0-.419 0c-.038.038-.076.077-.076.115-.573 2.2.721 4.455 2.896 5.045a5.1 5.1 0 0 0 1.524.115.987.987 0 0 1 .762.27l3.544 3.581c.16.154.412.154.572 0l1.143-1.155a.422.422 0 0 0 0-.578l-.42-.539zM19.71 17.256c.451.424 1.15.424 1.6 0a.776.776 0 0 1 1.105 0l1.677 1.695c.208.19.483.287.762.27a4.047 4.047 0 0 1 3.012.857c.85.68 1.399 1.673 1.523 2.762.05.476.025.957-.076 1.425a.338.338 0 0 1-.381.23c-.039 0-.077-.038-.115-.076l-2.21-2.234a1.642 1.642 0 0 0-2.248-.154 1.762 1.762 0 0 0-.267 2.426l.114.116 2.287 2.31a.305.305 0 0 1 0 .424c-.038.038-.076.077-.115.077-2.177.579-4.408-.73-4.991-2.927a5.26 5.26 0 0 1-.115-1.54 1.01 1.01 0 0 0-.266-.77l-3.544-3.581a.422.422 0 0 1 0-.578l1.143-1.155a.411.411 0 0 1 .571 0l.534.423zM72.714 17.383v1.27a25.23 25.23 0 0 1-.419 1.618c-1.22 3.696-3.125 7.008-5.411 10.165-1.448 2.08-4.497 2.157-6.25.308-.457-.5-.838-1.116-1.257-1.655-.11-.112-.2-.243-.267-.385-.99 1.463-1.905 3.003-3.848 3.273V9.027a73.127 73.127 0 0 1 10.707 3.234c0-2.195.038-4.351-.038-6.508-.038-1.155-.533-2.156-1.676-2.58a6.193 6.193 0 0 0-1.677-.346c-2.096-.039-4.192-.039-6.288-.039-.038 0-.076.039-.114.039V7.91a4 4 0 0 0-3.125 0V2.788h-5.754c-.419 0-.876.039-1.295.077-1.524.155-2.4.925-2.668 2.388-.064.29-.09.588-.076.886v6.007c0 .038.038.115.038.154a73.127 73.127 0 0 1 10.708-3.235v22.95a3.99 3.99 0 0 1-2.744-1.656 17.083 17.083 0 0 1-1.105-1.617c-.38.54-.724 1.04-1.067 1.502a4.186 4.186 0 0 1-5.868 1.04 3.711 3.711 0 0 1-1.067-1.117 44.068 44.068 0 0 1-1.41-2.234 35.113 35.113 0 0 1-3.544-7.085 14.273 14.273 0 0 1-.571-2.195v-1.232a4.996 4.996 0 0 1 2.02-2.657 9.872 9.872 0 0 1 1.486-.963.854.854 0 0 0 .495-.885 163.97 163.97 0 0 1 0-6.123c0-.577.038-1.117.076-1.694.267-2.542 1.905-4.313 4.382-4.852l1.03-.231h17.261c.267.077.457.077.724.154 1.905.385 3.43 1.348 4.23 3.235a8.85 8.85 0 0 1 .572 3.119v6.623a.467.467 0 0 0 .266.5c1.372.925 2.896 1.887 3.544 3.736z"/>
        <path d="M70.237 32.747a5.87 5.87 0 0 1-2.02-1.733 5.653 5.653 0 0 1-3.718 2.257 5.618 5.618 0 0 1-5.35-2.218 5.608 5.608 0 0 1-3.699 2.256 5.574 5.574 0 0 1-4.19-1.063 5.815 5.815 0 0 1-1.18-1.193 5.564 5.564 0 0 1-7.813 1.232 4.957 4.957 0 0 1-1.257-1.271 5.623 5.623 0 0 1-1.943 1.733 4.367 4.367 0 0 1-2.592.577A4.62 4.62 0 0 1 34 32.747a5.87 5.87 0 0 1-2.02-1.733 5.653 5.653 0 0 1-3.718 2.257 5.618 5.618 0 0 1-5.351-2.218 5.608 5.608 0 0 1-3.698 2.256 5.574 5.574 0 0 1-4.19-1.063 5.815 5.815 0 0 1-1.182-1.193 5.564 5.564 0 0 1-7.811 1.232 4.957 4.957 0 0 1-1.258-1.271 5.623 5.623 0 0 1-1.943 1.733 4.367 4.367 0 0 1-2.591.577v3.35h.762c.198-.069.402-.12.61-.153a5.643 5.643 0 0 0 3.086-2.118c.267.27.457.539.724.77a5.18 5.18 0 0 0 2.896 1.425c.076 0 .076.038.153.077h1.562c.374-.08.743-.183 1.105-.309a5.629 5.629 0 0 0 2.63-1.963c.266.27.457.539.723.77a5.18 5.18 0 0 0 2.896 1.425c.077 0 .077.038.153.077h1.562c.198-.07.402-.121.61-.154 1.22-.309 1.943-.81 3.086-2.118.267.27.458.539.724.77a5.18 5.18 0 0 0 2.896 1.425c.077 0 .077.038.153.077h1.562c.199-.07.403-.121.61-.154a5.643 5.643 0 0 0 3.086-2.118c.267.27.458.539.724.77a5.18 5.18 0 0 0 2.897 1.425c.076 0 .076.038.152.077h1.562c.199-.07.403-.121.61-.154a5.643 5.643 0 0 0 3.087-2.118c.266.27.457.539.724.77a5.18 5.18 0 0 0 2.896 1.425c.076 0 .076.038.152.077h1.562c.375-.08.744-.183 1.105-.309a5.629 5.629 0 0 0 2.63-1.963c.267.27.457.539.724.77a5.18 5.18 0 0 0 2.896 1.425c.076 0 .076.038.152.077h1.563c.198-.07.402-.121.61-.154 1.219-.309 1.943-.81 3.086-2.118.267.27.457.539.724.77a5.18 5.18 0 0 0 2.896 1.425c.076 0 .076.038.152.077h1.487c.198-.07.402-.121.61-.154a5.643 5.643 0 0 0 3.086-2.118c.267.27.457.539.724.77a5.18 5.18 0 0 0 2.896 1.425c.076 0 .076.038.152.077h.762v-3.35a4.134 4.134 0 0 1-2.21-.578z"/>
    </g>
</svg>
