<svg xmlns="http://www.w3.org/2000/svg" xmlns:xlink="http://www.w3.org/1999/xlink" width="40" height="440" viewBox="0 0 40 440"><svg width="9" height="17" viewBox="0 0 9 17" id="facebook" y="0"><path fill="#FFF" fill-rule="evenodd" d="M2.297 17V9.023H0V6.151h2.297V3.698C2.297 1.77 3.655 0 6.782 0c1.266 0 2.202.111 2.202.111L8.91 2.793s-.954-.008-1.996-.008c-1.128 0-1.309.477-1.309 1.269V6.15H9l-.148 2.872H5.605V17H2.297z" opacity=".5"></path></svg><svg width="38" height="39" viewBox="0 0 38 39" id="facebook-rounded" y="17"><path fill="#FFF" d="M18.714 0C8.379 0 0 8.627 0 19.269c0 10.642 8.379 19.269 18.714 19.269 10.335 0 18.714-8.627 18.714-19.269C37.419 8.631 29.046.009 18.714 0zm4.662 12.892h-2.132c-.866 0-.999.343-.999 1.234v1.989h3.13l-.333 3.223h-2.796v11.245h-4.662V19.338h-3.13v-3.223h3.13v-3.706c0-2.811 1.465-4.32 4.728-4.32h3.063v4.803z" opacity=".7"></path></svg><svg width="38" height="39" viewBox="0 0 38 39" id="google-rounded" y="56"><path fill="#FFF" d="M18.991 0C11.307 0 4.381 4.695 1.44 11.895c-2.94 7.2-1.315 15.488 4.118 21 5.433 5.51 13.604 7.159 20.703 4.176C33.36 34.09 37.99 27.063 37.99 19.27 37.979 8.631 29.479.009 18.99 0zm-4.666 25.852c-3.584 0-6.49-2.948-6.49-6.583 0-3.636 2.906-6.583 6.49-6.583a6.032 6.032 0 0 1 4.327 1.713l-1.758 1.714a3.606 3.606 0 0 0-2.569-1.029 3.983 3.983 0 0 0-2.838 1.216 4.1 4.1 0 0 0-1.15 2.899c-.002 2.246 1.774 4.078 3.988 4.114 2.57 0 3.515-1.851 3.65-2.811h-3.65V18.24h6.085c.058.363.08.73.067 1.098.069 3.84-2.433 6.514-6.152 6.514zm15.753-5.623h-2.772v2.811H25.48v-2.81h-2.772v-1.852h2.772v-2.811h1.825v2.811h2.772v1.852z" opacity=".7"></path></svg><svg width="32" height="27" viewBox="0 0 32 27" id="mail" y="95"><path fill="#FFF" fill-rule="evenodd" d="M28.826.964H3.434C1.688.964.26 2.374.26 4.098v18.804c0 1.723 1.428 3.134 3.174 3.134h25.392c1.746 0 3.174-1.41 3.174-3.134V4.098C32 2.375 30.572.964 28.826.964zm0 6.268L16.13 15.067 3.434 7.232V4.098l12.696 7.835 12.696-7.835v3.134z" opacity=".7"></path></svg><svg width="28" height="22" viewBox="0 0 28 22" id="mail-sm" y="122"><path fill="#FFF" fill-rule="evenodd" d="M25.24.071H3.16C1.642.071.4 1.301.4 2.804v16.392c0 1.503 1.242 2.733 2.76 2.733h22.08c1.518 0 2.76-1.23 2.76-2.733V2.804C28 1.3 26.758.07 25.24.07zm0 5.465l-11.04 6.83-11.04-6.83V2.804l11.04 6.83 11.04-6.83v2.732z" opacity=".7"></path></svg><svg width="19" height="27" viewBox="0 0 22 32" shape-rendering="geometricPrecision" text-rendering="geometricPrecision" image-rendering="optimizeQuality" fill-rule="evenodd" clip-rule="evenodd" id="marina-geo" y="144"><defs><style>.fil0{fill:#ff5722}</style></defs><g id="Layer_x0020_1"><path id="marina-geo.svg" class="fil0" d="M11 0C5 0 0 5 0 11c0 8 11 21 11 21s11-13 11-21c0-6-5-11-11-11zm0 15c-2 0-4-2-4-4s2-4 4-4 4 2 4 4-2 4-4 4z"></path></g></svg><svg width="14" height="20" viewBox="0 0 14 20" id="menu-geo" y="171"><path fill="#455A64" fill-rule="evenodd" d="M7 0C3.1 0 0 3.1 0 7c0 5.2 7 13 7 13s7-7.8 7-13c0-3.9-3.1-7-7-7zm0 9.5C5.6 9.5 4.5 8.4 4.5 7S5.6 4.5 7 4.5 9.5 5.6 9.5 7 8.4 9.5 7 9.5z"></path></svg><svg width="20" height="16" viewBox="0 0 20 16" id="menu-mail" y="191"><path fill="#455A64" fill-rule="evenodd" d="M18 0H2C.9 0 0 .9 0 2v12c0 1.1.9 2 2 2h16c1.1 0 2-.9 2-2V2c0-1.1-.9-2-2-2zm0 4l-8 5-8-5V2l8 5 8-5v2z"></path></svg><svg width="22" height="17" viewBox="0 0 22 17" id="menu-sandwich" y="207"><path d="M0 0h22v2.833H0zm0 7.083h22v2.833H0zm0 7.084h22V17H0z" fill="#455A64" fill-rule="evenodd"></path></svg><svg width="33" height="23" viewBox="0 0 33 23" id="menu-weather" y="224"><path d="M16.74 10.455c.207-.314.413-.593.654-.872-.928-2.23-3.128-3.798-5.638-3.798-3.369 0-6.119 2.788-6.119 6.203a6.27 6.27 0 0 0 2.922 5.297c.62-1.673 2.063-2.927 3.816-3.241a5.234 5.234 0 0 1 4.366-3.59zm-5.018-5.96c.447 0 .79-.348.79-.801V1.08a.783.783 0 0 0-.79-.801.783.783 0 0 0-.79.801v2.614c0 .453.377.801.79.801zM5.397 6.69a.728.728 0 0 0 .55.245.68.68 0 0 0 .55-.244.828.828 0 0 0 0-1.15L4.675 3.694a.801.801 0 0 0-1.134 0 .828.828 0 0 0 0 1.15L5.397 6.69zm-1.066 5.298a.783.783 0 0 0-.79-.802H.962a.783.783 0 0 0-.79.802c0 .453.344.801.79.801h2.579c.446 0 .79-.348.79-.801zm1.066 5.297l-1.822 1.847a.828.828 0 0 0 0 1.15.728.728 0 0 0 .55.244.68.68 0 0 0 .55-.244l1.822-1.847a.828.828 0 0 0 0-1.15.76.76 0 0 0-1.1 0zm12.134-10.35a.68.68 0 0 0 .55-.244l1.822-1.847a.828.828 0 0 0 0-1.15.801.801 0 0 0-1.134 0L16.947 5.54a.828.828 0 0 0 0 1.15.8.8 0 0 0 .584.244zm11.309 6.098c-.687-2.578-2.99-4.46-5.774-4.46a5.913 5.913 0 0 0-5.397 3.485c-.103 0-.24-.035-.344-.035-1.96 0-3.575 1.568-3.644 3.554-.103 0-.24-.035-.343-.035-1.96 0-3.541 1.603-3.541 3.59 0 1.986 1.581 3.59 3.54 3.59H28.05c2.647 0 4.812-2.196 4.812-4.88-.034-2.439-1.753-4.425-4.021-4.809z" fill="#4C5A62"></path></svg><svg width="40" height="39" viewBox="0 0 40 39" id="message" y="247"><path fill="#FFF" d="M39.6 17.417v1.322c-.035.36-.07.722-.114 1.083a17.299 17.299 0 0 1-7.131 12.298c-5.173 3.84-10.952 4.826-17.187 3.365-.29-.085-.6-.046-.86.106-1.828 1.03-3.654 2.035-5.49 3.048-.202.114-.404.22-.676.361v-.529c0-1.964-.01-3.937.008-5.902a.783.783 0 0 0-.333-.695c-4.066-3.27-6.516-7.462-6.823-12.73C.652 13.25 2.907 8.37 7.414 4.636a20.143 20.143 0 0 1 25.011-.555 17.256 17.256 0 0 1 6.842 10.861c.148.81.219 1.648.333 2.475zm-21.385-4.389c-3.469 3.717-6.924 7.417-10.365 11.099a.44.44 0 0 0 .059.07c3.112-1.706 6.214-3.424 9.349-5.15 1.643 1.77 3.267 3.515 4.916 5.294 3.469-3.717 6.912-7.399 10.354-11.09a.489.489 0 0 0-.053-.07 5250.708 5250.708 0 0 0-9.22 5.152c-1.676-1.779-3.345-3.523-5.04-5.305z" opacity=".7"></path></svg><svg width="38" height="38" viewBox="0 0 38 38" id="phone" y="286"><path fill="#FFF" fill-rule="evenodd" d="M18.93 0C8.633 0 .3 8.406.3 18.804c0 3.92 1.185 7.548 3.29 10.665a.948.948 0 0 1 .116.808l-1.892 6.39 6.2-2.16a.924.924 0 0 1 .8.103 18.395 18.395 0 0 0 10.116 2.997c10.302 0 18.63-8.405 18.63-18.803C37.56 8.405 29.232 0 18.93 0zm-7.627 8.197l3.392 5.656-1.412 1.41a.947.947 0 0 0-.146 1.131c2.155 3.766 4.707 6.696 8.282 8.286.35.157.76.081 1.033-.191l1.5-1.513 5.472 3.452c-.606 1.376-1.396 2.196-2.3 2.673-1.046.554-2.325.658-3.784.353-2.918-.61-6.443-2.925-9.315-5.89-2.872-2.966-5.095-6.572-5.662-9.505-.283-1.467-.158-2.73.379-3.732.462-.862 1.247-1.6 2.561-2.13z" opacity=".7"></path></svg><svg width="38" height="38" viewBox="0 0 38 38" id="telegram-rounded" y="324"><path fill="#FFF" d="M15.888 22.54l1.514 1.14a783.64 783.64 0 0 0-1.582 1.575c-.049.05-.095.103-.143.155l.026-.347c.06-.84.121-1.682.185-2.523zm4.145-7.408c-2.563 1.631-5.126 3.268-7.69 4.898-.052.033-.11.059-.167.085l1.006 3.253c.24.763.488 1.524.714 2.29.094.318.255.488.597.428.095-1.297.186-2.593.282-3.89.012-.151.03-.305.048-.456-.145-.084-.082-.245-.032-.298l.266-.279.095-.09.132-.139.635-.602a133.39 133.39 0 0 1 1.358-1.274c.851-.781 1.72-1.545 2.573-2.323a436.004 436.004 0 0 0 3.25-2.993c.078-.111.13-.254.199-.376-.193.026-.42-.006-.573.085-.907.545-1.799 1.112-2.693 1.68zm17.227 3.672c0 10.384-8.341 18.803-18.63 18.803C8.34 37.607 0 29.188 0 18.804 0 8.418 8.34 0 18.63 0c10.289 0 18.63 8.418 18.63 18.804zm-10.31-7.492c-.01-.072-.018-.145-.032-.216-.164-.798-.597-1.039-1.373-.77-.114.038-.23.063-.346.095-.433.18-.861.373-1.3.539-.728.277-1.462.536-2.196.803-.448.188-.892.385-1.344.563-1.13.446-2.264.884-3.397 1.326l-6.996 2.72c-.524.205-1.053.398-1.571.616-.456.19-.921.374-1.341.63-.186.112-.39.408-.37.596.021.19.309.353.485.522.032.031.087.041.133.055 1.236.387 2.472.773 3.709 1.158-.007.13.008.263.048.394l.45 1.456.591 1.91.208.657c.168.532.343 1.082.502 1.62.346 1.166 1.279 1.256 1.557 1.256.041 0 .085-.002.129-.004.042.002.085.003.127.003.714 0 1.173-.397 1.446-.634a2.43 2.43 0 0 1 .133-.112c.056-.043.11-.09.155-.14.035-.038.068-.077.103-.114a4.22 4.22 0 0 1 .159-.172l1.244-1.243.493-.49.209.144c1.121.845 2.24 1.694 3.366 2.534.84.627 1.427.465 1.833-.493l.517-2.423.469-2.413.297-1.326c.263-1.244.525-2.49.786-3.735l.252-1.191c.02-.094.045-.19.064-.284.268-1.28.534-2.557.8-3.837z" opacity=".7"></path></svg><svg width="39" height="39" viewBox="0 0 39 39" id="twitter-rounded" y="362"><path fill="#FFF" d="M19.807 0C9.315 0 .81 8.627.81 19.269c0 10.642 8.505 19.269 18.997 19.269 10.492 0 18.998-8.627 18.998-19.269C38.796 8.631 30.295.009 19.807 0zm9.666 15.497c.27 6.514-4.462 13.715-12.913 13.715a12.788 12.788 0 0 1-6.964-2.057 9.273 9.273 0 0 0 6.758-1.92c-1.943-.068-3.641-1.353-4.259-3.223a4.967 4.967 0 0 0 2.028-.069c-2.136-.46-3.66-2.379-3.65-4.594a4.085 4.085 0 0 0 2.028.548c-1.983-1.37-2.6-4.052-1.42-6.171a12.593 12.593 0 0 0 9.397 4.8c-.465-2.039.471-4.142 2.288-5.135a4.532 4.532 0 0 1 5.487.883 10.63 10.63 0 0 0 2.907-1.097 4.454 4.454 0 0 1-2.028 2.537 8.386 8.386 0 0 0 2.637-.754 8.338 8.338 0 0 1-2.296 2.537z" opacity=".7"></path></svg><svg width="38" height="39" viewBox="0 0 38 39" id="vk-rounded" y="401"><path fill="#FFF" d="M19.263 0C8.928 0 .55 8.627.55 19.269c0 10.642 8.379 19.269 18.714 19.269 10.336 0 18.714-8.627 18.714-19.269C37.968 8.631 29.595.009 19.263 0zm9.923 25.989h-2.93c-1.664 0-1.931-.96-3.263-2.332-1.199-1.234-1.931-.274-1.865 1.509 0 .48-.2.891-.799.891-1.731 0-4.196.274-6.727-2.537-2.597-2.88-5.261-8.572-5.261-9.189 0-.342.266-.48.732-.48h2.93c.8 0 .867.414 1.066.892.933 2.127 3.064 6.446 3.663 4.046.333-1.371.466-4.594-.932-4.868-.8-.137.599-1.03 2.664-1.03a7.41 7.41 0 0 1 1.664.207c1.066.274 1.066.753 1.066 1.44-.067 2.674-.402 4.457.333 4.937.665.413 2.397-2.4 3.263-4.595.266-.617.266-1.029.999-1.029h3.596c1.865 0-.266 2.812-1.865 5.006-1.332 1.783-1.262 1.783.267 3.291 1.065 1.03 2.397 2.47 2.397 3.292.001.343-.265.549-.998.549z" opacity=".7"></path></svg></svg>