<svg xmlns="http://www.w3.org/2000/svg" xmlns:xlink="http://www.w3.org/1999/xlink" width="74" height="587" viewBox="0 0 74 587"><svg width="74" height="36" viewBox="0 0 74 36" id="charter-white" y="0"><g fill="#F5F8F9"><path d="M70.846 32.2a5.873 5.873 0 0 1-2.032-1.707 5.657 5.657 0 0 1-3.72 2.226 5.691 5.691 0 0 1-4.217-1.05 5.79 5.79 0 0 1-1.188-1.176c-1.867 2.488-5.415 3.014-7.937 1.177a5.79 5.79 0 0 1-1.188-1.177c-1.835 2.478-5.349 3.02-7.86 1.215a4.936 4.936 0 0 1-1.265-1.252 5.62 5.62 0 0 1-1.955 1.707c-.79.45-1.7.649-2.607.569a4.728 4.728 0 0 1-2.492-.57 5.873 5.873 0 0 1-2.032-1.706 5.657 5.657 0 0 1-3.72 2.225 5.691 5.691 0 0 1-4.217-1.05 5.79 5.79 0 0 1-1.188-1.175c-1.867 2.487-5.415 3.013-7.937 1.176a5.79 5.79 0 0 1-1.188-1.176c-1.835 2.477-5.35 3.02-7.86 1.214a4.936 4.936 0 0 1-1.265-1.252 5.62 5.62 0 0 1-1.955 1.707c-.79.45-1.7.65-2.607.569v3.3h.766c.2-.067.405-.118.614-.15A5.682 5.682 0 0 0 4.9 33.755c.269.266.46.532.729.76a5.255 5.255 0 0 0 2.914 1.403c.076 0 .076.038.153.076h1.572a9.52 9.52 0 0 0 1.112-.304 5.655 5.655 0 0 0 2.645-1.935c.269.266.46.532.729.76a5.255 5.255 0 0 0 2.913 1.403c.077 0 .077.038.154.076h1.572c.2-.068.405-.12.613-.152 1.227-.303 1.955-.797 3.106-2.087.268.266.46.532.728.76a5.255 5.255 0 0 0 2.914 1.403c.077 0 .077.038.153.076h1.572c.2-.068.405-.12.614-.152a5.682 5.682 0 0 0 3.105-2.087c.269.266.46.532.729.76a5.255 5.255 0 0 0 2.913 1.403c.077 0 .077.038.154.076h1.572c.2-.068.405-.12.613-.152a5.682 5.682 0 0 0 3.106-2.087c.268.266.46.532.728.76a5.255 5.255 0 0 0 2.914 1.403c.077 0 .077.038.153.076h1.572c.377-.079.748-.18 1.112-.304a5.655 5.655 0 0 0 2.646-1.935c.268.266.46.532.728.76a5.255 5.255 0 0 0 2.914 1.403c.076 0 .076.038.153.076h1.572c.2-.068.405-.12.614-.152 1.226-.303 1.955-.797 3.105-2.087.268.266.46.532.728.76a5.255 5.255 0 0 0 2.914 1.403c.077 0 .077.038.154.076h1.572c.2-.068.404-.12.613-.152a5.682 5.682 0 0 0 3.106-2.087c.268.266.46.532.728.76a5.255 5.255 0 0 0 2.914 1.403c.076 0 .076.038.153.076h.767v-3.301a4.154 4.154 0 0 1-2.3-.493zm-4.985-10.85H50.986V.027a39.9 39.9 0 0 1 9.048 9.561A45.586 45.586 0 0 1 65.86 21.35zM49.26 9.892v11.382h-6.556c-.613-3.68 3.067-10.092 6.556-11.382z"></path><path d="M35.65 24.802a501.788 501.788 0 0 0 3.872 5.73 4.59 4.59 0 0 0 .844-.873l1.073-1.442 1.112 1.404c.958 1.214 2.07 1.783 3.45 1.783a4.196 4.196 0 0 0 3.451-1.745l1.112-1.404 1.073 1.442a4.301 4.301 0 0 0 3.451 1.745 4.265 4.265 0 0 0 3.45-1.707l1.112-1.48 1.112 1.48a4.248 4.248 0 0 0 3.45 1.745 4.248 4.248 0 0 0 3.451-1.745l1.074-1.48.997 1.29c1.073-1.594 2.185-3.225 3.259-4.894.613-.949.23-1.67-.92-1.708H36.531a1.299 1.299 0 0 0-1.227.531c-.269.456 0 .873.268 1.252.038.076.038.076.077.076zM18.359 7.388a.877.877 0 0 1-.576-.456 7.31 7.31 0 0 1-1.15-3.073c-.153-1.024.384-1.48 1.38-1.1.66.304 1.3.646 1.917 1.024a.7.7 0 0 0 .882-.038c.422-.341.844-.72 1.266-1.062.843-.607 1.533-.304 1.61.72a5.816 5.816 0 0 1-1.227 3.833c-.115.19-.499.265-.767.303-.383.038-.767.076-1.15.076a19.295 19.295 0 0 1-2.185-.227zm7.974 9.522a1.961 1.961 0 0 0-.498-.075 4.464 4.464 0 0 0 .268-2.732 15.155 15.155 0 0 0-3.105-5.577.684.684 0 0 0-.69-.266 10.66 10.66 0 0 1-4.103 0 .701.701 0 0 0-.728.266 14.105 14.105 0 0 0-2.76 4.211c-.276.69-.494 1.4-.652 2.125a2.774 2.774 0 0 0 0 .797c-1.496.076-2.953.227-4.448.303.077-.493-.23-.531-.613-.493-.92.038-1.917 0-2.837 0H.492v10.775h7.86c1.15 0 1.188 0 1.265-1.138.038-.304.153-.417.46-.417a4.47 4.47 0 0 1 2.186.569c.88.483 1.79.914 2.722 1.29 2.607.872 5.176.758 7.63-.645 2.223-1.29 3.91-3.225 5.482-5.122 1.112-1.48.077-3.605-1.764-3.87zm-7.936-3.68a1.774 1.774 0 0 1 .153-1.252c.244-.46.678-.792 1.189-.91a1.8 1.8 0 0 1 2.262 1.062l-.959.266a.885.885 0 0 0-1.035-.456.99.99 0 0 0-.537.418.737.737 0 0 0-.038.569l1.035-.266.154.57-1.074.303.153.531 1.074-.303.153.569-1.035.265c.07.202.205.375.384.494.209.12.46.147.69.075a.862.862 0 0 0 .651-.91l.959-.266a1.784 1.784 0 0 1-1.38 2.05 1.877 1.877 0 0 1-1.496-.153 1.723 1.723 0 0 1-.766-1.024l-.499.152-.23-.531.46-.114-.153-.531-.46.113-.154-.569.499-.152zm8.78 6.754c-.11.21-.252.403-.422.569a117.971 117.971 0 0 1-3.106 3.073c-2.032 1.973-4.485 2.542-7.207 2.011a9.895 9.895 0 0 1-2.723-1.062c-1.265-.645-2.492-1.214-3.987-1.063V17.1c.882-.075 1.802-.265 2.76-.265 2.667-.12 5.301.611 7.515 2.087.272.18.529.384.767.607.41.344.55.91.345 1.403-.268.532-.652.911-1.265.835a28.025 28.025 0 0 1-2.569-.569c-.383-.076-.728-.266-1.112-.38-.115.342-.268.684-.422 1.063 1.457.493 2.876 1.138 4.448 1.024a2.438 2.438 0 0 0 1.879-1.252 6.95 6.95 0 0 1 .996-1.366c.652-.682 1.342-1.29 2.07-1.935a1.25 1.25 0 0 1 1.688-.037c.505.402.65 1.103.345 1.669z"></path></g></svg><svg width="9" height="17" viewBox="0 0 9 17" id="facebook" y="36"><path fill="#FFF" fill-rule="evenodd" d="M2.297 17V9.023H0V6.151h2.297V3.698C2.297 1.77 3.655 0 6.782 0c1.266 0 2.202.111 2.202.111L8.91 2.793s-.954-.008-1.996-.008c-1.128 0-1.309.477-1.309 1.269V6.15H9l-.148 2.872H5.605V17H2.297z" opacity=".5"></path></svg><svg width="38" height="39" viewBox="0 0 38 39" id="facebook-rounded" y="53"><path fill="#FFF" d="M18.714 0C8.379 0 0 8.627 0 19.269c0 10.642 8.379 19.269 18.714 19.269 10.335 0 18.714-8.627 18.714-19.269C37.419 8.631 29.046.009 18.714 0zm4.662 12.892h-2.132c-.866 0-.999.343-.999 1.234v1.989h3.13l-.333 3.223h-2.796v11.245h-4.662V19.338h-3.13v-3.223h3.13v-3.706c0-2.811 1.465-4.32 4.728-4.32h3.063v4.803z" opacity=".7"></path></svg><svg width="38" height="39" viewBox="0 0 38 39" id="google-rounded" y="92"><path fill="#FFF" d="M18.991 0C11.307 0 4.381 4.695 1.44 11.895c-2.94 7.2-1.315 15.488 4.118 21 5.433 5.51 13.604 7.159 20.703 4.176C33.36 34.09 37.99 27.063 37.99 19.27 37.979 8.631 29.479.009 18.99 0zm-4.666 25.852c-3.584 0-6.49-2.948-6.49-6.583 0-3.636 2.906-6.583 6.49-6.583a6.032 6.032 0 0 1 4.327 1.713l-1.758 1.714a3.606 3.606 0 0 0-2.569-1.029 3.983 3.983 0 0 0-2.838 1.216 4.1 4.1 0 0 0-1.15 2.899c-.002 2.246 1.774 4.078 3.988 4.114 2.57 0 3.515-1.851 3.65-2.811h-3.65V18.24h6.085c.058.363.08.73.067 1.098.069 3.84-2.433 6.514-6.152 6.514zm15.753-5.623h-2.772v2.811H25.48v-2.81h-2.772v-1.852h2.772v-2.811h1.825v2.811h2.772v1.852z" opacity=".7"></path></svg><svg width="32" height="27" viewBox="0 0 32 27" id="mail" y="131"><path fill="#FFF" fill-rule="evenodd" d="M28.826.964H3.434C1.688.964.26 2.374.26 4.098v18.804c0 1.723 1.428 3.134 3.174 3.134h25.392c1.746 0 3.174-1.41 3.174-3.134V4.098C32 2.375 30.572.964 28.826.964zm0 6.268L16.13 15.067 3.434 7.232V4.098l12.696 7.835 12.696-7.835v3.134z" opacity=".7"></path></svg><svg width="28" height="22" viewBox="0 0 28 22" id="mail-sm" y="158"><path fill="#FFF" fill-rule="evenodd" d="M25.24.071H3.16C1.642.071.4 1.301.4 2.804v16.392c0 1.503 1.242 2.733 2.76 2.733h22.08c1.518 0 2.76-1.23 2.76-2.733V2.804C28 1.3 26.758.07 25.24.07zm0 5.465l-11.04 6.83-11.04-6.83V2.804l11.04 6.83 11.04-6.83v2.732z" opacity=".7"></path></svg><svg width="19" height="27" viewBox="0 0 22 32" shape-rendering="geometricPrecision" text-rendering="geometricPrecision" image-rendering="optimizeQuality" fill-rule="evenodd" clip-rule="evenodd" id="marina-geo" y="180"><defs><style>.fil0{fill:#ff5722}</style></defs><g id="Layer_x0020_1"><path id="marina-geo.svg" class="fil0" d="M11 0C5 0 0 5 0 11c0 8 11 21 11 21s11-13 11-21c0-6-5-11-11-11zm0 15c-2 0-4-2-4-4s2-4 4-4 4 2 4 4-2 4-4 4z"></path></g></svg><svg width="14" height="20" viewBox="0 0 14 20" id="menu-geo" y="207"><path fill="#455A64" fill-rule="evenodd" d="M7 0C3.1 0 0 3.1 0 7c0 5.2 7 13 7 13s7-7.8 7-13c0-3.9-3.1-7-7-7zm0 9.5C5.6 9.5 4.5 8.4 4.5 7S5.6 4.5 7 4.5 9.5 5.6 9.5 7 8.4 9.5 7 9.5z"></path></svg><svg width="20" height="16" viewBox="0 0 20 16" id="menu-mail" y="227"><path fill="#455A64" fill-rule="evenodd" d="M18 0H2C.9 0 0 .9 0 2v12c0 1.1.9 2 2 2h16c1.1 0 2-.9 2-2V2c0-1.1-.9-2-2-2zm0 4l-8 5-8-5V2l8 5 8-5v2z"></path></svg><svg width="22" height="17" viewBox="0 0 22 17" id="menu-sandwich" y="243"><path d="M0 0h22v2.833H0zm0 7.083h22v2.833H0zm0 7.084h22V17H0z" fill="#455A64" fill-rule="evenodd"></path></svg><svg width="33" height="23" viewBox="0 0 33 23" id="menu-weather" y="260"><path d="M16.74 10.455c.207-.314.413-.593.654-.872-.928-2.23-3.128-3.798-5.638-3.798-3.369 0-6.119 2.788-6.119 6.203a6.27 6.27 0 0 0 2.922 5.297c.62-1.673 2.063-2.927 3.816-3.241a5.234 5.234 0 0 1 4.366-3.59zm-5.018-5.96c.447 0 .79-.348.79-.801V1.08a.783.783 0 0 0-.79-.801.783.783 0 0 0-.79.801v2.614c0 .453.377.801.79.801zM5.397 6.69a.728.728 0 0 0 .55.245.68.68 0 0 0 .55-.244.828.828 0 0 0 0-1.15L4.675 3.694a.801.801 0 0 0-1.134 0 .828.828 0 0 0 0 1.15L5.397 6.69zm-1.066 5.298a.783.783 0 0 0-.79-.802H.962a.783.783 0 0 0-.79.802c0 .453.344.801.79.801h2.579c.446 0 .79-.348.79-.801zm1.066 5.297l-1.822 1.847a.828.828 0 0 0 0 1.15.728.728 0 0 0 .55.244.68.68 0 0 0 .55-.244l1.822-1.847a.828.828 0 0 0 0-1.15.76.76 0 0 0-1.1 0zm12.134-10.35a.68.68 0 0 0 .55-.244l1.822-1.847a.828.828 0 0 0 0-1.15.801.801 0 0 0-1.134 0L16.947 5.54a.828.828 0 0 0 0 1.15.8.8 0 0 0 .584.244zm11.309 6.098c-.687-2.578-2.99-4.46-5.774-4.46a5.913 5.913 0 0 0-5.397 3.485c-.103 0-.24-.035-.344-.035-1.96 0-3.575 1.568-3.644 3.554-.103 0-.24-.035-.343-.035-1.96 0-3.541 1.603-3.541 3.59 0 1.986 1.581 3.59 3.54 3.59H28.05c2.647 0 4.812-2.196 4.812-4.88-.034-2.439-1.753-4.425-4.021-4.809z" fill="#4C5A62"></path></svg><svg width="40" height="39" viewBox="0 0 40 39" id="message" y="283"><path fill="#FFF" d="M39.6 17.417v1.322c-.035.36-.07.722-.114 1.083a17.299 17.299 0 0 1-7.131 12.298c-5.173 3.84-10.952 4.826-17.187 3.365-.29-.085-.6-.046-.86.106-1.828 1.03-3.654 2.035-5.49 3.048-.202.114-.404.22-.676.361v-.529c0-1.964-.01-3.937.008-5.902a.783.783 0 0 0-.333-.695c-4.066-3.27-6.516-7.462-6.823-12.73C.652 13.25 2.907 8.37 7.414 4.636a20.143 20.143 0 0 1 25.011-.555 17.256 17.256 0 0 1 6.842 10.861c.148.81.219 1.648.333 2.475zm-21.385-4.389c-3.469 3.717-6.924 7.417-10.365 11.099a.44.44 0 0 0 .059.07c3.112-1.706 6.214-3.424 9.349-5.15 1.643 1.77 3.267 3.515 4.916 5.294 3.469-3.717 6.912-7.399 10.354-11.09a.489.489 0 0 0-.053-.07 5250.708 5250.708 0 0 0-9.22 5.152c-1.676-1.779-3.345-3.523-5.04-5.305z" opacity=".7"></path></svg><svg width="73" height="37" viewBox="0 0 73 37" id="parking-white" y="322"><g fill="#F5F8F9"><path d="M31.782 17.317c-1.413 0-2.712-.076-3.972.038a9.872 9.872 0 0 0-2.979.569c-3.284 1.214-6.607 2.504-9.853 3.756a8.62 8.62 0 0 1-3.514.645c-1.413-.038-2.864 0-4.277 0h-.688c.268-1.062.497-2.049.764-3.035.42-1.745.878-3.49 1.26-5.236.077-.417.268-.607.764-.607 6.149 0 12.26-.038 18.447-.076a.874.874 0 0 1 .61.152 134.087 134.087 0 0 0 3.438 3.794zm-14.016.417h3.857a1.34 1.34 0 0 0 .97-.333 1.32 1.32 0 0 0 .443-.919v-.152c-.038-.91-1.298-2.238-2.215-2.238a200.749 200.749 0 0 0-6.76 0c-.878 0-1.298.417-1.49 1.252a4.07 4.07 0 0 0-.114.72c-.115 1.063.42 1.67 1.49 1.67h3.819zm9.662-5.198H8.905c.344-1.062.42-2.238 1.07-3.149.42-.645 1.145-.91 1.91-1.024 2.825-.417 5.651-.873 8.44-1.29a3.413 3.413 0 0 1 3.017.986c1.374 1.404 2.673 2.846 4.01 4.288a.638.638 0 0 1 .076.19zM63.534.585c-4.974.01-9.004 4.013-9.013 8.954.01 4.941 4.04 8.945 9.013 8.954 4.974-.01 9.004-4.013 9.013-8.954-.009-4.941-4.039-8.945-9.013-8.954zm5.27 13.469c-.375-.335-.732-.69-1.069-1.062a4.24 4.24 0 0 1-.42.417c-.338.412-.737.77-1.184 1.062a4.131 4.131 0 0 1-1.604.607 5.39 5.39 0 0 1-2.062.038 3.998 3.998 0 0 1-1.91-.872 11.093 11.093 0 0 1-1.03-.91c-.115-.077-.192-.19-.306-.266-.306.303-.65.607-.993.91-.039-.114-.039-.265-.077-.38-.076-.606-.19-1.213-.267-1.82-.076-.418-.115-.835-.191-1.253 0-.037 0-.075-.038-.075v-.076l1.298.19c.42.075.917.113 1.337.19l.917.113c.038 0 .076 0 .076.038-.344.341-.688.645-.993.948.496.797 1.451 1.518 2.368 1.556V7.642c0-.076-.038-.076-.077-.114a2.048 2.048 0 0 1-1.184-2.618c.27-.695.9-1.19 1.643-1.29.593-.08 1.195.07 1.68.418a1.985 1.985 0 0 1 .306 2.808c-.235.3-.554.524-.917.644-.076.038-.076.076-.076.114v5.767a.75.75 0 0 0 .267-.038 2.596 2.596 0 0 0 1.031-.493 5.835 5.835 0 0 0 1.07-1.1c.038-.076.038-.076 0-.114l-.84-.835-.039-.038c1.26-.19 2.444-.38 3.705-.531a24.03 24.03 0 0 1-.42 3.832zM53.475 33.176a5.71 5.71 0 0 1-3.552-2.2 5.515 5.515 0 0 1-4.507 2.276 5.515 5.515 0 0 1-4.506-2.277 5.144 5.144 0 0 1-1.948 1.67 4.441 4.441 0 0 1-2.597.569 4.694 4.694 0 0 1-2.483-.57 5.856 5.856 0 0 1-2.024-1.706 5.653 5.653 0 0 1-7.906 1.176 5.779 5.779 0 0 1-1.183-1.176 5.697 5.697 0 0 1-7.944 1.138 6.484 6.484 0 0 1-1.146-1.138 5.515 5.515 0 0 1-4.506 2.276 5.515 5.515 0 0 1-4.507-2.276 5.144 5.144 0 0 1-1.948 1.669c-.786.45-1.693.65-2.597.569v3.3h.764c.199-.067.403-.118.611-.15a5.659 5.659 0 0 0 3.094-2.088c.267.266.458.532.725.76A5.227 5.227 0 0 0 8.218 36.4c.076 0 .076.038.153.076h1.565c.363-.079.72-.18 1.07-.304a5.634 5.634 0 0 0 2.635-1.935c.267.266.458.532.726.76a5.227 5.227 0 0 0 2.902 1.403c.077 0 .077.038.153.076h1.566a3.58 3.58 0 0 1 .61-.152c1.223-.303 1.949-.797 3.094-2.087.268.266.459.532.726.76a5.227 5.227 0 0 0 2.903 1.403c.076 0 .076.038.152.076h1.566c.199-.068.403-.12.611-.152a5.659 5.659 0 0 0 3.094-2.087c.267.266.458.532.725.76a5.227 5.227 0 0 0 2.903 1.403c.076 0 .076.038.153.076h1.565c.2-.068.404-.12.612-.152a5.659 5.659 0 0 0 3.093-2.087c.267.266.458.532.726.76a5.227 5.227 0 0 0 2.902 1.403c.077 0 .077.038.153.076h1.566c.362-.079.72-.18 1.07-.304a5.634 5.634 0 0 0 2.634-1.935c.268.266.459.532.726.76A5.573 5.573 0 0 0 53.36 36.4v-3.339h.115v.114z"></path><path d="M59.776 30.975l-7.256-7.208c.725-.721 1.413-1.442 2.177-2.163a1.734 1.734 0 0 0 .42-2.01 1.837 1.837 0 0 0-1.757-1.101h-.878c-8.097.038-16.117.076-24.214.076a8.818 8.818 0 0 0-3.437.683c-3.208 1.29-6.416 2.58-9.586 3.832a9.08 9.08 0 0 1-3.323.645c-3.437-.038-6.798 0-10.235 0-1.26 0-1.757.683-1.375 1.859.382 1.138.764 2.314 1.146 3.453.152.524.427 1.005.802 1.403.531-.3.988-.715 1.337-1.214l1.069-1.442 1.108 1.404a4.032 4.032 0 0 0 3.437 1.746 4.126 4.126 0 0 0 3.437-1.746l1.07-1.404 1.069 1.404a4.28 4.28 0 0 0 3.437 1.746 4.243 4.243 0 0 0 3.437-1.708l1.07-1.48 1.069 1.48a4.296 4.296 0 0 0 3.437 1.708 4.28 4.28 0 0 0 3.437-1.746l1.07-1.441 1.107 1.441a4.2 4.2 0 0 0 1.528 1.29 3.172 3.172 0 0 0 1.757.418h.267a3.078 3.078 0 0 0 1.833-.456 4.177 4.177 0 0 0 1.452-1.252l1.069-1.441 1.107 1.403a4.654 4.654 0 0 0 1.91 1.518 9.327 9.327 0 0 0 3.934-2.276c1.26-1.215 2.482-2.429 3.742-3.643l6.378 6.222H55.27v5.578h17.262v-5.578H59.776z"></path></g></svg><svg width="38" height="38" viewBox="0 0 38 38" id="phone" y="359"><path fill="#FFF" fill-rule="evenodd" d="M18.93 0C8.633 0 .3 8.406.3 18.804c0 3.92 1.185 7.548 3.29 10.665a.948.948 0 0 1 .116.808l-1.892 6.39 6.2-2.16a.924.924 0 0 1 .8.103 18.395 18.395 0 0 0 10.116 2.997c10.302 0 18.63-8.405 18.63-18.803C37.56 8.405 29.232 0 18.93 0zm-7.627 8.197l3.392 5.656-1.412 1.41a.947.947 0 0 0-.146 1.131c2.155 3.766 4.707 6.696 8.282 8.286.35.157.76.081 1.033-.191l1.5-1.513 5.472 3.452c-.606 1.376-1.396 2.196-2.3 2.673-1.046.554-2.325.658-3.784.353-2.918-.61-6.443-2.925-9.315-5.89-2.872-2.966-5.095-6.572-5.662-9.505-.283-1.467-.158-2.73.379-3.732.462-.862 1.247-1.6 2.561-2.13z" opacity=".7"></path></svg><svg width="73" height="37" viewBox="0 0 73 37" id="school-white" y="397"><g fill="#F5F8F9"><ellipse cx="35.71" cy="17.81" rx="4.646" ry="4.659"></ellipse><ellipse cx="7.874" cy="3.909" rx="3.878" ry="3.889"></ellipse><path d="M20.545 8.684h-9.369l-2.764 5.622-2.765-5.622H4.534A4.456 4.456 0 0 0 .08 13.113v10.589c.004.87.707 1.575 1.574 1.579h.039a1.583 1.583 0 0 0 1.574-1.579v-9.203a.427.427 0 0 1 .422-.424c.233.002.42.19.423.424v20.408c.003.87.706 1.575 1.574 1.58h.768a1.583 1.583 0 0 0 1.574-1.58V24.82a.427.427 0 0 1 .422-.424h.039c.232.002.42.19.422.424v10.127c.004.87.706 1.575 1.574 1.579h.73a1.583 1.583 0 0 0 1.574-1.579V11.803h7.794a1.583 1.583 0 0 0 1.574-1.578v-.039a1.605 1.605 0 0 0-1.612-1.502z"></path><g transform="translate(49.174 12.784)"><path d="M23.114 16.481l-4.185-4.736a2.45 2.45 0 0 0-1.843-.848H6.834a2.45 2.45 0 0 0-1.843.848L.73 16.48a2.551 2.551 0 0 0-.192 3.12l2.265 3.273a2.004 2.004 0 0 0 2.764.5 2.46 2.46 0 0 0 .346-.307l.077-.077a1.98 1.98 0 0 0 .153-2.465l-1.19-1.694v-3.89a.936.936 0 0 1 .921-.923.651.651 0 0 1 .27.038l5.106 1.694v7.971h1.305v-7.97l5.107-1.695a.9.9 0 0 1 1.19.886v3.889l-1.19 1.694a1.977 1.977 0 0 0 .153 2.465l.077.077a1.98 1.98 0 0 0 2.764.192c.125-.12.24-.248.346-.385l2.265-3.273c.705-.94.64-2.252-.153-3.119z"></path><ellipse cx="11.941" cy="4.967" rx="4.646" ry="4.659"></ellipse></g><path d="M46.883 29.362l-4.185-4.736a2.45 2.45 0 0 0-1.843-.847H30.604a2.45 2.45 0 0 0-1.843.847l-4.185 4.736a2.551 2.551 0 0 0-.192 3.12l2.265 3.273a2.004 2.004 0 0 0 2.765.5c.124-.091.24-.195.345-.308l.077-.077a1.98 1.98 0 0 0 .154-2.464l-1.19-1.733v-3.89a.936.936 0 0 1 .92-.923.651.651 0 0 1 .27.038l5.106 1.694v7.933h1.306v-7.971l5.106-1.694a.9.9 0 0 1 1.19.885v3.89l-1.19 1.694a1.977 1.977 0 0 0 .154 2.464l.076.077c.718.805 1.944.89 2.765.193.124-.12.24-.249.345-.385l2.266-3.273a2.448 2.448 0 0 0-.23-3.043zM46.691.059H16.705a2.405 2.405 0 0 0-1.713.707 2.42 2.42 0 0 0-.706 1.719v4.813h6.259a2.979 2.979 0 0 1 2.956 2.927v.038a2.98 2.98 0 0 1-2.918 2.965h-6.258v5.353a2.42 2.42 0 0 0 .705 1.718c.454.455 1.071.71 1.714.707h13.86a5.988 5.988 0 0 1-.883-3.119 6.04 6.04 0 0 1 1.761-4.279 6.005 6.005 0 0 1 4.267-1.766 6.005 6.005 0 0 1 4.266 1.766 6.04 6.04 0 0 1 1.762 4.28 5.888 5.888 0 0 1-.883 3.118h4.953a2.405 2.405 0 0 0 1.713-.707 2.42 2.42 0 0 0 .706-1.718V1.638a1.506 1.506 0 0 0-1.421-1.58h-.154z"></path></g></svg><svg width="73" height="37" viewBox="0 0 73 37" id="service-white" y="434"><g fill="#F5F8F9"><path d="M22.149 13.803a2.816 2.816 0 0 1 1.867-.848l4.877-4.928c.8-.823.8-2.143 0-2.965l-.419-.424-.419-.424a2.078 2.078 0 0 0-2.934 0l-4.878 4.93a3.272 3.272 0 0 1-.838 1.886 2.964 2.964 0 0 1-2.4.847l-.458.462a.422.422 0 0 0 0 .578l1.867 1.887 1.868 1.887a.41.41 0 0 0 .571 0l.457-.462a2.867 2.867 0 0 1 .839-2.426zM11.403 23.891l-.19-1.078 6.515-6.584a.363.363 0 0 0 .039-.501l-.039-.039-.076-.077-.076-.115a.354.354 0 0 0-.495-.039l-.038.039-6.517 6.585-1.067-.193a.686.686 0 0 0-.647.27L6.41 25.355a.652.652 0 0 0 .076.847l.343.346.343.347c.23.215.574.247.838.077l3.163-2.464a.74.74 0 0 0 .229-.617z"></path><path d="M16.014 13.521a1.197 1.197 0 0 1 0-1.617.796.796 0 0 0 0-1.117l-1.677-1.694a1.056 1.056 0 0 1-.267-.77 4.238 4.238 0 0 0-1.181-3.427 3.995 3.995 0 0 0-3.81-1.079.342.342 0 0 0-.23.385c0 .039.039.077.077.116l2.21 2.233c.632.6.699 1.592.153 2.272a1.719 1.719 0 0 1-2.401.27l-.114-.116-2.287-2.31a.297.297 0 0 0-.419 0c-.038.038-.076.077-.076.115-.573 2.2.721 4.455 2.896 5.045a5.1 5.1 0 0 0 1.524.115.987.987 0 0 1 .762.27l3.544 3.581c.16.154.412.154.572 0l1.143-1.155a.422.422 0 0 0 0-.578l-.42-.539zm3.696 3.735c.451.424 1.15.424 1.6 0a.776.776 0 0 1 1.105 0l1.677 1.695c.208.19.483.287.762.27a4.047 4.047 0 0 1 3.012.857 4.136 4.136 0 0 1 1.523 2.762c.05.476.025.957-.076 1.425a.338.338 0 0 1-.381.23c-.039 0-.077-.038-.115-.076l-2.21-2.234a1.642 1.642 0 0 0-2.248-.154 1.762 1.762 0 0 0-.267 2.426l.114.116 2.287 2.31a.305.305 0 0 1 0 .424c-.038.038-.076.077-.115.077-2.177.579-4.408-.73-4.991-2.927a5.26 5.26 0 0 1-.115-1.54 1.01 1.01 0 0 0-.266-.77l-3.544-3.581a.422.422 0 0 1 0-.578l1.143-1.155a.411.411 0 0 1 .571 0l.534.423zm53.004.127v1.27a25.23 25.23 0 0 1-.419 1.618c-1.22 3.696-3.125 7.008-5.411 10.165-1.448 2.08-4.497 2.157-6.25.308-.457-.5-.838-1.116-1.257-1.655-.11-.112-.2-.243-.267-.385-.99 1.463-1.905 3.003-3.848 3.273V9.027a73.127 73.127 0 0 1 10.707 3.234c0-2.195.038-4.351-.038-6.508-.038-1.155-.533-2.156-1.676-2.58a6.193 6.193 0 0 0-1.677-.346c-2.096-.039-4.192-.039-6.288-.039-.038 0-.076.039-.114.039V7.91a4 4 0 0 0-3.125 0V2.788h-5.754c-.419 0-.876.039-1.295.077-1.524.155-2.4.925-2.668 2.388-.064.29-.09.588-.076.886v6.007c0 .038.038.115.038.154a73.127 73.127 0 0 1 10.708-3.235v22.95a3.99 3.99 0 0 1-2.744-1.656 17.083 17.083 0 0 1-1.105-1.617c-.38.54-.724 1.04-1.067 1.502a4.186 4.186 0 0 1-5.868 1.04 3.711 3.711 0 0 1-1.067-1.117 44.068 44.068 0 0 1-1.41-2.234 35.113 35.113 0 0 1-3.544-7.085 14.273 14.273 0 0 1-.571-2.195v-1.232a4.996 4.996 0 0 1 2.02-2.657 9.872 9.872 0 0 1 1.486-.963.854.854 0 0 0 .495-.885 163.97 163.97 0 0 1 0-6.123c0-.577.038-1.117.076-1.694.267-2.542 1.905-4.313 4.382-4.852l1.03-.231h17.261c.267.077.457.077.724.154 1.905.385 3.43 1.348 4.23 3.235a8.85 8.85 0 0 1 .572 3.119v6.623a.467.467 0 0 0 .266.5c1.372.925 2.896 1.887 3.544 3.736z"></path><path d="M70.237 32.747a5.87 5.87 0 0 1-2.02-1.733 5.653 5.653 0 0 1-3.718 2.257 5.618 5.618 0 0 1-5.35-2.218 5.608 5.608 0 0 1-3.699 2.256 5.574 5.574 0 0 1-4.19-1.063 5.815 5.815 0 0 1-1.18-1.193 5.564 5.564 0 0 1-7.813 1.232 4.957 4.957 0 0 1-1.257-1.271 5.623 5.623 0 0 1-1.943 1.733 4.367 4.367 0 0 1-2.592.577A4.62 4.62 0 0 1 34 32.747a5.87 5.87 0 0 1-2.02-1.733 5.653 5.653 0 0 1-3.718 2.257 5.618 5.618 0 0 1-5.351-2.218 5.608 5.608 0 0 1-3.698 2.256 5.574 5.574 0 0 1-4.19-1.063 5.815 5.815 0 0 1-1.182-1.193 5.564 5.564 0 0 1-7.811 1.232 4.957 4.957 0 0 1-1.258-1.271 5.623 5.623 0 0 1-1.943 1.733 4.367 4.367 0 0 1-2.591.577v3.35H1c.198-.069.402-.12.61-.153a5.643 5.643 0 0 0 3.086-2.118c.267.27.457.539.724.77a5.18 5.18 0 0 0 2.896 1.425c.076 0 .076.038.153.077h1.562c.374-.08.743-.183 1.105-.309a5.629 5.629 0 0 0 2.63-1.963c.266.27.457.539.723.77a5.18 5.18 0 0 0 2.896 1.425c.077 0 .077.038.153.077H19.1a3.45 3.45 0 0 1 .61-.154c1.22-.309 1.943-.81 3.086-2.118.267.27.458.539.724.77a5.18 5.18 0 0 0 2.896 1.425c.077 0 .077.038.153.077h1.562c.199-.07.403-.121.61-.154a5.643 5.643 0 0 0 3.086-2.118c.267.27.458.539.724.77a5.18 5.18 0 0 0 2.897 1.425c.076 0 .076.038.152.077h1.562c.199-.07.403-.121.61-.154a5.643 5.643 0 0 0 3.087-2.118c.266.27.457.539.724.77a5.18 5.18 0 0 0 2.896 1.425c.076 0 .076.038.152.077h1.562c.375-.08.744-.183 1.105-.309a5.629 5.629 0 0 0 2.63-1.963c.267.27.457.539.724.77a5.18 5.18 0 0 0 2.896 1.425c.076 0 .076.038.152.077h1.563a3.45 3.45 0 0 1 .61-.154c1.219-.309 1.943-.81 3.086-2.118.267.27.457.539.724.77a5.18 5.18 0 0 0 2.896 1.425c.076 0 .076.038.152.077h1.487a3.45 3.45 0 0 1 .61-.154 5.643 5.643 0 0 0 3.086-2.118c.267.27.457.539.724.77a5.18 5.18 0 0 0 2.896 1.425c.076 0 .076.038.152.077h.762v-3.35a4.134 4.134 0 0 1-2.21-.578z"></path></g></svg><svg width="38" height="38" viewBox="0 0 38 38" id="telegram-rounded" y="471"><path fill="#FFF" d="M15.888 22.54l1.514 1.14a783.64 783.64 0 0 0-1.582 1.575c-.049.05-.095.103-.143.155l.026-.347c.06-.84.121-1.682.185-2.523zm4.145-7.408c-2.563 1.631-5.126 3.268-7.69 4.898-.052.033-.11.059-.167.085l1.006 3.253c.24.763.488 1.524.714 2.29.094.318.255.488.597.428.095-1.297.186-2.593.282-3.89.012-.151.03-.305.048-.456-.145-.084-.082-.245-.032-.298l.266-.279.095-.09.132-.139.635-.602a133.39 133.39 0 0 1 1.358-1.274c.851-.781 1.72-1.545 2.573-2.323a436.004 436.004 0 0 0 3.25-2.993c.078-.111.13-.254.199-.376-.193.026-.42-.006-.573.085-.907.545-1.799 1.112-2.693 1.68zm17.227 3.672c0 10.384-8.341 18.803-18.63 18.803C8.34 37.607 0 29.188 0 18.804 0 8.418 8.34 0 18.63 0c10.289 0 18.63 8.418 18.63 18.804zm-10.31-7.492c-.01-.072-.018-.145-.032-.216-.164-.798-.597-1.039-1.373-.77-.114.038-.23.063-.346.095-.433.18-.861.373-1.3.539-.728.277-1.462.536-2.196.803-.448.188-.892.385-1.344.563-1.13.446-2.264.884-3.397 1.326l-6.996 2.72c-.524.205-1.053.398-1.571.616-.456.19-.921.374-1.341.63-.186.112-.39.408-.37.596.021.19.309.353.485.522.032.031.087.041.133.055 1.236.387 2.472.773 3.709 1.158-.007.13.008.263.048.394l.45 1.456.591 1.91.208.657c.168.532.343 1.082.502 1.62.346 1.166 1.279 1.256 1.557 1.256.041 0 .085-.002.129-.004.042.002.085.003.127.003.714 0 1.173-.397 1.446-.634a2.43 2.43 0 0 1 .133-.112c.056-.043.11-.09.155-.14.035-.038.068-.077.103-.114a4.22 4.22 0 0 1 .159-.172l1.244-1.243.493-.49.209.144c1.121.845 2.24 1.694 3.366 2.534.84.627 1.427.465 1.833-.493l.517-2.423.469-2.413.297-1.326c.263-1.244.525-2.49.786-3.735l.252-1.191c.02-.094.045-.19.064-.284.268-1.28.534-2.557.8-3.837z" opacity=".7"></path></svg><svg width="39" height="39" viewBox="0 0 39 39" id="twitter-rounded" y="509"><path fill="#FFF" d="M19.807 0C9.315 0 .81 8.627.81 19.269c0 10.642 8.505 19.269 18.997 19.269 10.492 0 18.998-8.627 18.998-19.269C38.796 8.631 30.295.009 19.807 0zm9.666 15.497c.27 6.514-4.462 13.715-12.913 13.715a12.788 12.788 0 0 1-6.964-2.057 9.273 9.273 0 0 0 6.758-1.92c-1.943-.068-3.641-1.353-4.259-3.223a4.967 4.967 0 0 0 2.028-.069c-2.136-.46-3.66-2.379-3.65-4.594a4.085 4.085 0 0 0 2.028.548c-1.983-1.37-2.6-4.052-1.42-6.171a12.593 12.593 0 0 0 9.397 4.8c-.465-2.039.471-4.142 2.288-5.135a4.532 4.532 0 0 1 5.487.883 10.63 10.63 0 0 0 2.907-1.097 4.454 4.454 0 0 1-2.028 2.537 8.386 8.386 0 0 0 2.637-.754 8.338 8.338 0 0 1-2.296 2.537z" opacity=".7"></path></svg><svg width="38" height="39" viewBox="0 0 38 39" id="vk-rounded" y="548"><path fill="#FFF" d="M19.263 0C8.928 0 .55 8.627.55 19.269c0 10.642 8.379 19.269 18.714 19.269 10.336 0 18.714-8.627 18.714-19.269C37.968 8.631 29.595.009 19.263 0zm9.923 25.989h-2.93c-1.664 0-1.931-.96-3.263-2.332-1.199-1.234-1.931-.274-1.865 1.509 0 .48-.2.891-.799.891-1.731 0-4.196.274-6.727-2.537-2.597-2.88-5.261-8.572-5.261-9.189 0-.342.266-.48.732-.48h2.93c.8 0 .867.414 1.066.892.933 2.127 3.064 6.446 3.663 4.046.333-1.371.466-4.594-.932-4.868-.8-.137.599-1.03 2.664-1.03a7.41 7.41 0 0 1 1.664.207c1.066.274 1.066.753 1.066 1.44-.067 2.674-.402 4.457.333 4.937.665.413 2.397-2.4 3.263-4.595.266-.617.266-1.029.999-1.029h3.596c1.865 0-.266 2.812-1.865 5.006-1.332 1.783-1.262 1.783.267 3.291 1.065 1.03 2.397 2.47 2.397 3.292.001.343-.265.549-.998.549z" opacity=".7"></path></svg></svg>