<?xml version="1.0" encoding="utf-8"?>
<!-- Generator: Adobe Illustrator 22.0.1, SVG Export Plug-In . SVG Version: 6.00 Build 0)  -->
<!DOCTYPE svg PUBLIC "-//W3C//DTD SVG 1.1//EN" "http://www.w3.org/Graphics/SVG/1.1/DTD/svg11.dtd">
<svg version="1.1" id="Слой_1" xmlns="http://www.w3.org/2000/svg" xmlns:xlink="http://www.w3.org/1999/xlink" x="0px" y="0px"
	 viewBox="0 0 92.9 33.2" style="enable-background:new 0 0 92.9 33.2;" xml:space="preserve">
<style type="text/css">
	.st0{fill:#455A64;}
</style>
<g>
	<g>
		<path class="st0" d="M42.7,31.6c-0.1,0.1-0.3,0.2-0.4,0.2c-0.2,0-0.4,0.1-0.6,0.1c-0.2,0-0.5,0-0.7-0.1c-0.2-0.1-0.4-0.2-0.5-0.4
			c-0.2-0.2-0.3-0.5-0.4-0.8C40,30.2,40,29.8,40,29.3c0-0.5,0-0.9,0.1-1.2c0.1-0.3,0.2-0.6,0.4-0.8c0.2-0.2,0.3-0.3,0.5-0.4
			c0.2-0.1,0.4-0.1,0.6-0.1c0.2,0,0.4,0,0.6,0c0.1,0,0.3,0.1,0.4,0.1l-0.1,0.5c-0.1-0.1-0.2-0.1-0.3-0.1c-0.1,0-0.3,0-0.4,0
			c-0.2,0-0.3,0-0.5,0.1c-0.1,0.1-0.3,0.2-0.4,0.3c-0.1,0.2-0.2,0.4-0.3,0.6c-0.1,0.3-0.1,0.6-0.1,1c0,0.7,0.1,1.2,0.3,1.5
			c0.2,0.3,0.5,0.5,0.9,0.5c0.2,0,0.3,0,0.4-0.1c0.1,0,0.2-0.1,0.3-0.2L42.7,31.6z"/>
		<path class="st0" d="M43.2,28.3h0.4l0.1,0.4h0c0.1-0.1,0.1-0.2,0.3-0.3c0.1-0.1,0.2-0.1,0.4-0.1c0.1,0,0.2,0,0.4,0.1l-0.1,0.5
			c-0.1,0-0.2-0.1-0.3-0.1c-0.1,0-0.3,0-0.4,0.1c-0.1,0.1-0.2,0.2-0.2,0.3v2.6h-0.5V28.3z"/>
		<path class="st0" d="M44.9,30c0-0.6,0.1-1.1,0.3-1.4c0.2-0.3,0.5-0.4,0.9-0.4c0.4,0,0.7,0.2,0.9,0.5c0.2,0.3,0.3,0.8,0.3,1.4
			c0,0.6-0.1,1.1-0.3,1.4s-0.5,0.4-0.9,0.4c-0.4,0-0.7-0.2-0.9-0.5C45,31.1,44.9,30.6,44.9,30z M45.5,30c0,0.2,0,0.4,0,0.6
			c0,0.2,0.1,0.3,0.1,0.4c0.1,0.1,0.1,0.2,0.2,0.3c0.1,0.1,0.2,0.1,0.3,0.1c0.2,0,0.4-0.1,0.5-0.3c0.1-0.2,0.2-0.6,0.2-1
			c0-0.2,0-0.4,0-0.6c0-0.2-0.1-0.3-0.1-0.4c-0.1-0.1-0.1-0.2-0.2-0.3c-0.1-0.1-0.2-0.1-0.3-0.1c-0.2,0-0.4,0.1-0.5,0.3
			C45.5,29.2,45.5,29.6,45.5,30z"/>
		<path class="st0" d="M48.1,28.5c0.1-0.1,0.3-0.1,0.5-0.2c0.2,0,0.4-0.1,0.6-0.1c0.2,0,0.4,0,0.5,0.1s0.2,0.1,0.3,0.2
			c0.1,0.1,0.1,0.2,0.1,0.3c0,0.1,0,0.3,0,0.4c0,0.3,0,0.5,0,0.8c0,0.3,0,0.5,0,0.7c0,0.2,0,0.3,0,0.5c0,0.2,0,0.3,0.1,0.4h-0.4
			l-0.1-0.4h0c-0.1,0.1-0.2,0.2-0.3,0.3s-0.3,0.1-0.5,0.1c-0.2,0-0.5-0.1-0.6-0.3c-0.2-0.2-0.2-0.4-0.2-0.7c0-0.2,0-0.4,0.1-0.5
			c0.1-0.1,0.2-0.2,0.3-0.3c0.1-0.1,0.3-0.1,0.4-0.2c0.2,0,0.4-0.1,0.6-0.1c0,0,0.1,0,0.1,0s0.1,0,0.1,0c0-0.1,0-0.3,0-0.4
			c0-0.3,0-0.4-0.1-0.6c-0.1-0.1-0.2-0.2-0.4-0.2c-0.1,0-0.3,0-0.4,0.1c-0.2,0-0.3,0.1-0.4,0.1L48.1,28.5z M49.5,30.2
			c0,0-0.1,0-0.1,0c0,0-0.1,0-0.1,0c-0.1,0-0.2,0-0.3,0c-0.1,0-0.2,0.1-0.3,0.1c-0.1,0-0.1,0.1-0.2,0.2c0,0.1-0.1,0.2-0.1,0.3
			c0,0.2,0,0.3,0.1,0.4c0.1,0.1,0.2,0.2,0.3,0.2c0.2,0,0.3,0,0.4-0.1c0.1-0.1,0.2-0.2,0.2-0.3V30.2z"/>
		<path class="st0" d="M50.5,28.3h0.4v-0.7l0.5-0.2v0.8h0.7v0.5h-0.7v2.1c0,0.2,0,0.4,0.1,0.4c0,0.1,0.1,0.1,0.2,0.1
			c0.1,0,0.2,0,0.2,0c0.1,0,0.1,0,0.2-0.1l0.1,0.4c-0.1,0.1-0.2,0.1-0.3,0.1c-0.1,0-0.3,0-0.4,0c-0.2,0-0.4-0.1-0.5-0.2
			c-0.1-0.2-0.1-0.4-0.1-0.7v-2.1h-0.4V28.3z"/>
		<path class="st0" d="M52.8,27.2c0-0.1,0-0.2,0.1-0.3c0.1-0.1,0.1-0.1,0.2-0.1c0.1,0,0.2,0,0.3,0.1c0.1,0.1,0.1,0.2,0.1,0.3
			c0,0.1,0,0.2-0.1,0.3c-0.1,0.1-0.2,0.1-0.3,0.1c-0.1,0-0.2,0-0.2-0.1C52.8,27.4,52.8,27.4,52.8,27.2z M52.9,28.3h0.5v3.5h-0.5
			V28.3z"/>
		<path class="st0" d="M54.2,28.5c0.1-0.1,0.3-0.1,0.5-0.2c0.2,0,0.4-0.1,0.6-0.1c0.2,0,0.4,0,0.5,0.1s0.2,0.1,0.3,0.2
			c0.1,0.1,0.1,0.2,0.1,0.3c0,0.1,0,0.3,0,0.4c0,0.3,0,0.5,0,0.8c0,0.3,0,0.5,0,0.7c0,0.2,0,0.3,0,0.5c0,0.2,0,0.3,0.1,0.4h-0.4
			l-0.1-0.4h0c-0.1,0.1-0.2,0.2-0.3,0.3c-0.1,0.1-0.3,0.1-0.5,0.1c-0.2,0-0.5-0.1-0.6-0.3c-0.2-0.2-0.2-0.4-0.2-0.7
			c0-0.2,0-0.4,0.1-0.5c0.1-0.1,0.2-0.2,0.3-0.3c0.1-0.1,0.3-0.1,0.4-0.2c0.2,0,0.4-0.1,0.6-0.1c0,0,0.1,0,0.1,0s0.1,0,0.1,0
			c0-0.1,0-0.3,0-0.4c0-0.3,0-0.4-0.1-0.6c-0.1-0.1-0.2-0.2-0.4-0.2c-0.1,0-0.3,0-0.4,0.1c-0.2,0-0.3,0.1-0.4,0.1L54.2,28.5z
			 M55.7,30.2c0,0-0.1,0-0.1,0c0,0-0.1,0-0.1,0c-0.1,0-0.2,0-0.3,0c-0.1,0-0.2,0.1-0.3,0.1c-0.1,0-0.1,0.1-0.2,0.2
			c0,0.1-0.1,0.2-0.1,0.3c0,0.2,0,0.3,0.1,0.4c0.1,0.1,0.2,0.2,0.3,0.2c0.2,0,0.3,0,0.4-0.1c0.1-0.1,0.2-0.2,0.2-0.3V30.2z"/>
		<path class="st0" d="M58.7,30.5c0-0.2,0-0.4,0.1-0.5c0.1-0.2,0.1-0.3,0.2-0.5c0.1-0.1,0.2-0.3,0.3-0.4c0.1-0.1,0.2-0.2,0.4-0.3
			c-0.1-0.2-0.2-0.3-0.2-0.5c-0.1-0.2-0.1-0.4-0.1-0.6c0-0.1,0-0.2,0-0.3c0-0.1,0.1-0.2,0.1-0.3c0.1-0.1,0.2-0.2,0.3-0.2
			c0.1-0.1,0.2-0.1,0.4-0.1c0.2,0,0.3,0,0.4,0.1c0.1,0,0.2,0.1,0.3,0.2c0.1,0.1,0.1,0.2,0.1,0.3c0,0.1,0,0.2,0,0.3
			c0,0.2-0.1,0.4-0.2,0.6c-0.1,0.2-0.3,0.4-0.6,0.6c0.1,0.1,0.1,0.3,0.2,0.4c0.1,0.1,0.2,0.3,0.2,0.4c0.1,0.1,0.2,0.3,0.3,0.4
			c0.1,0.1,0.2,0.3,0.3,0.4c0.1-0.1,0.2-0.3,0.2-0.5c0.1-0.2,0.1-0.4,0.2-0.6l0.4,0.2c0,0.1-0.1,0.2-0.1,0.3c0,0.1-0.1,0.2-0.1,0.3
			c0,0.1-0.1,0.2-0.2,0.3c-0.1,0.1-0.1,0.2-0.1,0.3c0.2,0.2,0.3,0.3,0.4,0.4c0.1,0.1,0.2,0.2,0.3,0.3L62,31.9
			c-0.2-0.1-0.4-0.3-0.7-0.6c-0.1,0.1-0.1,0.2-0.2,0.2c-0.1,0.1-0.2,0.1-0.3,0.2c-0.1,0.1-0.2,0.1-0.3,0.1c-0.1,0-0.3,0.1-0.4,0.1
			c-0.2,0-0.4,0-0.5-0.1c-0.2-0.1-0.3-0.1-0.4-0.3c-0.1-0.1-0.2-0.3-0.3-0.4C58.8,30.9,58.7,30.7,58.7,30.5z M61,30.9
			c-0.1-0.1-0.2-0.3-0.3-0.4c-0.1-0.2-0.2-0.3-0.3-0.5s-0.2-0.3-0.3-0.4c-0.1-0.1-0.1-0.3-0.2-0.4c-0.1,0.1-0.2,0.2-0.3,0.3
			c-0.1,0.1-0.2,0.2-0.2,0.3c-0.1,0.1-0.1,0.2-0.1,0.3c0,0.1-0.1,0.3-0.1,0.4c0,0.2,0,0.3,0.1,0.4c0,0.1,0.1,0.2,0.2,0.3
			c0.1,0.1,0.2,0.1,0.3,0.2c0.1,0,0.2,0.1,0.3,0.1c0.1,0,0.2,0,0.3,0c0.1,0,0.2-0.1,0.2-0.1c0.1-0.1,0.1-0.1,0.2-0.2
			C60.9,31,60.9,30.9,61,30.9z M59.9,27.7c0,0.1,0,0.3,0.1,0.4c0,0.1,0.1,0.3,0.2,0.4c0.2-0.2,0.3-0.3,0.4-0.4
			c0.1-0.1,0.1-0.3,0.1-0.4c0-0.1,0-0.2-0.1-0.3c-0.1-0.1-0.1-0.1-0.3-0.1c-0.1,0-0.2,0-0.3,0.1C59.9,27.5,59.9,27.6,59.9,27.7z"/>
		<path class="st0" d="M67.6,28.6l0.1-0.7h0l-0.2,0.7l-1,2.1h-0.2l-1-2.1L65,27.8h0l0.1,0.7v3.2h-0.5v-4.9H65l1.2,2.4l0.2,0.6h0
			l0.2-0.6l1.1-2.4h0.5v4.9h-0.5V28.6z"/>
		<path class="st0" d="M68.8,30c0-0.6,0.1-1.1,0.3-1.4c0.2-0.3,0.5-0.4,0.9-0.4c0.4,0,0.7,0.2,0.9,0.5c0.2,0.3,0.3,0.8,0.3,1.4
			c0,0.6-0.1,1.1-0.3,1.4s-0.5,0.4-0.9,0.4c-0.4,0-0.7-0.2-0.9-0.5C68.9,31.1,68.8,30.6,68.8,30z M69.3,30c0,0.2,0,0.4,0,0.6
			c0,0.2,0.1,0.3,0.1,0.4c0.1,0.1,0.1,0.2,0.2,0.3c0.1,0.1,0.2,0.1,0.3,0.1c0.2,0,0.4-0.1,0.5-0.3c0.1-0.2,0.2-0.6,0.2-1
			c0-0.2,0-0.4,0-0.6c0-0.2-0.1-0.3-0.1-0.4c-0.1-0.1-0.1-0.2-0.2-0.3c-0.1-0.1-0.2-0.1-0.3-0.1c-0.2,0-0.4,0.1-0.5,0.3
			C69.4,29.2,69.3,29.6,69.3,30z"/>
		<path class="st0" d="M73.7,31.8v-2.1c0-0.3,0-0.6-0.1-0.8c-0.1-0.2-0.2-0.2-0.4-0.2c-0.2,0-0.3,0.1-0.5,0.2
			c-0.1,0.1-0.2,0.2-0.3,0.4v2.5H72v-3.5h0.4l0.1,0.4h0c0.1-0.1,0.2-0.2,0.4-0.3c0.2-0.1,0.3-0.1,0.5-0.1c0.1,0,0.3,0,0.4,0.1
			c0.1,0,0.2,0.1,0.3,0.2c0.1,0.1,0.1,0.2,0.2,0.4c0,0.2,0.1,0.4,0.1,0.6v2.2H73.7z"/>
		<path class="st0" d="M74.7,28.3h0.4v-0.7l0.5-0.2v0.8h0.7v0.5h-0.7v2.1c0,0.2,0,0.4,0.1,0.4c0,0.1,0.1,0.1,0.2,0.1
			c0.1,0,0.2,0,0.2,0c0.1,0,0.1,0,0.2-0.1l0.1,0.4c-0.1,0.1-0.2,0.1-0.3,0.1c-0.1,0-0.3,0-0.4,0c-0.2,0-0.4-0.1-0.5-0.2
			c-0.1-0.2-0.1-0.4-0.1-0.7v-2.1h-0.4V28.3z"/>
		<path class="st0" d="M78.9,31.5c-0.1,0.1-0.3,0.2-0.4,0.2c-0.2,0.1-0.4,0.1-0.5,0.1c-0.2,0-0.4,0-0.6-0.1
			c-0.2-0.1-0.3-0.2-0.4-0.4c-0.1-0.2-0.2-0.4-0.2-0.6c0-0.2-0.1-0.5-0.1-0.7c0-0.6,0.1-1,0.3-1.4s0.5-0.5,0.9-0.5
			c0.1,0,0.3,0,0.4,0c0.1,0,0.2,0.1,0.3,0.2c0.1,0.1,0.2,0.2,0.2,0.4C79,29,79,29.3,79,29.6c0,0.1,0,0.2,0,0.3s0,0.2,0,0.3h-1.8
			c0,0.2,0,0.4,0,0.5c0,0.2,0.1,0.3,0.2,0.4c0.1,0.1,0.2,0.2,0.3,0.3c0.1,0.1,0.2,0.1,0.4,0.1c0.1,0,0.2,0,0.4-0.1
			c0.1,0,0.2-0.1,0.3-0.2L78.9,31.5z M78.6,29.7c0-0.3,0-0.6-0.1-0.8c-0.1-0.2-0.3-0.2-0.4-0.2c-0.2,0-0.4,0.1-0.5,0.2
			c-0.1,0.2-0.2,0.4-0.2,0.8H78.6z"/>
		<path class="st0" d="M81.5,31.8v-2.1c0-0.3,0-0.6-0.1-0.8c-0.1-0.2-0.2-0.2-0.4-0.2c-0.2,0-0.3,0.1-0.5,0.2
			c-0.1,0.1-0.2,0.2-0.3,0.4v2.5h-0.5v-3.5h0.4l0.1,0.4h0c0.1-0.1,0.2-0.2,0.4-0.3c0.2-0.1,0.3-0.1,0.5-0.1c0.1,0,0.3,0,0.4,0.1
			c0.1,0,0.2,0.1,0.3,0.2c0.1,0.1,0.1,0.2,0.2,0.4c0,0.2,0.1,0.4,0.1,0.6v2.2H81.5z"/>
		<path class="st0" d="M84.9,31.5c-0.1,0.1-0.3,0.2-0.4,0.2c-0.2,0.1-0.4,0.1-0.5,0.1c-0.2,0-0.4,0-0.6-0.1s-0.3-0.2-0.4-0.4
			c-0.1-0.2-0.2-0.4-0.2-0.6c0-0.2-0.1-0.5-0.1-0.7c0-0.6,0.1-1,0.3-1.4s0.5-0.5,0.9-0.5c0.1,0,0.3,0,0.4,0c0.1,0,0.2,0.1,0.3,0.2
			c0.1,0.1,0.2,0.2,0.2,0.4c0.1,0.2,0.1,0.4,0.1,0.7c0,0.1,0,0.2,0,0.3s0,0.2,0,0.3h-1.8c0,0.2,0,0.4,0,0.5c0,0.2,0.1,0.3,0.2,0.4
			c0.1,0.1,0.2,0.2,0.3,0.3c0.1,0.1,0.2,0.1,0.4,0.1c0.1,0,0.2,0,0.4-0.1c0.1,0,0.2-0.1,0.3-0.2L84.9,31.5z M84.5,29.7
			c0-0.3,0-0.6-0.1-0.8c-0.1-0.2-0.3-0.2-0.4-0.2c-0.2,0-0.4,0.1-0.5,0.2s-0.2,0.4-0.2,0.8H84.5z"/>
		<path class="st0" d="M87.8,31.9c0,0.4-0.1,0.8-0.3,1c-0.2,0.2-0.5,0.3-0.9,0.3c-0.2,0-0.4,0-0.6-0.1c-0.1,0-0.3-0.1-0.4-0.1
			l0.1-0.4c0.1,0,0.2,0.1,0.3,0.1c0.1,0,0.2,0.1,0.4,0.1c0.3,0,0.5-0.1,0.6-0.2s0.2-0.4,0.2-0.8v-0.3h0c-0.1,0.1-0.2,0.2-0.3,0.2
			c-0.1,0.1-0.3,0.1-0.4,0.1c-0.4,0-0.7-0.1-0.8-0.4c-0.2-0.3-0.3-0.7-0.3-1.4c0-0.6,0.1-1,0.3-1.4c0.2-0.3,0.6-0.5,1-0.5
			c0.2,0,0.4,0,0.6,0.1c0.2,0,0.3,0.1,0.4,0.1V31.9z M87.3,28.8c-0.1-0.1-0.3-0.1-0.5-0.1c-0.2,0-0.4,0.1-0.6,0.3
			C86,29.2,86,29.6,86,30c0,0.2,0,0.4,0,0.5c0,0.2,0.1,0.3,0.1,0.4c0.1,0.1,0.1,0.2,0.2,0.3c0.1,0.1,0.2,0.1,0.3,0.1
			c0.2,0,0.3,0,0.4-0.1c0.1-0.1,0.2-0.2,0.2-0.4V28.8z"/>
		<path class="st0" d="M88.6,28.3h0.4l0.1,0.4h0c0.1-0.1,0.1-0.2,0.3-0.3c0.1-0.1,0.2-0.1,0.4-0.1c0.1,0,0.2,0,0.4,0.1L90,28.8
			c-0.1,0-0.2-0.1-0.3-0.1c-0.1,0-0.3,0-0.4,0.1c-0.1,0.1-0.2,0.2-0.2,0.3v2.6h-0.5V28.3z"/>
		<path class="st0" d="M90.3,30c0-0.6,0.1-1.1,0.3-1.4c0.2-0.3,0.5-0.4,0.9-0.4c0.4,0,0.7,0.2,0.9,0.5c0.2,0.3,0.3,0.8,0.3,1.4
			c0,0.6-0.1,1.1-0.3,1.4s-0.5,0.4-0.9,0.4c-0.4,0-0.7-0.2-0.9-0.5C90.4,31.1,90.3,30.6,90.3,30z M90.9,30c0,0.2,0,0.4,0,0.6
			c0,0.2,0.1,0.3,0.1,0.4c0.1,0.1,0.1,0.2,0.2,0.3c0.1,0.1,0.2,0.1,0.3,0.1c0.2,0,0.4-0.1,0.5-0.3c0.1-0.2,0.2-0.6,0.2-1
			c0-0.2,0-0.4,0-0.6c0-0.2-0.1-0.3-0.1-0.4c-0.1-0.1-0.1-0.2-0.2-0.3c-0.1-0.1-0.2-0.1-0.3-0.1c-0.2,0-0.4,0.1-0.5,0.3
			C90.9,29.2,90.9,29.6,90.9,30z"/>
	</g>
	<g>
		<g>
			<path class="st0" d="M40.5,21.2c0.2,0.1,0.4,0.2,0.8,0.4c0.3,0.1,0.7,0.2,1.1,0.2c0.5,0,1-0.1,1.3-0.4c0.3-0.3,0.5-0.7,0.5-1.3
				c0-0.4-0.1-0.7-0.3-1c-0.2-0.3-0.4-0.5-0.7-0.8c-0.3-0.2-0.6-0.5-0.9-0.7c-0.3-0.2-0.6-0.5-0.9-0.8c-0.3-0.3-0.5-0.6-0.7-1
				c-0.2-0.4-0.3-0.8-0.3-1.3c0-0.8,0.2-1.4,0.7-1.8c0.5-0.4,1.1-0.6,1.9-0.6c0.5,0,0.9,0,1.3,0.1c0.4,0.1,0.7,0.2,0.9,0.3l-0.3,1
				c-0.2-0.1-0.4-0.2-0.8-0.3c-0.3-0.1-0.7-0.1-1.1-0.1c-0.5,0-0.9,0.1-1.2,0.4c-0.3,0.3-0.4,0.6-0.4,1c0,0.3,0.1,0.6,0.3,0.9
				c0.2,0.3,0.4,0.5,0.7,0.7c0.3,0.2,0.6,0.5,0.9,0.7c0.3,0.2,0.6,0.5,0.9,0.8c0.3,0.3,0.5,0.6,0.7,1c0.2,0.4,0.3,0.8,0.3,1.3
				c0,0.9-0.3,1.5-0.8,2c-0.5,0.5-1.2,0.7-2.1,0.7c-0.6,0-1.1-0.1-1.4-0.2c-0.4-0.1-0.7-0.2-0.9-0.4L40.5,21.2z"/>
			<path class="st0" d="M46.8,13c0-0.2,0.1-0.4,0.2-0.6c0.1-0.1,0.3-0.2,0.5-0.2c0.2,0,0.4,0.1,0.5,0.2c0.1,0.1,0.2,0.3,0.2,0.6
				c0,0.2-0.1,0.4-0.2,0.5c-0.1,0.1-0.3,0.2-0.5,0.2c-0.2,0-0.4-0.1-0.5-0.2C46.8,13.4,46.8,13.2,46.8,13z M47,15.2h1v7.3h-1V15.2z"
				/>
			<path class="st0" d="M53.4,22.5v-4.3c0-0.4,0-0.7,0-1c0-0.3-0.1-0.5-0.2-0.7c-0.1-0.2-0.2-0.3-0.3-0.4C52.7,16,52.5,16,52.3,16
				c-0.3,0-0.6,0.1-0.8,0.4c-0.2,0.3-0.4,0.6-0.5,0.9v5.2h-1v-7.3h0.7l0.2,0.8h0c0.2-0.3,0.4-0.5,0.7-0.7c0.3-0.2,0.6-0.3,1.1-0.3
				c0.4,0,0.7,0.1,0.9,0.2c0.2,0.2,0.4,0.4,0.6,0.9c0.2-0.3,0.4-0.6,0.8-0.8c0.3-0.2,0.7-0.3,1.1-0.3c0.3,0,0.6,0,0.8,0.1
				c0.2,0.1,0.4,0.2,0.6,0.4c0.1,0.2,0.2,0.5,0.3,0.8c0.1,0.3,0.1,0.8,0.1,1.3v4.8h-1v-4.6c0-0.6-0.1-1.1-0.2-1.4
				c-0.1-0.3-0.4-0.5-0.8-0.5c-0.4,0-0.7,0.1-0.9,0.3c-0.2,0.2-0.4,0.5-0.5,0.9v5.2H53.4z"/>
			<path class="st0" d="M59.4,15.2h0.7l0.2,0.8h0.1c0.4-0.6,0.9-1,1.7-1c0.8,0,1.3,0.3,1.7,0.9c0.4,0.6,0.6,1.5,0.6,2.8
				c0,0.6-0.1,1.2-0.2,1.7c-0.1,0.5-0.3,0.9-0.5,1.3c-0.2,0.3-0.5,0.6-0.9,0.8c-0.3,0.2-0.7,0.3-1.1,0.3c-0.3,0-0.5,0-0.7-0.1
				c-0.2,0-0.3-0.1-0.5-0.2v3h-1V15.2z M60.5,21.4c0.1,0.1,0.3,0.2,0.5,0.3c0.2,0.1,0.4,0.1,0.7,0.1c0.5,0,0.9-0.3,1.2-0.8
				c0.3-0.5,0.5-1.3,0.5-2.2c0-0.4,0-0.8-0.1-1.1c-0.1-0.3-0.1-0.6-0.3-0.9c-0.1-0.2-0.3-0.4-0.4-0.6c-0.2-0.1-0.4-0.2-0.7-0.2
				c-0.7,0-1.2,0.4-1.4,1.3V21.4z"/>
			<path class="st0" d="M66.9,20.8c0,0.3,0,0.6,0.1,0.7c0.1,0.1,0.2,0.2,0.4,0.2c0.2,0,0.4-0.1,0.7-0.2l0.1,0.8
				c-0.1,0.1-0.3,0.1-0.5,0.2c-0.2,0-0.4,0.1-0.6,0.1c-0.4,0-0.7-0.1-0.9-0.3c-0.2-0.2-0.3-0.6-0.3-1.2v-8.8h1V20.8z"/>
			<path class="st0" d="M73.5,22c-0.2,0.2-0.5,0.4-0.9,0.5c-0.4,0.1-0.7,0.2-1.1,0.2c-0.5,0-0.9-0.1-1.2-0.3s-0.6-0.4-0.8-0.8
				c-0.2-0.3-0.4-0.7-0.5-1.2c-0.1-0.5-0.2-1-0.2-1.6c0-1.2,0.2-2.2,0.7-2.8c0.5-0.7,1.1-1,1.9-1c0.3,0,0.5,0,0.8,0.1
				c0.3,0.1,0.5,0.2,0.7,0.4c0.2,0.2,0.4,0.5,0.5,0.9c0.1,0.4,0.2,0.9,0.2,1.4c0,0.2,0,0.3,0,0.5c0,0.2,0,0.4-0.1,0.6H70
				c0,0.4,0,0.8,0.1,1.1c0.1,0.3,0.2,0.6,0.3,0.9c0.1,0.2,0.3,0.4,0.6,0.6c0.2,0.1,0.5,0.2,0.9,0.2c0.3,0,0.5,0,0.8-0.1
				c0.3-0.1,0.5-0.2,0.6-0.3L73.5,22z M72.7,18.1c0-0.7-0.1-1.3-0.3-1.6c-0.2-0.3-0.5-0.5-0.9-0.5c-0.4,0-0.8,0.2-1.1,0.5
				c-0.3,0.3-0.4,0.9-0.5,1.6H72.7z"/>
			<path class="st0" d="M75.2,21.2c0.2,0.1,0.4,0.2,0.8,0.4c0.3,0.1,0.7,0.2,1.1,0.2c0.5,0,1-0.1,1.3-0.4C78.8,21,79,20.6,79,20
				c0-0.4-0.1-0.7-0.3-1c-0.2-0.3-0.4-0.5-0.7-0.8c-0.3-0.2-0.6-0.5-0.9-0.7c-0.3-0.2-0.6-0.5-0.9-0.8c-0.3-0.3-0.5-0.6-0.7-1
				c-0.2-0.4-0.3-0.8-0.3-1.3c0-0.8,0.2-1.4,0.7-1.8c0.5-0.4,1.1-0.6,1.9-0.6c0.5,0,0.9,0,1.3,0.1c0.4,0.1,0.7,0.2,0.9,0.3l-0.3,1
				c-0.2-0.1-0.4-0.2-0.8-0.3c-0.3-0.1-0.7-0.1-1.1-0.1c-0.5,0-0.9,0.1-1.2,0.4c-0.3,0.3-0.4,0.6-0.4,1c0,0.3,0.1,0.6,0.3,0.9
				c0.2,0.3,0.4,0.5,0.7,0.7c0.3,0.2,0.6,0.5,0.9,0.7c0.3,0.2,0.6,0.5,0.9,0.8c0.3,0.3,0.5,0.6,0.7,1c0.2,0.4,0.3,0.8,0.3,1.3
				c0,0.9-0.3,1.5-0.8,2c-0.5,0.5-1.2,0.7-2.1,0.7c-0.6,0-1.1-0.1-1.4-0.2c-0.4-0.1-0.7-0.2-0.9-0.4L75.2,21.2z"/>
			<path class="st0" d="M81.4,15.7c0.3-0.2,0.6-0.3,1-0.4c0.4-0.1,0.8-0.1,1.3-0.1c0.4,0,0.7,0.1,1,0.2c0.2,0.1,0.4,0.3,0.6,0.5
				c0.1,0.2,0.2,0.4,0.3,0.7c0,0.3,0.1,0.5,0.1,0.8c0,0.6,0,1.2,0,1.7c0,0.6,0,1.1,0,1.6c0,0.4,0,0.7,0,1c0,0.3,0.1,0.6,0.1,0.9
				h-0.8l-0.3-0.9h-0.1c-0.1,0.3-0.4,0.5-0.6,0.7c-0.3,0.2-0.7,0.3-1.1,0.3c-0.5,0-0.9-0.2-1.3-0.5c-0.3-0.4-0.5-0.9-0.5-1.5
				c0-0.4,0.1-0.8,0.2-1c0.1-0.3,0.3-0.5,0.6-0.7c0.3-0.2,0.6-0.3,0.9-0.4c0.4-0.1,0.7-0.1,1.2-0.1c0.1,0,0.2,0,0.3,0
				c0.1,0,0.2,0,0.3,0c0-0.3,0-0.6,0-0.8c0-0.6-0.1-0.9-0.2-1.2c-0.2-0.2-0.5-0.3-0.9-0.3c-0.3,0-0.6,0-0.9,0.1
				c-0.3,0.1-0.6,0.2-0.8,0.3L81.4,15.7z M84.5,19.2c-0.1,0-0.2,0-0.3,0c-0.1,0-0.2,0-0.3,0c-0.2,0-0.5,0-0.7,0.1
				c-0.2,0-0.4,0.1-0.6,0.2c-0.2,0.1-0.3,0.2-0.4,0.4c-0.1,0.2-0.2,0.4-0.2,0.6c0,0.4,0.1,0.7,0.3,0.9c0.2,0.2,0.4,0.3,0.7,0.3
				c0.4,0,0.7-0.1,0.9-0.3c0.2-0.2,0.4-0.4,0.5-0.6V19.2z"/>
			<path class="st0" d="M87.3,13c0-0.2,0.1-0.4,0.2-0.6c0.1-0.1,0.3-0.2,0.5-0.2c0.2,0,0.4,0.1,0.5,0.2c0.1,0.1,0.2,0.3,0.2,0.6
				c0,0.2-0.1,0.4-0.2,0.5c-0.1,0.1-0.3,0.2-0.5,0.2c-0.2,0-0.4-0.1-0.5-0.2C87.3,13.4,87.3,13.2,87.3,13z M87.4,15.2h1v7.3h-1V15.2
				z"/>
			<path class="st0" d="M91.6,20.8c0,0.3,0,0.6,0.1,0.7c0.1,0.1,0.2,0.2,0.4,0.2c0.2,0,0.4-0.1,0.7-0.2l0.1,0.8
				c-0.1,0.1-0.3,0.1-0.5,0.2c-0.2,0-0.4,0.1-0.6,0.1c-0.4,0-0.7-0.1-0.9-0.3c-0.2-0.2-0.3-0.6-0.3-1.2v-8.8h1V20.8z"/>
		</g>
	</g>
	<g>
		<g>
			<g>
				<path class="st0" d="M4,19.8c0.4,0.1,0.9-0.2,1-0.7c0.1-0.5-0.2-1-0.6-1.1c-0.4-0.1-0.9,0.2-1,0.7C3.3,19.2,3.5,19.7,4,19.8z"/>
				<path class="st0" d="M7.1,16.8c-1.2,1.5-2.8,4.5-7.1,5.1c0,0,0,0.1,0,0.1c1.4,0.1,2.1-0.4,3-0.1c1.8,0.6-0.9,6.8-1.1,6.8
					c0,0.1,0.1,0.1,0.1,0.1c1.8-1.9,1.9-4.3,2.6-4.6c0.4-0.2,0.6,0.4,2.1,2.6c0.1,0.1,0.2,0,0.2-0.1c-1.6-3.8-2.5-5.4,0.2-9.7
					C7.3,16.9,7.2,16.7,7.1,16.8z"/>
			</g>
			<path class="st0" d="M28.4,22.9C24,13.8,16.8,6.6,4.8,2.1c4.8,8.6,5.8,11.7,6.4,21C16.9,20.5,22.7,20.6,28.4,22.9z"/>
			<path class="st0" d="M11,25.9L3.5,0H3.1l6.6,26.3c-3.5,0.9-6.8,2.2-9.6,3.6c0.3,0.5,1.5,1.4,2.1,1.8c0,0,0.1,0,0.2-0.1
				c0.1,0,0.2,0,0.2,0c-0.4-0.4-1.2-1.2-1-1.4c1.3-1.4,13.2-4.8,23-4.8c2.2,0,3.7-0.2,4,0.2c0.9,0.8-2.6,3.8-2.6,3.8l0.4,0.1
				c1.9-1.2,4.2-2.8,5.8-5.5C26.2,23.3,20.1,23.9,11,25.9z"/>
		</g>
	</g>
</g>
</svg>
