<svg xmlns="http://www.w3.org/2000/svg" width="45" height="36" viewBox="0 0 45 36">
    <g fill="#455A64" fill-rule="nonzero" transform="translate(0 .253)">
        <ellipse cx="9.604" cy="19.791" rx="1" ry="1" transform="rotate(-77.391 9.604 19.79)"/>
        <path d="M12.459 17.604c-1.205 1.605-2.645 4.825-7.06 5.399 1.462.086 1.96-.316 2.907 0 1.892.63-.659 7.03-.83 7.06-.03.085-.058.057 0 0 1.834-1.979 1.803-4.282 2.491-4.569.43-.172.886.17 2.492 2.492.057.086.028.115 0 0-1.634-3.956-2.423-5.852.415-10.382.115-.2-.3-.172-.415 0zM34.882 23.834C30.296 14.4 22.939 6.998 10.381 2.239c5.045 9.03 6.013 12.234 6.644 22.01 5.993-2.695 11.924-2.824 17.857-.415z"/>
        <path d="M7.89 32.97c-.401-.375-.974-1.075-.83-1.247 1.347-1.49 13.822-4.926 24.086-4.983 2.265-.029 3.75-.344 4.153 0 .946.803-2.907 4.153-2.907 4.153h.415c1.95-1.204 4.538-3.032 6.229-5.814-6.336-.717-12.935-.045-22.425 2.076L9.136.162h-.83l7.06 27.409a47.383 47.383 0 0 0-9.967 3.737c.315.545 1.474 1.26 2.076 1.661-2.494.516-4.952 1.303-7.475 2.077 15.08-3.527 29.957-3.555 44.435 0A72.523 72.523 0 0 0 7.89 32.969z"/>
    </g>
</svg>
