<svg xmlns="http://www.w3.org/2000/svg" width="69" height="46" viewBox="0 0 69 46">
    <g fill="none" fill-rule="evenodd">
        <path fill="#F00" d="M.296 15.302h68.408V0H.296z"/>
        <path fill="#FFF" d="M.296 30.603h68.408V15.302H.296z"/>
        <path fill="#171796" d="M.296 45.904h68.408V30.603H.296z"/>
        <path fill="#F00" d="M34.503 34.825c5.059 0 9.198-4.015 9.198-8.923V15.298H25.305v10.604c0 4.908 4.139 8.923 9.198 8.923"/>
        <path fill="#FFF" d="M34.503 34.682c4.962 0 9.022-3.939 9.022-8.753v-10.46H25.481v10.46c0 4.814 4.06 8.753 9.022 8.753"/>
        <path fill="#F00" d="M43.404 15.299l2.205-4.85-1.695-2.656-2.727.98-1.914-2.124-2.523 1.403-2.25-1.787-2.25 1.787-2.522-1.403-1.915 2.123-2.727-.979-1.695 2.657 2.202 4.85a21.934 21.934 0 0 1 8.907-1.877c3.172 0 6.188.672 8.904 1.876"/>
        <path fill="#FFF" d="M43.369 15.19l2.153-4.735-1.64-2.57-2.718.976-1.908-2.116-2.514 1.398-2.242-1.78-2.241 1.78-2.514-1.398-1.908 2.116-2.718-.976-1.64 2.57 2.15 4.736a22.021 22.021 0 0 1 8.872-1.853c3.157 0 6.16.663 8.868 1.851"/>
        <path fill="#0093DD" d="M43.266 14.965l2.045-4.496-1.508-2.362-2.69.966-1.244 4.751c1.173.29 2.308.674 3.397 1.14"/>
        <path fill="#F00" d="M43.9 13.573l.526-1.159a25.03 25.03 0 0 0-3.849-1.292l-.31 1.185c1.26.312 2.48.724 3.65 1.226"/>
        <path fill="#171796" d="M32.282 8.36l-.004.003-2.494-1.386-1.887 2.093 1.242 4.752a22.274 22.274 0 0 1 3.56-.577l-.417-4.886M41.114 9.073l-.006.002-1.892-2.098-2.488 1.383-.419 4.886c1.217.098 2.407.293 3.56.578l1.245-4.751"/>
        <path fill="#0093DD" d="M27.897 9.07l-.004.005-2.695-.968-1.508 2.362.577 1.274 1.464 3.223a22.11 22.11 0 0 1 3.408-1.144L27.897 9.07"/>
        <path fill="#FFF" d="M34.495 34.325c4.774 0 8.68-3.79 8.68-8.42V15.799H25.816v10.106c0 4.63 3.905 8.42 8.678 8.42"/>
        <path fill="#F00" d="M25.817 19.5h3.472V15.8h-3.472zM29.289 23.2h3.472v-3.7h-3.472zM25.817 25.908c0 .336.021.668.061.994h3.41v-3.701h-3.471M32.76 26.902h3.473v-3.701h-3.472zM36.233 30.603h3.472v-3.7h-3.472zM39.705 32.627a8.646 8.646 0 0 0 1.983-2.024h-1.983M29.29 30.603h3.471v-3.7H29.29zM27.303 30.603a8.644 8.644 0 0 0 1.986 2.027v-2.027M35.102 34.304a8.919 8.919 0 0 0 1.131-.15v-3.551h-3.472v3.552a8.822 8.822 0 0 0 2.34.149M43.113 26.902c.04-.327.061-.66.061-.997v-2.704h-3.469v3.701M36.233 23.2h3.472v-3.7h-3.472zM32.761 19.5h3.472V15.8h-3.472zM39.705 19.5h3.47V15.8h-3.47z"/>
        <path fill="#FFF" d="M27.741 11.406c.097.177.152.38.152.593 0 .704-.592 1.278-1.318 1.278-.639 0-1.174-.446-1.293-1.033.228.39.66.654 1.153.654.73 0 1.324-.577 1.324-1.284 0-.071-.006-.14-.018-.208"/>
        <path fill="#000" d="M27.906 12h-.027l-.001-.04v-.02l-.002-.02-.001-.019-.002-.02-.002-.019-.002-.019-.003-.02-.003-.018-.007-.038-.007-.037-.005-.02-.004-.017-.005-.019-.006-.018-.005-.018-.011-.036-.007-.018-.013-.035-.007-.018-.007-.017-.016-.034-.025-.05-.009-.017.024-.013.01.017.008.017.009.017.008.018.008.017.007.017.008.018.007.018.007.018.013.037.006.018.006.018.006.019.005.018.005.02.01.037.004.02.003.018.003.02.004.019.003.02.002.02.003.018.004.04.001.02.002.02V12h.001zm-1.33 1.29v-.026l.066-.001.066-.005.065-.008.064-.011.063-.015.062-.016.06-.02.06-.023.057-.025.057-.028.054-.031.053-.033.051-.035.05-.038.047-.04.045-.041.044-.045.04-.045.04-.048.036-.05.034-.05.031-.054.03-.054.025-.056.024-.058.02-.058.018-.06.014-.062.012-.062.008-.063.005-.064.002-.065h.027l-.001.066-.006.065-.008.065-.012.063-.015.063-.018.06-.021.061-.024.058-.027.057-.029.056-.032.054-.035.053-.037.05-.04.049-.041.047-.044.045-.047.043-.048.04-.05.039-.052.036-.054.033-.056.031-.058.03-.058.025-.061.023-.062.02-.063.018-.064.014-.065.012-.066.008-.068.005-.068.002zm-1.282-1.053l-.024.013.026-.009.012.054.015.053.016.053.02.051.02.05.024.05.025.048.028.046.03.046.03.044.034.043.035.041.036.04.039.039.04.037.042.035.043.033.045.032.045.03.048.028.049.026.05.024.05.022.052.02.054.018.054.016.055.013.056.011.057.008.058.007.058.004.06.001v.027l-.061-.001-.06-.005-.059-.006-.058-.009-.057-.011-.056-.014-.056-.016-.054-.018-.054-.02-.052-.023-.05-.025-.05-.026-.048-.029-.047-.03-.046-.033-.044-.034-.042-.035-.041-.038-.04-.04-.037-.04-.036-.042-.034-.044-.032-.045-.03-.047-.027-.047-.026-.05-.024-.05-.022-.05-.02-.053-.017-.054-.015-.054-.012-.055.025-.01zm-.025.014l-.016-.085.043.075-.027.01zm1.166.634v.026h-.046l-.047-.003-.045-.004-.046-.005-.045-.007-.044-.008-.044-.01-.043-.01-.043-.013-.042-.013-.041-.015-.04-.017-.041-.017-.04-.02-.038-.019-.039-.021-.037-.022-.036-.024-.035-.024-.035-.026-.034-.027-.032-.027-.032-.03-.031-.03-.03-.03-.03-.031-.027-.033-.026-.033-.026-.034-.025-.035-.023-.036-.022-.036.024-.013.021.035.023.035.024.035.025.033.026.033.028.032.028.03.03.03.03.03.03.028.033.027.033.026.034.025.035.025.035.022.037.022.037.02.037.02.04.019.038.017.04.016.041.014.04.014.043.012.042.01.043.01.043.008.044.007.045.005.045.004.045.002h.045v.001zm1.31-1.27h.027l-.001.066-.005.065-.01.065-.01.064-.016.063-.018.061-.02.06-.025.059-.027.058-.03.056-.032.054-.035.053-.037.05-.04.05-.042.047-.044.045-.046.043-.049.04-.05.04-.053.036-.054.033-.056.032-.058.028-.059.027-.06.023-.063.02-.063.017-.065.015-.066.012-.066.008-.068.005-.07.001v-.026l.068-.002.066-.005.066-.008.065-.01.063-.015.062-.018.06-.02.06-.022.058-.026.057-.028.055-.03.052-.034.052-.035.05-.038.047-.04.045-.042.044-.044.042-.046.038-.048.037-.05.034-.052.032-.053.029-.055.026-.056.024-.058.02-.059.018-.06.015-.061.011-.063.009-.063.005-.065.001-.065zm.01-.215l-.026.012.027-.008.001.006.001.007.003.013.001.012.002.007v.006l.002.007V11.475l.002.006v.007l.002.012v.014l.001.006.001.007v.006l.001.014V11.56l.001.006v.047h-.028v-.04l-.001-.013v-.006l-.001-.013V11.528l-.002-.007v-.019l-.002-.006v-.006l-.005-.038-.001-.007v-.006l-.002-.007v-.006l-.002-.006v-.007l-.002-.006.027-.008v.001zm-.027.013l-.014-.085.041.076-.027.009z"/>
        <path fill="#F00" d="M28.831 12.643a23.537 23.537 0 0 1 3.765-.61l-.106-1.236a24.877 24.877 0 0 0-3.974.644l.315 1.202M28.206 10.255a26.12 26.12 0 0 1 4.18-.678l-.104-1.212c-1.499.12-2.964.36-4.384.71"/>
        <path fill="#FFF" d="M40.266 12.307c1.26.312 2.48.724 3.651 1.226l-.144.319a23.336 23.336 0 0 0-3.595-1.207l.088-.338zm4.16.107l.136-.297a25.346 25.346 0 0 0-3.902-1.31l-.083.315a25.03 25.03 0 0 1 3.849 1.292z"/>
        <path fill="#000" d="M25.677 9.475l.017.015.363.306.456-.151.021-.007-.004.021-.092.459.363.307.016.015-.02.006-.456.153-.093.458-.005.021-.016-.014-.364-.307-.455.151-.022.007.005-.02.092-.46-.363-.307-.017-.014.022-.007.455-.152.093-.459"/>
        <path fill="#F7DB17" d="M25.974 10.25l.508-.57-.422.141M25.423 10.864l.509-.57-.423.14M25.944 10.303l-.51.57.424-.14M26.494 9.69l-.509.57.424-.141"/>
        <path fill="#000" d="M43.53 8.893l-.385.323-.459-.153-.021-.007.096.484-.366.31-.017.014.022.007.459.154.093.462.004.021.017-.014.366-.308.46.152.021.007-.096-.483.366-.31.017-.014-.021-.007-.46-.154-.092-.463"/>
        <path fill="#F7DB17" d="M43.227 9.674l-.513-.575.426.143M43.78 10.293l-.513-.576.428.144M43.256 9.727l.513.575-.427-.142M42.702 9.109l.513.575-.428-.143"/>
        <path fill="#0093DD" d="M36.728 8.36l-.005.003L34.5 6.597l-2.218 1.762.417 4.886a22.61 22.61 0 0 1 3.61 0"/>
        <path fill="#000" d="M34.495 10.557c-.004 0-.01.002-.016.01l-.127.164c-.046.013-.056.04-.04.078-.06-.006-.067.044-.07.098-.058-.086-.121-.11-.19-.07-.002-.051-.043-.076-.102-.088a.2.2 0 0 1-.102-.033c-.014-.01-.026-.015-.04-.024-.03-.02-.053-.001-.04.017l.188.295a.04.04 0 0 0 .02.046l.033.09a.573.573 0 0 0-.008.025c-.052-.023-.103-.026-.155-.03-.04-.001-.067-.011-.084-.03-.013-.015-.021-.006-.022.018 0 .12.038.23.14.338a7.727 7.727 0 0 0-.162.005c-.018.001-.022.009-.017.023.03.07.08.131.192.174a.149.149 0 0 0-.083.118c-.002.05-.018.086-.05.103-.014.007-.019.015-.005.024.058.042.132.044.209.025a.31.31 0 0 0-.047.193.254.254 0 0 0 .144-.012.224.224 0 0 0-.012.07.184.184 0 0 1-.025.078c-.007.007-.015.019.001.023.079.02.152.012.214-.01 0 .054 0 .11.018.164.004.013.016.023.029.006a.412.412 0 0 1 .123-.117c.007.02.017.038.036.048.023.013.035.039.036.078 0 .007 0 .014.008.02.035.002.12-.086.138-.134.048.027.066.055.102.104.013.017.024.007.03-.006a.643.643 0 0 0 .016-.164.354.354 0 0 0 .214.01c.016-.004.008-.015 0-.023a.206.206 0 0 1-.026-.082c-.002-.03-.003-.051-.01-.065a.254.254 0 0 0 .143.012.307.307 0 0 0-.049-.193c.077.018.153.016.212-.025.013-.01.008-.017-.005-.024-.032-.017-.048-.053-.05-.103a.15.15 0 0 0-.083-.118.307.307 0 0 0 .192-.174c.005-.015.001-.022-.018-.024l-.165-.006a.469.469 0 0 0 .14-.338c0-.025-.008-.033-.02-.02-.018.02-.043.032-.082.034-.052.004-.102.006-.153.03l-.008-.026c.01-.03.025-.06.036-.09a.04.04 0 0 0 .02-.046c.063-.098.12-.197.183-.295.013-.018-.011-.036-.04-.017-.014.01-.026.015-.04.024a.197.197 0 0 1-.102.033c-.058.012-.097.038-.1.09-.068-.04-.131-.016-.19.07-.003-.054-.01-.104-.07-.098.017-.038.003-.066-.042-.08-.043-.057-.107-.106-.15-.163-.008-.008-.012-.01-.017-.01"/>
        <path fill="#F7DB17" d="M35 11.196l-.005.003c-.01.004-.019.015-.031.028a.417.417 0 0 1-.05.043c-.002.002-.005.004-.01-.002-.004-.005-.001-.008.001-.01a.381.381 0 0 0 .066-.062 2.022 2.022 0 0 0-.066-.007.207.207 0 0 0-.052.022.088.088 0 0 0-.032.028c-.002.003-.004.006-.01.003-.006-.004-.005-.007-.003-.01a.109.109 0 0 1 .037-.034.215.215 0 0 1 .025-.012l-.075-.006a.081.081 0 0 0-.014.011.082.082 0 0 0-.013.015c-.003.003-.005.006-.01.002-.007-.004-.005-.007-.003-.01a.123.123 0 0 1 .015-.017l.003-.003-.057-.002h-.002a.071.071 0 0 0-.021.03c-.002.003-.003.006-.01.004-.007-.003-.005-.006-.004-.01a.082.082 0 0 1 .017-.025 2.554 2.554 0 0 0-.08-.003.01.01 0 0 1-.004.002.077.077 0 0 0-.027.026c-.001.004-.003.006-.01.003-.006-.004-.004-.007-.002-.01a.065.065 0 0 1 .014-.017l.004-.005h-.169l.005.005c.006.005.01.01.014.017.002.003.004.006-.003.01-.006.003-.008 0-.01-.003a.073.073 0 0 0-.027-.026l-.003-.002a2.84 2.84 0 0 0-.08.002l.006.008a.078.078 0 0 1 .01.018c.002.004.003.007-.003.01-.007.002-.009 0-.01-.004a.083.083 0 0 0-.022-.029l-.002-.002c-.02 0-.038.002-.057.003l.003.002.015.018c.002.003.004.006-.002.01s-.008.001-.01-.002a.105.105 0 0 0-.028-.026h-.001a2.67 2.67 0 0 0-.077.004.2.2 0 0 1 .028.014c.016.01.03.02.037.034.002.003.004.005-.003.01-.006.003-.008 0-.01-.003a.093.093 0 0 0-.032-.028.234.234 0 0 0-.057-.024l-.063.006a.381.381 0 0 0 .068.065c.002.002.005.005 0 .01-.003.006-.007.004-.01.002a.38.38 0 0 1-.048-.043l-.032-.032a.378.378 0 0 0-.134-.033c-.036-.003-.075-.002-.108-.018a.239.239 0 0 0 .03.052.097.097 0 0 0 .049.033c.002 0 .005.004.005.006.007.035.02.065.04.087a.148.148 0 0 0 .043.034.223.223 0 0 1-.04-.057.174.174 0 0 1-.018-.095c0-.004 0-.007.008-.006.007 0 .007.004.007.007a.167.167 0 0 0 .017.088.246.246 0 0 0 .067.079c.006.004 0 .014-.006.012a.185.185 0 0 1-.09-.052.19.19 0 0 1-.042-.09.108.108 0 0 1-.051-.037.214.214 0 0 1-.028-.047.436.436 0 0 0 .107.258.179.179 0 0 0 .059.049c.021.007.022.022-.005.022h-.024c.02.008.038.016.054.025.03.016.051.036.053.061 0 .004 0 .008-.007.008-.008 0-.008-.003-.008-.007-.002-.019-.02-.036-.045-.05a.457.457 0 0 0-.094-.036h-.107a.243.243 0 0 0 .03.02c.02.01.044.019.08.027a.19.19 0 0 1 .055.02c.017.01.03.022.041.035.003.002.005.005 0 .01-.007.004-.009.002-.011-.001a.141.141 0 0 0-.038-.03.18.18 0 0 0-.05-.02.345.345 0 0 1-.084-.029.35.35 0 0 1-.043-.028c.043.09.105.13.196.156l.014.005h.002c.02.005.04.01.062.013l.06.008c.005 0 .009 0 .008.008-.001.007-.005.006-.008.006l-.062-.008-.04-.008a.237.237 0 0 1-.025.003c-.055.003-.099.05-.102.112v.003a.397.397 0 0 1 .064-.047.11.11 0 0 1 .085-.016c.003 0 .007.002.005.009-.002.007-.006.006-.01.005-.024-.007-.049 0-.073.014a.441.441 0 0 0-.074.057.128.128 0 0 1-.047.086c.014.007.024.015.037.01.02-.009.04-.018.062-.025a.244.244 0 0 1 .065-.013c.004 0 .008 0 .008.007 0 .008-.003.008-.007.008a.24.24 0 0 0-.062.012l-.052.02c.052.011.108 0 .156-.017.014-.005.025-.01.031-.01l.04-.017a.187.187 0 0 1 .043-.014c.004 0 .007 0 .008.007s-.003.007-.006.008a.093.093 0 0 0-.052.018c0 .004-.016.013-.03.022a.167.167 0 0 0-.064.08.273.273 0 0 0-.016.05.354.354 0 0 1 .047-.068.243.243 0 0 1 .08-.06c.004-.002.007-.003.01.003.003.007 0 .008-.003.01a.232.232 0 0 0-.076.056.342.342 0 0 0-.05.078c-.008.015-.003 0-.01.02a.555.555 0 0 1 .075-.07c.03-.022.066-.035.097-.03.004 0 .007.002.006.009 0 .007-.004.006-.008.006-.027-.005-.059.007-.086.027a.643.643 0 0 0-.086.082.291.291 0 0 0 .127-.02c.02-.006.043-.03.056-.034a.298.298 0 0 1 .037-.038c.003-.002.005-.004.01.001.005.006.002.008 0 .01a.242.242 0 0 0-.045.047c-.001.002-.003.004-.005.004-.014.016-.036.036-.04.054-.014.048-.006.084-.029.13a.14.14 0 0 0 .04-.03.155.155 0 0 0 .03-.052.174.174 0 0 1 .04-.061.173.173 0 0 1 .06-.039c.004-.001.008-.002.01.005.003.006 0 .007-.004.009a.147.147 0 0 0-.055.036.147.147 0 0 0-.036.055.165.165 0 0 1-.033.057.135.135 0 0 1-.037.029c.012-.001.018-.003.028-.002a.155.155 0 0 0 .066-.027.118.118 0 0 0 .036-.046c0-.004.003-.007.01-.004.006.003.005.006.003.01a.121.121 0 0 1-.086.073.348.348 0 0 0 .109-.023c.015-.005.02-.038.03-.047a.21.21 0 0 1 .024-.036.098.098 0 0 1 .039-.028c.003-.002.006-.003.009.003.003.007 0 .009-.004.01a.09.09 0 0 0-.032.024.212.212 0 0 0-.023.034c.002.016-.012.051-.013.069a.458.458 0 0 0 .013.138.48.48 0 0 1 .038-.043v-.003a.786.786 0 0 0 .01-.076.404.404 0 0 0-.002-.074c0-.004-.001-.008.006-.008.008-.001.008.003.008.006a.396.396 0 0 1 .002.077.8.8 0 0 1-.007.061c.012-.011.012-.011.018-.023a.162.162 0 0 0 .012-.106c0-.003-.001-.007.006-.009.007-.001.008.002.01.006a.177.177 0 0 1-.008.102.748.748 0 0 1 .04-.028.554.554 0 0 1 .004-.094c0-.005.002-.01.01-.008.01.002.01.007.009.011a.643.643 0 0 0-.003.095c.001.02.011.042.03.053a.096.096 0 0 1 .042.062.375.375 0 0 0 .001-.091.207.207 0 0 0-.026-.083c-.002-.004-.004-.006.002-.01.007-.004.009 0 .01.003a.222.222 0 0 1 .029.088.414.414 0 0 1-.003.111c.024-.019.089-.059.082-.134a.075.075 0 0 0-.007-.018c-.001-.003-.003-.006.004-.009.007-.003.008 0 .01.003a.117.117 0 0 1 .009.025.13.13 0 0 1 .002.017c.003-.001.01-.01.012-.009l.019.013a.155.155 0 0 1-.007-.097c.001-.004.002-.008.01-.006.007.001.005.005.005.008a.17.17 0 0 0 .013.106v.006l.017.015a.594.594 0 0 1-.005-.136c0-.003 0-.007.008-.006.007.001.007.005.007.008a.409.409 0 0 0-.002.075c.002.025.005.05.01.075v.002c.012.013.022.027.035.044a.46.46 0 0 0 .016-.139c0-.017-.017-.051-.015-.068a.261.261 0 0 0-.024-.035.09.09 0 0 0-.032-.024c-.004-.001-.007-.002-.004-.01.002-.006.006-.005.01-.003a.103.103 0 0 1 .037.028.22.22 0 0 1 .024.036c.014.001.019.04.034.047a.35.35 0 0 0 .105.023.126.126 0 0 1-.086-.074c0-.003-.002-.006.004-.009.007-.003.009 0 .01.004.009.02.02.035.036.046.02.016.068.029.094.03a.167.167 0 0 1-.037-.03.174.174 0 0 1-.033-.057.153.153 0 0 0-.091-.092c-.004 0-.007-.002-.005-.008.003-.007.006-.006.01-.004a.17.17 0 0 1 .1.1.16.16 0 0 0 .03.052c.01.012.024.022.04.03-.022-.046-.014-.083-.028-.13-.008-.03-.054-.063-.045-.073.01-.012.032.02.059.029.04.013.083.025.125.02a.62.62 0 0 0-.085-.083c-.028-.02-.056-.031-.082-.027-.004 0-.007.002-.009-.006-.001-.007.002-.007.006-.008.032-.006.063.007.094.03a.51.51 0 0 1 .073.067c-.005-.01 0-.003-.007-.017a.343.343 0 0 0-.052-.078.234.234 0 0 0-.075-.057c-.004-.002-.007-.003-.004-.01.003-.006.006-.005.01-.003a.251.251 0 0 1 .08.06.353.353 0 0 1 .048.07.236.236 0 0 0-.06-.117c-.015-.012-.05-.031-.049-.04l-.014-.006a.204.204 0 0 0-.039-.012c-.003 0-.007 0-.006-.007 0-.008.004-.007.008-.007a.167.167 0 0 1 .042.013c.008.003.016.01.023.013.013.001.033.011.049.017a.296.296 0 0 0 .156.018.586.586 0 0 0-.053-.02.223.223 0 0 0-.061-.013c-.004 0-.008 0-.008-.007s.005-.007.008-.007a.23.23 0 0 1 .066.013.6.6 0 0 1 .061.024c.014.006.024-.001.038-.01a.126.126 0 0 1-.048-.085.46.46 0 0 0-.074-.058c-.024-.014-.049-.02-.074-.014-.003 0-.007.002-.009-.005-.001-.007.002-.008.005-.01.03-.007.058.001.085.017a.38.38 0 0 1 .064.048v-.004c-.003-.061-.047-.109-.102-.112-.018 0-.044.005-.043-.007.001-.014.023-.01.055-.02.09-.026.153-.067.195-.156-.013.01-.026.019-.043.028a.329.329 0 0 1-.084.03.184.184 0 0 0-.05.018.141.141 0 0 0-.038.03c-.002.003-.004.006-.01.002-.006-.005-.004-.007-.001-.01a.147.147 0 0 1 .04-.034.192.192 0 0 1 .056-.02.34.34 0 0 0 .08-.028.286.286 0 0 0 .03-.02h-.107a.503.503 0 0 0-.094.036c-.026.014-.043.03-.045.05 0 .004 0 .008-.008.007-.007 0-.007-.004-.006-.008.001-.025.022-.045.052-.061a.39.39 0 0 1 .054-.024h-.024c-.027-.001-.026-.016-.005-.023a.172.172 0 0 0 .059-.05.467.467 0 0 0 .106-.256.225.225 0 0 1-.027.046.11.11 0 0 1-.051.037.19.19 0 0 1-.042.09.175.175 0 0 1-.086.052c-.007.001-.013-.008-.007-.013a.237.237 0 0 0 .065-.078c.014-.03.02-.06.016-.087 0-.004 0-.008.007-.008.008 0 .008.002.008.006a.18.18 0 0 1-.018.096.23.23 0 0 1-.04.056.153.153 0 0 0 .043-.033.178.178 0 0 0 .04-.088c0-.002.003-.005.005-.006a.097.097 0 0 0 .05-.033.242.242 0 0 0 .029-.052c-.033.016-.071.015-.107.018a.383.383 0 0 0-.13.034"/>
        <path fill="#000" d="M33.472 8.366c-.005 0-.01.003-.016.011-.04.059-.078.11-.119.17-.045.015-.054.043-.034.08-.062-.003-.066.047-.066.1-.063-.082-.127-.102-.194-.06-.005-.051-.047-.074-.106-.083a.199.199 0 0 1-.104-.028c-.014-.009-.026-.013-.04-.022-.031-.019-.053.001-.04.019l.203.285c-.003.018.003.034.023.045l.037.089a.608.608 0 0 1-.006.026c-.053-.022-.105-.022-.157-.023-.04 0-.067-.008-.086-.027-.013-.014-.02-.005-.02.02.006.12.05.228.157.331a6.132 6.132 0 0 0-.161.012c-.019.002-.022.01-.016.025a.305.305 0 0 0 .2.164.147.147 0 0 0-.077.121c0 .051-.013.088-.044.106-.013.008-.018.015-.004.024.06.039.134.037.21.015a.309.309 0 0 0-.036.195c.049.01.096-.001.142-.019a.22.22 0 0 0-.009.07.184.184 0 0 1-.02.08c-.007.007-.014.02.002.023.08.016.152.004.213-.021.003.054.006.11.026.163.005.013.018.022.03.005a.408.408 0 0 1 .117-.123c.008.02.02.037.039.047.023.011.036.037.04.076 0 .006 0 .013.009.02.034 0 .115-.092.13-.142.05.025.069.053.108.1.014.016.023.005.03-.008.011-.055.009-.11.007-.164.063.02.136.024.213 0 .017-.005.008-.016 0-.023a.214.214 0 0 1-.03-.081c-.004-.03-.006-.052-.014-.065.048.013.096.02.144.005a.31.31 0 0 0-.06-.19c.079.014.155.009.211-.036.013-.01.008-.017-.007-.024-.032-.015-.05-.05-.054-.1a.148.148 0 0 0-.09-.114.304.304 0 0 0 .183-.182c.005-.016 0-.023-.018-.023-.054 0-.112 0-.166.002a.465.465 0 0 0 .124-.346c-.002-.024-.01-.032-.023-.017-.016.02-.04.033-.08.037-.05.006-.1.01-.15.036l-.01-.025.032-.09c.018-.014.022-.03.018-.048.057-.101.11-.202.167-.303.011-.019-.013-.036-.041-.015l-.039.026a.198.198 0 0 1-.1.037c-.058.015-.095.043-.095.095-.07-.036-.133-.01-.187.078-.005-.053-.014-.103-.075-.094.016-.039 0-.066-.045-.077-.047-.055-.113-.101-.16-.156-.007-.008-.012-.01-.016-.01"/>
        <path fill="#F7DB17" d="M34.01 8.98l-.007.003c-.01.005-.018.016-.03.03a.41.41 0 0 1-.047.044c-.002.003-.005.005-.01 0-.005-.006-.002-.008.001-.01a.374.374 0 0 0 .062-.066l-.067-.003a.278.278 0 0 0-.05.024.088.088 0 0 0-.03.03c-.003.003-.004.006-.01.003-.007-.004-.005-.007-.004-.01a.105.105 0 0 1 .035-.035.186.186 0 0 1 .025-.014l-.076-.002a.063.063 0 0 0-.013.012.09.09 0 0 0-.013.016c-.001.003-.003.006-.01.002-.006-.003-.004-.006-.003-.01a.093.093 0 0 1 .015-.018l.002-.002h-.057l-.002.002a.086.086 0 0 0-.012.013.076.076 0 0 0-.008.016c0 .003-.002.007-.01.004-.006-.002-.005-.005-.003-.008a.077.077 0 0 1 .01-.02l.005-.007-.08.001-.004.003a.082.082 0 0 0-.015.012.064.064 0 0 0-.01.015c-.002.003-.004.006-.01.003-.007-.003-.005-.006-.003-.01a.083.083 0 0 1 .017-.022c-.028 0-.057.001-.085.003l-.084.005c.002 0 .003.002.005.004.006.005.011.01.015.017.002.003.004.006-.002.01-.007.003-.009 0-.01-.003A.107.107 0 0 0 33.425 9a.077.077 0 0 0-.016-.01l-.004-.003a5.273 5.273 0 0 0-.08.006L33.33 9a.07.07 0 0 1 .012.017c.001.004.003.007-.003.01-.007.003-.009 0-.01-.004a.078.078 0 0 0-.023-.027l-.003-.002a1.416 1.416 0 0 0-.057.006l.004.002.016.017c.002.003.004.006-.002.01s-.008.002-.01-.001a.084.084 0 0 0-.03-.025v-.001l-.078.009.03.012a.1.1 0 0 1 .038.032c.002.003.004.006-.002.01s-.008 0-.01-.002a.094.094 0 0 0-.033-.027.245.245 0 0 0-.059-.02l-.063.008a.417.417 0 0 0 .071.062c.003.002.006.004.002.01s-.007.004-.01.002a.432.432 0 0 1-.051-.04c-.01-.009-.025-.025-.034-.03A.384.384 0 0 0 32.891 9c-.036-.002-.075.001-.108-.013a.23.23 0 0 0 .032.05c.013.015.029.026.05.031.002 0 .005.004.006.006a.173.173 0 0 0 .044.085.144.144 0 0 0 .045.032.224.224 0 0 1-.043-.055.178.178 0 0 1-.023-.094c0-.004 0-.007.008-.007.007 0 .007.004.007.008a.163.163 0 0 0 .021.086c.014.026.04.052.072.075.006.004 0 .015-.006.013a.186.186 0 0 1-.092-.048.19.19 0 0 1-.047-.088.11.11 0 0 1-.054-.034.216.216 0 0 1-.03-.046c.012.097.052.18.12.253.015.016.041.039.063.046.021.007.023.02-.004.023l-.025.001a.4.4 0 0 1 .056.021c.03.015.052.034.056.06 0 .003 0 .007-.007.007-.008.002-.008-.002-.008-.006-.003-.02-.021-.035-.048-.048a.458.458 0 0 0-.095-.032c-.036.002-.072.003-.107.006a.328.328 0 0 0 .113.042c.02.003.04.01.055.017.017.009.032.02.043.032.003.003.005.006 0 .01-.006.005-.008.003-.01 0a.138.138 0 0 0-.04-.029.178.178 0 0 0-.05-.016.278.278 0 0 1-.13-.05c.047.086.112.124.203.145l.014.004h.002a1.116 1.116 0 0 0 .124.015c.004 0 .008 0 .007.008 0 .007-.004.007-.007.007a.794.794 0 0 1-.103-.011.157.157 0 0 1-.025.004c-.054.005-.096.055-.096.116v.004a.382.382 0 0 1 .062-.051.115.115 0 0 1 .083-.02c.004 0 .008.002.006.008-.001.007-.005.007-.009.006a.1.1 0 0 0-.073.018.438.438 0 0 0-.07.06.127.127 0 0 1-.044.089c.015.007.025.013.039.008.02-.01.04-.02.06-.028a.254.254 0 0 1 .065-.016c.003 0 .007 0 .008.007 0 .007-.003.007-.007.007a.228.228 0 0 0-.061.015.639.639 0 0 0-.051.023.293.293 0 0 0 .154-.025c.014-.006.025-.01.031-.01.011-.008.026-.014.04-.02a.17.17 0 0 1 .041-.015c.004-.001.007-.002.009.006.001.007-.002.007-.006.008a.095.095 0 0 0-.051.02c0 .005-.015.014-.028.024a.155.155 0 0 0-.06.083.283.283 0 0 0-.014.051.327.327 0 0 1 .044-.07.245.245 0 0 1 .077-.065c.003-.001.007-.003.01.003.004.007 0 .008-.003.01a.235.235 0 0 0-.073.06.36.36 0 0 0-.047.08l-.008.02a.536.536 0 0 1 .071-.073c.03-.024.064-.038.096-.035.004 0 .008.001.007.008-.002.007-.005.007-.009.007-.027-.004-.058.01-.085.031a.615.615 0 0 0-.08.086.294.294 0 0 0 .125-.025c.02-.008.04-.033.054-.038l.012-.015a.217.217 0 0 1 .023-.024c.003-.003.005-.005.01 0s.003.008 0 .01a.348.348 0 0 0-.041.05c-.002.001-.003.003-.005.003-.013.017-.034.038-.037.057-.011.048-.002.083-.022.132a.14.14 0 0 0 .04-.033.158.158 0 0 0 .027-.053.168.168 0 0 1 .094-.105c.004-.001.007-.003.01.004.003.006 0 .008-.004.01a.153.153 0 0 0-.086.096.15.15 0 0 1-.065.089c.012-.002.018-.005.028-.004a.159.159 0 0 0 .064-.03.113.113 0 0 0 .033-.049c.001-.003.003-.007.01-.004.006.002.005.006.004.01a.13.13 0 0 1-.038.053.119.119 0 0 1-.044.023.356.356 0 0 0 .107-.027c.016-.007.019-.04.027-.049a.241.241 0 0 1 .023-.037.1.1 0 0 1 .037-.03c.003-.002.007-.003.01.003s0 .008-.004.01a.087.087 0 0 0-.03.025.193.193 0 0 0-.022.035c.003.016-.009.052-.009.07 0 .046.005.092.02.138a.542.542 0 0 1 .035-.046v-.003a.966.966 0 0 0 .006-.076.4.4 0 0 0-.005-.074c0-.004-.001-.007.006-.009.007 0 .008.002.009.006a.432.432 0 0 1 .001.138c.012-.012.012-.012.017-.024a.166.166 0 0 0 .008-.106c-.001-.003-.003-.007.005-.009.007-.002.008.002.009.005a.165.165 0 0 1-.003.103.695.695 0 0 1 .04-.03.619.619 0 0 1-.002-.094c0-.005.002-.01.011-.009.01.002.01.006.008.01a.685.685 0 0 0 .002.095c.003.02.014.043.032.052a.096.096 0 0 1 .046.06.36.36 0 0 0-.004-.09.215.215 0 0 0-.03-.083c-.002-.002-.004-.006.002-.01.006-.003.008 0 .01.002a.236.236 0 0 1 .033.088c.005.033.007.07.003.11.023-.02.085-.062.075-.138a.072.072 0 0 0-.007-.016c-.002-.004-.004-.007.002-.01.006-.004.008 0 .01.002a.101.101 0 0 1 .014.042l.011-.01.02.012a.178.178 0 0 1-.012-.098c0-.003.001-.006.008-.005.008 0 .007.004.006.008a.15.15 0 0 0 0 .052c.003.018.01.035.018.053a.007.007 0 0 1 .002.006.257.257 0 0 1 .017.014.43.43 0 0 1-.012-.134c0-.004 0-.008.008-.007.007 0 .007.004.007.007-.002.024-.001.05.002.075a.64.64 0 0 0 .013.074v.002c.014.013.024.026.038.043a.446.446 0 0 0 .008-.14c-.001-.017-.018-.05-.018-.067a.209.209 0 0 0-.025-.033.095.095 0 0 0-.034-.023c-.004-.001-.007-.002-.005-.01.003-.006.006-.005.01-.003a.099.099 0 0 1 .04.027c.009.01.018.021.026.033.013.001.02.04.035.047.037.01.07.018.107.017a.122.122 0 0 1-.09-.07c-.002-.003-.003-.006.003-.009.007-.003.009 0 .01.003.01.02.023.035.039.046a.22.22 0 0 0 .094.024.152.152 0 0 1-.073-.083.159.159 0 0 0-.096-.087c-.004 0-.007-.002-.005-.009.002-.006.006-.005.01-.004a.171.171 0 0 1 .104.095c.01.021.02.037.033.05.012.012.026.021.043.029-.025-.046-.02-.083-.035-.13-.01-.028-.057-.06-.049-.07.01-.012.032.02.06.026.041.012.084.021.127.013a.633.633 0 0 0-.09-.077c-.029-.019-.057-.03-.084-.023-.003 0-.007.001-.009-.005-.001-.007.002-.008.006-.009.031-.007.063.004.095.025a.472.472 0 0 1 .076.064c-.005-.01 0-.004-.008-.017a.357.357 0 0 0-.055-.076.232.232 0 0 0-.079-.052c-.003-.002-.006-.003-.003-.01.002-.006.006-.005.01-.004.032.014.06.033.083.057.02.02.036.043.05.067a.237.237 0 0 0-.065-.114c-.015-.012-.05-.029-.051-.038l-.015-.005a.153.153 0 0 0-.039-.01c-.003 0-.007 0-.007-.008 0-.007.005-.006.008-.006.012 0 .027.005.044.01.007.003.015.01.023.013.013 0 .033.01.05.014.049.016.105.024.156.01a.663.663 0 0 0-.053-.018.235.235 0 0 0-.062-.008c-.004 0-.008 0-.008-.008 0-.007.004-.007.008-.007.022 0 .044.004.066.01.02.005.041.013.062.02.014.007.023-.002.038-.011a.125.125 0 0 1-.052-.083.484.484 0 0 0-.077-.054c-.025-.012-.05-.018-.075-.01-.003 0-.007.002-.009-.005-.002-.007.001-.008.005-.009a.112.112 0 0 1 .086.012.41.41 0 0 1 .066.045v-.004c-.007-.06-.053-.106-.108-.107-.018 0-.044.007-.044-.005 0-.013.022-.011.054-.022.089-.03.15-.074.187-.166a.298.298 0 0 1-.124.064.18.18 0 0 0-.05.02.15.15 0 0 0-.035.033c-.002.003-.004.006-.01.002s-.004-.007-.002-.01a.155.155 0 0 1 .04-.036.187.187 0 0 1 .053-.023.326.326 0 0 0 .108-.052 6.138 6.138 0 0 0-.107.004.504.504 0 0 0-.092.041c-.024.016-.041.033-.042.053 0 .003 0 .007-.007.007-.008 0-.008-.004-.008-.007.001-.026.02-.047.05-.065a.392.392 0 0 1 .053-.026h-.025c-.026.001-.026-.013-.006-.022a.174.174 0 0 0 .057-.052.466.466 0 0 0 .093-.26.223.223 0 0 1-.025.046.108.108 0 0 1-.05.039.169.169 0 0 1-.12.148c-.007.002-.013-.008-.008-.012a.228.228 0 0 0 .06-.082.16.16 0 0 0 .013-.088c0-.004-.002-.007.006-.008.007-.001.008.003.008.006a.174.174 0 0 1-.013.096.224.224 0 0 1-.037.058.14.14 0 0 0 .042-.035.175.175 0 0 0 .035-.09c0-.002.003-.005.005-.005a.095.095 0 0 0 .047-.036.215.215 0 0 0 .026-.053c-.031.017-.07.018-.105.023a.381.381 0 0 0-.128.04"/>
        <path fill="#000" d="M35.54 8.366c.004 0 .01.003.016.011.04.059.078.11.118.17.045.015.055.043.035.08.062-.003.066.047.066.1.063-.082.127-.102.193-.06.006-.051.048-.074.107-.083a.197.197 0 0 0 .103-.028c.015-.009.027-.013.041-.022.03-.019.053.001.04.019l-.203.285a.042.042 0 0 1-.023.045l-.037.089a.608.608 0 0 0 .006.026c.053-.022.105-.022.156-.023.04 0 .068-.008.086-.027.014-.014.022-.005.02.02a.467.467 0 0 1-.157.331l.162.012c.018.002.022.01.016.025a.307.307 0 0 1-.201.164.147.147 0 0 1 .077.121c0 .051.014.088.044.106.014.008.018.015.005.024-.061.039-.134.037-.21.015a.308.308 0 0 1 .036.195.254.254 0 0 1-.143-.019c.006.014.008.04.009.07 0 .027.007.053.02.08.007.007.014.02-.002.023a.356.356 0 0 1-.213-.021c-.003.054-.006.11-.026.163-.005.013-.018.022-.03.005a.41.41 0 0 0-.117-.123.083.083 0 0 1-.039.047c-.022.011-.036.037-.04.076 0 .006 0 .013-.009.02-.034 0-.115-.092-.13-.142-.049.025-.069.053-.107.1-.014.016-.024.005-.03-.008a.635.635 0 0 1-.007-.164.354.354 0 0 1-.214 0c-.016-.005-.008-.016 0-.023a.206.206 0 0 0 .03-.081c.004-.03.006-.052.014-.065a.256.256 0 0 1-.144.005.314.314 0 0 1 .059-.19c-.078.014-.154.009-.21-.036-.013-.01-.008-.017.006-.024.033-.015.05-.05.055-.1a.15.15 0 0 1 .09-.114.306.306 0 0 1-.184-.182c-.004-.016 0-.023.019-.023.054 0 .112 0 .166.002a.467.467 0 0 1-.124-.346c.002-.024.01-.032.023-.017.016.02.04.033.08.037.05.006.1.01.15.036a.634.634 0 0 0 .01-.025c-.01-.03-.022-.06-.031-.09-.019-.014-.023-.03-.019-.048-.057-.101-.11-.202-.167-.303-.012-.019.013-.036.041-.015l.038.026a.201.201 0 0 0 .1.037c.06.015.096.043.096.095.07-.036.132-.01.186.078.005-.053.015-.103.076-.094-.016-.039 0-.066.045-.077.047-.055.113-.101.159-.156.008-.008.013-.01.017-.01"/>
        <path fill="#F7DB17" d="M35.003 8.98l.005.003c.01.005.018.016.03.03.013.014.028.029.047.044.003.003.006.005.01 0 .006-.006.003-.008 0-.01a.358.358 0 0 1-.063-.066c.023 0 .045-.002.068-.003a.27.27 0 0 1 .05.024.087.087 0 0 1 .03.03c.002.003.004.006.01.003.007-.004.005-.007.003-.01a.107.107 0 0 0-.035-.035.244.244 0 0 0-.024-.014l.075-.002a.11.11 0 0 1 .026.027c.002.004.004.007.01.003.007-.003.005-.006.003-.01a.093.093 0 0 0-.014-.018l-.002-.002h.057l.002.002a.075.075 0 0 1 .02.029c0 .003.002.007.009.004.007-.002.006-.005.004-.008a.087.087 0 0 0-.01-.02l-.005-.007.08.001.004.003a.08.08 0 0 1 .025.027c.001.003.003.006.01.003.006-.003.005-.006.003-.01a.075.075 0 0 0-.013-.018l-.005-.004c.029 0 .057.001.086.003l.084.005c-.002 0-.004.002-.006.004a.085.085 0 0 0-.014.017c-.002.003-.004.006.002.01.006.003.008 0 .01-.003a.068.068 0 0 1 .028-.024l.004-.002.08.006L35.68 9a.08.08 0 0 0-.011.017c-.002.004-.003.007.003.01.007.003.009 0 .01-.004a.073.073 0 0 1 .026-.03l.056.007-.003.002a.093.093 0 0 0-.016.017c-.002.003-.004.006.001.01.006.004.009.002.011-.001a.083.083 0 0 1 .03-.025v-.001l.077.009a.289.289 0 0 0-.029.012.1.1 0 0 0-.039.032c-.001.003-.004.006.002.01s.008 0 .01-.002a.09.09 0 0 1 .034-.027.242.242 0 0 1 .059-.02l.062.008a.41.41 0 0 1-.07.062c-.004.002-.007.004-.003.01.005.006.008.004.01.002a.425.425 0 0 0 .052-.04c.01-.009.024-.025.033-.03A.386.386 0 0 1 36.121 9c.036-.002.074.001.108-.013a.23.23 0 0 1-.032.05.096.096 0 0 1-.05.031.011.011 0 0 0-.006.006.176.176 0 0 1-.044.085.15.15 0 0 1-.046.032.236.236 0 0 0 .044-.055.174.174 0 0 0 .023-.094c0-.004 0-.007-.008-.007-.007 0-.007.004-.007.008a.163.163 0 0 1-.021.086.252.252 0 0 1-.072.075c-.006.004-.001.015.006.013a.187.187 0 0 0 .092-.048.191.191 0 0 0 .047-.088.11.11 0 0 0 .053-.034.216.216 0 0 0 .03-.046.439.439 0 0 1-.12.253.172.172 0 0 1-.062.046c-.021.007-.023.02.004.023l.024.001a.4.4 0 0 0-.055.021c-.03.015-.052.034-.056.06 0 .003 0 .007.007.007.007.002.007-.002.008-.006.002-.02.021-.035.048-.048a.458.458 0 0 1 .095-.032c.036.002.072.003.107.006a.33.33 0 0 1-.113.042.197.197 0 0 0-.056.017.154.154 0 0 0-.042.032c-.003.003-.005.006 0 .01.005.005.008.003.01 0a.138.138 0 0 1 .04-.029.179.179 0 0 1 .05-.016.347.347 0 0 0 .086-.025.274.274 0 0 0 .044-.026c-.047.087-.112.125-.203.146l-.014.004h-.002a1.106 1.106 0 0 1-.124.015c-.004 0-.008 0-.007.008 0 .007.004.007.007.007a.812.812 0 0 0 .103-.011.156.156 0 0 0 .025.004c.054.005.096.055.096.116v.004a.382.382 0 0 0-.062-.051.115.115 0 0 0-.084-.02c-.003 0-.007.002-.005.008.001.007.005.007.009.006a.1.1 0 0 1 .073.018.438.438 0 0 1 .07.06.127.127 0 0 0 .044.089c-.015.007-.025.013-.039.008a.609.609 0 0 0-.06-.028.253.253 0 0 0-.065-.016c-.003 0-.007 0-.008.007 0 .007.003.007.007.007a.23.23 0 0 1 .061.015.653.653 0 0 1 .05.023.293.293 0 0 1-.153-.025c-.014-.006-.025-.01-.031-.01-.011-.008-.026-.014-.04-.02a.17.17 0 0 0-.041-.015c-.004-.001-.007-.002-.009.006-.001.007.002.007.006.008.026.005.03.006.05.02 0 .005.016.014.03.024a.158.158 0 0 1 .06.083c.005.016.01.033.013.051a.327.327 0 0 0-.044-.07.244.244 0 0 0-.077-.065c-.003-.001-.006-.003-.01.003-.004.007 0 .008.003.01.029.015.053.036.073.06.02.024.035.052.047.08l.009.02a.537.537 0 0 0-.072-.073c-.03-.024-.064-.038-.096-.035-.004 0-.007.001-.006.008 0 .007.004.007.008.007.028-.004.058.01.085.031a.615.615 0 0 1 .08.086.294.294 0 0 1-.125-.025c-.02-.008-.04-.033-.054-.038l-.012-.015a.217.217 0 0 0-.023-.024c-.002-.003-.005-.005-.01 0s-.002.008 0 .01a.349.349 0 0 1 .042.05c.001.001.002.003.005.003.013.017.033.038.037.057.01.048.001.083.022.132a.146.146 0 0 1-.04-.033.158.158 0 0 1-.027-.053.168.168 0 0 0-.095-.105c-.003-.001-.007-.003-.01.004-.003.006 0 .008.004.01.02.007.039.02.054.037a.153.153 0 0 1 .033.058.15.15 0 0 0 .065.089c-.013-.001-.018-.004-.028-.003a.154.154 0 0 1-.064-.03.11.11 0 0 1-.033-.049c-.002-.003-.003-.007-.01-.004-.007.002-.006.006-.004.01.008.021.02.04.037.053.013.01.028.019.045.023a.364.364 0 0 1-.108-.027c-.015-.007-.019-.04-.027-.049a.214.214 0 0 0-.023-.037.1.1 0 0 0-.036-.03c-.004-.002-.007-.003-.01.003s0 .008.003.01a.086.086 0 0 1 .031.025c.008.01.015.023.021.035-.003.016.01.052.01.07a.458.458 0 0 1-.02.138.522.522 0 0 0-.036-.046v-.003a.808.808 0 0 1-.006-.076c0-.025.001-.05.005-.074.001-.004.002-.007-.006-.009-.007 0-.008.002-.008.006a.398.398 0 0 0-.006.077c0 .02.002.041.004.061-.012-.012-.012-.012-.017-.024a.166.166 0 0 1-.007-.106c0-.003.002-.007-.005-.009-.007-.002-.008.002-.01.005a.176.176 0 0 0 .003.102.695.695 0 0 0-.04-.029.619.619 0 0 0 .002-.094c0-.005-.001-.01-.01-.009-.01.002-.01.006-.009.01a.258.258 0 0 1 .002.041c0 .018-.002.037-.004.055-.002.019-.014.042-.031.05a.096.096 0 0 0-.047.061.36.36 0 0 1 .004-.09.215.215 0 0 1 .03-.083c.003-.002.005-.006-.001-.01-.007-.003-.008 0-.01.002a.23.23 0 0 0-.033.088.418.418 0 0 0-.003.11c-.023-.02-.086-.062-.076-.138a.095.095 0 0 1 .008-.016c.002-.004.004-.007-.003-.01-.006-.004-.008 0-.01.002a.115.115 0 0 0-.01.024.232.232 0 0 0-.003.018c-.003-.002-.01-.01-.012-.01l-.02.012a.178.178 0 0 0 .013-.098c-.001-.003-.002-.006-.01-.005-.007 0-.006.004-.005.008a.141.141 0 0 1 0 .052.185.185 0 0 1-.018.053.007.007 0 0 0-.002.006.257.257 0 0 0-.017.014.404.404 0 0 0 .012-.134c0-.004 0-.008-.007-.007-.008 0-.008.004-.007.007a.736.736 0 0 1-.015.149l-.001.002c-.013.013-.024.026-.038.043a.443.443 0 0 1-.008-.14c.002-.017.019-.05.019-.067a.207.207 0 0 1 .025-.033.095.095 0 0 1 .034-.023c.003-.001.006-.002.004-.01-.003-.006-.006-.005-.01-.003a.099.099 0 0 0-.04.027.208.208 0 0 0-.025.033c-.014.001-.02.04-.036.047a.343.343 0 0 1-.106.017.123.123 0 0 0 .09-.07c0-.003.002-.006-.004-.009-.007-.003-.008 0-.01.003a.121.121 0 0 1-.038.046.22.22 0 0 1-.095.024.152.152 0 0 0 .074-.083.161.161 0 0 1 .095-.087c.004 0 .007-.002.005-.009-.002-.006-.005-.005-.009-.004a.171.171 0 0 0-.105.095.16.16 0 0 1-.033.05.149.149 0 0 1-.042.029c.025-.046.02-.083.035-.13.01-.028.057-.06.049-.07-.01-.012-.033.02-.06.026a.283.283 0 0 1-.127.013c.03-.03.06-.058.09-.077.028-.019.056-.03.083-.023.004 0 .007.001.01-.005 0-.007-.003-.008-.006-.009-.032-.007-.064.004-.096.025a.491.491 0 0 0-.076.064c.005-.01 0-.004.008-.017a.344.344 0 0 1 .056-.076.232.232 0 0 1 .078-.052c.003-.002.007-.003.004-.01-.003-.006-.006-.005-.01-.004a.243.243 0 0 0-.083.057.35.35 0 0 0-.05.067.237.237 0 0 1 .065-.114c.015-.012.05-.029.05-.038l.015-.005a.15.15 0 0 1 .04-.01c.003 0 .007 0 .006-.008 0-.007-.004-.006-.008-.006a.179.179 0 0 0-.043.01c-.008.003-.016.01-.023.013-.013 0-.034.01-.05.014a.291.291 0 0 1-.156.01.663.663 0 0 1 .053-.018.233.233 0 0 1 .062-.008c.004 0 .007 0 .007-.008 0-.007-.003-.007-.007-.007a.244.244 0 0 0-.066.01.59.59 0 0 0-.062.02c-.014.007-.024-.002-.038-.011.03-.02.045-.05.052-.083.025-.02.05-.04.077-.054.025-.012.05-.018.074-.01.004 0 .007.002.01-.005.002-.007-.002-.008-.005-.009a.112.112 0 0 0-.086.012.41.41 0 0 0-.066.045v-.004c.007-.06.053-.106.107-.107.019 0 .044.007.044-.005 0-.013-.022-.011-.054-.022-.088-.03-.149-.074-.186-.166a.298.298 0 0 0 .124.064.18.18 0 0 1 .049.02.14.14 0 0 1 .035.033c.003.003.005.006.01.002.006-.004.005-.007.002-.01a.147.147 0 0 0-.039-.036.197.197 0 0 0-.054-.023.325.325 0 0 1-.108-.052c.035 0 .071.002.107.004a.5.5 0 0 1 .092.041c.025.016.042.033.042.053 0 .003 0 .007.008.007.007 0 .007-.004.007-.007 0-.026-.02-.047-.049-.065a.416.416 0 0 0-.053-.026h.024c.027.001.027-.013.006-.022a.173.173 0 0 1-.056-.052.466.466 0 0 1-.093-.26.19.19 0 0 0 .025.046.107.107 0 0 0 .05.039.17.17 0 0 0 .121.148c.006.002.012-.008.007-.012a.233.233 0 0 1-.061-.082.16.16 0 0 1-.012-.088c0-.004.001-.007-.006-.008-.008-.001-.008.003-.009.006a.174.174 0 0 0 .013.096c.009.02.02.04.038.058a.142.142 0 0 1-.042-.035.182.182 0 0 1-.036-.09c0-.002-.003-.005-.004-.005a.093.093 0 0 1-.047-.036.211.211 0 0 1-.027-.053c.032.017.07.018.106.023.05.006.085.02.127.04"/>
        <path fill="#000" d="M37.22 9.374c.085-.02.17-.025.254.024a.174.174 0 0 1 .08.057c.038-.029.077-.056.118-.079a.653.653 0 0 1 .177-.097.75.75 0 0 1 .267-.078c.094-.016.19-.016.284-.011a.526.526 0 0 1 .227.066l.197.096c.07.037.14.071.21.1a.915.915 0 0 0 .293.049.526.526 0 0 0 .152-.011c.04-.01.066.014.022.04-.327.195-.584.022-.802-.055.08.052.15.107.21.162.083.078.176.157.34.23a.842.842 0 0 0 .502.069c.027-.004.04-.002.04.012 0 .01-.002.029-.019.04a.481.481 0 0 1-.252.074c-.169.01-.35-.043-.514-.13-.132-.068-.221-.151-.326-.227a.752.752 0 0 0-.293-.137.604.604 0 0 0-.288.009.112.112 0 0 1 .062.033.49.49 0 0 0 .187.046c.044.005.03.034-.037.07a.176.176 0 0 1-.163.07c-.096.062-.13.025-.163-.016a.294.294 0 0 1-.023.075.055.055 0 0 1-.001.041c.015.023.023.046.017.07a.059.059 0 0 0 .022.038c.02.017.033.038.035.063 0 .017.01.03.024.042.02.016.04.03.059.053.058.02.085.064.094.12.044.013.063.044.071.081.025.01.048.022.06.044.09 0 .178 0 .26.009.077.007.14.054.196.114a.315.315 0 0 0 .115 0 .424.424 0 0 1 .13-.035.745.745 0 0 1 .227.007c.05.011.089.037.12.072.046.05.117.043.177.019a.273.273 0 0 1 .233.003.236.236 0 0 1 .108-.016.125.125 0 0 1 .096-.041c.055-.002.094.006.084.074-.003.018-.014.036-.029.042-.025.052-.072.068-.133.063a.119.119 0 0 1-.046.08c.028.083.001.116-.062.115-.013.024-.033.04-.067.034a.14.14 0 0 1-.086.05c.004.021.013.031.029.055.043.063-.022.089-.08.09a.265.265 0 0 1 .01.125c.061.036.07.074.013.11.042.07.025.12-.051.158-.001.039-.005.078-.032.1-.018.014-.044.017-.027.045.031.05.025.113-.022.115-.01-.001-.018 0-.019.016 0 .005-.005.01-.014.015a.964.964 0 0 0-.154.1c-.007.004-.014.007-.02.001a.927.927 0 0 1-.171.222.141.141 0 0 1-.096.111c-.004.017-.015.027-.032.031.03.032.041.063.012.093a.291.291 0 0 1-.128.086c-.099.024-.16.02-.2-.017-.035-.032-.022-.057 0-.067-.06.005-.073-.026-.07-.068.003-.021.01-.018.031-.018.034.001.063-.016.094-.026a.186.186 0 0 1 .048-.052c.011-.067.055-.104.114-.126a.341.341 0 0 0 .138-.12l.082-.138a.118.118 0 0 1-.025-.072.146.146 0 0 1-.054-.05c-.043-.003-.061-.022-.067-.048-.01 0-.021 0-.033-.004-.02.014-.042.025-.068.024a.699.699 0 0 1-.108.087c-.013.034-.038.048-.07.052-.088.01-.14.117-.189.161-.02.014-.032.039-.04.069-.005.056-.014.1-.047.101-.028-.001-.032-.004-.033-.007a.12.12 0 0 0-.037.001c.024.026.027.058.005.086-.021.028-.053.036-.083.038a.36.36 0 0 1-.161-.02c-.045-.018-.05-.044-.05-.07-.032-.014-.039-.03-.035-.044.004-.019.022-.029.045-.022a.241.241 0 0 1 .059-.02.512.512 0 0 1 .18-.134.3.3 0 0 1 .067-.059c.007-.053.043-.095.088-.135a.192.192 0 0 1 .022-.057c-.003-.012 0-.017 0-.029-.017-.032-.028-.07-.014-.103a.12.12 0 0 1-.005-.052c-.107.061-.14.04-.151-.01-.04.033-.076.047-.101.002-.038.01-.076.023-.114.008a.258.258 0 0 1-.077.02.296.296 0 0 1-.048.066.264.264 0 0 1-.048.139.913.913 0 0 1-.069.148.095.095 0 0 1-.01.047c.008.057-.012.085-.044.099a.224.224 0 0 1-.04.069.358.358 0 0 0-.003.023c.012.033.015.066-.02.1a1.23 1.23 0 0 1-.089.05c-.035.016-.068.008-.097-.002-.053-.018-.049-.036-.042-.053a.066.066 0 0 1-.051 0c-.013-.008-.02-.016-.033-.025-.012-.019-.015-.037.012-.051a.232.232 0 0 0 .085-.053c.009-.02.02-.035.038-.04.016-.037.036-.062.063-.068.02-.047.042-.097.067-.141.01-.014.016-.028.011-.043 0-.012.001-.024.012-.03.006-.006.017-.01.003-.018a.127.127 0 0 1 .016-.11c.028-.04.059-.138.03-.186a.266.266 0 0 1-.008-.082c-.01 0-.017.001-.028-.006-.022-.013-.04 0-.058.024-.012.03-.024.057-.037.057-.011.078-.051.14-.092.155a.265.265 0 0 0-.01.108c.003.04 0 .066-.02.07-.02.005-.04.017-.051.049-.003.009-.007.02-.008.032.029.029.02.064-.007.09-.062.06-.138.05-.22.028-.058-.023-.072-.046-.066-.07-.084-.008-.067-.07.002-.088a.339.339 0 0 0 .183-.132c.005-.078.023-.131.066-.14a.356.356 0 0 1 .04-.13.186.186 0 0 0 .028-.128c-.046-.028-.048-.057-.006-.086.015-.008.013-.016-.004-.024-.028-.003-.025-.03-.023-.053-.001-.013-.008-.02-.02-.02-.062-.009-.047-.033-.02-.06.01-.012.018-.03.007-.038-.01-.006-.017-.026-.018-.045-.039-.027-.022-.056 0-.083a.105.105 0 0 1-.035-.074c-.071-.003-.097-.038-.06-.089a.338.338 0 0 1 .063-.061c.016-.026.032-.052.025-.077-.02-.05.044-.088.1-.127a.085.085 0 0 1-.013-.04c-.03-.029-.023-.056.011-.082a.102.102 0 0 1-.012-.04c-.078.015-.078-.03-.041-.102-.045-.025-.033-.07.049-.138a.092.092 0 0 1 .009-.036.199.199 0 0 0-.099.029c-.03.02-.061.017-.093.005a.146.146 0 0 0-.04-.04c-.022-.018-.027-.038-.022-.06-.092.005-.11-.06-.055-.1a.167.167 0 0 0 .062-.074c.025-.061.077-.103.128-.145a.18.18 0 0 1 .01-.053.157.157 0 0 0-.073-.028.113.113 0 0 0-.056-.06c-.018-.01-.023-.02-.013-.042-.048-.042-.036-.068-.023-.092"/>
        <path fill="#F7DB17" d="M38.88 11.662a.092.092 0 0 1-.017 0 .82.82 0 0 1-.078.068c-.023-.026-.056.002-.023.017l-.017.012c-.01.027-.02.039-.052.044a.205.205 0 0 0-.015.002.347.347 0 0 1 .008-.074c0-.003.001-.005-.004-.006s-.005.001-.006.004a.247.247 0 0 0-.008.08c-.08.024-.127.105-.181.163a.148.148 0 0 0-.045.075c-.004.015-.006.085-.022.086h-.024c-.01-.013-.02-.013-.036-.001-.033 0-.068 0-.098.004-.02.02.035.013.065.03.013.009.02.024.014.046-.027.063-.18.043-.23.017-.024-.012-.025-.026-.024-.046.01 0 .021 0 .032-.002a.158.158 0 0 0 .054-.017c.005-.003.01-.006.004-.016-.005-.01-.01-.007-.015-.004a.126.126 0 0 1-.046.015.271.271 0 0 1-.048.001h-.004c-.009-.005-.016-.01-.012-.016.004-.005.019 0 .021.002a.293.293 0 0 1 .07-.023.524.524 0 0 1 .182-.137.332.332 0 0 1 .075-.064c.01-.063.042-.095.088-.137a.214.214 0 0 1 .026-.066c-.003-.015-.001-.024 0-.038-.018-.033-.029-.061-.015-.098a.132.132 0 0 1-.004-.068V11.5a.617.617 0 0 1 .084-.055.272.272 0 0 0 .003.077.126.126 0 0 0-.02.025.052.052 0 0 0-.007.027c0 .002 0 .005.006.005.005 0 .005-.003.005-.006 0-.007.001-.014.005-.02a.132.132 0 0 1 .019-.024l.002-.002a.128.128 0 0 0 .072-.033.58.58 0 0 0 .065-.063v.103a.22.22 0 0 0-.054.067c-.001.002-.002.004.002.006.005.003.006 0 .007-.002a.214.214 0 0 1 .048-.062h.001c.005 0 .005-.002.005-.005a.307.307 0 0 1 .09-.05.258.258 0 0 0 0 .087c.005.03.02.06.05.085h.002"/>
        <path fill="#F7DB17" d="M37.355 10.8c.004-.007.014-.016.017-.015l.002-.001a.568.568 0 0 1 .083-.112c.002-.002.004-.004.007 0 .004.003.002.005 0 .007a.53.53 0 0 0-.082.11c.004.004.006.011.004.016.004.031.008.049.022.066a.031.031 0 0 1 .005-.003.13.13 0 0 1 .024-.037.162.162 0 0 1 .044-.033.167.167 0 0 0 .049-.061c0-.003.002-.005.006-.003.005.001.004.004.004.006a.152.152 0 0 1-.02.034.192.192 0 0 1-.033.032.15.15 0 0 0-.043.032.115.115 0 0 0-.02.031c.007.005.01.02.003.029-.021.03-.046.047-.006.072a.06.06 0 0 0 .018.049c.01.01.008.042-.014.065-.021.02-.005.015.017.018l.005.001a.252.252 0 0 1 .027-.04.552.552 0 0 1 .032-.035.185.185 0 0 0 .037-.048.116.116 0 0 0 .015-.048c0-.003 0-.006.006-.005.005 0 .004.003.004.005a.132.132 0 0 1-.015.053.215.215 0 0 1-.04.05.332.332 0 0 0-.057.073c.026.015.018.043.022.068a.07.07 0 0 1 .013.004l.001-.002.016-.023.024-.037c.001-.003.003-.005.007-.002s.003.005.002.007l-.025.037-.015.024c.015.014.017.037-.003.054-.04.029-.029.038.008.06a.21.21 0 0 1-.003.089v.002l.003.028.003.029c0 .002 0 .004-.005.005-.005 0-.005-.002-.006-.005l-.002-.028v-.007l-.007.014c-.026.055-.053.1-.059.163-.063.014-.053.074-.057.127a.38.38 0 0 1-.186.143c-.015.004-.051.013-.055.031 0 .007.024.021.04.013.044-.04.066-.018.016.024-.004.007-.001.016.008.024.045.04.158.052.21.02.037-.022.057-.048.024-.083.002-.05.022-.098.076-.112.007-.012.005-.033.002-.044a.318.318 0 0 1 .013-.124c.002-.005.006-.01.015-.012.02-.004.06-.062.072-.117l.007-.037c.004-.02.011-.023.021-.011.01-.013.01-.02.016-.035.02-.03.05-.053.087-.036a.27.27 0 0 1-.007-.178c.002-.005.004-.01.011-.009l.03-.07.031-.07c.002-.003.002-.006.007-.004s.004.005.003.007l-.031.071-.03.07c.004.003.003.007.001.011a.252.252 0 0 0 .013.181c.002.003.003.006.002.008.017.01.017.012.016.034 0 .017.002.034.006.054.034.06 0 .16-.034.21a.102.102 0 0 0-.013.08c.02.018.007.038-.01.051-.002.005 0 .01 0 .015a.08.08 0 0 1-.016.051c-.028.048-.048.099-.07.15-.04.01-.048.032-.064.068-.023.007-.026.013-.036.034a.267.267 0 0 1-.086.057c-.028.012 0 .024.02.037.017.013.041-.015.056-.036.016-.024.032-.017.022.002a.184.184 0 0 0-.022.064c-.006.016.058.029.07.029.038.002.087-.035.118-.054.025-.025.021-.047.01-.078v-.002a.18.18 0 0 1-.047-.004.349.349 0 0 1-.055-.018c-.002 0-.004-.002-.002-.007.001-.004.004-.003.006-.002a.213.213 0 0 0 .1.021l.002-.024a.249.249 0 0 0 .046-.077c.043-.02.043-.04.037-.084a.082.082 0 0 0 .011-.05.933.933 0 0 0 .071-.153.19.19 0 0 0 .047-.137c.003-.02.01-.033.026-.032a.386.386 0 0 0 .03-.048h.006v-.003a.185.185 0 0 1 .01-.032.074.074 0 0 1 .014-.021.085.085 0 0 0 .008-.044.11.11 0 0 0-.016-.042.05.05 0 0 1-.011-.018c-.002-.007 0-.014.006-.02.002-.003.004-.004.007 0 .004.003.002.004 0 .006-.004.004-.004.008-.003.011.001.005.005.01.01.014v.001c.009.016.015.031.016.047a.091.091 0 0 1-.008.051.078.078 0 0 0-.013.02.18.18 0 0 0-.01.029v.002a.153.153 0 0 0 .068-.019l.002-.001a.14.14 0 0 0 .034-.041.19.19 0 0 0 .02-.055c0-.003 0-.005.005-.004.005 0 .005.003.004.005a.187.187 0 0 1-.02.059.137.137 0 0 1-.027.035c.038.01.07 0 .106-.011a.396.396 0 0 1 0-.114.15.15 0 0 1 .031-.07c.002-.003.003-.005.008-.002.003.003.002.005 0 .007a.14.14 0 0 0-.028.067.385.385 0 0 0-.001.109h.002c.015.024.022.042.053.023.011-.007.023-.014.032-.024.004-.003.002-.006.005-.009.03-.03.059-.058.088-.083a.64.64 0 0 1 .088-.064c.003-.001.005-.002.007.002.003.004.001.005-.001.006a.711.711 0 0 0-.162.134.163.163 0 0 1 .003.023c.002.034.009.054.058.035a.27.27 0 0 0 .056-.026c.012-.007.023-.013.03-.015a.787.787 0 0 1 .095-.062.245.245 0 0 1 .013-.052.393.393 0 0 1 .073-.122l.001-.002a.22.22 0 0 0 .106-.112c.001-.002.002-.004.007-.003.005.002.004.005.003.007a.241.241 0 0 1-.11.117.384.384 0 0 0-.07.118.23.23 0 0 0-.011.045l.002.003c.003.005 0 .006-.002.007h-.002a.263.263 0 0 0 .002.078.118.118 0 0 0 .066-.03.6.6 0 0 0 .072-.07v-.002a.168.168 0 0 1 .024-.048.094.094 0 0 1 .039-.031c.002-.001.005-.002.007.002.002.005 0 .006-.003.007a.081.081 0 0 0-.035.028.157.157 0 0 0-.022.046l-.001.107.003-.003a.332.332 0 0 1 .092-.047c.003-.002.007.002.007.005a.266.266 0 0 0-.003.092.132.132 0 0 0 .043.076.273.273 0 0 1 .033-.046c.004-.004.008-.01.013-.013l.001-.001c.01-.01.02-.018.03-.026l.022-.02.022-.02c.002-.003.004-.004.008 0 .003.003.001.005 0 .006l-.023.02a.755.755 0 0 0-.022.02v.001a.323.323 0 0 0-.028.024l.001.028v.014a.173.173 0 0 0 .057.006c.007.042.01.049.048.05 0-.016 0-.03.002-.044a.191.191 0 0 1 .01-.047c.002-.003.003-.005.007-.003.005.001.004.004.003.006a.179.179 0 0 0-.01.045c-.002.014-.002.028-.002.042h.003c.015.03.033.045.065.059a.143.143 0 0 0 .025-.087c0-.002 0-.005.005-.005s.005.002.005.005a.134.134 0 0 1-.006.049.18.18 0 0 1-.024.048c-.001.001-.002.003-.004.003.002.017.005.03.01.043.005-.01.01-.02.016-.028a.18.18 0 0 1 .027-.036c.002-.002.004-.003.008 0 .003.004.001.005 0 .007a.145.145 0 0 0-.026.034.334.334 0 0 0-.018.034.195.195 0 0 0 .013.019c-.06.1-.124.237-.242.282-.06.024-.087.054-.1.117a.199.199 0 0 0-.054.059c-.04.013-.075.032-.118.03 0 .027.01.04.037.04.053-.027.065-.032.07-.028.006.006-.008.042-.052.073-.006.003-.006.006-.002.013.037.056.134.036.187.023a.245.245 0 0 0 .123-.09c.007-.016-.01-.038-.025-.055-.075.011-.06-.059.003-.03.022-.006.025-.006.031-.03.057-.021.08-.044.094-.104.058-.06.116-.122.157-.195.012-.013.019-.037.015-.05a.097.097 0 0 0 .02-.04.152.152 0 0 0 .006-.043c0-.003 0-.005.005-.006.005 0 .005.003.005.005 0 .015-.002.03-.006.046l-.012.036c.004.009.006.015.014.013.05-.04.1-.067.154-.1.004-.021.019-.033.041-.033.01 0 .013-.003.016-.01.013-.031-.003-.053-.018-.078-.015-.038.01-.047.035-.065.027-.019.025-.069.026-.098l-.003-.014a.247.247 0 0 0-.01-.03c0-.003 0-.006.004-.007.005-.002.006 0 .006.003.005.011.008.021.01.032l.002.012c.025-.013.052-.027.062-.054.008-.03-.009-.059-.023-.084a1.008 1.008 0 0 1-.059.025c-.003 0-.005.002-.007-.003-.002-.004 0-.006.003-.006a.78.78 0 0 0 .068-.03.13.13 0 0 0 .03-.024c.018-.026-.03-.048-.047-.059v-.002l-.072-.065c-.002-.001-.004-.003 0-.006.003-.004.005-.002.007 0l.067.06a.256.256 0 0 0-.007-.11l-.013-.035h-.003a.11.11 0 0 1-.044-.038.094.094 0 0 1-.016-.047c0-.003 0-.005.005-.005.006 0 .006.002.006.004.001.016.005.03.014.043a.098.098 0 0 0 .04.033c.02.01.063.005.088-.006.034-.02-.01-.057-.02-.08-.009-.016-.01-.032-.014-.05h.01a.074.074 0 0 0-.033-.026c-.002-.001-.004-.001-.002-.006.001-.005.004-.004.006-.003a.07.07 0 0 1 .022.012.114.114 0 0 1 .018.02.109.109 0 0 0 .01-.002c.034-.006.053-.025.073-.048a.339.339 0 0 0-.037-.037 1.168 1.168 0 0 0-.042-.035c-.001-.001-.003-.003 0-.007.003-.003.005-.002.007 0l.042.035a.372.372 0 0 1 .04.043c.032.003.037-.003.052-.03a.138.138 0 0 0-.018-.039.23.23 0 0 0-.031-.037c-.002-.002-.004-.004 0-.007s.006-.002.007 0a.302.302 0 0 1 .032.038.147.147 0 0 1 .02.042c.015 0 .03.001.042-.007.028-.015.005-.071-.002-.093v-.001a.159.159 0 0 0-.01-.006l-.019-.012c-.002-.002-.004-.003-.002-.007.003-.005.005-.003.008-.002l.018.012.015.009.006-.005c.02-.016.027-.036.033-.057.01-.033.011-.018.05-.024.042-.006.066-.01.09-.059.014-.006.02-.012.022-.027.005-.029.002-.043-.03-.046-.048-.003-.076.006-.108.036a.797.797 0 0 1 .013.018c.002.002.003.005-.002.007-.003.003-.005 0-.006-.001l-.012-.018a.247.247 0 0 0-.117.017l-.012-.005a.178.178 0 0 1 .02.032.11.11 0 0 1 .011.042c0 .002 0 .004-.005.005-.005 0-.005-.002-.005-.005a.096.096 0 0 0-.01-.038.19.19 0 0 0-.03-.042.265.265 0 0 0-.094-.017l.015.014a.965.965 0 0 1 .02.02c.002.001.004.003 0 .007-.003.003-.005.001-.007 0a.745.745 0 0 1-.042-.04.27.27 0 0 0-.084.02.279.279 0 0 1-.057.017.208.208 0 0 1 .057.102c.001.003.002.005-.003.006s-.006 0-.006-.003a.199.199 0 0 0-.058-.103.189.189 0 0 1-.052 0l.02.033c.002.003.003.005-.002.007s-.006 0-.006-.002l-.02-.039a.152.152 0 0 1-.046-.018.725.725 0 0 1 .018.143c0 .003 0 .006-.005.006s-.005-.003-.005-.005a.799.799 0 0 0-.007-.085.445.445 0 0 0-.014-.068.158.158 0 0 1-.022-.019.21.21 0 0 0-.056-.042.086.086 0 0 1-.02.069c-.002.002-.003.004-.007.001s-.003-.005-.001-.007a.083.083 0 0 0 .018-.04.09.09 0 0 0 0-.029.314.314 0 0 0-.105-.024.445.445 0 0 1 .054.083.075.075 0 0 1 .027.041.194.194 0 0 1 .006.048c0 .003 0 .005-.005.005s-.005-.002-.005-.004c-.001-.016-.002-.032-.006-.046a.071.071 0 0 0-.025-.038.485.485 0 0 0-.059-.089l-.037-.001.005.008a.05.05 0 0 1 .009.024c0 .002 0 .005-.005.005s-.005-.002-.005-.004a.05.05 0 0 0-.007-.02.068.068 0 0 0-.011-.013 1.28 1.28 0 0 0-.076.005.49.49 0 0 1 .099.216c0 .002 0 .005-.005.006-.004 0-.005-.002-.006-.004a.433.433 0 0 0-.1-.218h-.004a.37.37 0 0 0-.06.012c.01.005.017.01.024.016a.145.145 0 0 1 .021.02c.002.003.004.004 0 .008-.004.003-.006 0-.008 0a.221.221 0 0 0-.05-.04.865.865 0 0 0-.03.01l-.016.006a.484.484 0 0 1 .103.101c.001.002.002.004-.002.007s-.005 0-.007-.001a.361.361 0 0 0-.107-.104.262.262 0 0 1-.064.005c.013.025.025.05.033.076a.32.32 0 0 1 .018.084c0 .003 0 .005-.004.006-.005 0-.006-.003-.006-.005a.34.34 0 0 0-.017-.082.563.563 0 0 0-.036-.08 1.2 1.2 0 0 1-.039-.003 1.006 1.006 0 0 1 .036.158c0 .003 0 .005-.005.006-.005 0-.005-.002-.006-.005a.81.81 0 0 0-.037-.163.378.378 0 0 0-.127-.097.16.16 0 0 1 .037.107c0 .003 0 .005-.006.005-.005 0-.005-.003-.005-.005a.146.146 0 0 0-.012-.064.163.163 0 0 0-.034-.05.215.215 0 0 0-.036-.007 1.465 1.465 0 0 0-.098-.006c.025.022.045.042.043.067 0 .002 0 .005-.005.004-.006 0-.005-.003-.005-.005.002-.023-.022-.044-.05-.067l-.058-.001c.01.01.02.021.027.032.01.014.018.029.021.043a.126.126 0 0 0 .018.06c.01.015.025.028.045.037.002 0 .004.002.002.006-.002.005-.004.004-.006.003a.106.106 0 0 1-.05-.042.14.14 0 0 1-.019-.062.122.122 0 0 0-.02-.04.246.246 0 0 0-.033-.037h-.066a.45.45 0 0 1 .02.077.736.736 0 0 1 .008.098c0 .003 0 .005-.005.005s-.005-.002-.005-.005a.613.613 0 0 0-.028-.176h-.007a.098.098 0 0 0-.048-.042.02.02 0 0 1 0 .007.052.052 0 0 1-.01.02c-.002.003-.003.004-.007.002-.005-.003-.003-.005-.002-.007a.05.05 0 0 0 .008-.017l.001-.009a.406.406 0 0 0-.01-.004c-.01-.043-.02-.06-.056-.075a.244.244 0 0 1-.003.037.13.13 0 0 1-.017.046c-.002.002-.003.004-.008.001-.004-.002-.003-.005-.001-.007a.115.115 0 0 0 .016-.042.22.22 0 0 0 .003-.039.102.102 0 0 0-.006-.002c-.01-.06-.02-.093-.084-.116v.023a.113.113 0 0 1-.009.041c0 .003-.002.005-.006.003-.005-.002-.004-.004-.003-.006a.113.113 0 0 0 .008-.038.21.21 0 0 0-.002-.035c-.013-.015-.033-.03-.05-.045a.211.211 0 0 1-.009.065.288.288 0 0 1-.038.08c0 .002-.002.004-.007.002-.004-.003-.003-.005-.001-.007a.305.305 0 0 0 .037-.077.213.213 0 0 0 .008-.074.096.096 0 0 1-.018-.025l-.001.003-.008.016c0 .003-.002.005-.007.003-.004-.002-.003-.004-.002-.006l.007-.017.006-.013-.001-.008a.07.07 0 0 0-.027-.046.142.142 0 0 1-.025.045c-.002.002-.003.004-.007 0-.004-.002-.003-.004-.001-.006a.112.112 0 0 0 .025-.047.098.098 0 0 1-.016-.024.073.073 0 0 1-.01.016.113.113 0 0 1-.019.019c-.002.002-.003.003-.007 0-.003-.005-.001-.006 0-.008a.078.078 0 0 0 .018-.017.062.062 0 0 0 .01-.016c.003-.01.004-.004.001-.018.006-.028-.005-.045-.02-.068v-.002a.09.09 0 0 0-.03.008.254.254 0 0 0-.046.025c-.002.002-.004.003-.007-.001s0-.006.002-.007a.302.302 0 0 1 .046-.026.091.091 0 0 1 .04-.009.034.034 0 0 0 0-.022.419.419 0 0 1-.112.027.164.164 0 0 1-.075-.011c-.003-.001-.005-.002-.003-.007.002-.004.004-.003.007-.003.018.008.04.013.07.01a.404.404 0 0 0 .111-.025v-.002a.31.31 0 0 0 .02-.053c-.017.004-.033.004-.05.004h-.003c-.002 0-.005 0-.005-.005 0-.006.003-.006.005-.006h.003c.018 0 .035.001.052-.005a.231.231 0 0 0 .003-.017c.003-.02.027-.024.043-.007.014.015.027.03.04.036.029.014.06.002.083-.016a.618.618 0 0 1-.02-.006c-.003-.001-.005-.002-.004-.007.002-.004.004-.004.006-.003l.027.009.006-.006c.058.004.095-.007.133-.044a.71.71 0 0 1-.088-.003.213.213 0 0 1-.068-.017c-.002 0-.005-.002-.002-.006.002-.004.004-.003.006-.002a.213.213 0 0 0 .065.016c.028.003.06.003.096.002l.01-.011a.113.113 0 0 0 .044-.026.542.542 0 0 1-.192-.05.133.133 0 0 0-.067-.034.227.227 0 0 0-.132.026l-.03-.027c-.014-.002-.03-.01-.045-.012-.02-.002-.042.002-.062 0-.003 0-.005-.001-.005-.006s.004-.005.006-.004c.02.002.042-.002.063 0 .02.003.038.011.059.013a.456.456 0 0 1 .168-.035.584.584 0 0 1 .17-.021l-.002-.002c-.007-.007-.003-.01 0-.013.031-.03.039-.059.029-.084-.01-.026-.039-.051-.078-.074-.041.005-.082-.006-.125-.001a.41.41 0 0 0-.082.017c.022.008.042.02.058.039a.19.19 0 0 1 .04.091c.002.005.002.01-.007.01-.01.003-.01-.002-.011-.007a.172.172 0 0 0-.037-.082c-.018-.026-.06-.036-.074-.041a.887.887 0 0 0-.126.019.203.203 0 0 0-.072.03.134.134 0 0 1 .084.008.119.119 0 0 1 .058.07c.002.005.003.01-.006.012-.009.003-.01-.001-.012-.006a.1.1 0 0 0-.049-.06c-.04-.019-.124-.001-.159.024a.399.399 0 0 0-.061.056c-.004.005-.008.009-.016.001-.01-.007-.005-.011-.002-.015a.438.438 0 0 1 .065-.06.189.189 0 0 1 .067-.032.193.193 0 0 1 .098-.05.868.868 0 0 1 .129-.019.1.1 0 0 0-.05-.05.145.145 0 0 0-.071-.008.619.619 0 0 0-.15.078h.013c.013.001.026 0 .037.004.005.002.01.003.006.012-.004.01-.034.004-.045.003-.012 0-.025 0-.039.004a.014.014 0 0 1-.006 0c-.057.034-.098.069-.145.108l-.008.002c-.042-.001-.071.004-.089.017-.015.012-.016.03-.013.054-.007.023-.017.048-.019.075-.05.041-.104.082-.13.142a.131.131 0 0 1-.027.047c.01.001.019.004.025.009a.052.052 0 0 1 .006.006.19.19 0 0 1 .006-.03.13.13 0 0 1 .015-.038c.002-.002.003-.004.007-.001.005.002.003.005.002.007a.1.1 0 0 0-.014.034.21.21 0 0 0-.007.049c0 .005-.01.005-.01 0a.028.028 0 0 0-.011-.02.054.054 0 0 0-.027-.007.277.277 0 0 1-.034.03c-.01.008-.02.016-.021.029-.002.021.026.025.052.027.06.003.012.036.045.065a.17.17 0 0 1 .042.038.064.064 0 0 0 .051 0c.004-.04 0-.06.018-.06h.002c0-.005.002-.01.004-.015a.087.087 0 0 1 .013-.021c.002-.002.004-.004.008-.001s.002.005 0 .007a.066.066 0 0 0-.016.035c.003.007.003.018.002.039a.242.242 0 0 1 .1-.022c.064-.073.092-.055.035-.002l-.009.017a.133.133 0 0 0-.018.058c-.017.014-.098.079-.068.103.022-.003.035-.002.026.013-.01.02-.04.063-.03.087.004.009.017.008.03.005l.003-.002a.618.618 0 0 0 .065-.059.374.374 0 0 0 .055-.076c.002-.004.005-.008.01-.007a.815.815 0 0 1 .052-.138c.001-.003.006-.004.008 0 .01.012.018.02.027.027a.039.039 0 0 0 .023.008.04.04 0 0 0 .022-.008.105.105 0 0 0 .026-.026c.001-.002.003-.004.007 0 .004.002.003.004.001.006a.121.121 0 0 1-.027.028.049.049 0 0 1-.03.01.05.05 0 0 1-.028-.01.1.1 0 0 1-.023-.023 1.028 1.028 0 0 0-.048.13c.005.005.003.01 0 .013a.413.413 0 0 1-.114.131.175.175 0 0 0 .015.05c.035-.03.068-.06.097-.09a.584.584 0 0 0 .074-.097c.002-.002.003-.004.007-.002.005.003.003.005.002.007a.536.536 0 0 1-.034.05c.002.004 0 .005-.002.007-.003.003-.006.014-.007.03-.001.02 0 .046.003.064 0 .003 0 .005-.005.006-.005 0-.005-.002-.006-.005a.417.417 0 0 1 0-.08l-.024.026a1.068 1.068 0 0 1-.1.092l.003.006c-.031.022-.057.03-.022.059l.035-.025.038-.026c.002-.001.004-.003.007.002.003.004.001.005-.001.007l-.038.025c-.012.01-.024.017-.036.026 0 .014.002.023.01.034h.007l.078-.055c.002-.002.004-.003.007 0 .003.005.001.006-.001.007l-.076.054a.112.112 0 0 1-.009.012c-.026.017-.116.071-.106.108a.248.248 0 0 0 .125-.068c.002-.001.004-.003.008 0 .003.004.001.006 0 .008a.253.253 0 0 1-.064.046v.011l-.001.01c0 .003 0 .005-.006.005-.005 0-.005-.003-.005-.005v-.01-.006a.39.39 0 0 1-.054.02c.007.034-.011.065-.031.094-.01.01-.1.08-.063.1.01.005.021.008.032.009"/>
        <path fill="#000" d="M40.957 12.025c.035-.022.073-.017.11-.01a.274.274 0 0 1 .105-.014.188.188 0 0 1 .056-.019c.012-.009.012-.018.002-.028a.056.056 0 0 1-.016-.034c-.06-.034-.083-.086-.106-.138-.034-.008-.05-.02-.055-.032l-.05-.006c-.078.009-.099-.016-.127-.036a.093.093 0 0 1-.056-.044c-.009-.01-.018-.02-.026-.032-.022-.026-.015-.061.017-.059a.13.13 0 0 0 .067-.006.2.2 0 0 1 .089-.009c.033-.001.054-.022.086-.051v-.037c-.006-.014 0-.02.019-.018.043.002.068.021.085.049.05.008.09.031.116.072.066 0 .11.024.116.048.004.018-.016.037-.046.059a.15.15 0 0 1 0 .013c.018.015.03.03.037.045a.36.36 0 0 1 .105.06c.095-.011.254.055.47.189.14.024.276.062.406.116l.082.003c.234-.034.46-.008.67.148.08.01.152.034.22.061a.55.55 0 0 0 .156.033.798.798 0 0 1 .257.067c.096.02.186.05.241.115.04.047.03.09-.02.107-.03.062-.09.065-.182.034-.062.011-.13-.037-.193-.083a.996.996 0 0 1-.245-.127.322.322 0 0 0-.122-.057c-.032-.007-.06-.01-.08 0-.008.006-.007.009 0 .015a.122.122 0 0 1 .043.077c.005.028 0 .061.002.096.002.036.024.063.062.086a.254.254 0 0 0 .101.037c.021.004.028.016.027.032.012.055.023.111.044.161.006.014.017.021.034.033.057.04.027.086-.025.096a.307.307 0 0 1-.133.076c-.038.012-.053-.003-.066-.02a.048.048 0 0 1-.044-.024c-.045-.033-.006-.09.104-.066.002-.012.012-.016.02-.016a.137.137 0 0 1 .003-.087c-.01-.006-.018-.014-.033-.018a.278.278 0 0 1-.107-.058c-.056-.05-.144-.094-.229-.137-.07-.004-.122-.035-.177-.061l-.074-.001c-.022-.008-.04 0-.053.015-.022.026-.047.022-.077.018-.035-.004-.07-.001-.104-.002-.017.004-.034.01-.053.01-.039-.002-.077-.003-.102.018-.022.022-.044.02-.065.013a.096.096 0 0 1-.035-.023c-.027-.006-.044-.012-.05-.02-.046-.013-.058-.025-.056-.038-.06-.014-.032-.06.007-.062.046-.002.089.007.134.013a.13.13 0 0 0 .116-.022c.02-.018.028-.033.052-.047a.385.385 0 0 1-.178-.044c-.115-.07-.207-.087-.28-.028-.019.011-.034.016-.055.008a.104.104 0 0 0-.057-.003.223.223 0 0 1-.124-.01.41.41 0 0 1-.18.005c-.052.026-.09.03-.113.01a.827.827 0 0 1-.064-.039c-.032-.004-.047-.012-.048-.023-.041-.004-.047-.02-.046-.035-.018-.02-.011-.034.006-.047a.112.112 0 0 1 .098.001c.022.01.037.02.05.029a.137.137 0 0 1 .062.006c.013-.02.05-.02.09-.018a.166.166 0 0 1 .076-.025l-.002-.014c-.04-.01-.062-.04-.082-.069a.295.295 0 0 1-.153-.053.156.156 0 0 1-.095-.026.228.228 0 0 1-.074-.003.258.258 0 0 1-.138 0c-.03.003-.055 0-.08-.002-.03.031-.061.037-.097.02a.149.149 0 0 0-.081-.048c-.027-.008-.035-.02-.04-.031-.032-.019-.026-.038.006-.053.023-.01.052-.013.097.009a.18.18 0 0 0 .048.01"/>
    </g>
</svg>
