<svg xmlns="http://www.w3.org/2000/svg" width="38" height="39" viewBox="0 0 38 39">
    <path fill="#FFF" fill-rule="nonzero" d="M18.991 0C11.307 0 4.381 4.695 1.44 11.895c-2.94 7.2-1.315 15.488 4.118 21 5.433 5.51 13.604 7.159 20.703 4.176C33.36 34.09 37.99 27.063 37.99 19.27 37.979 8.631 29.479.009 18.99 0zm-4.666 25.852c-3.584 0-6.49-2.948-6.49-6.583 0-3.636 2.906-6.583 6.49-6.583a6.032 6.032 0 0 1 4.327 1.713l-1.758 1.714a3.606 3.606 0 0 0-2.569-1.029 3.983 3.983 0 0 0-2.838 1.216 4.1 4.1 0 0 0-1.15 2.899c-.002 2.246 1.774 4.078 3.988 4.114 2.57 0 3.515-1.851 3.65-2.811h-3.65V18.24h6.085c.058.363.08.73.067 1.098.069 3.84-2.433 6.514-6.152 6.514zm15.753-5.623h-2.772v2.811H25.48V20.23h-2.772v-1.852h2.772v-2.811h1.825v2.811h2.772v1.852z" opacity=".7"/>
</svg>
