<svg xmlns="http://www.w3.org/2000/svg" width="34" height="34" viewBox="0 0 34 34">
    <path fill="#FFF" fill-rule="nonzero" d="M17.351 0C10.652 0 4.613 4.093 2.05 10.37-.514 16.647.903 23.873 5.64 28.677c4.737 4.804 11.86 6.242 18.05 3.641 6.188-2.6 10.223-8.725 10.223-15.52C33.905 7.525 26.495.009 17.351 0zm-4.068 22.537c-3.124 0-5.658-2.57-5.658-5.739 0-3.17 2.534-5.739 5.658-5.739a5.259 5.259 0 0 1 3.773 1.494l-1.533 1.494a3.144 3.144 0 0 0-2.24-.897 3.473 3.473 0 0 0-2.474 1.06 3.574 3.574 0 0 0-1.003 2.527c-.001 1.959 1.547 3.555 3.477 3.587 2.24 0 3.065-1.614 3.183-2.45h-3.183v-1.972h5.305c.05.316.07.636.059.956.06 3.348-2.121 5.68-5.364 5.68zm13.733-4.902H24.6v2.451h-1.591v-2.45h-2.417V16.02h2.417v-2.45h1.59v2.45h2.417v1.614z" opacity=".7"/>
</svg>
