<svg xmlns="http://www.w3.org/2000/svg" width="34" height="34" viewBox="0 0 34 34">
    <path fill="#FFF" fill-rule="nonzero" d="M34 15.184v1.152c-.03.315-.061.63-.1.945a15.089 15.089 0 0 1-6.2 10.721c-4.498 3.348-9.523 4.207-14.945 2.934a.948.948 0 0 0-.749.092c-1.588.899-3.177 1.774-4.773 2.657-.176.1-.351.192-.588.315v-.461c0-1.712-.008-3.432.008-5.145a.683.683 0 0 0-.29-.607C2.827 24.937.697 21.282.43 16.69.132 11.552 2.093 7.3 6.012 4.042a17.48 17.48 0 0 1 21.749-.484 15.048 15.048 0 0 1 5.949 9.469c.13.706.19 1.436.29 2.157zm-18.595-3.826c-3.017 3.24-6.022 6.466-9.014 9.675a.384.384 0 0 0 .051.062c2.707-1.488 5.404-2.985 8.13-4.49 1.428 1.543 2.84 3.064 4.275 4.615 3.016-3.24 6.01-6.45 9.004-9.668a.426.426 0 0 0-.046-.061 4562.54 4562.54 0 0 0-8.019 4.492c-1.456-1.551-2.907-3.071-4.381-4.625z" opacity=".7"/>
</svg>
