<svg xmlns="http://www.w3.org/2000/svg" width="33" height="33" viewBox="0 0 33 33">
    <path fill="#FFF" fill-rule="evenodd" d="M16.2 0C7.246 0 0 7.328 0 16.393c0 3.418 1.03 6.58 2.86 9.298a.828.828 0 0 1 .102.704l-1.646 5.571 5.392-1.883a.802.802 0 0 1 .696.09 15.966 15.966 0 0 0 8.796 2.613c8.958 0 16.2-7.328 16.2-16.393C32.4 7.328 25.158 0 16.2 0zM9.568 7.146l2.949 4.93-1.228 1.23a.827.827 0 0 0-.126.987c1.873 3.282 4.093 5.836 7.201 7.223.305.137.662.07.899-.167l1.303-1.319 4.76 3.01c-.528 1.2-1.215 1.914-2 2.33-.91.483-2.022.574-3.291.308-2.538-.533-5.602-2.55-8.1-5.136-2.498-2.585-4.43-5.728-4.923-8.286-.247-1.278-.138-2.38.329-3.253.401-.751 1.084-1.395 2.227-1.857z" opacity=".7"/>
</svg>
