<svg xmlns="http://www.w3.org/2000/svg" width="38" height="38" viewBox="0 0 38 38">
    <path fill="#FFF" fill-rule="nonzero" d="M15.888 22.54l1.514 1.14c-.528.524-1.056 1.05-1.582 1.575-.049.05-.095.103-.143.155l.026-.347c.06-.84.121-1.682.185-2.523zm4.145-7.408c-2.563 1.631-5.126 3.268-7.69 4.898-.052.033-.11.059-.167.085l1.006 3.253c.24.763.488 1.524.714 2.29.094.318.255.488.597.428.095-1.297.186-2.593.282-3.89.012-.151.03-.305.048-.456-.145-.084-.082-.245-.032-.298l.266-.279.095-.09.132-.139.635-.602a133.39 133.39 0 0 1 1.358-1.274c.851-.781 1.72-1.545 2.573-2.323 1.087-.992 2.172-1.989 3.25-2.993.078-.111.13-.254.199-.376-.193.026-.42-.006-.573.085-.907.545-1.799 1.112-2.693 1.68zm17.227 3.672c0 10.384-8.341 18.803-18.63 18.803C8.34 37.607 0 29.188 0 18.804 0 8.418 8.34 0 18.63 0c10.289 0 18.63 8.418 18.63 18.804zm-10.31-7.492c-.01-.072-.018-.145-.032-.216-.164-.798-.597-1.039-1.373-.77-.114.038-.23.063-.346.095-.433.18-.861.373-1.3.539-.728.277-1.462.536-2.196.803-.448.188-.892.385-1.344.563-1.13.446-2.264.884-3.397 1.326l-6.996 2.72c-.524.205-1.053.398-1.571.616-.456.19-.921.374-1.341.63-.186.112-.39.408-.37.596.021.19.309.353.485.522.032.031.087.041.133.055 1.236.387 2.472.773 3.709 1.158-.007.13.008.263.048.394l.45 1.456.591 1.91.208.657c.168.532.343 1.082.502 1.62.346 1.166 1.279 1.256 1.557 1.256.041 0 .085-.002.129-.004.042.002.085.003.127.003.714 0 1.173-.397 1.446-.634.05-.045.098-.085.133-.112.056-.043.11-.09.155-.14.035-.038.068-.077.103-.114a4.22 4.22 0 0 1 .159-.172l1.244-1.243.493-.49.209.144c1.121.845 2.24 1.694 3.366 2.534.84.627 1.427.465 1.833-.493l.517-2.423.469-2.413.297-1.326c.263-1.244.525-2.49.786-3.735l.252-1.191c.02-.094.045-.19.064-.284.268-1.28.534-2.557.8-3.837z" opacity=".7"/>
</svg>
