<svg xmlns="http://www.w3.org/2000/svg" width="34" height="34" viewBox="0 0 34 34">
    <path fill="#FFF" fill-rule="nonzero" d="M16.858 0C7.71 0 .296 7.521.296 16.799c0 9.277 7.415 16.798 16.562 16.798 9.147 0 16.562-7.52 16.562-16.798C33.412 7.524 26 .008 16.858 0zm8.426 13.51c.236 5.68-3.89 11.957-11.257 11.957-2.151.002-4.258-.62-6.071-1.794A8.084 8.084 0 0 0 13.847 22a4.07 4.07 0 0 1-3.713-2.81 4.33 4.33 0 0 0 1.768-.06c-1.862-.402-3.19-2.074-3.182-4.005a3.561 3.561 0 0 0 1.768.478c-1.729-1.195-2.267-3.533-1.238-5.38a10.979 10.979 0 0 0 8.192 4.184c-.405-1.777.411-3.61 1.995-4.476a3.95 3.95 0 0 1 4.783.77 9.268 9.268 0 0 0 2.535-.957 3.883 3.883 0 0 1-1.768 2.212 7.31 7.31 0 0 0 2.298-.657 7.27 7.27 0 0 1-2 2.211z" opacity=".7"/>
</svg>
