<svg xmlns="http://www.w3.org/2000/svg" width="39" height="39" viewBox="0 0 39 39">
    <path fill="#FFF" fill-rule="nonzero" d="M19.807 0C9.315 0 .81 8.627.81 19.269c0 10.642 8.505 19.269 18.997 19.269 10.492 0 18.998-8.627 18.998-19.269C38.796 8.631 30.295.009 19.807 0zm9.666 15.497c.27 6.514-4.462 13.715-12.913 13.715a12.788 12.788 0 0 1-6.964-2.057 9.273 9.273 0 0 0 6.758-1.92c-1.943-.068-3.641-1.353-4.259-3.223a4.967 4.967 0 0 0 2.028-.069c-2.136-.46-3.66-2.379-3.65-4.594a4.085 4.085 0 0 0 2.028.548c-1.983-1.37-2.6-4.052-1.42-6.171a12.593 12.593 0 0 0 9.397 4.8c-.465-2.039.471-4.142 2.288-5.135a4.532 4.532 0 0 1 5.487.883 10.63 10.63 0 0 0 2.907-1.097 4.454 4.454 0 0 1-2.028 2.537 8.386 8.386 0 0 0 2.637-.754 8.338 8.338 0 0 1-2.296 2.537z" opacity=".7"/>
</svg>
