<svg xmlns="http://www.w3.org/2000/svg" width="38" height="39" viewBox="0 0 38 39">
    <path fill="#FFF" fill-rule="nonzero" d="M19.263 0C8.928 0 .55 8.627.55 19.269c0 10.642 8.379 19.269 18.714 19.269 10.336 0 18.714-8.627 18.714-19.269C37.968 8.631 29.595.009 19.263 0zm9.923 25.989h-2.93c-1.664 0-1.931-.96-3.263-2.332-1.199-1.234-1.931-.274-1.865 1.509 0 .48-.2.891-.799.891-1.731 0-4.196.274-6.727-2.537-2.597-2.88-5.261-8.572-5.261-9.189 0-.342.266-.48.732-.48h2.93c.8 0 .867.414 1.066.892.933 2.127 3.064 6.446 3.663 4.046.333-1.371.466-4.594-.932-4.868-.8-.137.599-1.03 2.664-1.03.56.006 1.119.075 1.664.207 1.066.274 1.066.753 1.066 1.44-.067 2.674-.402 4.457.333 4.937.665.413 2.397-2.4 3.263-4.595.266-.617.266-1.029.999-1.029h3.596c1.865 0-.266 2.812-1.865 5.006-1.332 1.783-1.262 1.783.267 3.291 1.065 1.03 2.397 2.47 2.397 3.292.001.343-.265.549-.998.549z" opacity=".7"/>
</svg>
