<svg xmlns="http://www.w3.org/2000/svg" width="34" height="34" viewBox="0 0 34 34">
    <path fill="#FFF" fill-rule="nonzero" d="M16.794 0C7.784 0 .479 7.521.479 16.799c0 9.277 7.304 16.798 16.315 16.798 9.01 0 16.314-7.52 16.314-16.798C33.101 7.524 25.801.008 16.794 0zm8.65 22.657H22.89c-1.45 0-1.684-.837-2.845-2.033-1.045-1.076-1.683-.239-1.625 1.315 0 .419-.174.778-.697.778-1.51 0-3.658.239-5.864-2.212-2.265-2.511-4.587-7.473-4.587-8.011 0-.299.232-.418.638-.418h2.555c.697 0 .755.36.929.777.813 1.855 2.67 5.62 3.193 3.527.29-1.195.407-4.005-.813-4.244-.697-.12.523-.897 2.323-.897.488.004.975.064 1.45.18.93.238.93.657.93 1.255-.058 2.331-.35 3.886.29 4.304.58.36 2.09-2.093 2.845-4.005.232-.538.232-.897.87-.897h3.136c1.625 0-.232 2.45-1.626 4.364-1.161 1.554-1.1 1.554.232 2.869.93.897 2.09 2.152 2.09 2.87.001.299-.231.478-.87.478z" opacity=".7"/>
</svg>
