<svg xmlns="http://www.w3.org/2000/svg" width="69" height="46" viewBox="0 0 69 46">
    <g fill="none" fill-rule="nonzero">
        <path fill="#D3AE3B" d="M.448 0h68.104v46H.448z"/>
        <path fill="#C40308" d="M2.475 2.3h64.049v41.4H2.475z"/>
        <path fill="#B96B29" d="M44.348 22.626c.265-.076 1.187-.35 1.836-.885.65-.536.776-.965.828-1.196.052-.232.075-.414-.093-.281-.168.132-.672.535-1.015.729a3.76 3.76 0 0 1-.847.338c-.187.053-.336.087-.157.015.18-.072.765-.281 1.217-.74.451-.46.808-1.149.816-1.572.007-.423-.023-.393-.156-.287-.134.106-.61.703-.877.93a8.488 8.488 0 0 1-.914.656c-.215.129-.52.272-.096-.023.423-.294 1.225-.989 1.552-1.887.327-.899.268-1.427.26-1.518-.007-.09-.081-.272-.156-.106-.074.166-.609 1.254-1.04 1.722-.43.468-.327.378-.423.453-.097.075-.26.211-.052-.053.208-.264.639-.876.862-1.48a5.005 5.005 0 0 0 .29-1.555c.007-.348-.142-.83-.209-.974-.066-.144-.133-.25-.156-.084-.022.167-.364 1.239-.55 1.76-.185.52-.556 1.11-.63 1.223-.075.113-.268.347-.06-.045.208-.393.609-1.548.661-2.643.052-1.095-.097-1.699-.245-2-.149-.303-.277-.41-.277-.41s.025.747-.194 1.821c-.22 1.074-.54 1.641-.54 1.641s-.135.155-.043-.103c.063-.173.192-.555.25-1.201.063-.679.07-1.45-.125-2.108-.212-.715-.58-1.081-.58-1.081-.103 1.027-.083 2.35-.453 3.422-.069-.063-.16-.18-.197.057a6.117 6.117 0 0 1-.658 1.856c-.456.842-.642.954-.642.954s-.084-.207-.143-.318c-.06-.112-.093-.172-.17-.017-.075.154-.328.747-.885 1.4-.557.653-.87.97-.852 1.46.017.49.27.74.607.963.338.223.397.343.346.61-.05.266-.354.36-.616.369-.262.009-.59-.017-.709.051-.118.07-.126.24-.245.361-.117.12-.168.189-.278.206-.039.007-.07.01-.094.013-.025-1.292.468-1.868.468-1.868l-1.376-1.643a4.83 4.83 0 0 1-.214.1.392.392 0 0 0-.04-.062c-.183-.238-.243-.44-.243-.744.068.007.206.057.33.032.125-.026.031-.153-.006-.274a2.534 2.534 0 0 1-.05-.7c.025-.158.037-.222.037-.222s.2.223.325.223.112-.127.13-.267c.03-.211.127-.477.288-.623 0 0 .218.152.468.152.249 0 .586-.07.854-.33s.262-.325.262-.325.499.178.88.198c.38.019.785-.045.978-.452.194-.407-.056-.782-.1-.846-.043-.063-.168-.114-.168 0 0 .115.007.42-.224.573-.231.152-.412.146-.63.076-.218-.07-.524-.16-.873-.108-.314.045-.356.07-.361.075.016-.017.3-.313.579-.4.287-.088.455.032.549.147.093.114.174.299.25.031a1.007 1.007 0 0 0-.094-.769c-.125-.197-.393-.324-.674-.292-.28.032-.38.076-.38.076s-.144-.413-.505-.49c-.441-.093-.928.076-1.31.293 0 0-.3.07-.605-.02-.2-.057-.4-.181-.514-.26.034-.118.103-.338.103-.338s.087-.027.179-.062c.091-.035.072-.066.083-.143.012-.077-.171-.212-.171-.212s-.027-.232.274-.392c.3-.16.268-.133.268-.133s.176.034.248-.02c.072-.053.072-.086.072-.086s.134-.044.182-.126a.357.357 0 0 0 .023-.295c-.036-.095-.08-.113-.031-.159a.404.404 0 0 0 .097-.23l.005-.096s.102-.036.097-.195c-.004-.159-.089-.222-.138-.236-.048-.013-.08-.013-.08-.013s-.008-.096-.088-.223a1.199 1.199 0 0 0-.134-.18s.058-.046.027-.15a.276.276 0 0 0-.174-.191c-.07-.023-.146 0-.146 0s-.236-.145-.347-.204l-.138-.072s-.005-.1-.045-.155c-.04-.054-.133-.077-.182-.077-.05 0-.102.027-.102.027s-.4-.104-.565-.131c-.165-.027-.174-.041-.174-.041s-.356-.172-.493-.2c-.138-.027-.178-.04-.178-.04s.144-.177.152-.381a.57.57 0 0 0-.266-.483c-.08-.049-.124-.057-.15-.073l-.003-.14.267.027.023-.438-.26.034.04-.263-.546-.007.04.263-.263-.018.023.431.276-.036-.027.163s-.101.017-.187.081a.518.518 0 0 0-.253.459.863.863 0 0 0 .128.385s-.035.01-.173.036c-.138.027-.494.2-.494.2s-.009.013-.173.04c-.165.028-.565.132-.565.132s-.053-.027-.102-.027c-.05 0-.143.023-.183.077-.04.054-.044.154-.044.154l-.138.073c-.111.059-.347.204-.347.204s-.076-.023-.147 0a.276.276 0 0 0-.173.19c-.032.105.026.15.026.15s-.053.054-.133.181a.561.561 0 0 0-.09.222s-.03 0-.08.014c-.048.014-.133.077-.137.236-.005.159.098.195.098.195l.004.095c.005.077.05.186.098.231.049.046.005.064-.031.16a.357.357 0 0 0 .022.294c.05.081.182.126.182.126s0 .033.072.086c.072.053.248.02.248.02s-.032-.026.268.133c.3.16.275.392.275.392s-.183.135-.172.212c.012.077-.008.108.084.143.091.035.179.062.179.062l.103.338a1.962 1.962 0 0 1-.515.26c-.305.09-.605.02-.605.02-.381-.217-.868-.386-1.31-.293-.36.077-.504.49-.504.49s-.1-.045-.38-.076c-.281-.032-.55.095-.674.292a1.007 1.007 0 0 0-.094.77c.075.267.156.082.25-.032.093-.115.262-.236.548-.147.279.087.563.383.58.4-.006-.005-.048-.03-.361-.075-.35-.051-.655.038-.873.108-.219.07-.4.076-.63-.076-.231-.153-.225-.458-.225-.573 0-.114-.125-.063-.168 0-.044.064-.293.44-.1.846.193.407.599.47.98.452.38-.02.878-.198.878-.198s-.006.064.262.325c.269.26.605.33.855.33s.468-.153.468-.153c.16.147.259.413.287.624.018.14.006.267.13.267.125 0 .325-.223.325-.223s.012.064.037.223c.025.159-.012.578-.05.7-.037.12-.13.247-.006.272.125.026.262-.024.33-.031 0 .304-.06.506-.243.744a.423.423 0 0 0-.038.058 5.041 5.041 0 0 1-.204-.096L30.043 21.2s.495.579.468 1.877v-.009a1.804 1.804 0 0 1-.1-.013c-.11-.017-.16-.085-.278-.206-.118-.12-.127-.292-.245-.36-.118-.07-.447-.044-.709-.052-.262-.009-.565-.103-.616-.37-.05-.266.009-.386.346-.61.338-.223.59-.472.608-.962.016-.49-.296-.807-.853-1.46-.557-.653-.81-1.246-.886-1.4-.076-.155-.11-.095-.169.017-.059.111-.143.318-.143.318s-.186-.112-.641-.954a6.105 6.105 0 0 1-.659-1.856c-.036-.237-.128-.12-.197-.057-.37-1.073-.35-2.396-.453-3.422 0 0-.368.366-.58 1.081-.195.657-.187 1.43-.125 2.108.059.646.187 1.028.25 1.201.093.258-.042.103-.042.103s-.321-.567-.54-1.64c-.22-1.075-.194-1.822-.194-1.822s-.129.107-.278.41c-.148.301-.297.905-.245 2 .052 1.095.453 2.25.662 2.643.208.392.014.158-.06.045s-.446-.702-.631-1.223c-.186-.521-.528-1.593-.55-1.76-.022-.166-.09-.06-.156.084-.067.143-.216.626-.208.974.007.347.067.951.29 1.555.222.604.653 1.216.861 1.48.208.264.045.128-.052.053-.096-.075.008.015-.423-.453s-.966-1.556-1.04-1.722c-.075-.166-.149.015-.156.106-.008.09-.067.62.26 1.518.326.898 1.129 1.593 1.552 1.887.424.295.12.152-.096.023a8.488 8.488 0 0 1-.914-.657c-.267-.226-.743-.823-.877-.929-.133-.106-.163-.136-.155.287.007.423.364 1.112.815 1.571.452.46 1.037.669 1.217.741.179.072.03.038-.157-.015a3.752 3.752 0 0 1-.847-.338c-.343-.194-.847-.597-1.015-.73-.168-.132-.146.05-.093.282.052.231.179.66.828 1.196.65.536 1.57.81 1.836.885.265.076.078.076.078.076s-.105-.015-.642-.137c-.537-.121-1.35-.554-1.57-.695-.221-.14-.254-.194-.225.103.03.296.34.93.836 1.227.496.296 1.392.448 1.623.46.232.01.172.045.068.052a4.671 4.671 0 0 1-.784-.041c-.346-.04-.859-.211-1.033-.272a3.24 3.24 0 0 1-.046-.194c-.02-.113-.078-.096-.115-.07-.037.024-.057.045-.18.108s-.128-.013-.132-.05c-.004-.038-.028-.201-.032-.285-.005-.084-.05-.088-.107-.063-.058.026-.333.143-.435.189-.103.046-.008.13.045.23s.135.247.135.247-.258.071-.34.092c-.082.021-.058.08-.037.138.02.059.147.352.18.435.033.084.107.034.107.034l.259-.155.09.351c-.005.006-.12.028-.25.122-.131.093-.099.213.058.26.157.046.34.126.543.5.202.373.254 1.045.379 2.105.124 1.059.79 1.598.882 1.665.091.067.039.12.039.12s-.092.134-.052.34c.039.206.215.327.307.36.091.033.065.126.065.126s-.046.227 0 .64c.046.413.38.88.47.96.092.08.099.12.086.153-.013.033-.072.006-.183.093a1.165 1.165 0 0 0-.314.353c-.078.146-.052.233-.026.433.026.2.313.38.313.38s-.052.013-.065.16c-.013.146.092.313.222.42.131.106.38.16.38.16l.032.212c.013.087.177.173.281.233.105.06.307.027.392-.013.085-.04.144.007.196.093.052.087.033.42.033.553 0 .134-.079.273-.033.34s.17.02.294-.053c.124-.074.157-.02.268.053.111.073.288.14.333.133.046-.006.027-.126.027-.226s.017-.326.063-.36c.022-.015.214-.03.361-.093.069-.03.157-.06.164-.127.006-.066-.092-.066-.307-.18-.216-.113-.255-.18-.392-.273-.138-.093-.072-.126-.072-.166 0-.04.065-.087.091-.14.026-.053.013-.173.013-.173s.111-.113.163-.174c.053-.06.118-.153.19-.213.072-.06.183-.346.255-.44.072-.093.235-.193.333-.32.098-.126.36-.332.51-.432.15-.1.555-.294.555-.294s-.006.247.098.367c.105.12.242-.093.706-.427.464-.333.817-.453.817-.453s.098.153.222.313.235-.006.803-.806c.449-.63 1.04-1.207 1.269-1.422l.126.057-.035.104c-.052.166-.137.272-.247.503-.111.232-.28.285-.476.596-.195.311-.22.523-.24.84-.02.318.156.385.156.385s-.287.284-.371.496c-.085.212-.13.642-.13.642s-.046.02-.15.238c-.105.219-.294.252-.567.53-.274.278-.58.397-.723.483-.143.086-.104.172-.065.284.04.113.234.225.462.311s.306.053.463.047c.156-.007.032.119-.033.185s-.15.298-.136.556c.013.258.202.198.436.159.234-.04.508-.16.508-.16l-.026.074c-.026.073-.04.125-.04.331 0 .205.033.304.092.357.059.053.176-.06.26-.086.085-.027.228-.112.437-.159.208-.046.286-.139.286-.139s-.052.066-.065.212c-.013.146-.006.364.026.49a.903.903 0 0 0 .267.41c.143.133.176.073.28-.092.104-.166.319-.378.319-.378s.013.053.156.523c.144.47.612.86.612.86s.47-.39.612-.86c.144-.47.156-.523.156-.523s.216.212.32.378c.104.165.137.225.28.092a.905.905 0 0 0 .267-.41c.032-.126.039-.344.026-.49-.013-.146-.065-.212-.065-.212s.078.093.286.14c.208.046.352.132.436.158.085.027.202.14.26.086.06-.053.092-.152.092-.357 0-.206-.013-.258-.039-.331l-.026-.073s.274.12.508.159c.234.04.423.1.436-.16.013-.257-.072-.489-.137-.555-.065-.066-.188-.192-.032-.185.156.006.234.04.462-.047.228-.086.423-.198.463-.31.039-.113.078-.2-.065-.285-.144-.086-.45-.205-.723-.483-.274-.278-.463-.311-.567-.53-.104-.218-.15-.238-.15-.238s-.045-.43-.13-.642c-.084-.212-.371-.496-.371-.496s.176-.067.156-.384c-.02-.318-.045-.53-.24-.841-.196-.311-.365-.364-.476-.596-.11-.231-.195-.337-.247-.503a3.068 3.068 0 0 0-.034-.1l.168-.075c.228.214.821.792 1.271 1.425.569.8.68.966.804.806.124-.16.222-.313.222-.313s.353.12.817.453c.464.333.601.546.706.426.055-.063.067-.168.074-.248a9.76 9.76 0 0 1 1.11.4c.401.173.445.262.764.519.32.257.775.232 1.207.099.43-.134 1.579-.519 2.039-.721.46-.203.79-.38.838-.475.048-.093.101-.355.101-.449 0-.094-.101-.232-.135-.257-.034-.025-.02-.099-.01-.158a.502.502 0 0 0-.092-.316c-.072-.079-.062-.108-.053-.336.02-.482-.318-1.089-.797-1.282 0 0-.013-.056-.052-.09a.535.535 0 0 0-.103-.062s.01-.277.007-.336c-.004-.06.022-.053.055-.037.032.017.084.083.161.103.078.02.126-.037.143-.126.016-.089.08-.267.11-.356.029-.089-.007-.102-.043-.112-.035-.01-.151-.023-.207-.036-.054-.013-.054-.017-.042-.046.014-.03.033-.076.104-.188s.006-.116-.062-.139a5.475 5.475 0 0 0-.459-.132c-.084-.013-.103.06-.103.096 0 .036.003.194.006.254s-.052.043-.084.026a1.192 1.192 0 0 1-.165-.109c-.058-.046-.1-.003-.123.063-.022.066-.093.337-.116.416-.023.079-.016.141.016.155.032.013.184 0 .275 0 .09 0 .039.052.039.052s-.097.162-.13.225c-.032.062-.087.072-.161.072h-.2s-.497.018-.862.295c-.366.276-.47.505-.525.638-.057.134-.122.105-.179.153-.056.048-.215.22-.215.324 0 .105.037.162-.122.267-.16.105-.291.562-.075.8.216.239.3.477.366.591.065.115 0 .162-.057.162-.056 0-.173-.097-.272-.171-.098-.074-.593-.468-.806-.629-.213-.162-.056-.143-.056-.143s.054.005.178-.048c.124-.054.144-.12.02-.16a1.57 1.57 0 0 1-.431-.247c-.066-.066-.098-.14.026-.206.124-.067.398-.247.183-.307-.216-.06-.47-.106-.68-.166-.21-.06-.229-.12-.229-.12l.138-.2s.11-.16-.02-.18c-.13-.02-.444-.06-.732-.187-.574-.253-.934-.681-1.067-1.205l.01-.012c.107.215.356.619.733.631.515.017.574-.146.456-.318-.119-.172-.254-.326-.287-.378-.034-.051-.043-.12.092.009s.393.567 1.169.515c.776-.051.772-.206.772-.249 0-.151-.158-.175-.25-.27-.05-.05-.08-.122.078-.061.156.06.54.133 1.063.019.206-.045.753-.288.806-.57 0 0-.347-.02-.59-.125-.242-.107-.388-.194-.13-.14.257.052.757.159 1.198.007.257-.089.59-.3.59-.688 0 0-.478-.102-.654-.167-.175-.064-.231-.114-.231-.114s.682.22 1.302-.099.645-.755.645-.858c0-.103-.014-.133-.014-.133s-.564.14-.985.137c-.422-.004-.553-.042-.553-.042s1.18-.034 1.773-.403c.593-.368.627-1.094.627-1.094s-.672.243-1.094.293c-.421.049-.679.049-.783.041-.105-.007-.164-.041.067-.053.232-.01 1.127-.163 1.623-.46.497-.296.806-.93.836-1.226.03-.296-.004-.243-.224-.103-.22.141-1.033.574-1.57.695-.538.122-.642.137-.642.137s-.207-.01.059-.085l.018.01zm-21.226 1.377l-.238.138s-.095-.196-.12-.255c-.024-.058-.012-.084.02-.084.034 0 .132-.029.21-.037a.263.263 0 0 0 .03-.005c.027.075.061.157.106.24a.03.03 0 0 1-.009.005v-.002zm7.237 4.309c-.143.273-.535.56-.823.686-.287.126-.601.167-.732.186-.13.02-.02.18-.02.18l.138.2s-.02.06-.229.12c-.21.06-.464.107-.68.167-.215.06.06.24.183.306.125.067.092.14.027.207a1.574 1.574 0 0 1-.432.246c-.124.04-.104.107.02.16.124.053.464.12.464.12s-.007.014-.216.174c-.209.16-.575.266-.816.28-.242.012-.625.029-1.11.006-.484-.023-.54-.034-.54-.034s-.016-.164-.05-.408a2.084 2.084 0 0 0-.29-.747c-.111-.159-.345-.476-.345-.476s.006-.068.022-.147c.017-.08.006-.165-.05-.314-.057-.15-.34-.369-.34-.369s-.012-.16-.012-.31-.102-.737-.193-1.014c-.09-.276-.532-1.001-.736-1.347-.204-.345-.325-.857-.386-1.255-.062-.397-.037-.527-.017-.632a.513.513 0 0 1 .047-.124c.083.11.19.214.327.3.594.368 1.773.402 1.773.402s-.13.038-.553.042c-.421.003-.984-.137-.984-.137s-.015.03-.015.133c0 .103.026.54.645.858.62.32 1.302.1 1.302.1s-.056.048-.231.113c-.175.065-.653.167-.653.167 0 .387.332.599.59.688.44.151.94.045 1.197-.008.258-.053.112.034-.13.14-.243.107-.59.126-.59.126.053.282.6.525.806.57.523.114.907.042 1.064-.02.156-.06.126.012.078.062-.093.095-.251.119-.251.27 0 .043-.004.198.772.25.776.05 1.034-.387 1.169-.516.135-.13.126-.06.092-.009-.033.051-.168.206-.286.378-.119.172-.06.335.455.318.38-.013.63-.422.736-.636l.007.01.021.028a4.993 4.993 0 0 1-.223.509h-.002zm6.262-17.072c-.07-.136-.107-.2-.107-.2s.292.14.466.34c.174.2.17.305.197.403.026.099 0 .28-.026.45-.026.17-.026.271.007.332.033.06.063.09.063.09s-.13.034-.252.083c-.122.05-.281.095-.37.02-.089-.076-.11-.13-.055-.178.055-.05.262-.11.288-.472.026-.362-.14-.732-.21-.868zm-1.595.986c.067-.173.094-.337.043-.69-.043-.296-.1-.55-.114-.869 0 0 .216.049.527.337.31.288.381.585.381.729 0 .144-.075.32-.087.46a.64.64 0 0 0 .04.265s-.114.048-.216.12-.173.116-.33.108c-.158-.008-.252-.08-.342-.128a.496.496 0 0 0-.15-.056s.18-.104.247-.276h.001zm-1.513-1.222c.31-.288.526-.337.526-.337-.014.32-.07.573-.114.87-.05.352-.023.516.044.689a.634.634 0 0 0 .247.276s-.059.008-.15.056c-.09.048-.184.12-.341.128-.157.008-.228-.036-.33-.108a1.309 1.309 0 0 0-.216-.12s.05-.124.04-.264c-.013-.14-.087-.317-.087-.461.001-.144.072-.44.382-.73h-.001zm-1.119 1.753c-.089.076-.248.03-.37-.019s-.252-.083-.252-.083.03-.03.063-.09c.034-.06.034-.163.008-.332-.026-.17-.052-.351-.026-.45.026-.098.022-.203.196-.404.174-.2.466-.339.466-.339s-.037.064-.107.2-.237.506-.211.868c.026.362.233.423.289.472.055.049.032.102-.057.177h.001zm4.135 3.03c-.305.172-.48.134-.467.26.012.128.286.223.286.223s-.28.306-.499.446c-.218.14-.474.229-.474.229s-.087.012-.037.152c.05.14.137.235.206.274.068.038.106.05.106.05s-.38.414-.55.547a1.433 1.433 0 0 1-.398.236c-.138.057-.069.286-.038.388.031.101.15.241.219.26.068.02.093.07.006.21-.065.104-.283.382-.387.535l-.006.003c-.103-.152-.324-.433-.39-.538-.087-.14-.062-.19.007-.21.068-.019.187-.159.218-.26.031-.102.1-.331-.038-.388a1.43 1.43 0 0 1-.399-.236c-.168-.133-.549-.547-.549-.547s.038-.012.107-.05a.516.516 0 0 0 .205-.274c.05-.14-.037-.152-.037-.152s-.256-.09-.474-.23c-.218-.14-.499-.445-.499-.445s.274-.095.287-.222c.012-.127-.162-.09-.468-.26-.305-.172-.405-.389-.405-.389s.355-.12.53-.483a.68.68 0 0 0 .07-.343l.013.004c.568.188 1.232.263 1.825.263.592 0 1.255-.075 1.822-.263l.013-.004a.677.677 0 0 0 .07.343c.175.362.53.483.53.483s-.099.217-.404.39v-.002z"/>
        <path fill="#D4AF3A" d="M38.385 22.784c0-.975.441-1.592.441-1.592l-1.2-1.398c-1.145.449-2.193.476-3.126-.006-.933.482-1.981.455-3.125.006l-1.201 1.398s.442.617.442 1.592c0 .976-.186 1.7-.294 2.171-.109.472-.202 1.353.046 1.983.248.629.51 1.18 1.579 1.636 1.067.456 1.625.692 1.996 1.007.371.314.557.566.557.566s.186-.252.557-.566c.372-.315.929-.551 1.997-1.007 1.067-.457 1.33-1.007 1.578-1.636.248-.63.155-1.51.047-1.983-.108-.471-.293-1.194-.293-2.17h-.001z"/>
        <path fill="#B96B29" d="M38.007 23.187c-.15-.932.378-1.752.378-1.752l-1.028-1.222c-.793.452-1.895.391-2.853-.057-.958.448-2.061.51-2.853.057l-1.028 1.222s.528.82.377 1.752c-.15.931-.475 2.406-.394 3.007.08.601.499 1.297.928 1.663.429.365 1.067.672 1.52.837.452.165.893.484 1.102.649a4.1 4.1 0 0 1 .348.306s.139-.141.348-.306c.209-.165.65-.484 1.102-.649.452-.165 1.09-.472 1.52-.837.429-.366.846-1.062.928-1.663.08-.604-.245-2.077-.396-3.009l.001.002z"/>
        <path fill="#1D5E91" d="M37.908 23.298c-.149-1.006.298-1.817.298-1.817l-.928-1.05c-.785.41-1.738.304-2.777-.063-1.039.367-1.992.472-2.776.063l-.929 1.05s.447.81.298 1.817c-.149 1.006-.376 2.145-.333 2.813.003.046.008.092.015.14h.845s.049-.058.143-.1c.094-.04.12-.068.12-.068s.019-.173.122-.21c.103-.037.147-.037.188-.037.04 0 .071-.009.12-.059.05-.05.184-.173.242-.347.059-.173.095-.242.095-.356 0-.114.04-.297.04-.297s-.023-.054-.108-.022c-.085.032-.098-.055-.107-.142-.009-.087-.004-.265.045-.347l.067-.11-.036-.136s-.537.11-.631-.315c-.094-.425-.112-.63-.126-.676-.013-.046-.026-.069-.098-.064-.072.005-.224-.045-.331-.265-.108-.219-.117-.31-.086-.397.032-.087.09-.055.108-.027.018.027.161.237.22.178.057-.06.026-.06-.054-.224-.081-.164-.054-.219-.045-.301.009-.082-.027-.192-.027-.238 0-.045.05-.082.098-.06.05.024.095.06.117.088.022.027.031.068.076.041.045-.027.018-.178.018-.228 0-.05.058-.087.13-.046a.215.215 0 0 1 .107.173c0 .055.005.105.032.105.026 0 .058-.082.062-.137.005-.054.036-.137.085-.068.05.068.068.17.05.274-.018.105.018.05-.018.233-.036.182-.054.265-.05.402a.927.927 0 0 0 .077.383c.067.169.12.365.246.37l.161.004s.139-.274.246-.338c.108-.064.26-.073.368-.087.107-.013.152-.045.152-.073 0-.027-.036-.036-.166-.054-.13-.019-.237-.05-.241-.151-.005-.1.022-.187-.063-.192-.085-.004-.296-.073-.372-.214-.076-.142-.058-.174-.049-.251.009-.078.107-.233.17-.087.063.146.103.164.157.196.054.032.125.041.09-.06-.036-.1-.059-.163-.05-.236.01-.074.058-.105.117-.12.058-.013.232-.068.322-.086.09-.018.094-.027.094-.027s.009-.064.125-.1a.83.83 0 0 1 .278-.042c.085 0 .148.014.26-.04a.528.528 0 0 1 .273-.06.347.347 0 0 1 .179.068c.054.037.036.087.036.137 0 .05.008.078.085.078a.57.57 0 0 1 .215.027c.071.028.17.069.107.146-.062.078-.067.165-.107.16-.04-.004-.036.041-.054.069-.018.027-.031.05.014.077.044.028.049.055.111.114.063.06.157.124.063.22-.094.095-.26.173-.26.173s-.094.046.014.11c.107.064.157.196.197.219.04.023.08.06.107.073.027.014.023.105.023.105s-.058.041-.139.073c-.08.032-.166.068-.242.068-.076 0-.116 0-.085.073s.085.151.099.192c.013.041.031.114.031.114s.125.028.237.028c.112 0 .162.004.408-.023.246-.027.318-.037.555-.01.238.028.273.019.336.042.062.023.125.055.125.055s.336-.005.52-.046c.183-.041.228-.16.201-.224-.027-.064-.022-.16-.345-.205-.322-.046-.452-.028-.707-.078-.255-.05-.654-.182-.725-.506-.072-.325.188-.461.318-.525s.411-.165.541-.22c.13-.054.368-.109.618-.073.25.037.394.105.493.046.098-.06.179-.014.16.078-.017.09-.116.278-.398.365-.282.087-.622.096-.805.046-.184-.05-.323-.124-.435-.083-.112.041-.237.183-.116.352.12.169.739.219.904.237.166.019.78-.027.954.283.174.31.036.657-.17.735a2.62 2.62 0 0 1-.537.15l-.157.024s.071.164.071.233c0 .068-.008.196.068.246.076.05.183.087.313.073.13-.013.287.078.296.196.009.119.045.283.058.52.013.238 0 .434 0 .434s-.01.092-.04.178a9.515 9.515 0 0 1-.193.423h.902a2.02 2.02 0 0 0 .014-.14c.037-.676-.19-1.815-.34-2.821l.006.009z"/>
        <path fill="#6D8C3E" d="M30.883 26.697a2.618 2.618 0 0 0 1.095 1.373c.771.472 1.104.41 1.83.89.728.48.684.561.693.561.008 0-.035-.08.692-.56.727-.482 1.06-.42 1.83-.891.555-.34.92-.86 1.096-1.373H30.883z"/>
        <path fill="#D4AF3A" d="M31.513 22.731c.083.089.144.115.27.102.127-.013.157.08.179.182.022.102.022.34.113.562.092.222.397.235.397.235a1.4 1.4 0 0 1 .091-.368c.008-.02.048-.12-.06-.12-.11 0-.105-.044-.17-.15a2.096 2.096 0 0 1-.223-.571c-.03-.182.026-.452.057-.55.03-.097.035-.163 0-.18-.035-.019-.105 0-.105 0s.026.083-.004.097c-.03.013-.057-.045-.078-.106-.022-.063-.048-.054-.092-.05-.044.005-.044.045-.013.09.03.043.013.123.013.123s-.096-.07-.135-.088c-.04-.018-.13.017-.14.07-.008.053.035.19.118.262.083.07.083.217.057.283-.026.066-.148.058-.174.027a.074.074 0 0 0-.114 0c-.035.04-.07.063.013.15zM32.712 24c.065.15.227-.086.375-.278.148-.19.143-.045.123.111-.02.156.04.322.1.428.058.105.108.045.132-.03.025-.076.044-.232.094-.307.05-.076.098-.01.103.055.005.065.084.211.158.296.074.086.108-.03.133-.135.025-.106.054-.267.074-.332.02-.065.089-.01.089-.01l.148.146c.098.095.108-.056.118-.13.01-.076-.015-.242.015-.267.03-.025.113.035.241.1.129.066.124-.06.109-.13a.714.714 0 0 0-.192-.322c-.104-.09-.119-.196-.084-.242.034-.045.158-.005.236-.015.08-.01.119-.02.178-.03.06-.01.06-.07.06-.07s-.045-.075-.129-.15c-.084-.076-.133-.136-.237-.162-.103-.025-.246 0-.246 0l-.015-.03c-.015-.03-.044-.03-.064 0-.02.03-.069.07-.109.106-.039.035-.064.055-.088.04-.025-.015.02-.05.02-.05s.054-.04.103-.141c.05-.1.064-.196.025-.242-.04-.045-.148 0-.207 0-.06 0-.094.01-.099-.02-.005-.03.06-.015.133-.025.074-.01.119-.1.143-.176.025-.075.045-.065.089-.02s.084.035.094.005c.01-.03.049-.106.098-.181.05-.076.079-.181.025-.251-.055-.07-.188-.061-.242-.015-.054.045-.088.09-.103.2-.015.111-.045.05-.045.015s-.044-.09-.024-.135c.02-.045 0-.096 0-.096s-.01-.095-.114-.115a.795.795 0 0 0-.325.03c-.104.025-.084.116-.084.116s-.079.004-.163.015c-.084.01-.182.045-.261.065-.079.02-.109.03-.109.07 0 .04.015.106.015.106s.064 0 .099.02c.034.02.015.055-.025.07-.04.015-.054.02-.054.07 0 .051.02.061.059.061.04 0 .123 0 .222.045s.123.136.113.186c-.01.05-.148.116-.217.116s-.088.015-.088.06.083.04.083.04.084.005.247.025c.163.02.187.056.261.121.074.065.02.08-.014.1-.035.02-.09.066-.143.086-.055.02-.09.06-.139.07-.049.01-.172.005-.399.096-.227.09-.306.392-.306.392s.03-.01.133-.065c.104-.056.232-.116.35-.191.119-.075.119.035.06.14-.06.106.054.086.088.056a.969.969 0 0 1 .193-.12c.113-.061.074.034.074.034s-.035.07-.045.237c-.01.166.163.01.242-.096.079-.105.113 0 .054.12-.06.122-.172.217-.237.217-.064 0-.113-.07-.118-.11-.005-.04.02-.162-.02-.192s-.153.005-.236.056c-.084.05-.104.01-.124-.035-.02-.046.03-.06.01-.09-.02-.031-.064 0-.098.014-.035.015-.114.06-.267.14-.153.081-.143.126-.143.242 0 .116.029.142.092.293l.002-.006z"/>
        <path fill="#D4AF3A" d="M34.516 21.932c-.1 0-.21.15-.25.177-.042.027-.018.054-.018.054a.61.61 0 0 0 .055.281s.015.006.073.006c.058 0 .093-.03.148-.071a.372.372 0 0 1 .178-.071.576.576 0 0 0 .204-.077c.087-.047-.047-.13-.14-.207a.344.344 0 0 0-.25-.09v-.002zM32.363 26.207a.108.108 0 0 0 .043.044h.376c.064-.018.065-.078.068-.12.004-.049.04-.189.093-.443.052-.254.141-.435.178-.538.037-.102-.037-.136-.063-.2a1.737 1.737 0 0 1-.078-.235c-.011-.057-.1-.05-.149-.046-.048.004-.056.084-.063.16-.007.075-.04.299-.078.492-.037.193-.253.45-.312.507-.06.057-.108.08-.149.08-.04 0-.13 0-.174.027a.226.226 0 0 0-.093.155c-.004.057.086.087.086.087s.07-.042.096-.076c.026-.034.086-.042.145-.053.06-.011.067.011.045.042-.023.028-.016.036.03.116v.001zM35.657 24.952c.08-.059.067-.075.07-.137.003-.062.003-.08-.029-.104a.548.548 0 0 0-.262-.075c-.111 0-.322.026-.402.082-.08.055-.118.254-.118.358 0 .104.016.12.045.12.028 0 .076-.075.076-.075s.105.14.17.238c.063.098.034.136.006.211-.029.075-.134.274-.217.316-.083.042-.147.003-.246-.013s-.153.013-.21.072c-.058.058-.004.104.031.104s.083-.003.122.045c.026.034.008.111-.005.156h.489c.083-.038.141-.154.163-.218.026-.071.131-.165.183-.214.05-.05.057-.082.057-.19a.472.472 0 0 0-.067-.243.45.45 0 0 1-.055-.244c.009-.066.115-.134.194-.193l.005.004z"/>
        <path fill="#D4AF3A" d="M34.852 23.712c.05.08.025.096-.046.111a.793.793 0 0 1-.256.019c-.11-.01-.106.006-.11.062a.494.494 0 0 1-.076.26c-.064.087-.143.053-.192.019-.049-.034-.076-.025-.094.037-.019.062-.052.106-.104.198-.052.093-.085.097-.122.087-.037-.01-.07-.065-.107-.068-.036-.003-.094-.077-.15-.168-.054-.09-.082.01-.118.087-.037.078-.073.134-.143.124-.07-.009-.15-.142-.19-.223-.04-.08-.063-.158-.124-.155-.061.003-.162.133-.23.167-.066.035-.085.022-.115-.021-.03-.044-.07.015-.11.118-.04.102.003.189.058.217.055.027.165-.053.238-.103.073-.05.107-.037.183-.037s.07.127.104.313c.033.186.14.21.14.21s.037.032.119-.11c.082-.143.091-.283.17-.283.08 0 .086.019.165.13.08.112.147.196.192.112.046-.084.086-.208.138-.251.052-.044.1-.056.045.025-.055.08-.079.167.034.133s.543-.21.717-.245c0 0 .204-.034.439-.046.234-.013.292-.028.384-.028.091 0 .094-.01.1-.071.006-.063-.042-.05-.213-.05-.17 0-.29.022-.409.04-.119.019-.173.016-.152-.015.021-.031.055-.053.192-.074.137-.022.418-.038.564-.04.146-.004.1.043.088.142-.012.099.013.245.022.338.009.093.012.12.091.25.08.13.354.212.433.255.08.043.067 0 .064-.078-.003-.077.061-.074.131-.034.07.04.186.075.269.097.082.021.094.037.094.08 0 .043.01.14.019.23s.006.117-.031.173c-.037.056-.192.217-.192.217s-.07 0-.22.037c-.15.038-.195.109-.21.17-.015.063.027.082.034.106a.355.355 0 0 1 0 .075h.034a.793.793 0 0 1 .054-.081c.052-.068.183-.084.268-.043.056.026.057.086.051.124h.342c.046-.09.155-.307.184-.373a.564.564 0 0 0 .06-.25c.004-.115.016-.558-.005-.583-.022-.025.006-.1 0-.224-.007-.123 0-.217-.226-.238-.226-.022-.296-.118-.372-.196-.077-.077-.058-.257-.119-.474-.061-.217-.21-.25-.476-.304a2.167 2.167 0 0 0-.658-.04c-.199.02-.446.047-.583.034-.134-.017-.113.023-.063.104l-.004.005zM35.723 22.777c.232.157.966.165 1.311.235.345.07.32.339.215.479-.105.14-.59.157-.678.169a.737.737 0 0 1 .118.136l.199-.017c.146-.012.402-.049.576-.198.175-.148.162-.387.008-.548-.154-.16-.41-.177-.67-.206-.259-.03-.462-.05-.754-.1-.292-.049-.434-.168-.434-.342 0-.173.158-.264.272-.297.113-.033.296-.082.458-.02.163.062.353.07.674.029.32-.042.394-.269.394-.269s-.041.021-.203.025c-.163.004-.28-.07-.576-.074-.297-.004-.402.103-.54.153s-.507.086-.617.33c-.109.244.017.359.249.516h-.002z"/>
        <path fill="#1D5E91" d="M35.029 25.355c-.045-.072-.058-.065-.109-.02-.051.046-.103-.11-.109-.208-.006-.097.038-.397.038-.397s-.25.052-.383.098c-.135.045-.263.058-.371.085-.109.026-.167.051-.224.039a1.609 1.609 0 0 0-.275-.02c-.096 0-.09.02-.186.117s-.121.15-.198.332c-.077.181-.102.35-.128.572a1.512 1.512 0 0 1-.062.296h1.147c.014-.037.032-.084.047-.119a.284.284 0 0 1 .138-.131c.045-.022.085-.022.105-.073.021-.052.079-.095.139-.123.06-.027.165-.012.261.016.096.027.13-.04.156-.077.027-.036.04-.088.09-.155.052-.068.013-.129.013-.129s-.046-.031-.092-.103h.003zM36.869 25.386c-.015-.067-.01-.076-.048-.085-.04-.01-.105-.022-.162-.046-.057-.024-.051.131-.051.131s-.136.015-.289-.003c-.153-.018-.333-.158-.396-.204a.727.727 0 0 1-.133-.15s-.048.046-.096.073c-.048.028-.075.126-.084.223-.009.098.111.217.12.315.01.098-.105.293-.162.372-.039.055-.09.17-.117.238h.553a.29.29 0 0 1 .06-.094c.057-.058.153-.07.153-.07s0-.025.021-.077c.02-.051.078-.113.216-.168.138-.055.304-.064.304-.064s.065-.055.114-.131c.048-.076.012-.191-.003-.259z"/>
        <g transform="translate(31.813 8.194)">
            <path fill="#D4AF3A" d="M.445 23.398c.104.035.296-.042.392-.16.097-.12.131-.301.2-.406l.119-.183s-.015.173-.106.405c-.087.22-.103.522-.082.652.041.258.206.3.303.265.073-.026.184-.14.285-.313.032-.054.055-.13.086-.19.066-.126.124-.332.153-.326.063.013.023.158-.001.256-.048.196-.145.482-.152.657-.007.175.014.49.186.504.172.014.261-.14.358-.497.096-.356.117-.468.158-.468.041 0 .041.244.041.35 0 .035.002.135.016.235.026.19.081.42.135.47.083.077.152.063.152.063s.068.015.151-.062c.083-.077.151-.602.151-.707 0-.105 0-.35.041-.35.042 0 .062.113.159.47.096.356.185.51.357.496.172-.014.193-.329.186-.504-.007-.175-.103-.461-.151-.657-.049-.196.02-.182.151.07.04.079.083.175.125.242.091.148.18.237.246.261.097.035.262-.007.303-.265.041-.26-.151-1-.151-1l.082.126c.07.104.103.286.2.405.096.12.289.196.392.16.103-.034.117-.23.041-.58-.076-.35-.385-.545-.605-.825-.203-.257-.359-.71-.382-.78a2.54 2.54 0 0 0-.74.53c-.455.483-.554.604-.554.604s-.099-.12-.554-.603a2.55 2.55 0 0 0-.744-.533c-.026.06-.215.491-.42.751-.101.13-.242.227-.341.351a1.2 1.2 0 0 0-.227.505c-.074.348-.06.544.044.58l-.003.001z"/>
            <path fill="#D4AF3A" d="M.433 24.583c.133-.12.202-.185.202-.185s.096-.082.072.074c-.024.156-.077.476-.044.615.032.14.048.259.218.156.17-.103.21-.164.29-.25.081-.086.166-.123.146.012-.02.135-.081.34-.053.615.028.275.162.316.335.082.174-.233.278-.447.33-.562.053-.114.158-.213.158 0 0 .46.104 1.127.601 1.305.498-.178.602-.846.602-1.305 0-.213.105-.114.157 0 .052.115.157.329.33.562.174.234.308.193.336-.082.028-.274-.033-.48-.053-.615-.02-.135.065-.098.146-.012.08.086.12.147.29.25.17.103.186-.016.218-.156s-.02-.46-.044-.615c-.024-.156.072-.074.072-.074s.069.066.202.185a.56.56 0 0 0 .316.126s.086-.482-.112-.77c-.197-.287-.27-.38-.27-.38s-.111-.007-.197-.04c-.085-.034-.169-.097-.169-.097v.267s.242.233.299.303c.056.07.17.188.004.074-.165-.115-.303-.23-.303-.23s-.032.242-.1.304c-.07.06-.166.069-.206.053l-.04-.017-.013.095s.15.283.17.398c.02.115-.013.102-.081-.046-.069-.147-.202-.336-.262-.438-.06-.103-.15-.173-.142-.041.009.13-.044.369-.088.455-.045.086-.073.115-.073.115s.093.332.105.394c.012.061.004.13-.048.053a5.453 5.453 0 0 1-.202-.406s-.198-.008-.255-.066c-.056-.057-.145-.279-.145-.279s-.08.283-.148.374c-.067.09-.222.18-.222.18s-.012.492-.022.578c-.012.087-.015.125-.052.125-.036 0-.04-.038-.05-.125-.011-.086-.023-.578-.023-.578s-.156-.09-.223-.18c-.066-.091-.147-.374-.147-.374s-.09.222-.146.28c-.056.057-.254.065-.254.065s-.15.328-.202.406c-.052.078-.06.008-.048-.053.012-.062.105-.394.105-.394s-.028-.029-.073-.115a1.197 1.197 0 0 1-.088-.455c.008-.132-.081-.062-.142.04-.06.103-.193.292-.262.44-.069.147-.1.16-.08.045.02-.115.169-.398.169-.398l-.012-.095-.04.017c-.041.016-.138.008-.206-.053-.069-.062-.101-.304-.101-.304s-.137.115-.303.23c-.165.114-.052-.005.004-.074a6.81 6.81 0 0 1 .299-.304v-.266s-.083.063-.169.096c-.085.034-.197.04-.197.04s-.073.094-.27.381c-.197.288-.112.77-.112.77s.184-.006.317-.124l-.001-.002zM2.86 27.79a1.749 1.749 0 0 1-.17-.227s-.042.075-.17.227c-.127.151-.425.389-.425.389s.027.4.17.616c.121.183.237.35.426.476.188-.126.304-.293.425-.476.144-.216.17-.616.17-.616s-.298-.239-.425-.39zM4.621 5.855a3.99 3.99 0 0 0-.347-.244c-.064-.032-.014-.118-.004-.154.01-.036.285-.115.436-.154.15-.04.126-.072.126-.072s-.088-.104-.636-.165c-.548-.06-1.51-.046-1.51-.046s-.963-.014-1.51.046c-.549.061-.637.165-.637.165s-.024.033.127.072c.151.04.425.118.435.154.011.036.06.122-.003.154a3.945 3.945 0 0 0-.348.244c-.042.035-.045.093.021.096.067.004.068.003.257-.036a8.776 8.776 0 0 1 1.658-.154c.563.008 1.094.04 1.658.154.189.039.19.04.257.036.066-.003.063-.06.021-.096zM2.571.847l.287-.024-.027-.255.308.044.013-.252-.324.03.057-.272-.356-.003.062.275-.314-.03v.252l.31-.037zM3.197 1.26h-.385V.924a.56.56 0 0 0-.215-.002v.336H2.2a.445.445 0 0 0-.017.192h1.032a.424.424 0 0 0-.019-.192h.002z"/>
            <path fill="#B96B29" d="M2.994 5.22c-.098-.047-.31-.139-.31-.139l-.31.157c-.11.056-.096.04-.13.12-.034.082.003.11.051.132.048.022.395.202.395.202l.426-.202c.083-.04.067-.079.044-.14-.022-.062-.07-.083-.165-.13h-.001z"/>
            <path fill="#D4AF3A" d="M2.46 4.203s.11-.124.15-.203c.041-.079.074-.15.074-.15s.033.071.074.15c.041.079.151.203.151.203s.155-.083.245-.386c.09-.302-.02-.622-.061-.966-.041-.344-.074-.938-.074-.938a.68.68 0 0 1-.335.1.683.683 0 0 1-.335-.1s-.033.594-.074.938c-.04.344-.15.664-.06.966.09.303.244.386.244.386z"/>
            <ellipse cx="2.684" cy="3.523" fill="#B96B29" rx="1" ry="1"/>
            <ellipse cx="2.684" cy="2.907" fill="#B96B29" rx="1" ry="1"/>
        </g>
        <g transform="translate(21.914 9.919)">
            <path fill="#D4AF3A" d="M9.797 24.496c.12-.076.222-.161.492-.343.27-.183.369-.385.369-.385h-.095c-.052 0-.095-.073-.1-.145-.003-.073 0-.223.02-.397a.808.808 0 0 0-.027-.315s-.115.109-.29.202c-.174.093-.246.049-.246.049l-.043-.178s-.076.162-.183.352c-.107.19-.397.4-.603.558-.206.157-.432.323-.603.384-.17.06-.071.142-.071.142s.17.173.61.254c.441.081.651-.1.77-.178z"/>
            <path fill="#D4AF3A" d="M11.337 24.323c-.157-.017-.25-.078-.281-.251-.02-.113.008-.546.008-.546s-.052.044-.111.117c-.06.073-.195.089-.195.089s-.02.06-.08.158a.884.884 0 0 1-.285.311c-.15.097-.325.21-.44.308-.115.097-.25.21-.4.295a.668.668 0 0 0-.338.449c-.052.226-.012.299.163.287.174-.012.194.004.476-.07.281-.072.682-.391.975-.581.294-.19.508-.566.508-.566z"/>
            <path fill="#D4AF3A" d="M12.118 24.584s-.12-.153-.163-.327l-.127-.518s-.04.11-.134.315c-.096.207-.258.255-.258.255s-.008.089-.143.263a1.992 1.992 0 0 1-.536.457c-.202.121-.464.287-.607.493-.142.207-.154.42-.087.514.068.093.163-.012.298-.081.135-.069.52-.13 1.05-.42.532-.292.707-.95.707-.95z"/>
            <path fill="#D4AF3A" d="M12.348 25.794c.147-.222.171-.764.171-.764s-.051-.036-.123-.097a1.942 1.942 0 0 1-.21-.275s-.087.186-.182.36c-.096.174-.143.235-.342.42-.198.187-.468.369-.583.567-.115.198-.051.594.024.728.075.133.182.089.293-.02.112-.11.147-.138.342-.308.194-.17.464-.388.61-.61z"/>
            <path fill="#B96B29" d="M10.107 23.723l-.08-.049s-.047.065-.114.138c-.068.073-.143.101-.195.17a.753.753 0 0 1-.254.218c-.123.065-.17.085-.146.106.023.02.107-.029.107-.029s.035-.004.182-.093.183-.137.278-.222c.095-.085.222-.239.222-.239zM10.75 24.496c.056-.06.115-.1.084-.133-.032-.032-.072-.028-.123.016-.052.045-.199.186-.266.247-.067.06-.123.097-.19.15-.068.052-.215.133-.286.173-.071.04-.004.045-.004.045s.056-.029.115-.049c.06-.02.23-.097.23-.097s.068-.032.159-.097.226-.194.281-.255zM11.491 25.018c.048-.097-.003-.069-.083-.036-.08.032-.258.23-.36.303-.104.073-.191.101-.278.146-.088.044-.088.069-.083.089.003.02.039.02.075.004s.158-.09.158-.09.052-.015.1-.02c.047-.003.115-.056.222-.15.107-.092.202-.148.25-.246zM11.837 25.71c-.131.08-.357.262-.417.384-.06.121-.1.206-.08.226.02.02.084-.02.112-.069.027-.048.087-.12.087-.12s.226-.227.31-.28a.794.794 0 0 0 .25-.29c.031-.09.007-.138.007-.138s-.139.206-.27.287z"/>
            <path fill="#C52126" d="M8.342 6.365a2.08 2.08 0 0 0-.786-.241 2.39 2.39 0 0 0-.893.101.972.972 0 0 1-.533.02c-.245-.066-.436-.292-.5-.568 0 0-.227.295.005.616a.68.68 0 0 0 .403.28c.481.099.953-.2 1.353-.225.384-.026.686.222.686.222s.091.077.22.001c.128-.076.165-.134.045-.206z"/>
            <path fill="#D4AF3A" d="M8.568 20.408v-.058l-.076-.167s-.089.057-.175.148c-.112.118-.232.283-.286.353-.095.124-.228.241-.114.043s.152-.284.244-.416c.091-.132.16-.19.148-.198-.011-.008-.084-.02-.323-.05-.24-.032-.389-.125-.5-.19-.11-.067-.308-.175-.308-.175s-.408.174-.56.213c-.152.039-.244.062-.095.136.148.074.274.097.346.144.073.046.297.12.435.12.137 0 .369.004.278.1-.092.098-.195.285-.294.568a1.97 1.97 0 0 0-.102.66c0 .125.015.249.015.249s.167-.19.617-.478c.45-.287.617-.384.7-.423.084-.039.127-.039.111-.148-.015-.108-.06-.376-.06-.43z"/>
            <path fill="#D4AF3A" d="M10.285 19.02a6.408 6.408 0 0 1-.083-.039.098.098 0 0 0-.02.008c-.054.026-.328.214-.439.396-.11.183-.221.199-.1 0 .122-.198.211-.31.306-.396.037-.034.07-.061.096-.082-.22-.108-.46-.24-.692-.403-.03.06-.088.168-.153.238-.095.102-.306.188-.306.188s.169-.177.227-.311c.037-.086.061-.178.074-.233a3.005 3.005 0 0 1-.454-.44c-.028.115-.12.398-.39.705-.353.402-1.06.606-1.06.606s-.248.027-.047.08c.2.054.343.145.733.075.39-.07.416-.086.47-.101.052-.017.194-.006 0 .07-.196.074-.65.144-.824.128-.174-.016-.41-.054-.163.08.248.135.353.188.506.188.153 0 .216.048.364.048s.19-.027.296-.048c.105-.021.173.016.173.059s-.142.16-.137.456c.006.294.027.487.053.573.027.086.09.225.132.306.042.08.058.16.1-.011.042-.172.137-.418.174-.584.037-.166.058-.172.074-.258.016-.085.106-.15.063.006-.042.155-.09.354-.12.493-.033.14-.106.397.02.193.127-.204.601-.745.68-.842.08-.096.143-.187.2-.268.059-.08.222-.187.301-.305.072-.107.281-.315.371-.389-.134-.058-.275-.118-.425-.186zM3.73 6.646c.012.295.333.86.516 1.162.183.302.234.424.202.443-.031.02-.107-.135-.208-.27-.1-.134-.296-.449-.46-.687-.164-.237-.404-.802-.436-.854-.031-.051-.044-.083-.126-.02-.082.065-.24.688-.05 1.112.19.424.473.732.593.88.12.147.277.379.252.398-.025.02-.07-.039-.214-.193a13.617 13.617 0 0 1-.543-.61c-.128-.156-.302-.474-.363-.587-.023-.043-.052-.032-.074-.01-.052.054-.135.177-.1.514.051.469.291.738.505.976.215.237.43.436.398.469-.032.032-.252-.167-.404-.315a13.606 13.606 0 0 1-.605-.617c-.082-.102-.202-.051-.196.354.006.404.448.815.63 1.04.184.225.41.36.392.404-.019.045-.202-.07-.322-.154-.12-.083-.567-.379-.656-.443-.088-.064-.132.058-.019.443.114.385.442.694.637.835.196.141.511.314.492.36-.018.045-.15-.013-.334-.103a3.677 3.677 0 0 0-.561-.218c-.158-.045-.158.07-.158.07s-.032.328.202.59c.233.264.498.367.75.412.253.045.29.058.284.096-.006.039-.031.045-.088.045-.057 0-.29.026-.505.026-.214 0-.328.051-.328.148 0 .096-.006.224.316.443.321.218.681.25.832.282.152.032.158.045.127.09-.032.045-.101.039-.341.064-.24.026-.385.122-.416.187-.032.064.019.257.214.391.196.135.448.18.827.155.378-.026.473-.033.485.032.013.064-.113.083-.302.115-.19.032-.335.032-.442.122-.107.09-.025.276.158.411.182.135.637.135.826.122.19-.012.48-.083.498-.032.02.051-.138.129-.334.2-.196.07-.252.115-.29.199-.038.083-.006.16.227.25s.574.09.75.006c.177-.083.272-.115.304-.083.03.032 0 .064-.038.11a.867.867 0 0 1-.385.217c-.196.052-.215.052-.284.212-.07.16.107.29.46.303.354.012.827-.129.978-.22.152-.09.208-.108.234-.076.025.032.019.051-.057.109s-.316.231-.435.263c-.12.032-.133.122-.133.206 0 .083-.031.25.284.327.315.078.687.02 1.028-.224a.783.783 0 0 0 .21-.2 2.725 2.725 0 0 1 .025-.761 1.23 1.23 0 0 1-.323-.08c-.19-.077-.265-.257-.31-.353-.044-.096-.107-.096-.182-.07-.076.025-.152.057-.259.05a.739.739 0 0 1-.498-.263c-.164-.199-.133-.391-.14-.488-.006-.096-.157-.025-.233-.025a.972.972 0 0 1-.498-.174c-.202-.141-.202-.334-.22-.41-.02-.078-.102-.13-.165-.155-.063-.026-.164-.051-.303-.167-.138-.115-.189-.34-.195-.417-.006-.077-.088-.084-.372-.231-.284-.148-.259-.456-.246-.578.012-.122.145-.225.145-.27 0-.045-.095-.058-.19-.116-.094-.057-.334-.154-.34-.513-.006-.36.227-.399.227-.399s-.044-.019-.139-.077c-.094-.058-.353-.237-.353-.45 0-.211.095-.307.164-.359.07-.051.259-.103.259-.103s-.12-.077-.17-.244c-.051-.167-.07-.372.05-.52.12-.148.321-.148.429-.148.107 0 .201.058.24.026.037-.032.043-.057.006-.14a.64.64 0 0 1-.013-.36c.032-.071.038-.212.31-.302.27-.09.554.096.643.147.088.052.05-.07.05-.16s-.183-.315-.391-.636a7.04 7.04 0 0 1-.536-.976 6.368 6.368 0 0 1-.417-1.278c-.031-.16-.094-.084-.094-.084s-.063.026-.208.398c-.145.373-.17.713-.158 1.009z"/>
            <path fill="#D4AF3A" d="M8.488 13.213c-.163-.008-.374-.099-.536-.338-.163-.24-.407-.298-.83-.29-.422.008-.617-.199-.722-.496-.106-.298.016-.638.446-.853.431-.215.626-.455.642-.827.017-.372-.43-.835-.877-1.356-.447-.521-.797-1.258-.797-1.258s-.13.174-.13.348c0 .173.065.355 0 .405-.065.05-.089-.075-.349-.19-.26-.116-.471-.133-.634.058-.162.19 0 .52.147.678.146.157.268.273.227.331-.04.058-.26-.091-.333-.14-.073-.05-.244-.24-.496-.216-.252.025-.341.1-.365.315-.025.215.227.405.39.488.162.082.227.157.186.19-.04.033-.08 0-.154-.025a.745.745 0 0 0-.406 0c-.13.05-.342.231-.146.455.195.223.6.306.682.322.081.017.122-.008.13.058.008.067-.17.067-.39.075-.22.008-.284.223-.252.389.033.165.398.347.601.38.204.033.277 0 .293.058.016.058-.024.083-.138.116-.114.033-.333.058-.374.24-.04.182-.049.264.122.422.17.157.447.132.528.116.081-.017.179-.108.26-.025.081.082-.073.149-.211.248-.138.1-.13.29.105.422a.714.714 0 0 0 .57.05c.097-.033.227-.19.292-.091.065.099-.203.132-.317.273-.114.14-.073.372.154.512.228.14.601.042.666-.016.065-.058.147-.083.195-.033.049.05-.024.182-.073.297-.048.116-.138.455.203.588.342.132.65-.166.707-.224.057-.058.114-.066.163-.041s.024.074-.016.132a.354.354 0 0 0 .113.48.59.59 0 0 0 .447.093c.05-.194.117-.401.184-.69h-.051c-.033 0-.039.049-.039.069 0 .02.01.036-.02.036-.029 0-.032.016-.075.046-.042.03-.08.066-.104.05-.022-.017.088-.076.118-.113.029-.036.087-.092.09-.132.004-.04.023-.063.082-.112a.224.224 0 0 0 .044-.052c.039-.193.077-.419.112-.692.024-.186.037-.36.043-.524l-.107-.005zM1.543 8.057c.363.747.876 1.167.876 1.167s-.068-.185-.098-.313-.006-.272-.006-.272-.129-.168-.367-.54c-.237-.373-.363-.923-.363-.923s.221.55.393.843c.172.291.37.53.37.53s.07-.259.119-.272c.05-.013.086.027.129.084.043.057.079.052.079.052s-.059-.124-.149-.271c-.04-.068-.1-.14-.143-.208-.135-.217-.427-.63-.577-1.043-.15-.414-.477-1.45-.534-1.754-.057-.305-.114-.138-.17.087a2.689 2.689 0 0 0-.086 1.022c.05.478.164 1.065.527 1.811zM2.012 10.073c.136.101.335.239.335.239s-.032-.075-.052-.165c-.02-.09-.028-.275-.028-.275l-.27-.24a3.974 3.974 0 0 1-.526-.573c-.276-.348-.054-.14.17.11.225.249.654.61.654.61l.003-.08a.302.302 0 0 1 .066-.183c.04-.052.019-.06-.224-.248-.241-.188-.868-.906-1.124-1.333C.759 7.507.482 6.927.482 6.927s-.136.855.377 1.798c.513.942 1.018 1.246 1.153 1.348zM4.702 15.467c.28-.11.204-.392.204-.396 0-.005-.172.055-.33.115-.16.06-.549.175-.703.18-.154.004-.154-.019-.158-.042-.005-.023.117 0 .34-.041.221-.042.61-.25.679-.295.068-.046.059-.056-.041-.065a.423.423 0 0 1-.222-.087c-.036-.033-.14.014-.394.074s-.78.152-1.182.152c-.404 0-.78-.07-.843-.083-.064-.014-.131.023.063.355.195.332.88.512 1.355.507.476-.005.951-.263 1.232-.373zM3.438 14.782c.49.004.674-.144.674-.144s0-.026-.067-.127c-.067-.102-.054-.275-.054-.275s-.116.02-.32.05c-.204.03-.441.06-.703.013-.262-.046-.15-.076.058-.05.208.025.607-.052.736-.098.13-.047.075-.089-.012-.119-.087-.029-.324-.182-.324-.182s-.595.077-1.148.013c-.553-.064-.903-.207-1.015-.224-.112-.017-.108.03-.108.03s-.03.05.162.355c.191.305.566.504.882.597.316.093.748.157 1.239.16zM3.312 13.613s-.02-.03-.05-.131c-.03-.102.054-.178.054-.178s-.112-.034-.478-.08c-.366-.047-.387-.077-.612-.128-.224-.05-.374-.118-.37-.143.004-.026.075.012.208.063.133.05.695.11.932.144.237.034.37.06.411.034.042-.026.188-.064.188-.064s-.1-.03-.225-.05a.786.786 0 0 1-.304-.123c-.066-.047-.087-.06-.386-.093-.3-.034-.54-.132-1.077-.33-.537-.2-.94-.437-1.048-.525-.109-.09-.1-.026-.071.088.03.115.025.259.295.58.27.322.404.462 1.085.716.683.254 1.448.22 1.448.22zM1.295 11.924c.603.432 1.31.59 1.46.61.034-.04-.037-.184-.004-.271.039-.105.104-.106.25-.115.145-.008.05-.038.016-.038-.033 0-.042-.004-.283-.068-.241-.063-.486-.101-.819-.228-.333-.127-.432-.22-.424-.246.008-.025.154.08.462.2.307.118.665.164.86.207.196.042.025-.043-.066-.098-.092-.055-.22-.258-.22-.258s-.217-.038-.57-.148a4.559 4.559 0 0 1-.944-.402c-.102-.059-.2-.134-.306-.211L.223 10.5c-.121-.088-.084-.017-.071.038.012.056.095.31.287.589.191.28.253.364.856.796zM1.196 10.71c.595.478 1.106.626 1.194.664.087.038.079-.013.062-.063-.017-.051-.03-.216-.03-.216l-.448-.263c-.237-.14-.5-.33-.674-.453-.174-.122-.07-.114-.017-.068.055.047.296.19.537.343.241.153.607.373.607.373s.008-.08.058-.131c.05-.051.175-.038.175-.038s-.063-.064-.1-.123c-.037-.06-.233-.123-.453-.229-.22-.106-.616-.402-.907-.652-.291-.25-.857-.876-.894-.927-.037-.05-.062-.042-.067.021-.004.064-.024.106.038.394.063.288.325.889.92 1.367zM3.3 6.186c.068.142.142.25.195.342.08.14.126.23.126.23s.016-.048.003-.133a1.072 1.072 0 0 1-.003-.34c.012-.074.028-.148.024-.214-.005-.075-.03-.14-.04-.183-.019-.081-.105-.434-.146-.683a5.666 5.666 0 0 1-.083-.918c.003-.314.048-.156.048-.004 0 .153.016.386.063.745.048.359.197.905.197.905s.01-.084.054-.204c.045-.12.118-.255.175-.404.057-.149.037-.174.037-.174s-.208-1.015-.263-1.495a62.467 62.467 0 0 1-.143-1.742c-.306.312-.533 1.134-.573 1.912-.03.586.063 1.128.09 1.348.053.435.128.775.24 1.012zM2.623 7.788c.01-.23.062-.404.208-.455 0 0-.13-.23-.242-.558a4.449 4.449 0 0 1-.173-.734c-.08-.544-.144-1.105.016-.187.159.918.35 1.244.35 1.244l.232.381a1.684 1.684 0 0 1-.03-.468c.008-.184.031-.432.086-.628 0 0-.28-.57-.455-1.252-.175-.683-.276-1.304-.28-1.674-.015-.357-.023-.496-.023-.496s-.287.22-.383 1.333c-.096 1.113.191 2.178.335 2.584.144.406.36.91.36.91zM5.757 16.278s-.045-.032-.181-.12c-.136-.087-.095-.35-.095-.35s-.036.027-.136.097c-.1.069-.213.147-.349.203-.136.055-.204.092-.29.12-.086.027-.063-.01.01-.051.072-.042.094-.065.276-.139.18-.073.543-.396.543-.396s-.086-.01-.235-.014a1.194 1.194 0 0 1-.34-.083s-.15.138-.752.401c-.603.263-1.115.332-1.115.332s.064.314.354.42c.24.106.57.17 1.218.014.648-.157 1.092-.434 1.092-.434zM6.55 16.906c.05-.258-.095-.438-.095-.438s-.031.018-.122.101c-.09.084-.222.24-.476.37-.253.128-.344.12-.1-.015.245-.133.603-.511.603-.511l-.095-.037c-.095-.037-.258.027-.938.442-.68.415-1.078.43-1.078.43s.303.373 1.128.345c.825-.027 1.124-.429 1.173-.687zM8.109 16.606s-.09.129-.213.212c-.122.083-.449.134-.449.134s-.013.037-.077.12c-.063.083-.203.281-.348.387-.145.106-.372.175-.385.148-.014-.028.13-.083.271-.171.14-.087.268-.25.363-.36.095-.11-.04-.092-.04-.092s-.173.005-.332-.01c-.158-.013-.127 0-.172.08-.045.078-.109.147-.226.285-.144.169-.28.322-.417.489-.09.11-.023.143-.023.143s.041.07.408.11a1.14 1.14 0 0 0 .73-.154c.16-.094.325-.244.493-.431.44-.489.417-.89.417-.89zM8.304 17.615c-.09.12-.14.17-.14.17s.063-.197.117-.29c.03-.049.06-.096.084-.128a2.512 2.512 0 0 1-.147-.448c-.04.132-.166.522-.322.775-.19.309-.358.42-.249.502.109.083.322.102.562-.018.232-.116.299-.318.332-.481a2.384 2.384 0 0 1-.115-.2.476.476 0 0 0-.122.118zM7.895 4.987c.154-.004.237-.078.407-.061.2.02.472.138.801.316.258.119.599.178.926.082a1.31 1.31 0 0 0 .27-.128c.402-.23.305-.686.305-.686a1.555 1.555 0 0 1-1.003.31s.026.02.084.08c.059.059.165.128.13.158s-.181-.113-.304-.205a1.816 1.816 0 0 0-.614-.31c-.31-.092-.66-.098-.893.033-.232.132-.252.297-.22.363.018.037.061.049.111.048zM12.252 8.309c-.07-.02-.194-.04-.355-.191-.162-.152-.55-.587-.595-.666-.046-.08-.026-.152.084-.198.11-.046.187-.191.187-.191s-.239-.093-.4-.212c-.162-.118-.537-.461-.589-.547-.052-.085-.026-.099.052-.125.078-.026.097-.08.097-.08s-.175-.111-.336-.243c-.162-.132-.382-.35-.382-.35-.242.1-.622.058-.827.02-.363-.065-.628-.217-.628-.217s-.013.06-.058.171c-.045.112-.213.178-.381.066-.169-.112-.13-.356-.13-.356s-.136-.085-.414-.19c-.278-.106-.504-.12-.73-.014-.227.105-.337.422-.337.66 0 .236.123.138.15.104.025-.032.077-.204.361-.25.285-.046.544.092.867.362.323.271.394.29.556.462.161.171.032.264-.246.356-.278.092-.633-.092-.647-.085-.053.027.12.278.36.373.24.095.547.033.785-.064.162-.066.192.002.24.053.262.28.33.544.374.864a.386.386 0 0 0 .246-.29c.009-.054.026-.172.116-.086.091.086.162.56.162.778 0 .218-.065.508-.065.508l.065-.007c.039-.007.116-.053.22-.112.103-.06.11.007.11.125 0 .119.039.343.194.745.155.403.381.534.381.534s.046-.079.091-.237a3.22 3.22 0 0 0 .078-.738c0-.27-.071-.851-.071-.851s.323.402.66.501c.335.1.672.04.814-.125.142-.165.012-.237-.059-.257z"/>
            <path fill="#D4AF3A" d="M10.04 9.35s-.102.23-.157.31c-.056.083-.08.095-.08.095s.101.088.25.136c.149.047.282.075.282.075s-.168-.233-.226-.396c-.06-.164-.068-.22-.068-.22zM12.06 9.214c-.05-.129-.08-.201-.08-.201-.207.042-.598-.057-.768-.16 0 0 .155.32.31.43.154.11.176.117.176.117s-.155.025-.362-.182c-.208-.208-.3-.447-.3-.447s.046.553-.038.893c-.083.34-.102.384-.102.384s.44.079.929-.06c.489-.138.526-.182.526-.182s.058-.016-.019-.12a2.696 2.696 0 0 1-.272-.472z"/>
            <path fill="#B96B29" d="M11.172 7.998c-.15-.176-.166-.218-.166-.218s-.052.054-.007.13c.045.077.26.268.406.352.147.084.293.11.293.11l-.007-.03s-.369-.168-.52-.344zM9.652 6.141c-.056-.057-.182-.099-.06.038.12.137.279.308.325.45.047.141.074.316-.005.279-.079-.038-.135-.038-.218-.11-.084-.07-.242-.189-.307-.207-.066-.02-.182 0-.089.104s.196.203.372.336c.177.132.28.189.373.255.093.066.186.123.186.123s-.084-.568-.238-.818a2.513 2.513 0 0 0-.34-.45z"/>
            <ellipse cx="11.565" cy="3.697" fill="#B96B29" rx="1" ry="1"/>
            <path fill="#D4AF3A" d="M9.811 2.28c-.052-.254-.044-.532.194-.885.238-.354.652-.497.652-.497s.013-.027.145-.17c.132-.143.4-.322.4-.322s-.311.078-.488.136v.01a.218.218 0 0 1-.214.22.208.208 0 0 1-.121-.039c-.096.02-.416.214-.498.283.02.034.032.074.032.117a.218.218 0 0 1-.214.221.204.204 0 0 1-.098-.024 2.259 2.259 0 0 0-.18.403c.054.038.091.11.091.192 0 .122-.08.22-.181.221a.764.764 0 0 0-.004.144c.009.071.035.116.159.152.123.036.29.255.29.255.012 0 .1-.161.035-.416z"/>
            <path fill="#D4AF3A" d="M11.955.146a1.517 1.517 0 0 0-.359.148h.004c.123 0 .218.08.218.183 0 .104-.112.216-.235.216-.122 0-.206-.108-.206-.212 0-.024.005-.048.016-.07-.053.034-.109.07-.169.111-.392.269-.484.398-.677.765-.194.367-.265.77-.181 1.007.084.237.392.286.396.286.005 0-.035-.035-.04-.08-.004-.045.01-.067.023-.157.013-.089.004-.196.004-.196s.07-.01.11.04c.04.049.097.107.136.156.04.05.146.144.146.144s.061-.09.061-.197c0-.108-.07-.224-.083-.412-.014-.188.083-.524.264-.77.18-.246.52-.47.62-.519a.2.2 0 0 0 .124-.17c.004-.045.013-.076.022-.188s-.093-.107-.194-.085z"/>
            <ellipse cx="10.763" cy="1.76" fill="#B96B29" rx="1" ry="1"/>
        </g>
        <g>
            <path fill="#D4AF3A" d="M29.174 30.571s-.388.189-.51.222c-.123.034-.152.034-.152.034s-.265.246-.458.361c-.204.122-.438.21-.672.237-.303.034-1.135.024-1.508.01-.374-.015-.606.077-.766.26-.161.183-.199.448.004.65.204.203.43.102.506-.023.076-.126.038-.285.005-.357-.033-.072.066-.097.17-.101.104-.005.28.01.44.033.16.024.445.12.568.188.123.068.052.078-.034.063a1.88 1.88 0 0 1-.33-.106 1.294 1.294 0 0 0-.374-.092c-.095-.004-.062.049-.043.082.02.034.071.116.085.155.015.038-.028.183-.028.183l.047.091s.057-.091.076-.14c.019-.048-.005-.14.014-.183.02-.043.1-.043.16.03.062.072.133.159.166.341.033.184-.028.314-.028.314s.076.063.09.106c.014.044-.02.217-.02.217s.053.034.1-.068c.048-.1.104-.279.118-.342.015-.062.057-.178.133-.091a.729.729 0 0 1 .142.246.42.42 0 0 1 .014.096s.17-.169.227-.265a1.6 1.6 0 0 1 .336-.376c.16-.135.44-.405.576-.497.137-.091.488-.284.596-.352.109-.067.128-.072.147-.26.019-.188.109-.357.151-.487.041-.131.051-.178.051-.178h.001zM22.973 23.506c-.003-.032-.066-.145-.082-.202-.016-.058-.072-.023-.072-.023s-.123.07-.215.096c-.091.026-.104-.009-.113-.057-.01-.049-.032-.2-.047-.306-.016-.105-.038-.099-.076-.083s-.151.058-.23.093c-.079.035-.054.074-.029.119.026.045.117.234.158.302.04.067.003.097-.044.12-.048.022-.117.031-.211.063-.095.032-.089.055-.08.087.01.032.073.164.108.225.034.06.066.02.066.02s.101-.094.186-.136c.085-.041.091-.029.113.036.022.064.12.402.14.466.018.064.05.057.094.038.044-.019.104-.029.154-.045.05-.016.07-.119.07-.119s-.186-.34-.237-.427c-.05-.087 0-.106.038-.112.038-.007.148-.023.243-.045.093-.025.068-.08.065-.113l.001.003zM25.075 32.76c-.015-.081 0-.164-.062-.226a.78.78 0 0 1-.165-.29c-.029-.1.023-.149.014-.207-.01-.058-.085-.058-.16.005-.077.063-.176.12-.176.304 0 .183.066.4.317.477.25.078.246.02.232-.062z"/>
            <path fill="#D4AF3A" d="M25.636 33.541c.047-.072.09-.092.203-.144.114-.053.322-.082.393-.087.07-.005.231-.145.208-.29-.024-.144-.128-.202-.218-.221-.09-.02-.17-.02-.198.024a.334.334 0 0 1-.18.135c-.1.033-.114.067-.175.086-.062.02-.014.058-.066.102-.052.043-.123 0-.204-.024-.08-.025-.085-.039-.175-.044l-.326-.02s-.01-.004-.061-.004c-.052 0-.057.01-.08.068-.024.057.004.202.061.274.057.073.241.106.364.145.123.038.185.053.289.072.107.019.121-.001.168-.073l-.003.001zM26.786 33.656c.099-.067.042-.183.019-.255-.024-.073-.161-.087-.232-.087-.071 0-.109 0-.147.034-.038.033-.09.081-.194.115-.103.034-.184.073-.326.13-.142.058-.184.155-.246.194-.061.038-.18 0-.18 0s-.085-.025-.113 0c-.028.023 0 .072.057.134.057.063.165.058.288.097.123.038.147.01.194-.024.047-.034.085-.106.17-.16.086-.052.27-.062.36-.072a.86.86 0 0 0 .352-.106h-.002zM24.328 28.786l.09-.568c-.068-.568-.358-1.106-.59-1.477-.23-.371-.469-.954-.573-1.265a3.637 3.637 0 0 1-.174-.958c0-.223.093-.338.093-.338s.04-.06.003-.098c-.037-.038-.096-.003-.156.057a.723.723 0 0 0-.146.251c-.025.08-.025.108-.025.108s-.119-.028-.31-.012c-.19.015-.28.032-.286.073-.007.041.025.073.162.134.137.06.225.085.293.168.069.083.244.498.298.699.054.2.168.744.215 1.171.046.427.188.944.386 1.376.065.143.42.815.72.68v-.001zM24.674 29.786c-.129.074-.124.611-.067.89.058.279.326.626.408.719.081.092.1.092.144.068.043-.024.062-.024.062-.024s.115-.04.201-.108c.086-.068.053-.24.039-.391-.015-.152-.13-.455-.34-.806-.21-.353-.316-.422-.445-.348h-.002zM24.817 29.35a.315.315 0 0 0-.321-.307.294.294 0 0 0-.198.061c-.174.16-.07.56.183.56.091 0 .198-.016.264-.08.06-.056.072-.15.072-.233zM27.317 34.402c-.068-.012-.109-.04-.21-.11-.102-.07-.264-.215-.293-.285-.028-.07-.028-.075-.126-.042-.097.033-.235.03-.34.033-.106.004.012.124.085.236.073.11.048.486.048.486s0 .033-.016.087c-.016.054-.004.09.024.103.029.012.045-.012.118-.1.073-.086.207-.312.207-.312l.134.033a.873.873 0 0 0 .39-.017c.096-.029.05-.1-.019-.112h-.002z"/>
            <path fill="#1D5E91" d="M45.335 31.066c-.118-.029-.169-.075-.169-.075s-.05-.005-.09.07c-.04.074-.192.171-.192.171s-.214.057-.242.207c-.028.149.073.2.174.183.102-.017.35-.069.457-.2.107-.133.124-.207.147-.259.02-.05.032-.067-.087-.096l.002-.001zM45.668 29.878c-.077-.331-.288-.74-.694-.946 0 0-.152.545-.197.717-.046.172-.046.166.084.2.13.035.547.127.632.15.084.023.226.096.175-.122v.001zM43.733 29.57c.096.017.085-.024.118-.155l.203-.786s-.428-.017-.8.166c-.373.184-.536.522-.536.522s.096.04.35.098c.254.056.57.136.666.153v.001zM42.74 30.47c-.152-.03-.208-.047-.208-.047s.096.373.254.58c.157.206.332.31.66.315.327.006.575-.178.614-.321.04-.144.107-.252.107-.252s-.592-.081-.834-.138c-.246-.058-.443-.11-.596-.138h.003z"/>
            <path fill="#D4AF3A" d="M42.639 30.233c.146.035 1.353.27 1.455.293.101.023.186.046.214.017.029-.029.045-.046.152-.086.108-.04.102-.15.102-.15s.028-.103.04-.206c.01-.103.067-.137.185-.011.119.126.141.31.164.487.023.178.3.224.406.241.107.017.158-.017.22-.12s.096-.31.113-.442c.017-.131.006-.12-.13-.154-.135-.035-.761-.178-.874-.207-.113-.029-.09-.103-.073-.183.016-.08.265-.89.265-.89-.177-.11-.425-.176-.722-.211 0 0-.18.825-.215.952-.033.126-.113.126-.242.103-.13-.023-1.066-.247-1.066-.247l-.073.178c-.074.178-.108.39-.108.499 0 .108.039.106.184.14l.003-.003z"/>
            <path fill="#D4AF3A" d="M45.842 30.98c-.125-.083-.216-.105-.281.049-.065.154-.07.38-.232.539-.162.16-.39.324-.616.308-.227-.017-.356-.072-.303-.336.055-.263.4-.346.481-.483a.309.309 0 0 0-.06-.402c-.118-.104-.291-.126-.34-.093a.758.758 0 0 0-.259.352c-.07.198-.113.357-.264.483-.151.127-.54.253-.842.182-.303-.072-.41-.165-.524-.467-.114-.303-.249-.803-.308-.858-.06-.055-.135-.099-.265-.006-.13.094-.14.231-.156.341-.016.11 0 .237.13.396.129.16.264.319.313.484.048.165.194.418-.011.429-.205.01-.297.016-.454-.138-.156-.154-.767-.577-.934-.715-.167-.137-.237-.18-.237-.18-.283-.006-.566-.124-.848-.32 0 0 .162.423.194.583.033.16.027.247.027.247s.616.319.859.44c.243.12.734.407.971.555.238.149.438.38.86.292.42-.088 1.273-.352 1.549-.435.275-.082 1.037-.275 1.317-.472.281-.198.308-.187.356-.385.049-.194 0-.303-.124-.387v-.003zM44.217 28.02c.047-.007.065-.013.209-.032.144-.02.09.12.065.175-.025.054-.068.162-.127.263-.06.102.018.118.059.134.04.016.1.022.215.054.116.032.094-.054.097-.098.003-.045.01-.277.022-.36.012-.082.087-.06.115-.044.028.016.1.057.16.089.059.032.087-.003.1-.038.012-.035.04-.099.065-.191s-.031-.073-.088-.073c-.056 0-.137 0-.23-.003-.094-.003-.035-.096-.035-.096l.122-.2c.053-.086.034-.098-.019-.115-.053-.016-.218-.054-.265-.066-.047-.013-.069-.007-.069.025s-.006.197-.006.26c0 .064-.006.103-.088.106-.08.003-.13-.045-.196-.118s-.094-.044-.1-.016c-.006.029-.06.239-.072.296-.016.056.016.053.062.046l.004.002z"/>
        </g>
        <g>
            <g transform="matrix(-1 0 0 1 47.081 9.919)">
                <path fill="#D4AF3A" d="M9.797 24.496c.12-.076.222-.161.492-.343.27-.183.369-.385.369-.385h-.095c-.052 0-.095-.073-.1-.145-.003-.073 0-.223.02-.397a.808.808 0 0 0-.027-.315s-.115.109-.29.202c-.174.093-.246.049-.246.049l-.043-.178s-.076.162-.183.352c-.107.19-.397.4-.603.558-.206.157-.432.323-.603.384-.17.06-.071.142-.071.142s.17.173.61.254c.441.081.651-.1.77-.178z"/>
                <path fill="#D4AF3A" d="M11.337 24.323c-.157-.017-.25-.078-.281-.251-.02-.113.008-.546.008-.546s-.052.044-.111.117c-.06.073-.195.089-.195.089s-.02.06-.08.158a.884.884 0 0 1-.285.311c-.15.097-.325.21-.44.308-.115.097-.25.21-.4.295a.668.668 0 0 0-.338.449c-.052.226-.012.299.163.287.174-.012.194.004.476-.07.281-.072.682-.391.975-.581.294-.19.508-.566.508-.566z"/>
                <path fill="#D4AF3A" d="M12.118 24.584s-.12-.153-.163-.327l-.127-.518s-.04.11-.134.315c-.096.207-.258.255-.258.255s-.008.089-.143.263a1.992 1.992 0 0 1-.536.457c-.202.121-.464.287-.607.493-.142.207-.154.42-.087.514.068.093.163-.012.298-.081.135-.069.52-.13 1.05-.42.532-.292.707-.95.707-.95z"/>
                <path fill="#D4AF3A" d="M12.348 25.794c.147-.222.171-.764.171-.764s-.051-.036-.123-.097a1.942 1.942 0 0 1-.21-.275s-.087.186-.182.36c-.096.174-.143.235-.342.42-.198.187-.468.369-.583.567-.115.198-.051.594.024.728.075.133.182.089.293-.02.112-.11.147-.138.342-.308.194-.17.464-.388.61-.61z"/>
                <path fill="#B96B29" d="M10.107 23.723l-.08-.049s-.047.065-.114.138c-.068.073-.143.101-.195.17a.753.753 0 0 1-.254.218c-.123.065-.17.085-.146.106.023.02.107-.029.107-.029s.035-.004.182-.093.183-.137.278-.222c.095-.085.222-.239.222-.239zM10.75 24.496c.056-.06.115-.1.084-.133-.032-.032-.072-.028-.123.016-.052.045-.199.186-.266.247-.067.06-.123.097-.19.15-.068.052-.215.133-.286.173-.071.04-.004.045-.004.045s.056-.029.115-.049c.06-.02.23-.097.23-.097s.068-.032.159-.097.226-.194.281-.255zM11.491 25.018c.048-.097-.003-.069-.083-.036-.08.032-.258.23-.36.303-.104.073-.191.101-.278.146-.088.044-.088.069-.083.089.003.02.039.02.075.004s.158-.09.158-.09.052-.015.1-.02c.047-.003.115-.056.222-.15.107-.092.202-.148.25-.246zM11.837 25.71c-.131.08-.357.262-.417.384-.06.121-.1.206-.08.226.02.02.084-.02.112-.069.027-.048.087-.12.087-.12s.226-.227.31-.28a.794.794 0 0 0 .25-.29c.031-.09.007-.138.007-.138s-.139.206-.27.287z"/>
                <path fill="#C52126" d="M8.342 6.365a2.08 2.08 0 0 0-.786-.241 2.39 2.39 0 0 0-.893.101.972.972 0 0 1-.533.02c-.245-.066-.436-.292-.5-.568 0 0-.227.295.005.616a.68.68 0 0 0 .403.28c.481.099.953-.2 1.353-.225.384-.026.686.222.686.222s.091.077.22.001c.128-.076.165-.134.045-.206z"/>
                <path fill="#D4AF3A" d="M8.568 20.408v-.058l-.076-.167s-.089.057-.175.148c-.112.118-.232.283-.286.353-.095.124-.228.241-.114.043s.152-.284.244-.416c.091-.132.16-.19.148-.198-.011-.008-.084-.02-.323-.05-.24-.032-.389-.125-.5-.19-.11-.067-.308-.175-.308-.175s-.408.174-.56.213c-.152.039-.244.062-.095.136.148.074.274.097.346.144.073.046.297.12.435.12.137 0 .369.004.278.1-.092.098-.195.285-.294.568a1.97 1.97 0 0 0-.102.66c0 .125.015.249.015.249s.167-.19.617-.478c.45-.287.617-.384.7-.423.084-.039.127-.039.111-.148-.015-.108-.06-.376-.06-.43z"/>
                <path fill="#D4AF3A" d="M10.285 19.02a6.408 6.408 0 0 1-.083-.039.098.098 0 0 0-.02.008c-.054.026-.328.214-.439.396-.11.183-.221.199-.1 0 .122-.198.211-.31.306-.396.037-.034.07-.061.096-.082-.22-.108-.46-.24-.692-.403-.03.06-.088.168-.153.238-.095.102-.306.188-.306.188s.169-.177.227-.311c.037-.086.061-.178.074-.233a3.005 3.005 0 0 1-.454-.44c-.028.115-.12.398-.39.705-.353.402-1.06.606-1.06.606s-.248.027-.047.08c.2.054.343.145.733.075.39-.07.416-.086.47-.101.052-.017.194-.006 0 .07-.196.074-.65.144-.824.128-.174-.016-.41-.054-.163.08.248.135.353.188.506.188.153 0 .216.048.364.048s.19-.027.296-.048c.105-.021.173.016.173.059s-.142.16-.137.456c.006.294.027.487.053.573.027.086.09.225.132.306.042.08.058.16.1-.011.042-.172.137-.418.174-.584.037-.166.058-.172.074-.258.016-.085.106-.15.063.006-.042.155-.09.354-.12.493-.033.14-.106.397.02.193.127-.204.601-.745.68-.842.08-.096.143-.187.2-.268.059-.08.222-.187.301-.305.072-.107.281-.315.371-.389-.134-.058-.275-.118-.425-.186zM3.73 6.646c.012.295.333.86.516 1.162.183.302.234.424.202.443-.031.02-.107-.135-.208-.27-.1-.134-.296-.449-.46-.687-.164-.237-.404-.802-.436-.854-.031-.051-.044-.083-.126-.02-.082.065-.24.688-.05 1.112.19.424.473.732.593.88.12.147.277.379.252.398-.025.02-.07-.039-.214-.193a13.617 13.617 0 0 1-.543-.61c-.128-.156-.302-.474-.363-.587-.023-.043-.052-.032-.074-.01-.052.054-.135.177-.1.514.051.469.291.738.505.976.215.237.43.436.398.469-.032.032-.252-.167-.404-.315a13.606 13.606 0 0 1-.605-.617c-.082-.102-.202-.051-.196.354.006.404.448.815.63 1.04.184.225.41.36.392.404-.019.045-.202-.07-.322-.154-.12-.083-.567-.379-.656-.443-.088-.064-.132.058-.019.443.114.385.442.694.637.835.196.141.511.314.492.36-.018.045-.15-.013-.334-.103a3.677 3.677 0 0 0-.561-.218c-.158-.045-.158.07-.158.07s-.032.328.202.59c.233.264.498.367.75.412.253.045.29.058.284.096-.006.039-.031.045-.088.045-.057 0-.29.026-.505.026-.214 0-.328.051-.328.148 0 .096-.006.224.316.443.321.218.681.25.832.282.152.032.158.045.127.09-.032.045-.101.039-.341.064-.24.026-.385.122-.416.187-.032.064.019.257.214.391.196.135.448.18.827.155.378-.026.473-.033.485.032.013.064-.113.083-.302.115-.19.032-.335.032-.442.122-.107.09-.025.276.158.411.182.135.637.135.826.122.19-.012.48-.083.498-.032.02.051-.138.129-.334.2-.196.07-.252.115-.29.199-.038.083-.006.16.227.25s.574.09.75.006c.177-.083.272-.115.304-.083.03.032 0 .064-.038.11a.867.867 0 0 1-.385.217c-.196.052-.215.052-.284.212-.07.16.107.29.46.303.354.012.827-.129.978-.22.152-.09.208-.108.234-.076.025.032.019.051-.057.109s-.316.231-.435.263c-.12.032-.133.122-.133.206 0 .083-.031.25.284.327.315.078.687.02 1.028-.224a.783.783 0 0 0 .21-.2 2.725 2.725 0 0 1 .025-.761 1.23 1.23 0 0 1-.323-.08c-.19-.077-.265-.257-.31-.353-.044-.096-.107-.096-.182-.07-.076.025-.152.057-.259.05a.739.739 0 0 1-.498-.263c-.164-.199-.133-.391-.14-.488-.006-.096-.157-.025-.233-.025a.972.972 0 0 1-.498-.174c-.202-.141-.202-.334-.22-.41-.02-.078-.102-.13-.165-.155-.063-.026-.164-.051-.303-.167-.138-.115-.189-.34-.195-.417-.006-.077-.088-.084-.372-.231-.284-.148-.259-.456-.246-.578.012-.122.145-.225.145-.27 0-.045-.095-.058-.19-.116-.094-.057-.334-.154-.34-.513-.006-.36.227-.399.227-.399s-.044-.019-.139-.077c-.094-.058-.353-.237-.353-.45 0-.211.095-.307.164-.359.07-.051.259-.103.259-.103s-.12-.077-.17-.244c-.051-.167-.07-.372.05-.52.12-.148.321-.148.429-.148.107 0 .201.058.24.026.037-.032.043-.057.006-.14a.64.64 0 0 1-.013-.36c.032-.071.038-.212.31-.302.27-.09.554.096.643.147.088.052.05-.07.05-.16s-.183-.315-.391-.636a7.04 7.04 0 0 1-.536-.976 6.368 6.368 0 0 1-.417-1.278c-.031-.16-.094-.084-.094-.084s-.063.026-.208.398c-.145.373-.17.713-.158 1.009z"/>
                <path fill="#D4AF3A" d="M8.488 13.213c-.163-.008-.374-.099-.536-.338-.163-.24-.407-.298-.83-.29-.422.008-.617-.199-.722-.496-.106-.298.016-.638.446-.853.431-.215.626-.455.642-.827.017-.372-.43-.835-.877-1.356-.447-.521-.797-1.258-.797-1.258s-.13.174-.13.348c0 .173.065.355 0 .405-.065.05-.089-.075-.349-.19-.26-.116-.471-.133-.634.058-.162.19 0 .52.147.678.146.157.268.273.227.331-.04.058-.26-.091-.333-.14-.073-.05-.244-.24-.496-.216-.252.025-.341.1-.365.315-.025.215.227.405.39.488.162.082.227.157.186.19-.04.033-.08 0-.154-.025a.745.745 0 0 0-.406 0c-.13.05-.342.231-.146.455.195.223.6.306.682.322.081.017.122-.008.13.058.008.067-.17.067-.39.075-.22.008-.284.223-.252.389.033.165.398.347.601.38.204.033.277 0 .293.058.016.058-.024.083-.138.116-.114.033-.333.058-.374.24-.04.182-.049.264.122.422.17.157.447.132.528.116.081-.017.179-.108.26-.025.081.082-.073.149-.211.248-.138.1-.13.29.105.422a.714.714 0 0 0 .57.05c.097-.033.227-.19.292-.091.065.099-.203.132-.317.273-.114.14-.073.372.154.512.228.14.601.042.666-.016.065-.058.147-.083.195-.033.049.05-.024.182-.073.297-.048.116-.138.455.203.588.342.132.65-.166.707-.224.057-.058.114-.066.163-.041s.024.074-.016.132a.354.354 0 0 0 .113.48.59.59 0 0 0 .447.093c.05-.194.117-.401.184-.69h-.051c-.033 0-.039.049-.039.069 0 .02.01.036-.02.036-.029 0-.032.016-.075.046-.042.03-.08.066-.104.05-.022-.017.088-.076.118-.113.029-.036.087-.092.09-.132.004-.04.023-.063.082-.112a.224.224 0 0 0 .044-.052c.039-.193.077-.419.112-.692.024-.186.037-.36.043-.524l-.107-.005zM1.543 8.057c.363.747.876 1.167.876 1.167s-.068-.185-.098-.313-.006-.272-.006-.272-.129-.168-.367-.54c-.237-.373-.363-.923-.363-.923s.221.55.393.843c.172.291.37.53.37.53s.07-.259.119-.272c.05-.013.086.027.129.084.043.057.079.052.079.052s-.059-.124-.149-.271c-.04-.068-.1-.14-.143-.208-.135-.217-.427-.63-.577-1.043-.15-.414-.477-1.45-.534-1.754-.057-.305-.114-.138-.17.087a2.689 2.689 0 0 0-.086 1.022c.05.478.164 1.065.527 1.811zM2.012 10.073c.136.101.335.239.335.239s-.032-.075-.052-.165c-.02-.09-.028-.275-.028-.275l-.27-.24a3.974 3.974 0 0 1-.526-.573c-.276-.348-.054-.14.17.11.225.249.654.61.654.61l.003-.08a.302.302 0 0 1 .066-.183c.04-.052.019-.06-.224-.248-.241-.188-.868-.906-1.124-1.333C.759 7.507.482 6.927.482 6.927s-.136.855.377 1.798c.513.942 1.018 1.246 1.153 1.348zM4.702 15.467c.28-.11.204-.392.204-.396 0-.005-.172.055-.33.115-.16.06-.549.175-.703.18-.154.004-.154-.019-.158-.042-.005-.023.117 0 .34-.041.221-.042.61-.25.679-.295.068-.046.059-.056-.041-.065a.423.423 0 0 1-.222-.087c-.036-.033-.14.014-.394.074s-.78.152-1.182.152c-.404 0-.78-.07-.843-.083-.064-.014-.131.023.063.355.195.332.88.512 1.355.507.476-.005.951-.263 1.232-.373zM3.438 14.782c.49.004.674-.144.674-.144s0-.026-.067-.127c-.067-.102-.054-.275-.054-.275s-.116.02-.32.05c-.204.03-.441.06-.703.013-.262-.046-.15-.076.058-.05.208.025.607-.052.736-.098.13-.047.075-.089-.012-.119-.087-.029-.324-.182-.324-.182s-.595.077-1.148.013c-.553-.064-.903-.207-1.015-.224-.112-.017-.108.03-.108.03s-.03.05.162.355c.191.305.566.504.882.597.316.093.748.157 1.239.16zM3.312 13.613s-.02-.03-.05-.131c-.03-.102.054-.178.054-.178s-.112-.034-.478-.08c-.366-.047-.387-.077-.612-.128-.224-.05-.374-.118-.37-.143.004-.026.075.012.208.063.133.05.695.11.932.144.237.034.37.06.411.034.042-.026.188-.064.188-.064s-.1-.03-.225-.05a.786.786 0 0 1-.304-.123c-.066-.047-.087-.06-.386-.093-.3-.034-.54-.132-1.077-.33-.537-.2-.94-.437-1.048-.525-.109-.09-.1-.026-.071.088.03.115.025.259.295.58.27.322.404.462 1.085.716.683.254 1.448.22 1.448.22zM1.295 11.924c.603.432 1.31.59 1.46.61.034-.04-.037-.184-.004-.271.039-.105.104-.106.25-.115.145-.008.05-.038.016-.038-.033 0-.042-.004-.283-.068-.241-.063-.486-.101-.819-.228-.333-.127-.432-.22-.424-.246.008-.025.154.08.462.2.307.118.665.164.86.207.196.042.025-.043-.066-.098-.092-.055-.22-.258-.22-.258s-.217-.038-.57-.148a4.559 4.559 0 0 1-.944-.402c-.102-.059-.2-.134-.306-.211L.223 10.5c-.121-.088-.084-.017-.071.038.012.056.095.31.287.589.191.28.253.364.856.796zM1.196 10.71c.595.478 1.106.626 1.194.664.087.038.079-.013.062-.063-.017-.051-.03-.216-.03-.216l-.448-.263c-.237-.14-.5-.33-.674-.453-.174-.122-.07-.114-.017-.068.055.047.296.19.537.343.241.153.607.373.607.373s.008-.08.058-.131c.05-.051.175-.038.175-.038s-.063-.064-.1-.123c-.037-.06-.233-.123-.453-.229-.22-.106-.616-.402-.907-.652-.291-.25-.857-.876-.894-.927-.037-.05-.062-.042-.067.021-.004.064-.024.106.038.394.063.288.325.889.92 1.367zM3.3 6.186c.068.142.142.25.195.342.08.14.126.23.126.23s.016-.048.003-.133a1.072 1.072 0 0 1-.003-.34c.012-.074.028-.148.024-.214-.005-.075-.03-.14-.04-.183-.019-.081-.105-.434-.146-.683a5.666 5.666 0 0 1-.083-.918c.003-.314.048-.156.048-.004 0 .153.016.386.063.745.048.359.197.905.197.905s.01-.084.054-.204c.045-.12.118-.255.175-.404.057-.149.037-.174.037-.174s-.208-1.015-.263-1.495a62.467 62.467 0 0 1-.143-1.742c-.306.312-.533 1.134-.573 1.912-.03.586.063 1.128.09 1.348.053.435.128.775.24 1.012zM2.623 7.788c.01-.23.062-.404.208-.455 0 0-.13-.23-.242-.558a4.449 4.449 0 0 1-.173-.734c-.08-.544-.144-1.105.016-.187.159.918.35 1.244.35 1.244l.232.381a1.684 1.684 0 0 1-.03-.468c.008-.184.031-.432.086-.628 0 0-.28-.57-.455-1.252-.175-.683-.276-1.304-.28-1.674-.015-.357-.023-.496-.023-.496s-.287.22-.383 1.333c-.096 1.113.191 2.178.335 2.584.144.406.36.91.36.91zM5.757 16.278s-.045-.032-.181-.12c-.136-.087-.095-.35-.095-.35s-.036.027-.136.097c-.1.069-.213.147-.349.203-.136.055-.204.092-.29.12-.086.027-.063-.01.01-.051.072-.042.094-.065.276-.139.18-.073.543-.396.543-.396s-.086-.01-.235-.014a1.194 1.194 0 0 1-.34-.083s-.15.138-.752.401c-.603.263-1.115.332-1.115.332s.064.314.354.42c.24.106.57.17 1.218.014.648-.157 1.092-.434 1.092-.434zM6.55 16.906c.05-.258-.095-.438-.095-.438s-.031.018-.122.101c-.09.084-.222.24-.476.37-.253.128-.344.12-.1-.015.245-.133.603-.511.603-.511l-.095-.037c-.095-.037-.258.027-.938.442-.68.415-1.078.43-1.078.43s.303.373 1.128.345c.825-.027 1.124-.429 1.173-.687zM8.109 16.606s-.09.129-.213.212c-.122.083-.449.134-.449.134s-.013.037-.077.12c-.063.083-.203.281-.348.387-.145.106-.372.175-.385.148-.014-.028.13-.083.271-.171.14-.087.268-.25.363-.36.095-.11-.04-.092-.04-.092s-.173.005-.332-.01c-.158-.013-.127 0-.172.08-.045.078-.109.147-.226.285-.144.169-.28.322-.417.489-.09.11-.023.143-.023.143s.041.07.408.11a1.14 1.14 0 0 0 .73-.154c.16-.094.325-.244.493-.431.44-.489.417-.89.417-.89zM8.304 17.615c-.09.12-.14.17-.14.17s.063-.197.117-.29c.03-.049.06-.096.084-.128a2.512 2.512 0 0 1-.147-.448c-.04.132-.166.522-.322.775-.19.309-.358.42-.249.502.109.083.322.102.562-.018.232-.116.299-.318.332-.481a2.384 2.384 0 0 1-.115-.2.476.476 0 0 0-.122.118zM7.895 4.987c.154-.004.237-.078.407-.061.2.02.472.138.801.316.258.119.599.178.926.082a1.31 1.31 0 0 0 .27-.128c.402-.23.305-.686.305-.686a1.555 1.555 0 0 1-1.003.31s.026.02.084.08c.059.059.165.128.13.158s-.181-.113-.304-.205a1.816 1.816 0 0 0-.614-.31c-.31-.092-.66-.098-.893.033-.232.132-.252.297-.22.363.018.037.061.049.111.048zM12.252 8.309c-.07-.02-.194-.04-.355-.191-.162-.152-.55-.587-.595-.666-.046-.08-.026-.152.084-.198.11-.046.187-.191.187-.191s-.239-.093-.4-.212c-.162-.118-.537-.461-.589-.547-.052-.085-.026-.099.052-.125.078-.026.097-.08.097-.08s-.175-.111-.336-.243c-.162-.132-.382-.35-.382-.35-.242.1-.622.058-.827.02-.363-.065-.628-.217-.628-.217s-.013.06-.058.171c-.045.112-.213.178-.381.066-.169-.112-.13-.356-.13-.356s-.136-.085-.414-.19c-.278-.106-.504-.12-.73-.014-.227.105-.337.422-.337.66 0 .236.123.138.15.104.025-.032.077-.204.361-.25.285-.046.544.092.867.362.323.271.394.29.556.462.161.171.032.264-.246.356-.278.092-.633-.092-.647-.085-.053.027.12.278.36.373.24.095.547.033.785-.064.162-.066.192.002.24.053.262.28.33.544.374.864a.386.386 0 0 0 .246-.29c.009-.054.026-.172.116-.086.091.086.162.56.162.778 0 .218-.065.508-.065.508l.065-.007c.039-.007.116-.053.22-.112.103-.06.11.007.11.125 0 .119.039.343.194.745.155.403.381.534.381.534s.046-.079.091-.237a3.22 3.22 0 0 0 .078-.738c0-.27-.071-.851-.071-.851s.323.402.66.501c.335.1.672.04.814-.125.142-.165.012-.237-.059-.257z"/>
                <path fill="#D4AF3A" d="M10.04 9.35s-.102.23-.157.31c-.056.083-.08.095-.08.095s.101.088.25.136c.149.047.282.075.282.075s-.168-.233-.226-.396c-.06-.164-.068-.22-.068-.22zM12.06 9.214c-.05-.129-.08-.201-.08-.201-.207.042-.598-.057-.768-.16 0 0 .155.32.31.43.154.11.176.117.176.117s-.155.025-.362-.182c-.208-.208-.3-.447-.3-.447s.046.553-.038.893c-.083.34-.102.384-.102.384s.44.079.929-.06c.489-.138.526-.182.526-.182s.058-.016-.019-.12a2.696 2.696 0 0 1-.272-.472z"/>
                <path fill="#B96B29" d="M11.172 7.998c-.15-.176-.166-.218-.166-.218s-.052.054-.007.13c.045.077.26.268.406.352.147.084.293.11.293.11l-.007-.03s-.369-.168-.52-.344zM9.652 6.141c-.056-.057-.182-.099-.06.038.12.137.279.308.325.45.047.141.074.316-.005.279-.079-.038-.135-.038-.218-.11-.084-.07-.242-.189-.307-.207-.066-.02-.182 0-.089.104s.196.203.372.336c.177.132.28.189.373.255.093.066.186.123.186.123s-.084-.568-.238-.818a2.513 2.513 0 0 0-.34-.45z"/>
                <ellipse cx="11.565" cy="3.697" fill="#B96B29" rx="1" ry="1"/>
                <path fill="#D4AF3A" d="M9.811 2.28c-.052-.254-.044-.532.194-.885.238-.354.652-.497.652-.497s.013-.027.145-.17c.132-.143.4-.322.4-.322s-.311.078-.488.136v.01a.218.218 0 0 1-.214.22.208.208 0 0 1-.121-.039c-.096.02-.416.214-.498.283.02.034.032.074.032.117a.218.218 0 0 1-.214.221.204.204 0 0 1-.098-.024 2.259 2.259 0 0 0-.18.403c.054.038.091.11.091.192 0 .122-.08.22-.181.221a.764.764 0 0 0-.004.144c.009.071.035.116.159.152.123.036.29.255.29.255.012 0 .1-.161.035-.416z"/>
                <path fill="#D4AF3A" d="M11.955.146a1.517 1.517 0 0 0-.359.148h.004c.123 0 .218.08.218.183 0 .104-.112.216-.235.216-.122 0-.206-.108-.206-.212 0-.024.005-.048.016-.07-.053.034-.109.07-.169.111-.392.269-.484.398-.677.765-.194.367-.265.77-.181 1.007.084.237.392.286.396.286.005 0-.035-.035-.04-.08-.004-.045.01-.067.023-.157.013-.089.004-.196.004-.196s.07-.01.11.04c.04.049.097.107.136.156.04.05.146.144.146.144s.061-.09.061-.197c0-.108-.07-.224-.083-.412-.014-.188.083-.524.264-.77.18-.246.52-.47.62-.519a.2.2 0 0 0 .124-.17c.004-.045.013-.076.022-.188s-.093-.107-.194-.085z"/>
                <ellipse cx="10.763" cy="1.76" fill="#B96B29" rx="1" ry="1"/>
            </g>
        </g>
    </g>
</svg>
