<?xml version="1.0" encoding="UTF-8"?>
<svg width="147px" height="25px" viewBox="0 0 147 25" version="1.1" xmlns="http://www.w3.org/2000/svg" xmlns:xlink="http://www.w3.org/1999/xlink">
    <!-- Generator: Sketch 46.2 (44496) - http://www.bohemiancoding.com/sketch -->
    <title>Page 1</title>
    <desc>Created with Sketch.</desc>
    <defs></defs>
    <g id="Symbols" stroke="none" stroke-width="1" fill="none" fill-rule="evenodd">
        <g id="footer" transform="translate(-566.000000, -1070.000000)" fill="#FFFFFF">
            <g id="Page-1">
                <g transform="translate(566.000000, 1070.000000)">
                    <path d="M58.8121353,3 L60.4035344,4.59172472 L70.6386104,4.59172472 L72.2300095,3 L58.8121353,3 Z M76.4086009,10.6826804 L76.4086009,21.4085769 L70.792714,21.4085769 L70.792714,23 L78,23 L78,9.09125728 L76.4086009,10.6826804 Z M58,23 L66.9506778,23 L65.3592786,21.4085769 L59.5917007,21.4085769 L59.5917007,15.640912 L58,14.0494888 L58,23 Z" id="Fill-1"></path>
                    <path d="M78,0 L69.2011822,8.60457751 L69.2011822,15.8021413 L78,7.19726888 L78,0 Z M58,12.0464675 L69.2011822,23 L69.2011822,15.8024362 L58,4.84919862 L58,12.0464675 Z" id="Fill-2"></path>
                    <path d="M84.0833856,9.67768595 L84.1636364,10.6570248 C84.4846411,10.2603286 84.832391,9.97727357 85.2068966,9.80785124 C85.5814021,9.6384289 86.009402,9.55371901 86.4909091,9.55371901 C86.9545826,9.55371901 87.3424575,9.61776795 87.6545455,9.74586777 C87.9666334,9.87396758 88.2653417,10.1074363 88.5506792,10.446281 L87.708046,11.1528926 C87.5207932,10.9380155 87.3112516,10.7789261 87.0794148,10.6756198 C86.8475781,10.5723135 86.6068281,10.5206612 86.3571578,10.5206612 C85.8578171,10.5206612 85.4521088,10.6115693 85.1400209,10.7933884 C84.827933,10.9752075 84.5292247,11.2520643 84.2438871,11.6239669 L84.2438871,15.8760331 L83,15.8760331 L83,9.67768595 L84.0833856,9.67768595 Z M90.8110763,9.67768595 L90.8110763,15.8760331 L89.5671891,15.8760331 L89.5671891,9.67768595 L90.8110763,9.67768595 Z M90.1958203,7 C90.472241,7 90.686241,7.07644552 90.8378265,7.22933884 C90.9894121,7.38223217 91.0652038,7.56611463 91.0652038,7.78099174 C91.0652038,7.98760434 90.9894121,8.1694207 90.8378265,8.32644628 C90.686241,8.48347186 90.472241,8.56198347 90.1958203,8.56198347 C89.9193995,8.56198347 89.7053996,8.48347186 89.553814,8.32644628 C89.4022284,8.1694207 89.3264368,7.98760434 89.3264368,7.78099174 C89.3264368,7.56611463 89.4022284,7.38223217 89.553814,7.22933884 C89.7053996,7.07644552 89.9193995,7 90.1958203,7 Z M93.3657262,9.67768595 L95.692999,14.8966942 L95.7464995,14.8966942 L98.154023,9.67768595 L99.4380355,9.67768595 L96.3885057,15.8760331 L94.9439916,15.8760331 L92.014838,9.67768595 L93.3657262,9.67768595 Z M101.591432,13.0619835 C101.618182,13.4008281 101.70289,13.6962797 101.845559,13.9483471 C101.988228,14.2004145 102.175478,14.407024 102.407315,14.5681818 C102.639151,14.7293396 102.904422,14.8491732 103.203135,14.927686 C103.501848,15.0061987 103.811702,15.0454545 104.132706,15.0454545 C104.605297,15.0454545 105.022151,15.0103309 105.383281,14.9400826 C105.744411,14.8698344 106.098849,14.7438026 106.446604,14.5619835 L106.807732,15.5041322 C106.584813,15.6033063 106.373042,15.683884 106.172414,15.7458678 C105.971786,15.8078515 105.764473,15.8574378 105.55047,15.8946281 C105.336467,15.9318184 105.106863,15.9586776 104.861651,15.9752066 C104.616439,15.9917356 104.34671,16 104.052456,16 C103.446113,16 102.911113,15.9256206 102.44744,15.7768595 C101.983766,15.6280984 101.593662,15.4132245 101.277116,15.1322314 C100.96057,14.8512383 100.71982,14.5123987 100.554859,14.1157025 C100.389898,13.7190063 100.307419,13.2768619 100.307419,12.7892562 C100.307419,12.309915 100.398815,11.8698367 100.581609,11.4690083 C100.764404,11.0681798 101.020758,10.7272741 101.350679,10.446281 C101.680601,10.1652879 102.066246,9.94628178 102.507628,9.7892562 C102.94901,9.63223062 103.432739,9.55371901 103.95883,9.55371901 C104.493838,9.55371901 104.957504,9.61776795 105.349843,9.74586777 C105.742182,9.87396758 106.067641,10.0516518 106.326228,10.2789256 C106.584815,10.5061995 106.776523,10.7768579 106.901358,11.0909091 C107.026194,11.4049602 107.08861,11.747932 107.08861,12.1198347 C107.08861,12.2933893 107.079694,12.4524786 107.06186,12.5971074 C107.044026,12.7417363 107.012818,12.8966934 106.968234,13.0619835 L101.591432,13.0619835 Z M105.884848,12.1694215 C105.875932,11.5578482 105.710973,11.1239682 105.389969,10.8677686 C105.068964,10.611569 104.547339,10.4834711 103.825078,10.4834711 C103.557574,10.4834711 103.292304,10.5185947 103.029258,10.588843 C102.766213,10.6590913 102.53215,10.7644621 102.327064,10.9049587 C102.121977,11.0454552 101.950332,11.2210733 101.812121,11.4318182 C101.673911,11.642563 101.591432,11.8884283 101.564681,12.1694215 L105.884848,12.1694215 Z M109.576385,9.67768595 L109.656635,10.6570248 C109.97764,10.2603286 110.32539,9.97727357 110.699896,9.80785124 C111.074401,9.6384289 111.502401,9.55371901 111.983908,9.55371901 C112.447582,9.55371901 112.835456,9.61776795 113.147544,9.74586777 C113.459632,9.87396758 113.758341,10.1074363 114.043678,10.446281 L113.201045,11.1528926 C113.013792,10.9380155 112.804251,10.7789261 112.572414,10.6756198 C112.340577,10.5723135 112.099827,10.5206612 111.850157,10.5206612 C111.350816,10.5206612 110.945108,10.6115693 110.63302,10.7933884 C110.320932,10.9752075 110.022224,11.2520643 109.736886,11.6239669 L109.736886,15.8760331 L108.492999,15.8760331 L108.492999,9.67768595 L109.576385,9.67768595 Z M119.621108,10.8305785 C119.273352,10.6818174 118.941207,10.5805788 118.62466,10.5268595 C118.308114,10.4731402 117.967052,10.446281 117.601463,10.446281 C117.012954,10.446281 116.587183,10.5227265 116.324138,10.6756198 C116.061092,10.8285132 115.929572,11.0247922 115.929572,11.2644628 C115.929572,11.5702495 116.078926,11.7789251 116.377638,11.8904959 C116.676351,12.0020667 117.119955,12.0867766 117.708464,12.1446281 C118.546643,12.2272731 119.19533,12.4152878 119.654545,12.7086777 C120.113761,13.0020676 120.343365,13.466939 120.343365,14.1033058 C120.343365,14.7479371 120.058031,15.2252051 119.487356,15.535124 C118.916681,15.8450429 118.140931,16 117.160084,16 C116.66966,16 116.239431,15.9690086 115.869383,15.9070248 C115.499336,15.845041 115.118149,15.735538 114.72581,15.5785124 L115.033438,14.6363636 C115.693281,14.9256213 116.384322,15.0702479 117.106583,15.0702479 C118.488687,15.0702479 119.179728,14.7438049 119.179728,14.0909091 C119.179728,13.9338835 119.14852,13.8016534 119.086102,13.6942149 C119.023685,13.5867763 118.921143,13.4979342 118.778474,13.427686 C118.635806,13.3574377 118.448556,13.299587 118.216719,13.2541322 C117.984882,13.2086775 117.695091,13.1694217 117.347335,13.1363636 C116.473489,13.0537186 115.822573,12.8760344 115.394566,12.6033058 C114.96656,12.3305771 114.75256,11.913226 114.75256,11.3512397 C114.75256,11.1033045 114.810518,10.8698358 114.926437,10.6508264 C115.042355,10.4318171 115.218459,10.2417363 115.454754,10.0805785 C115.69105,9.91942068 115.989758,9.79132279 116.350888,9.69628099 C116.712019,9.60123919 117.133331,9.55371901 117.614838,9.55371901 C117.855592,9.55371901 118.076279,9.55991729 118.276907,9.57231405 C118.477535,9.58471081 118.671472,9.60537176 118.858725,9.63429752 C119.045978,9.66322329 119.233228,9.70247909 119.420481,9.75206612 C119.607733,9.80165314 119.8039,9.86363599 120.008986,9.93801653 L119.621108,10.8305785 Z M121.105747,10.0619835 L122.015256,9.52892562 L122.991641,8.12809917 L123.40627,8.19008264 L123.40627,9.67768595 L126.067921,9.67768595 L126.027795,10.6322314 L123.40627,10.5206612 L123.40627,13.7809917 C123.40627,14.2520685 123.522186,14.5867759 123.754023,14.785124 C123.98586,14.9834721 124.284568,15.0826446 124.650157,15.0826446 C124.944411,15.0826446 125.209682,15.0454549 125.445977,14.9710744 C125.682272,14.8966938 125.925251,14.7892569 126.174922,14.6487603 L126.576176,15.4793388 C126.299755,15.6611579 125.998817,15.793388 125.673354,15.8760331 C125.347891,15.9586781 124.962245,16 124.516405,16 C123.749561,16 123.16329,15.8140514 122.757576,15.4421488 C122.351861,15.0702461 122.149007,14.5206648 122.149007,13.7933884 L122.149007,10.6322314 L121.105747,10.4958678 L121.105747,10.0619835 Z M127.766562,10.0991736 C128.265903,9.90908996 128.72734,9.77066159 129.150888,9.6838843 C129.574436,9.597107 130.062623,9.55371901 130.615465,9.55371901 C131.60523,9.55371901 132.334167,9.7231388 132.802299,10.0619835 C133.270431,10.4008281 133.504493,10.9504094 133.504493,11.7107438 L133.504493,14.3016529 C133.504493,14.599175 133.557993,14.7995863 133.664995,14.9028926 C133.771996,15.0061989 133.994913,15.0578512 134.333751,15.0578512 L134.333751,15.8760331 C134.182166,15.9173556 134.041728,15.948347 133.912435,15.9690083 C133.783141,15.9896695 133.629329,16 133.450993,16 C133.174572,16 132.956114,15.9090918 132.795611,15.7272727 C132.635109,15.5454536 132.541484,15.2975222 132.514734,14.9834711 C131.899474,15.6611604 130.981058,16 129.759457,16 C128.974778,16 128.379591,15.8305802 127.973877,15.4917355 C127.568162,15.1528909 127.365308,14.6900856 127.365308,14.1033058 C127.365308,13.8223126 127.412121,13.5661169 127.505747,13.3347107 C127.599374,13.1033046 127.762103,12.8677698 127.993939,12.6280992 C128.297111,12.5454541 128.602506,12.4710747 128.910136,12.4049587 C129.217765,12.3388426 129.545453,12.2851242 129.893208,12.2438017 C130.240963,12.2024791 130.611005,12.1694216 131.003344,12.1446281 C131.395683,12.1198346 131.828141,12.1033058 132.300731,12.0950413 L132.300731,11.7479339 C132.300731,11.3181797 132.173669,11.0041332 131.91954,10.8057851 C131.665411,10.607437 131.212891,10.5082645 130.561964,10.5082645 C129.723785,10.5082645 128.881161,10.6776843 128.034065,11.0165289 L127.766562,10.0991736 Z M132.300731,12.9256198 C131.52497,12.9421488 130.871824,12.9814046 130.341275,13.0433884 C129.810725,13.1053722 129.326996,13.1900821 128.890073,13.2975207 C128.711737,13.4958688 128.622571,13.7438002 128.622571,14.0413223 C128.622571,14.380167 128.736258,14.6342967 128.963636,14.803719 C129.191015,14.9731413 129.514244,15.0578512 129.933333,15.0578512 C130.379173,15.0578512 130.791569,14.9958684 131.170533,14.8719008 C131.549497,14.7479333 131.926226,14.5371916 132.300731,14.2396694 L132.300731,12.9256198 Z M136.714525,9.67768595 L136.794775,10.6570248 C137.11578,10.2603286 137.46353,9.97727357 137.838036,9.80785124 C138.212541,9.6384289 138.640541,9.55371901 139.122048,9.55371901 C139.585722,9.55371901 139.973596,9.61776795 140.285684,9.74586777 C140.597772,9.87396758 140.896481,10.1074363 141.181818,10.446281 L140.339185,11.1528926 C140.151932,10.9380155 139.942391,10.7789261 139.710554,10.6756198 C139.478717,10.5723135 139.237967,10.5206612 138.988297,10.5206612 C138.488956,10.5206612 138.083248,10.6115693 137.77116,10.7933884 C137.459072,10.9752075 137.160364,11.2520643 136.875026,11.6239669 L136.875026,15.8760331 L135.631139,15.8760331 L135.631139,9.67768595 L136.714525,9.67768595 Z M141.529572,10.0619835 L142.43908,9.52892562 L143.415465,8.12809917 L143.830094,8.19008264 L143.830094,9.67768595 L146.491745,9.67768595 L146.45162,10.6322314 L143.830094,10.5206612 L143.830094,13.7809917 C143.830094,14.2520685 143.946011,14.5867759 144.177847,14.785124 C144.409684,14.9834721 144.708392,15.0826446 145.073981,15.0826446 C145.368236,15.0826446 145.633506,15.0454549 145.869801,14.9710744 C146.106097,14.8966938 146.349076,14.7892569 146.598746,14.6487603 L147,15.4793388 C146.723579,15.6611579 146.422642,15.793388 146.097179,15.8760331 C145.771716,15.9586781 145.38607,16 144.94023,16 C144.173385,16 143.587115,15.8140514 143.1814,15.4421488 C142.775686,15.0702461 142.572832,14.5206648 142.572832,13.7933884 L142.572832,10.6322314 L141.529572,10.4958678 L141.529572,10.0619835 Z" id="riverstart"></path>
                    <path d="M4.524,22 L4.524,18.892 C4.524,18.2439968 4.44800076,17.7520017 4.296,17.416 C4.07199888,16.9279976 3.67600284,16.684 3.108,16.684 C2.1479952,16.684 1.668,17.4039928 1.668,18.844 L1.668,22 L0.684,22 L0.684,15.844 L1.608,15.844 L1.608,16.636 C2.07200232,16.043997 2.61599688,15.748 3.24,15.748 C3.68800224,15.748 4.05399858,15.8339991 4.338,16.006 C4.62200142,16.1780009 4.87599888,16.459998 5.1,16.852 C5.50800204,16.1159963 6.1519956,15.748 7.032,15.748 C7.7520036,15.748 8.31999792,15.9839976 8.736,16.456 C9.12800196,16.9040022 9.324,17.4959963 9.324,18.232 L9.324,22 L8.268,22 L8.268,18.424 C8.268,17.9279975 8.168001,17.5280015 7.968,17.224 C7.73599884,16.8639982 7.38400236,16.684 6.912,16.684 C6.3519972,16.684 5.96400108,16.9079978 5.748,17.356 C5.60399928,17.6600015 5.532,18.1319968 5.532,18.772 L5.532,22 L4.524,22 Z M11.424,18.892 C11.424,19.5080031 11.6359979,20.0379978 12.06,20.482 C12.4840021,20.9260022 13.0039969,21.148 13.62,21.148 C14.1800028,21.148 14.6719979,20.9220023 15.096,20.47 C15.5200021,20.0179977 15.732,19.5120028 15.732,18.952 C15.732,18.359997 15.5240021,17.8360023 15.108,17.38 C14.6919979,16.9239977 14.188003,16.696 13.596,16.696 C13.003997,16.696 12.4940021,16.9139978 12.066,17.35 C11.6379979,17.7860022 11.424,18.299997 11.424,18.892 Z M16.74,22 L15.732,22 L15.732,21.136 C15.0759967,21.8000033 14.352004,22.132 13.56,22.132 C12.6319954,22.132 11.8620031,21.8240031 11.25,21.208 C10.6379969,20.5919969 10.332,19.8200046 10.332,18.892 C10.332,18.0039956 10.635997,17.2480031 11.244,16.624 C11.852003,15.9999969 12.5999956,15.688 13.488,15.688 C14.3280042,15.688 15.0599969,16.0079968 15.684,16.648 L15.684,15.844 L16.74,15.844 L16.74,22 Z M18.828,18.904 C18.828,19.5200031 19.0379979,20.0479978 19.458,20.488 C19.8780021,20.9280022 20.3959969,21.148 21.012,21.148 C21.5720028,21.148 22.0619979,20.9240022 22.482,20.476 C22.9020021,20.0279978 23.112,19.5240028 23.112,18.964 C23.112,18.363997 22.9060021,17.8400022 22.494,17.392 C22.0819979,16.9439978 21.580003,16.72 20.988,16.72 C20.387997,16.72 19.8780021,16.9339979 19.458,17.362 C19.0379979,17.7900021 18.828,18.303997 18.828,18.904 Z M24.12,22 L23.112,22 L23.112,21.136 C22.4719968,21.8000033 21.752004,22.132 20.952,22.132 C20.0319954,22.132 19.2660031,21.8240031 18.654,21.208 C18.0419969,20.5919969 17.736,19.8240046 17.736,18.904 C17.736,18.0239956 18.039997,17.2720031 18.648,16.648 C19.256003,16.0239969 19.9999956,15.712 20.88,15.712 C21.7120042,15.712 22.4439968,16.0279968 23.076,16.66 L23.076,12.76 L24.12,12.76 L24.12,22 Z M28.284,16.684 C27.7719974,16.684 27.3340018,16.8359985 26.97,17.14 C26.6059982,17.4440015 26.3520007,17.8479975 26.208,18.352 L30.288,18.352 C29.9599984,17.2399944 29.292005,16.684 28.284,16.684 Z M30.036,20.104 L31.212,20.104 C30.6279971,21.4800069 29.6440069,22.168 28.26,22.168 C27.3799956,22.168 26.6300031,21.8480032 26.01,21.208 C25.3899969,20.5679968 25.08,19.8040044 25.08,18.916 C25.08,18.0279956 25.3879969,17.2640032 26.004,16.624 C26.6200031,15.9839968 27.3679956,15.664 28.248,15.664 C28.9520035,15.664 29.5599974,15.8459982 30.072,16.21 C30.5840026,16.5740018 30.9559988,17.0879967 31.188,17.752 C31.3400008,18.1840022 31.416,18.699997 31.416,19.3 L26.184,19.3 C26.2800005,19.8360027 26.5179981,20.2799982 26.898,20.632 C27.2780019,20.9840018 27.7319974,21.16 28.26,21.16 C29.0360039,21.16 29.627998,20.8080035 30.036,20.104 Z M36.72,18.964 C36.72,19.5240028 36.9319979,20.0279978 37.356,20.476 C37.7800021,20.9240022 38.2719972,21.148 38.832,21.148 C39.4560031,21.148 39.9739979,20.9300022 40.386,20.494 C40.7980021,20.0579978 41.004,19.5280031 41.004,18.904 C41.004,18.303997 40.7940021,17.7900021 40.374,17.362 C39.9539979,16.9339979 39.444003,16.72 38.844,16.72 C38.251997,16.72 37.7500021,16.9459977 37.338,17.398 C36.9259979,17.8500023 36.72,18.371997 36.72,18.964 Z M36.72,22 L35.712,22 L35.712,12.76 L36.744,12.76 L36.744,16.66 C37.4080033,16.0279968 38.143996,15.712 38.952,15.712 C39.8480045,15.712 40.595997,16.0199969 41.196,16.636 C41.796003,17.2520031 42.096,18.0079955 42.096,18.904 C42.096,19.8240046 41.7900031,20.5919969 41.178,21.208 C40.5659969,21.8240031 39.8000046,22.132 38.88,22.132 C38.1279962,22.132 37.4080034,21.8000033 36.72,21.136 L36.72,22 Z M45.024,21.844 L42.564,15.832 L43.704,15.832 L45.588,20.536 L47.364,15.832 L48.504,15.832 L45.048,24.676 L43.932,24.676 L45.024,21.844 Z" id="made-by"></path>
                    <path d="M144.520616,20.5868918 C143.821546,20.2238794 143.214339,19.7041085 142.74566,19.0675273 C141.968079,20.138622 140.79803,20.8518517 139.495988,21.0484385 C138.193945,21.2450254 136.867984,20.9086518 135.813288,20.1142006 C135.418816,19.8177937 135.069109,19.4652266 134.775107,19.0675273 C133.144323,21.2812527 130.045217,21.7491663 127.842735,20.1142006 C127.448262,19.8177937 127.098556,19.4652266 126.804554,19.0675273 C125.201676,21.272273 122.13227,21.7553189 119.939161,20.1479643 C119.506839,19.8471611 119.132363,19.469622 118.834,19.0337637 C118.390269,19.6678247 117.805298,20.1881976 117.126025,20.5531281 C116.436616,20.9539563 115.641416,21.130803 114.848724,21.0595829 C114.090576,21.0974623 113.336909,20.9221165 112.671892,20.5531281 C111.972823,20.1901157 111.365615,19.6703449 110.896937,19.0337637 C110.119355,20.1048584 108.949306,20.818088 107.647264,21.0146749 C106.345221,21.2112617 105.019261,20.8748881 103.964565,20.0804369 C103.570092,19.78403 103.220385,19.4314629 102.926383,19.0337637 C101.295599,21.247489 98.1964935,21.7154026 95.9940113,20.0804369 C95.5995387,19.78403 95.2498321,19.4314629 94.95583,19.0337637 C93.3529526,21.2385093 90.2835466,21.7215552 88.0904374,20.1142006 C87.6581153,19.8133974 87.2836393,19.4358583 86.9852767,19 C86.5415451,19.6340611 85.956574,20.154434 85.277301,20.5193644 C84.5878924,20.9201926 83.792692,21.0970393 83,21.0258193 L83,23 L83.6697944,23 C83.8441177,22.9391774 84.0234251,22.8939839 84.2056299,22.8649454 C85.2924882,22.5738182 86.2489849,21.9190327 86.9182972,21.0079444 C87.1527253,21.24429 87.3201739,21.4806356 87.5546019,21.6832175 C88.2505273,22.3606556 89.1416759,22.798053 90.0998206,22.9324727 C90.1668001,22.9324727 90.1668001,22.9662363 90.2337795,23 L91.606858,23 C91.935766,22.9300708 92.2601092,22.839865 92.5780599,22.7298908 C93.5004685,22.3992844 94.304725,21.7999715 94.8888506,21.0079444 C95.1232786,21.24429 95.2907272,21.4806356 95.5251553,21.6832175 C96.2210806,22.3606556 97.1122293,22.798053 98.070374,22.9324727 C98.1373534,22.9324727 98.1373534,22.9662363 98.2043329,23 L99.5774114,23 C99.7517347,22.9391774 99.9310421,22.8939839 100.113247,22.8649454 C101.184918,22.5948361 101.821223,22.1559086 102.825914,21.0079444 C103.060342,21.24429 103.227791,21.4806356 103.462219,21.6832175 C104.158144,22.3606556 105.049293,22.798053 106.007438,22.9324727 C106.074417,22.9324727 106.074417,22.9662363 106.141396,23 L107.514475,23 C107.688798,22.9391774 107.868106,22.8939839 108.050311,22.8649454 C109.137169,22.5738182 110.093665,21.9190327 110.762978,21.0079444 C110.997406,21.24429 111.164854,21.4806356 111.399283,21.6832175 C112.095208,22.3606556 112.986357,22.798053 113.944501,22.9324727 C114.011481,22.9324727 114.011481,22.9662363 114.07846,23 L115.451539,23 C115.625862,22.9391774 115.805169,22.8939839 115.987374,22.8649454 C117.074232,22.5738182 118.030729,21.9190327 118.700041,21.0079444 C118.93447,21.24429 119.101918,21.4806356 119.336346,21.6832175 C120.032272,22.3606556 120.92342,22.798053 121.881565,22.9324727 C121.948544,22.9324727 121.948544,22.9662363 122.015524,23 L123.388602,23 C123.71751,22.9300708 124.041853,22.839865 124.359804,22.7298908 C125.282213,22.3992844 126.086469,21.7999715 126.670595,21.0079444 C126.905023,21.24429 127.072471,21.4806356 127.3069,21.6832175 C128.002825,22.3606556 128.893974,22.798053 129.852118,22.9324727 C129.919098,22.9324727 129.919098,22.9662363 129.986077,23 L131.359156,23 C131.533479,22.9391774 131.712786,22.8939839 131.894991,22.8649454 C132.966662,22.5948361 133.602967,22.1559086 134.607658,21.0079444 C134.842087,21.24429 135.009535,21.4806356 135.243963,21.6832175 C135.939888,22.3606556 136.831037,22.798053 137.789182,22.9324727 C137.856161,22.9324727 137.856161,22.9662363 137.923141,23 L139.296219,23 C139.470543,22.9391774 139.64985,22.8939839 139.832055,22.8649454 C140.918913,22.5738182 141.87541,21.9190327 142.544722,21.0079444 C142.77915,21.24429 142.946599,21.4806356 143.181027,21.6832175 C143.876952,22.3606556 144.768101,22.798053 145.726246,22.9324727 C145.793225,22.9324727 145.793225,22.9662363 145.860204,23 L146.529999,23 L146.529999,21.0258193 C145.832114,21.0796987 145.133795,20.9271588 144.520616,20.5868918 Z" id="Path_21_2_" fill-rule="nonzero"></path>
                </g>
            </g>
        </g>
    </g>
</svg>