<svg xmlns="http://www.w3.org/2000/svg" width="147" height="25" viewBox="0 0 147 25">
    <g fill="#FFF" fill-rule="evenodd" opacity=".5">
        <path d="M58.812 3l1.592 1.592h10.235L72.23 3H58.812zm17.597 7.683v10.726h-5.616V23H78V9.091l-1.591 1.592zM58 23h8.95l-1.59-1.591h-5.768V15.64L58 14.049V23zM78 0l-8.799 8.605v7.197L78 7.197V0zM58 12.046L69.201 23v-7.198L58 4.85v7.197zM84.083 9.678l.08.979c.322-.397.67-.68 1.044-.85.374-.169.802-.253 1.284-.253.464 0 .851.064 1.164.192.312.128.61.361.896.7l-.843.707a1.756 1.756 0 0 0-1.35-.632c-.5 0-.906.09-1.218.272-.312.182-.61.46-.896.831v4.252H83V9.678h1.083zm6.728 0v6.198h-1.244V9.678h1.244zM90.196 7c.276 0 .49.076.642.23a.755.755 0 0 1 .227.551.762.762 0 0 1-.227.545c-.152.157-.366.236-.642.236-.277 0-.49-.079-.642-.236a.762.762 0 0 1-.228-.545c0-.215.076-.399.228-.552.151-.153.365-.229.642-.229zm3.17 2.678l2.327 5.219h.053l2.408-5.22h1.284l-3.05 6.199h-1.444l-2.93-6.198h1.352zm8.225 3.384c.027.339.112.634.255.886.142.252.33.459.561.62.232.161.497.281.796.36.299.078.609.117.93.117.472 0 .89-.035 1.25-.105.361-.07.716-.196 1.064-.378l.36.942a5.012 5.012 0 0 1-1.257.39 6.637 6.637 0 0 1-.688.081 12.1 12.1 0 0 1-.81.025c-.606 0-1.14-.074-1.605-.223a3.216 3.216 0 0 1-1.17-.645 2.755 2.755 0 0 1-.722-1.016 3.424 3.424 0 0 1-.248-1.327c0-.48.092-.92.275-1.32.182-.4.439-.742.769-1.023.33-.28.715-.5 1.157-.657a4.302 4.302 0 0 1 1.45-.235c.536 0 1 .064 1.392.192.392.128.718.306.976.533.259.227.45.498.575.812.125.314.188.657.188 1.029a3.384 3.384 0 0 1-.12.942h-5.378zm4.294-.893c-.01-.611-.174-1.045-.495-1.301s-.843-.385-1.565-.385c-.267 0-.533.036-.796.106s-.497.175-.702.316c-.205.14-.377.316-.515.527-.138.21-.22.456-.247.737h4.32zm3.691-2.491l.08.979c.322-.397.67-.68 1.044-.85.374-.169.802-.253 1.284-.253.464 0 .851.064 1.164.192.312.128.61.361.896.7l-.843.707a1.756 1.756 0 0 0-1.35-.632c-.5 0-.906.09-1.218.272-.312.182-.61.46-.896.831v4.252h-1.244V9.678h1.083zm10.045 1.153a4.43 4.43 0 0 0-.996-.304 6.121 6.121 0 0 0-1.024-.08c-.588 0-1.014.076-1.277.229-.263.153-.394.349-.394.588 0 .306.149.515.448.626.298.112.742.197 1.33.255.839.082 1.487.27 1.947.564.459.293.688.758.688 1.394 0 .645-.285 1.122-.856 1.432-.57.31-1.346.465-2.327.465-.49 0-.92-.031-1.29-.093a5.55 5.55 0 0 1-1.144-.328l.307-.943c.66.29 1.351.434 2.074.434 1.382 0 2.073-.326 2.073-.98a.778.778 0 0 0-.094-.396.697.697 0 0 0-.308-.266 2.291 2.291 0 0 0-.561-.174 9.133 9.133 0 0 0-.87-.118c-.874-.082-1.524-.26-1.952-.533-.428-.272-.642-.69-.642-1.252 0-.248.058-.481.173-.7a1.6 1.6 0 0 1 .529-.57 2.89 2.89 0 0 1 .896-.385 4.996 4.996 0 0 1 1.264-.142c.24 0 .461.006.662.018.2.013.394.033.582.062.187.03.374.068.561.118.188.05.384.112.589.186l-.388.893zm1.485-.769l.91-.533.976-1.4.414.061v1.488h2.662l-.04.954-2.622-.111v3.26c0 .471.116.806.348 1.004.232.198.53.298.896.298.294 0 .56-.038.796-.112.236-.074.48-.182.729-.322l.401.83a2.954 2.954 0 0 1-.903.397 4.744 4.744 0 0 1-1.157.124c-.766 0-1.353-.186-1.758-.558-.406-.372-.609-.921-.609-1.649v-3.16l-1.043-.137v-.434zm6.66.037c.5-.19.961-.328 1.385-.415.423-.087.912-.13 1.464-.13.99 0 1.72.17 2.187.508.468.339.702.888.702 1.649v2.59c0 .298.054.499.161.602.107.103.33.155.669.155v.818a2.97 2.97 0 0 1-.883.124c-.276 0-.495-.09-.655-.273-.16-.182-.255-.43-.281-.744-.616.678-1.534 1.017-2.756 1.017-.784 0-1.38-.17-1.785-.508-.406-.34-.609-.802-.609-1.389 0-.28.047-.537.14-.768.094-.232.257-.467.489-.707.303-.083.609-.157.916-.223.308-.066.635-.12.983-.161.348-.042.718-.075 1.11-.1.393-.024.825-.04 1.298-.049v-.347c0-.43-.127-.744-.381-.942-.255-.199-.707-.298-1.358-.298-.838 0-1.68.17-2.528.509l-.267-.918zm4.535 2.827c-.776.016-1.43.055-1.96.117-.53.062-1.014.147-1.45.255a1.071 1.071 0 0 0-.268.743c0 .34.113.593.34.763.228.17.551.254.97.254.446 0 .859-.062 1.238-.186a3.66 3.66 0 0 0 1.13-.632v-1.314zm4.414-3.248l.08.979c.32-.397.669-.68 1.043-.85.375-.169.803-.253 1.284-.253.464 0 .852.064 1.164.192.312.128.61.361.896.7l-.843.707a1.756 1.756 0 0 0-1.35-.632c-.5 0-.906.09-1.218.272-.312.182-.61.46-.896.831v4.252h-1.244V9.678h1.084zm4.815.384l.91-.533.975-1.4.415.061v1.488h2.662l-.04.954-2.622-.111v3.26c0 .471.116.806.348 1.004.232.198.53.298.896.298.294 0 .56-.038.796-.112.236-.074.48-.182.729-.322l.401.83a2.954 2.954 0 0 1-.903.397 4.744 4.744 0 0 1-1.157.124c-.767 0-1.353-.186-1.759-.558-.405-.372-.608-.921-.608-1.649v-3.16l-1.043-.137v-.434z"/>
        <text font-family="AAvanteBs, a_AvanteBs" font-size="12">
            <tspan x="0" y="22">made by</tspan>
        </text>
        <path fill-rule="nonzero" d="M144.52 20.587a5.155 5.155 0 0 1-1.774-1.52 4.902 4.902 0 0 1-6.932 1.047 5.105 5.105 0 0 1-1.039-1.046 4.94 4.94 0 0 1-7.97 0 4.897 4.897 0 0 1-6.866 1.08 4.351 4.351 0 0 1-1.105-1.114 4.938 4.938 0 0 1-1.708 1.52c-.69.4-1.485.577-2.277.506a4.067 4.067 0 0 1-2.177-.507 5.155 5.155 0 0 1-1.775-1.52 4.902 4.902 0 0 1-6.932 1.047 5.105 5.105 0 0 1-1.039-1.046 4.94 4.94 0 0 1-7.97 0 4.897 4.897 0 0 1-6.866 1.08A4.351 4.351 0 0 1 86.985 19a4.938 4.938 0 0 1-1.708 1.52c-.69.4-1.484.577-2.277.506V23h.67c.174-.06.353-.106.536-.135a4.96 4.96 0 0 0 2.712-1.857c.235.236.402.473.637.675a4.557 4.557 0 0 0 2.545 1.25c.067 0 .067.033.134.067h1.373c.329-.07.653-.16.971-.27a4.946 4.946 0 0 0 2.31-1.722c.235.236.403.473.637.675a4.557 4.557 0 0 0 2.545 1.25c.067 0 .067.033.134.067h1.373c.175-.06.354-.106.536-.135 1.072-.27 1.708-.71 2.713-1.857.234.236.402.473.636.675a4.557 4.557 0 0 0 2.545 1.25c.067 0 .067.033.134.067h1.373c.175-.06.354-.106.536-.135a4.96 4.96 0 0 0 2.713-1.857c.234.236.402.473.636.675a4.557 4.557 0 0 0 2.546 1.25c.066 0 .066.033.133.067h1.374c.174-.06.353-.106.535-.135a4.96 4.96 0 0 0 2.713-1.857c.234.236.402.473.636.675a4.557 4.557 0 0 0 2.546 1.25c.067 0 .067.033.134.067h1.373c.329-.07.653-.16.97-.27a4.946 4.946 0 0 0 2.312-1.722c.234.236.401.473.636.675a4.557 4.557 0 0 0 2.545 1.25c.067 0 .067.033.134.067h1.373c.174-.06.354-.106.536-.135 1.072-.27 1.708-.71 2.713-1.857.234.236.402.473.636.675a4.557 4.557 0 0 0 2.545 1.25c.067 0 .067.033.134.067h1.373c.175-.06.354-.106.536-.135a4.96 4.96 0 0 0 2.713-1.857c.234.236.402.473.636.675a4.557 4.557 0 0 0 2.545 1.25c.067 0 .067.033.134.067h.67v-1.974a3.573 3.573 0 0 1-2.01-.44z"/>
    </g>
</svg>
