<svg xmlns="http://www.w3.org/2000/svg" width="78" height="85" viewBox="0 0 78 85">
    <g fill="#FFF" fill-rule="evenodd" opacity=".4">
        <g fill-rule="nonzero">
            <path d="M15.29 31.987c.196-.82 1-1.34 1.828-1.185a1.45 1.45 0 0 1 1.105 1.789 1.58 1.58 0 0 1-1.827 1.185 1.45 1.45 0 0 1-1.107-1.79z"/>
            <path d="M22 29c-2.106 2.586-5.28 7.577-13 8.5 2.556.139 4.345-.508 6 0 3.308 1.016-1.7 11.454-2 11.5-.05.139-.1.093 0 0 3.208-3.186 3.297-7.538 4.5-8 .75-.277 1.192.76 4 4.5.1.139.55.184.5 0-2.858-6.372-4.463-9.205.5-16.5.2-.325-.3-.275-.5 0zM61 39C52.979 23.81 39.958 11.665 18 4c8.823 14.545 10.397 19.256 11.5 35 10.478-4.34 21.123-3.878 31.5 0z"/>
            <path d="M14 53.5c-.7-.6-2.25-1.723-2-2 2.356-2.4 24.05-8.407 42-8.5 3.96-.046 6.8-.054 7.5.5C63.154 44.793 57 50 57 50h.5c3.409-1.94 7.542-4.521 10.5-9-11.08-1.154-21.906-.417-38.5 3L15.5.5H15l12 44A88.17 88.17 0 0 0 9.5 51c.55.878 2.447 2.354 3.5 3-4.361.831-8.588 1.754-13 3 26.37-5.68 52.203-5.68 77.5 0-20.855-6.141-42.043-7.425-63.5-3.5z"/>
        </g>
        <text font-family="PTSans-NarrowBold, PT Sans Narrow" font-size="20.5" font-style="condensed" font-weight="bold" transform="translate(.5 61.5)">
            <tspan x="0" y="18">SimpleSail</tspan>
        </text>
    </g>
</svg>
