<?xml version="1.0" encoding="UTF-8"?>
<svg width="78px" height="84px" viewBox="0 0 78 84" version="1.1" xmlns="http://www.w3.org/2000/svg" xmlns:xlink="http://www.w3.org/1999/xlink">
    <!-- Generator: Sketch 46.2 (44496) - http://www.bohemiancoding.com/sketch -->
    <title>2</title>
    <desc>Created with Sketch.</desc>
    <defs></defs>
    <g id="Symbols" stroke="none" stroke-width="1" fill="none" fill-rule="evenodd">
        <g id="footer" transform="translate(-601.000000, -942.000000)" fill="#FFFFFF">
            <g id="2">
                <g transform="translate(601.000000, 942.000000)">
                    <g id="Group_126" transform="translate(0.000000, 0.415500)" fill-rule="nonzero">
                        <path d="M16.7309077,30.3760858 C17.5731467,30.3889252 18.2572169,31.0602377 18.2859077,31.9020858 C18.2912606,32.2994818 18.1332634,32.6816559 17.8488544,32.9592595 C17.5644455,33.2368631 17.1785576,33.3855598 16.7814077,33.3705858 C15.9399153,33.3577948 15.256139,32.6876501 15.2264077,31.8465858 C15.2205011,31.4488451 15.3782548,31.0661438 15.662727,30.7881003 C15.9471992,30.5100569 16.3334059,30.3610907 16.7309077,30.3760858 L16.7309077,30.3760858 Z" id="Path_2284" transform="translate(16.756144, 31.873335) rotate(-77.391000) translate(-16.756144, -31.873335) "></path>
                        <path d="M21.9995,28.5845 C19.894,31.17 16.72,36.161 8.9995,37.0845 L8.9995,37.0845 C11.5565,37.223 13.345,36.5765 14.9995,37.0845 C18.3085,38.1005 13.2995,48.5385 12.9995,48.5845 C12.9495,48.723 12.8995,48.677 12.9995,48.5845 C16.208,45.3985 16.2965,41.046 17.4995,40.5845 C18.2495,40.3075 18.692,41.3445 21.4995,45.0845 C21.5995,45.223 22.0495,45.269 21.9995,45.0845 C19.142,38.7125 17.5365,35.8795 22.4995,28.5845 C22.7005,28.259 22.2005,28.309 21.9995,28.5845 Z" id="Path_56"></path>
                        <path d="M61,38.5845 C52.979,23.394 39.958,11.249 18,3.5845 C26.8235,18.129 28.397,22.84 29.5,38.5845 C39.978,34.2445 50.6225,34.706 61,38.5845 Z" id="Path_57"></path>
                        <path d="M14,53.0845 C13.3,52.4845 11.75,51.3615 12,51.0845 C14.356,48.6845 36.05,42.677 54,42.5845 C57.9605,42.5385 60.8,42.5305 61.5,43.0845 C63.1545,44.3775 57,49.5845 57,49.5845 L57.5,49.5845 C60.909,47.645 65.042,45.063 68,40.5845 C56.9205,39.43 46.094,40.1675 29.5,43.5845 L15.5,0.0845 L15,0.0845 L27,44.0845 C20.9530845,45.6257822 15.0868791,47.8046585 9.5,50.5845 C10.05,51.462 11.947,52.938 13,53.5845 C8.6385,54.4155 4.4115,55.338 1.77635684e-14,56.5845 C26.37,50.9051667 52.2033333,50.9051667 77.5,56.5845 C56.6445,50.4435 35.457,49.16 14,53.0845 Z" id="Path_58"></path>
                    </g>
                    <g id="SimpleSail" transform="translate(0.500000, 61.500000)">
                        <path d="M5.945,14.31 C5.945,13.8726645 5.81516797,13.5002515 5.5555,13.19275 C5.29583204,12.8852485 4.97125195,12.5948347 4.58175,12.3215 C4.19224805,12.0481653 3.76858562,11.7680014 3.31075,11.481 C2.85291438,11.1939986 2.42925195,10.8591686 2.03975,10.4765 C1.65024805,10.0938314 1.32566797,9.64283593 1.066,9.1235 C0.806332035,8.60416407 0.6765,7.96867043 0.6765,7.217 C0.6765,6.51999652 0.782415607,5.92891909 0.99425,5.44375 C1.20608439,4.95858091 1.49649816,4.56225154 1.8655,4.25475 C2.23450185,3.94724846 2.6718308,3.72175072 3.1775,3.57825 C3.6831692,3.43474928 4.22299713,3.363 4.797,3.363 C5.49400349,3.363 6.14316366,3.43133265 6.7445,3.568 C7.34583634,3.70466735 7.84466468,3.88916551 8.241,4.1215 L7.4415,6.397 C7.20916551,6.23299918 6.86408562,6.08266735 6.40625,5.946 C5.94841438,5.80933265 5.45300266,5.741 4.92,5.741 C4.38699734,5.741 3.97700144,5.85033224 3.69,6.069 C3.40299857,6.28766776 3.2595,6.60883121 3.2595,7.0325 C3.2595,7.41516858 3.38933204,7.7534152 3.649,8.04725 C3.90866796,8.3410848 4.23324805,8.6246653 4.62275,8.898 C5.01225195,9.1713347 5.43591438,9.4549152 5.89375,9.74875 C6.35158562,10.0425848 6.77524805,10.3842481 7.16475,10.77375 C7.55425195,11.1632519 7.87883204,11.6210807 8.1385,12.14725 C8.39816797,12.6734193 8.528,13.298663 8.528,14.023 C8.528,14.747337 8.42208439,15.3759973 8.21025,15.909 C7.99841561,16.4420027 7.69775195,16.8827483 7.30825,17.23125 C6.91874805,17.5797517 6.4506694,17.8428324 5.904,18.0205 C5.3573306,18.1981676 4.74917002,18.287 4.0795,18.287 C3.23216243,18.287 2.49075318,18.2050008 1.85525,18.041 C1.21974682,17.8769992 0.731168375,17.692501 0.3895,17.4875 L1.23,15.171 C1.5033347,15.3350008 1.87916428,15.4989992 2.3575,15.663 C2.83583572,15.8270008 3.3483306,15.909 3.895,15.909 C5.2616735,15.909 5.945,15.3760053 5.945,14.31 Z M10.086,7.75 L12.5255,7.75 L12.5255,18 L10.086,18 L10.086,7.75 Z M9.8195,4.8595 C9.8195,4.44949795 9.94933204,4.11125133 10.209,3.84475 C10.468668,3.57824867 10.8376643,3.445 11.316,3.445 C11.7943357,3.445 12.1769986,3.57483204 12.464,3.8345 C12.7510014,4.09416797 12.8945,4.43583122 12.8945,4.8595 C12.8945,5.28316878 12.7510014,5.61799877 12.464,5.864 C12.1769986,6.11000123 11.7943357,6.233 11.316,6.233 C10.8376643,6.233 10.468668,6.1065846 10.209,5.85375 C9.94933204,5.6009154 9.8195,5.26950205 9.8195,4.8595 Z M19.229,18 L19.229,12.0345 C19.229,11.1734957 19.1606674,10.575585 19.024,10.24075 C18.8873327,9.90591499 18.6208353,9.7385 18.2245,9.7385 C17.8964984,9.7385 17.6265844,9.84441561 17.41475,10.05625 C17.2029156,10.2680844 17.0423339,10.5243318 16.933,10.825 L16.933,18 L14.4935,18 L14.4935,7.75 L16.3795,7.75 L16.687,8.98 L16.7485,8.98 C17.008168,8.55633122 17.3327481,8.20441807 17.72225,7.92425 C18.1117519,7.64408193 18.6276635,7.504 19.27,7.504 C19.8030027,7.504 20.236915,7.6201655 20.57175,7.8525 C20.906585,8.0848345 21.1696657,8.4948304 21.361,9.0825 C21.620668,8.59049754 21.9623312,8.20441807 22.386,7.92425 C22.8096688,7.64408193 23.3084971,7.504 23.8825,7.504 C24.3335023,7.504 24.7195817,7.56208275 25.04075,7.67825 C25.3619183,7.79441725 25.6215823,7.99599857 25.81975,8.283 C26.0179177,8.57000144 26.1648329,8.96291417 26.2605,9.46175 C26.3561671,9.96058583 26.404,10.5926628 26.404,11.358 L26.404,18 L23.9645,18 L23.9645,11.768 C23.9645,11.0709965 23.9030006,10.5585016 23.78,10.2305 C23.6569994,9.90249836 23.3836688,9.7385 22.96,9.7385 C22.6183316,9.7385 22.3415844,9.83758234 22.12975,10.03575 C21.9179156,10.2339177 21.7641671,10.5038316 21.6685,10.8455 L21.6685,18 L19.229,18 Z M28.085,7.75 L29.9095,7.75 L30.1555,8.9185 L30.217,8.9185 C30.5313349,8.42649754 30.8832481,8.06775113 31.27275,7.84225 C31.6622519,7.61674887 32.1439971,7.504 32.718,7.504 C33.7566719,7.504 34.5390807,7.89691274 35.06525,8.68275 C35.5914193,9.46858726 35.8545,10.7771575 35.8545,12.6085 C35.8545,14.4398425 35.5265033,15.8440784 34.8705,16.82125 C34.2144967,17.7984216 33.2646729,18.287 32.021,18.287 C31.6929984,18.287 31.4128345,18.2596669 31.1805,18.205 C30.9481655,18.1503331 30.729501,18.0615006 30.5245,17.9385 L30.5245,22.1 L28.085,22.1 L28.085,7.75 Z M30.5245,15.704 C30.6611673,15.8406674 30.8149158,15.9431663 30.98575,16.0115 C31.1565842,16.0798337 31.3786653,16.114 31.652,16.114 C32.1986694,16.114 32.6154986,15.844086 32.9025,15.30425 C33.1895014,14.764414 33.333,13.8453398 33.333,12.547 C33.333,11.5766618 33.2236678,10.8557524 33.005,10.38425 C32.7863322,9.91274764 32.4241692,9.677 31.9185,9.677 C31.2351632,9.677 30.7705012,10.0801626 30.5245,10.8865 L30.5245,15.704 Z M39.729,14.679 C39.729,15.1573357 39.7768329,15.498999 39.8725,15.704 C39.9681671,15.909001 40.1253322,16.0115 40.344,16.0115 C40.4670006,16.0115 40.593416,15.9978335 40.72325,15.9705 C40.853084,15.9431665 40.9999992,15.8953337 41.164,15.827 L41.3895,17.795 C41.2254992,17.9043339 40.9453353,18.0068329 40.549,18.1025 C40.1526647,18.1981671 39.7495021,18.246 39.3395,18.246 C38.6561633,18.246 38.1436684,18.0751684 37.802,17.7335 C37.4603316,17.3918316 37.2895,16.8110041 37.2895,15.991 L37.2895,3.65 L39.729,3.65 L39.729,14.679 Z M49.159,17.2415 C48.8173316,17.5421682 48.3526696,17.7881657 47.765,17.9795 C47.1773304,18.1708343 46.5623365,18.2665 45.92,18.2665 C45.2093298,18.2665 44.5977526,18.1435012 44.08525,17.8975 C43.5727474,17.6514988 43.1525016,17.296169 42.8245,16.8315 C42.4964984,16.366831 42.2539175,15.8030866 42.09675,15.14025 C41.9395825,14.4774134 41.861,13.7223376 41.861,12.875 C41.861,11.0299908 42.2265797,9.66675441 42.95775,8.78525 C43.6889203,7.90374559 44.7036602,7.463 46.002,7.463 C46.4393355,7.463 46.862998,7.52791602 47.273,7.65775 C47.6830021,7.78758398 48.0485817,8.00624846 48.36975,8.31375 C48.6909183,8.62125154 48.9505823,9.03124744 49.14875,9.54375 C49.3469177,10.0562526 49.446,10.7019961 49.446,11.481 C49.446,11.7816682 49.4289168,12.1028316 49.39475,12.4445 C49.3605832,12.7861684 49.3093337,13.1551647 49.241,13.5515 L44.2595,13.5515 C44.2868335,14.3988376 44.4644984,15.0479977 44.7925,15.499 C45.1205016,15.9500023 45.646663,16.1755 46.371,16.1755 C46.8083355,16.1755 47.2080815,16.1071673 47.57025,15.9705 C47.9324185,15.8338326 48.2091657,15.6903341 48.4005,15.54 L49.159,17.2415 Z M45.961,9.554 C45.4416641,9.554 45.052168,9.76241458 44.7925,10.17925 C44.532832,10.5960854 44.3825002,11.1803296 44.3415,11.932 L47.1705,11.932 C47.2115002,11.1529961 47.129501,10.5619187 46.9245,10.15875 C46.719499,9.75558132 46.3983355,9.554 45.961,9.554 Z M56.0675,14.31 C56.0675,13.8726645 55.937668,13.5002515 55.678,13.19275 C55.418332,12.8852485 55.0937519,12.5948347 54.70425,12.3215 C54.3147481,12.0481653 53.8910856,11.7680014 53.43325,11.481 C52.9754144,11.1939986 52.5517519,10.8591686 52.16225,10.4765 C51.7727481,10.0938314 51.448168,9.64283593 51.1885,9.1235 C50.928832,8.60416407 50.799,7.96867043 50.799,7.217 C50.799,6.51999652 50.9049156,5.92891909 51.11675,5.44375 C51.3285844,4.95858091 51.6189982,4.56225154 51.988,4.25475 C52.3570018,3.94724846 52.7943308,3.72175072 53.3,3.57825 C53.8056692,3.43474928 54.3454971,3.363 54.9195,3.363 C55.6165035,3.363 56.2656637,3.43133265 56.867,3.568 C57.4683363,3.70466735 57.9671647,3.88916551 58.3635,4.1215 L57.564,6.397 C57.3316655,6.23299918 56.9865856,6.08266735 56.52875,5.946 C56.0709144,5.80933265 55.5755027,5.741 55.0425,5.741 C54.5094973,5.741 54.0995014,5.85033224 53.8125,6.069 C53.5254986,6.28766776 53.382,6.60883121 53.382,7.0325 C53.382,7.41516858 53.511832,7.7534152 53.7715,8.04725 C54.031168,8.3410848 54.3557481,8.6246653 54.74525,8.898 C55.1347519,9.1713347 55.5584144,9.4549152 56.01625,9.74875 C56.4740856,10.0425848 56.8977481,10.3842481 57.28725,10.77375 C57.6767519,11.1632519 58.001332,11.6210807 58.261,12.14725 C58.520668,12.6734193 58.6505,13.298663 58.6505,14.023 C58.6505,14.747337 58.5445844,15.3759973 58.33275,15.909 C58.1209156,16.4420027 57.8202519,16.8827483 57.43075,17.23125 C57.0412481,17.5797517 56.5731694,17.8428324 56.0265,18.0205 C55.4798306,18.1981676 54.87167,18.287 54.202,18.287 C53.3546624,18.287 52.6132532,18.2050008 51.97775,18.041 C51.3422468,17.8769992 50.8536684,17.692501 50.512,17.4875 L51.3525,15.171 C51.6258347,15.3350008 52.0016643,15.4989992 52.48,15.663 C52.9583357,15.8270008 53.4708306,15.909 54.0175,15.909 C55.3841735,15.909 56.0675,15.3760053 56.0675,14.31 Z M60.024,8.365 C60.4340021,8.11899877 60.9464969,7.92083409 61.5615,7.7705 C62.1765031,7.62016592 62.8734961,7.545 63.6525,7.545 C64.8141725,7.545 65.6239144,7.84566366 66.08175,8.447 C66.5395856,9.04833634 66.7685,9.90249447 66.7685,11.0095 C66.7685,11.6518365 66.7514168,12.2839136 66.71725,12.90575 C66.6830832,13.5275864 66.6591667,14.135747 66.6455,14.73025 C66.6318333,15.324753 66.6420832,15.8987472 66.67625,16.45225 C66.7104168,17.0057528 66.8026659,17.5284975 66.953,18.0205 L64.9645,18.0205 L64.575,16.77 L64.493,16.77 C64.2743322,17.1663353 63.9668353,17.494332 63.5705,17.754 C63.1741647,18.013668 62.6753363,18.1435 62.074,18.1435 C61.2676626,18.1435 60.632169,17.873586 60.1675,17.33375 C59.702831,16.793914 59.4705,16.0730045 59.4705,15.171 C59.4705,13.9409939 59.907829,13.0663359 60.7825,12.547 C61.657171,12.0276641 62.8393259,11.8089996 64.329,11.891 C64.3973337,11.0983294 64.3460842,10.5243351 64.17525,10.169 C64.0044158,9.81366489 63.6388361,9.636 63.0785,9.636 C62.668498,9.636 62.2448355,9.68383285 61.8075,9.7795 C61.3701645,9.87516714 60.9806684,10.0118324 60.639,10.1895 L60.024,8.365 Z M62.9555,16.0525 C63.3245018,16.0525 63.6251655,15.9602509 63.8575,15.77575 C64.0898345,15.5912491 64.2606661,15.3896678 64.37,15.171 L64.37,13.4695 C64.0556651,13.4284998 63.7550014,13.4216665 63.468,13.449 C63.1809986,13.4763335 62.9281678,13.5378329 62.7095,13.6335 C62.4908322,13.7291671 62.316584,13.8692491 62.18675,14.05375 C62.056916,14.2382509 61.992,14.4739986 61.992,14.761 C61.992,15.1846688 62.0774158,15.5058322 62.24825,15.7245 C62.4190842,15.9431678 62.6548318,16.0525 62.9555,16.0525 Z M68.675,7.75 L71.1145,7.75 L71.1145,18 L68.675,18 L68.675,7.75 Z M68.4085,4.8595 C68.4085,4.44949795 68.538332,4.11125133 68.798,3.84475 C69.057668,3.57824867 69.4266643,3.445 69.905,3.445 C70.3833357,3.445 70.7659986,3.57483204 71.053,3.8345 C71.3400014,4.09416797 71.4835,4.43583122 71.4835,4.8595 C71.4835,5.28316878 71.3400014,5.61799877 71.053,5.864 C70.7659986,6.11000123 70.3833357,6.233 69.905,6.233 C69.4266643,6.233 69.057668,6.1065846 68.798,5.85375 C68.538332,5.6009154 68.4085,5.26950205 68.4085,4.8595 Z M75.563,14.679 C75.563,15.1573357 75.6108329,15.498999 75.7065,15.704 C75.8021671,15.909001 75.9593322,16.0115 76.178,16.0115 C76.3010006,16.0115 76.427416,15.9978335 76.55725,15.9705 C76.687084,15.9431665 76.8339992,15.8953337 76.998,15.827 L77.2235,17.795 C77.0594992,17.9043339 76.7793353,18.0068329 76.383,18.1025 C75.9866647,18.1981671 75.583502,18.246 75.1735,18.246 C74.4901632,18.246 73.9776684,18.0751684 73.636,17.7335 C73.2943316,17.3918316 73.1235,16.8110041 73.1235,15.991 L73.1235,3.65 L75.563,3.65 L75.563,14.679 Z"></path>
                    </g>
                </g>
            </g>
        </g>
    </g>
</svg>